<?xml version="1.0" encoding="UTF-8"?>
<svg xmlns="http://www.w3.org/2000/svg" xmlns:xlink="http://www.w3.org/1999/xlink" fill-opacity="1" color-rendering="auto" color-interpolation="auto" stroke="black" text-rendering="auto" stroke-linecap="square" width="894" stroke-miterlimit="10" stroke-opacity="1" shape-rendering="auto" fill="black" stroke-dasharray="none" font-weight="normal" stroke-width="1" height="1169" font-family="'Dialog'" font-style="normal" stroke-linejoin="miter" font-size="12" stroke-dashoffset="0" image-rendering="auto">
  <!--Generated by ySVG-->
  <defs id="genericDefs"/>
  <g>
    <defs id="defs1">
      <clipPath clipPathUnits="userSpaceOnUse" id="clipPath1">
        <path d="M0 0 L894 0 L894 1169 L0 1169 L0 0 Z"/>
      </clipPath>
      <clipPath clipPathUnits="userSpaceOnUse" id="clipPath2">
        <path d="M307 172 L1201 172 L1201 1341 L307 1341 L307 172 Z"/>
      </clipPath>
    </defs>
    <g fill="white" transform="translate(-307,-172)" stroke="white">
      <rect x="307" width="894" height="1169" y="172" clip-path="url(#clipPath2)" stroke="none"/>
    </g>
    <g fill="white" transform="matrix(1,0,0,1,-307,-172)" stroke="white">
      <rect x="845.7347" y="187.0555" clip-path="url(#clipPath2)" width="340" rx="4" ry="4" height="712" stroke="none"/>
    </g>
    <g stroke-miterlimit="1.45" font-family="sans-serif" transform="matrix(1,0,0,1,-307,-172)" stroke-linecap="butt">
      <text x="984.7796" xml:space="preserve" y="204.4579" clip-path="url(#clipPath2)" stroke="none">Responder</text>
    </g>
    <g stroke-dasharray="0,4" stroke-miterlimit="1.45" stroke-dashoffset="2" transform="matrix(1,0,0,1,-307,-172)" stroke-linecap="round">
      <rect x="845.7347" y="187.0555" clip-path="url(#clipPath2)" fill="none" width="340" rx="4" ry="4" height="712"/>
    </g>
    <g fill="white" transform="matrix(1,0,0,1,-307,-172)" stroke="white">
      <rect x="352.2653" y="187.0555" clip-path="url(#clipPath2)" width="340" rx="4" ry="4" height="712" stroke="none"/>
    </g>
    <g stroke-miterlimit="1.45" font-family="sans-serif" transform="matrix(1,0,0,1,-307,-172)" stroke-linecap="butt">
      <text x="499.402" xml:space="preserve" y="204.4579" clip-path="url(#clipPath2)" stroke="none">Initiator</text>
    </g>
    <g stroke-dasharray="0,4" stroke-miterlimit="1.45" stroke-dashoffset="2" transform="matrix(1,0,0,1,-307,-172)" stroke-linecap="round">
      <rect x="352.2653" y="187.0555" clip-path="url(#clipPath2)" fill="none" width="340" rx="4" ry="4" height="712"/>
    </g>
    <g fill="rgb(240,238,234)" transform="matrix(1,0,0,1,-307,-172)" stroke="rgb(240,238,234)">
      <rect x="373.932" width="298" height="393.4775" y="932.0094" clip-path="url(#clipPath2)" stroke="none"/>
    </g>
    <g font-size="13" stroke-miterlimit="1.45" font-family="sans-serif" transform="matrix(1,0,0,1,-307,-172)" stroke-linecap="butt">
      <text x="375.932" xml:space="preserve" y="946.3619" clip-path="url(#clipPath2)" stroke="none">libcharon/sa/ikev2/tasks/child_create.c</text>
      <rect fill="none" x="373.932" width="298" height="393.4775" y="932.0094" clip-path="url(#clipPath2)"/>
    </g>
    <g fill="rgb(240,238,234)" transform="matrix(1,0,0,1,-307,-172)" stroke="rgb(240,238,234)">
      <rect x="373.2653" width="298" height="380" y="216.1438" clip-path="url(#clipPath2)" stroke="none"/>
    </g>
    <g font-size="13" stroke-miterlimit="1.45" font-family="sans-serif" transform="matrix(1,0,0,1,-307,-172)" stroke-linecap="butt">
      <text x="375.2653" xml:space="preserve" y="230.4963" clip-path="url(#clipPath2)" stroke="none">libcharon/sa/ikev2/tasks/child_create.c</text>
      <rect fill="none" x="373.2653" width="298" height="380" y="216.1438" clip-path="url(#clipPath2)"/>
    </g>
    <g fill="silver" transform="matrix(1,0,0,1,-307,-172)" stroke="silver">
      <rect x="382.932" width="280" height="262" y="240.2688" clip-path="url(#clipPath2)" stroke="none"/>
    </g>
    <g font-size="13" stroke-miterlimit="1.45" font-family="sans-serif" transform="matrix(1,0,0,1,-307,-172)" stroke-linecap="butt">
      <text x="501.8292" xml:space="preserve" y="254.6213" clip-path="url(#clipPath2)" stroke="none">build_i</text>
      <rect fill="none" x="382.932" width="280" height="262" y="240.2688" clip-path="url(#clipPath2)"/>
    </g>
    <g fill="rgb(238,237,237)" transform="matrix(1,0,0,1,-307,-172)" stroke="rgb(238,237,237)">
      <rect x="392.932" width="260" height="30" y="313.4625" clip-path="url(#clipPath2)" stroke="none"/>
    </g>
    <g font-size="13" stroke-miterlimit="1.45" font-family="sans-serif" transform="matrix(1,0,0,1,-307,-172)" stroke-linecap="butt">
      <text x="450.0482" xml:space="preserve" y="333.2518" clip-path="url(#clipPath2)" stroke="none">config-&gt;get_proposals</text>
      <rect fill="none" x="392.932" width="260" height="30" y="313.4625" clip-path="url(#clipPath2)"/>
    </g>
    <g fill="rgb(238,237,237)" transform="matrix(1,0,0,1,-307,-172)" stroke="rgb(238,237,237)">
      <rect x="392.932" width="260" height="30" y="363.6438" clip-path="url(#clipPath2)" stroke="none"/>
    </g>
    <g font-size="13" stroke-miterlimit="1.45" font-family="sans-serif" transform="matrix(1,0,0,1,-307,-172)" stroke-linecap="butt">
      <text x="441.7137" xml:space="preserve" y="383.433" clip-path="url(#clipPath2)" stroke="none">allocate_spi(this) //kernel</text>
      <rect fill="none" x="392.932" width="260" height="30" y="363.6438" clip-path="url(#clipPath2)"/>
    </g>
    <g fill="rgb(238,237,237)" transform="matrix(1,0,0,1,-307,-172)" stroke="rgb(238,237,237)">
      <rect x="392.932" width="160" height="30" y="413.825" clip-path="url(#clipPath2)" stroke="none"/>
    </g>
    <g font-size="13" stroke-miterlimit="1.45" font-family="sans-serif" transform="matrix(1,0,0,1,-307,-172)" stroke-linecap="butt">
      <text x="410.471" xml:space="preserve" y="433.6143" clip-path="url(#clipPath2)" stroke="none">keymat-&gt;create_dh</text>
      <rect fill="none" x="392.932" width="160" height="30" y="413.825" clip-path="url(#clipPath2)"/>
    </g>
    <g fill="rgb(255,204,0)" transform="matrix(1,0,0,1,-307,-172)" stroke="rgb(255,204,0)">
      <rect x="552.932" width="100" height="30" y="413.825" clip-path="url(#clipPath2)" stroke="none"/>
    </g>
    <g font-size="13" stroke-miterlimit="1.45" font-family="sans-serif" transform="matrix(1,0,0,1,-307,-172)" stroke-linecap="butt">
      <text x="594.807" xml:space="preserve" y="433.6143" clip-path="url(#clipPath2)" stroke="none">dh</text>
      <rect fill="none" x="552.932" width="100" height="30" y="413.825" clip-path="url(#clipPath2)"/>
    </g>
    <g fill="white" transform="matrix(1,0,0,1,-307,-172)" stroke="white">
      <path d="M719 447.3833 L804 447.3833 L804 462.3833 L819 462.3833 L819 477.3833 L719 477.3833 Z" clip-path="url(#clipPath2)" stroke="none"/>
      <path d="M804 447.3833 L804 462.3833 L819 462.3833 Z" clip-path="url(#clipPath2)" fill-rule="evenodd" stroke="none"/>
    </g>
    <g stroke-linecap="butt" transform="matrix(1,0,0,1,-307,-172)" stroke-miterlimit="1.45">
      <path fill="none" d="M719 447.3833 L804 447.3833 L804 462.3833 L819 462.3833 L819 477.3833 L719 477.3833 Z" clip-path="url(#clipPath2)"/>
      <path fill="none" d="M804 447.3833 L804 462.3833 L819 462.3833 Z" fill-rule="evenodd" clip-path="url(#clipPath2)"/>
      <text x="744.5488" xml:space="preserve" y="466.8042" font-family="sans-serif" clip-path="url(#clipPath2)" stroke="none">PFS case</text>
    </g>
    <g fill="rgb(238,237,237)" transform="matrix(1,0,0,1,-307,-172)" stroke="rgb(238,237,237)">
      <rect x="392.932" width="260" height="30" y="464.0063" clip-path="url(#clipPath2)" stroke="none"/>
    </g>
    <g font-size="13" stroke-miterlimit="1.45" font-family="sans-serif" transform="matrix(1,0,0,1,-307,-172)" stroke-linecap="butt">
      <text x="475.7657" xml:space="preserve" y="483.7956" clip-path="url(#clipPath2)" stroke="none">build_payloads</text>
      <rect fill="none" x="392.932" width="260" height="30" y="464.0063" clip-path="url(#clipPath2)"/>
    </g>
    <g fill="silver" transform="matrix(1,0,0,1,-307,-172)" stroke="silver">
      <rect x="382.932" width="280" height="62" y="524.0063" clip-path="url(#clipPath2)" stroke="none"/>
    </g>
    <g font-size="13" stroke-miterlimit="1.45" font-family="sans-serif" transform="matrix(1,0,0,1,-307,-172)" stroke-linecap="butt">
      <text x="475.7657" xml:space="preserve" y="538.3588" clip-path="url(#clipPath2)" stroke="none">build_payloads</text>
      <rect fill="none" x="382.932" width="280" height="62" y="524.0063" clip-path="url(#clipPath2)"/>
    </g>
    <g fill="rgb(238,237,237)" transform="matrix(1,0,0,1,-307,-172)" stroke="rgb(238,237,237)">
      <rect x="392.932" width="160" height="30" y="548.5188" clip-path="url(#clipPath2)" stroke="none"/>
    </g>
    <g font-size="13" stroke-miterlimit="1.45" font-family="sans-serif" transform="matrix(1,0,0,1,-307,-172)" stroke-linecap="butt">
      <text x="399.9625" xml:space="preserve" y="568.308" clip-path="url(#clipPath2)" stroke="none">ke_pld_create_from_dh</text>
      <rect fill="none" x="392.932" width="160" height="30" y="548.5188" clip-path="url(#clipPath2)"/>
    </g>
    <g fill="rgb(255,204,0)" transform="matrix(1,0,0,1,-307,-172)" stroke="rgb(255,204,0)">
      <rect x="552.932" width="100" height="30" y="548.5188" clip-path="url(#clipPath2)" stroke="none"/>
    </g>
    <g font-size="13" stroke-miterlimit="1.45" font-family="sans-serif" transform="matrix(1,0,0,1,-307,-172)" stroke-linecap="butt">
      <text x="594.807" xml:space="preserve" y="568.308" clip-path="url(#clipPath2)" stroke="none">dh</text>
      <rect fill="none" x="552.932" width="100" height="30" y="548.5188" clip-path="url(#clipPath2)"/>
    </g>
    <g fill="rgb(238,237,237)" transform="matrix(1,0,0,1,-307,-172)" stroke="rgb(238,237,237)">
      <rect x="392.932" width="260" height="30" y="263.2813" clip-path="url(#clipPath2)" stroke="none"/>
    </g>
    <g font-size="13" stroke-miterlimit="1.45" font-family="sans-serif" transform="matrix(1,0,0,1,-307,-172)" stroke-linecap="butt">
      <text x="430.891" xml:space="preserve" y="283.0706" clip-path="url(#clipPath2)" stroke="none">config-&gt;get_traffic_selectors</text>
      <rect fill="none" x="392.932" width="260" height="30" y="263.2813" clip-path="url(#clipPath2)"/>
    </g>
    <g fill="white" transform="matrix(1,0,0,1,-307,-172)" stroke="white">
      <rect x="719" y="216.1438" clip-path="url(#clipPath2)" width="100" rx="4" ry="4" height="30" stroke="none"/>
    </g>
    <g stroke-miterlimit="1.45" font-family="sans-serif" transform="matrix(1,0,0,1,-307,-172)" stroke-linecap="butt">
      <text x="743.9746" xml:space="preserve" y="235.5647" clip-path="url(#clipPath2)" stroke="none">Message</text>
      <rect x="719" y="216.1438" clip-path="url(#clipPath2)" fill="none" width="100" stroke-dasharray="6,2" rx="4" ry="4" height="30"/>
    </g>
    <g fill="rgb(240,238,234)" transform="matrix(1,0,0,1,-307,-172)" stroke="rgb(240,238,234)">
      <rect x="866.7347" width="298" height="492" y="216.3833" clip-path="url(#clipPath2)" stroke="none"/>
    </g>
    <g font-size="13" stroke-miterlimit="1.45" font-family="sans-serif" transform="matrix(1,0,0,1,-307,-172)" stroke-linecap="butt">
      <text x="868.7347" xml:space="preserve" y="230.7359" clip-path="url(#clipPath2)" stroke="none">libcharon/sa/ikev2/tasks/child_create.c</text>
      <rect fill="none" x="866.7347" width="298" height="492" y="216.3833" clip-path="url(#clipPath2)"/>
    </g>
    <g fill="silver" transform="matrix(1,0,0,1,-307,-172)" stroke="silver">
      <rect x="876.4013" width="280" height="62" y="240.2813" clip-path="url(#clipPath2)" stroke="none"/>
    </g>
    <g font-size="13" stroke-miterlimit="1.45" font-family="sans-serif" transform="matrix(1,0,0,1,-307,-172)" stroke-linecap="butt">
      <text x="986.1707" xml:space="preserve" y="254.6338" clip-path="url(#clipPath2)" stroke="none">process_r</text>
      <rect fill="none" x="876.4013" width="280" height="62" y="240.2813" clip-path="url(#clipPath2)"/>
    </g>
    <g fill="rgb(238,237,237)" transform="matrix(1,0,0,1,-307,-172)" stroke="rgb(238,237,237)">
      <rect x="886.4013" width="260" height="30" y="263.2813" clip-path="url(#clipPath2)" stroke="none"/>
    </g>
    <g font-size="13" stroke-miterlimit="1.45" font-family="sans-serif" transform="matrix(1,0,0,1,-307,-172)" stroke-linecap="butt">
      <text x="929.0798" xml:space="preserve" y="283.0706" clip-path="url(#clipPath2)" stroke="none">process_payloads(message)</text>
      <rect fill="none" x="886.4013" width="260" height="30" y="263.2813" clip-path="url(#clipPath2)"/>
    </g>
    <g fill="silver" transform="matrix(1,0,0,1,-307,-172)" stroke="silver">
      <rect x="876.4013" width="280" height="154" y="318.2438" clip-path="url(#clipPath2)" stroke="none"/>
    </g>
    <g font-size="13" stroke-miterlimit="1.45" font-family="sans-serif" transform="matrix(1,0,0,1,-307,-172)" stroke-linecap="butt">
      <text x="960.8879" xml:space="preserve" y="332.5963" clip-path="url(#clipPath2)" stroke="none">process_payloads</text>
      <rect fill="none" x="876.4013" width="280" height="154" y="318.2438" clip-path="url(#clipPath2)"/>
    </g>
    <g fill="rgb(238,237,237)" transform="matrix(1,0,0,1,-307,-172)" stroke="rgb(238,237,237)">
      <rect x="885.7347" width="160" height="30" y="434.2188" clip-path="url(#clipPath2)" stroke="none"/>
    </g>
    <g font-size="13" stroke-miterlimit="1.45" font-family="sans-serif" transform="matrix(1,0,0,1,-307,-172)" stroke-linecap="butt">
      <text x="894.0887" xml:space="preserve" y="454.0081" clip-path="url(#clipPath2)" stroke="none">set_other_public_value</text>
      <rect fill="none" x="885.7347" width="160" height="30" y="434.2188" clip-path="url(#clipPath2)"/>
    </g>
    <g fill="rgb(255,204,0)" transform="matrix(1,0,0,1,-307,-172)" stroke="rgb(255,204,0)">
      <rect x="1045.7347" width="100" height="30" y="434.2188" clip-path="url(#clipPath2)" stroke="none"/>
    </g>
    <g font-size="13" stroke-miterlimit="1.45" font-family="sans-serif" transform="matrix(1,0,0,1,-307,-172)" stroke-linecap="butt">
      <text x="1087.6097" xml:space="preserve" y="454.0081" clip-path="url(#clipPath2)" stroke="none">dh</text>
      <rect fill="none" x="1045.7347" width="100" height="30" y="434.2188" clip-path="url(#clipPath2)"/>
    </g>
    <g fill="rgb(238,237,237)" transform="matrix(1,0,0,1,-307,-172)" stroke="rgb(238,237,237)">
      <rect x="885.7347" width="260" height="30" y="340.1438" clip-path="url(#clipPath2)" stroke="none"/>
    </g>
    <g font-size="13" stroke-miterlimit="1.45" font-family="sans-serif" transform="matrix(1,0,0,1,-307,-172)" stroke-linecap="butt">
      <text x="904.8887" xml:space="preserve" y="359.933" clip-path="url(#clipPath2)" stroke="none">get_dh_group_number(ke_payload)</text>
      <rect fill="none" x="885.7347" width="260" height="30" y="340.1438" clip-path="url(#clipPath2)"/>
    </g>
    <g fill="rgb(238,237,237)" transform="matrix(1,0,0,1,-307,-172)" stroke="rgb(238,237,237)">
      <rect x="885.7347" width="160" height="30" y="387.1813" clip-path="url(#clipPath2)" stroke="none"/>
    </g>
    <g font-size="13" stroke-miterlimit="1.45" font-family="sans-serif" transform="matrix(1,0,0,1,-307,-172)" stroke-linecap="butt">
      <text x="903.2737" xml:space="preserve" y="406.9706" clip-path="url(#clipPath2)" stroke="none">keymat-&gt;create_dh</text>
      <rect fill="none" x="885.7347" width="160" height="30" y="387.1813" clip-path="url(#clipPath2)"/>
    </g>
    <g fill="rgb(255,204,0)" transform="matrix(1,0,0,1,-307,-172)" stroke="rgb(255,204,0)">
      <rect x="1045.7347" width="100" height="30" y="387.1813" clip-path="url(#clipPath2)" stroke="none"/>
    </g>
    <g font-size="13" stroke-miterlimit="1.45" font-family="sans-serif" transform="matrix(1,0,0,1,-307,-172)" stroke-linecap="butt">
      <text x="1087.6097" xml:space="preserve" y="406.9706" clip-path="url(#clipPath2)" stroke="none">dh</text>
      <rect fill="none" x="1045.7347" width="100" height="30" y="387.1813" clip-path="url(#clipPath2)"/>
    </g>
    <g fill="silver" transform="matrix(1,0,0,1,-307,-172)" stroke="silver">
      <rect x="876.4013" width="280" height="116" y="502.6188" clip-path="url(#clipPath2)" stroke="none"/>
    </g>
    <g font-size="13" stroke-miterlimit="1.45" font-family="sans-serif" transform="matrix(1,0,0,1,-307,-172)" stroke-linecap="butt">
      <text x="994.5178" xml:space="preserve" y="516.9713" clip-path="url(#clipPath2)" stroke="none">build_r</text>
      <rect fill="none" x="876.4013" width="280" height="116" y="502.6188" clip-path="url(#clipPath2)"/>
    </g>
    <g fill="rgb(238,237,237)" transform="matrix(1,0,0,1,-307,-172)" stroke="rgb(238,237,237)">
      <rect x="886.4013" width="260" height="30" y="523.925" clip-path="url(#clipPath2)" stroke="none"/>
    </g>
    <g font-size="13" stroke-miterlimit="1.45" font-family="sans-serif" transform="matrix(1,0,0,1,-307,-172)" stroke-linecap="butt">
      <text x="960.9863" xml:space="preserve" y="543.7143" clip-path="url(#clipPath2)" stroke="none">select_and_install</text>
      <rect fill="none" x="886.4013" width="260" height="30" y="523.925" clip-path="url(#clipPath2)"/>
    </g>
    <g fill="rgb(240,238,234)" transform="matrix(1,0,0,1,-307,-172)" stroke="rgb(240,238,234)">
      <rect x="868.7347" width="298" height="142" y="953.1885" clip-path="url(#clipPath2)" stroke="none"/>
    </g>
    <g font-size="13" stroke-miterlimit="1.45" font-family="sans-serif" transform="matrix(1,0,0,1,-307,-172)" stroke-linecap="butt">
      <text x="870.7347" xml:space="preserve" y="967.541" clip-path="url(#clipPath2)" stroke="none">libcharon/sa/ikev2/keymat_v2.c</text>
      <rect fill="none" x="868.7347" width="298" height="142" y="953.1885" clip-path="url(#clipPath2)"/>
    </g>
    <g fill="silver" transform="matrix(1,0,0,1,-307,-172)" stroke="silver">
      <rect x="878.4013" width="280" height="107" y="977.3677" clip-path="url(#clipPath2)" stroke="none"/>
    </g>
    <g font-size="13" stroke-miterlimit="1.45" font-family="sans-serif" transform="matrix(1,0,0,1,-307,-172)" stroke-linecap="butt">
      <text x="963.3228" xml:space="preserve" y="991.7202" clip-path="url(#clipPath2)" stroke="none">derive_child_keys</text>
      <rect fill="none" x="878.4013" width="280" height="107" y="977.3677" clip-path="url(#clipPath2)"/>
    </g>
    <g fill="rgb(238,237,237)" transform="matrix(1,0,0,1,-307,-172)" stroke="rgb(238,237,237)">
      <rect x="888.4013" width="160" height="30" y="997.7635" clip-path="url(#clipPath2)" stroke="none"/>
    </g>
    <g font-size="13" stroke-miterlimit="1.45" font-family="sans-serif" transform="matrix(1,0,0,1,-307,-172)" stroke-linecap="butt">
      <text x="911.5105" xml:space="preserve" y="1017.5528" clip-path="url(#clipPath2)" stroke="none">get_shared_secret</text>
      <rect fill="none" x="888.4013" width="160" height="30" y="997.7635" clip-path="url(#clipPath2)"/>
    </g>
    <g fill="rgb(255,204,0)" transform="matrix(1,0,0,1,-307,-172)" stroke="rgb(255,204,0)">
      <rect x="1048.4013" width="100" height="30" y="997.7635" clip-path="url(#clipPath2)" stroke="none"/>
    </g>
    <g font-size="13" stroke-miterlimit="1.45" font-family="sans-serif" transform="matrix(1,0,0,1,-307,-172)" stroke-linecap="butt">
      <text x="1090.2764" xml:space="preserve" y="1017.5528" clip-path="url(#clipPath2)" stroke="none">dh</text>
      <rect fill="none" x="1048.4013" width="100" height="30" y="997.7635" clip-path="url(#clipPath2)"/>
    </g>
    <g fill="white" transform="matrix(1,0,0,1,-307,-172)" stroke="white">
      <path d="M888.4014 1041.051 L1133.4014 1041.051 L1133.4014 1056.051 L1148.4014 1056.051 L1148.4014 1073.3666 L888.4014 1073.3666 Z" clip-path="url(#clipPath2)" stroke="none"/>
      <path d="M1133.4014 1041.051 L1133.4014 1056.051 L1148.4014 1056.051 Z" clip-path="url(#clipPath2)" fill-rule="evenodd" stroke="none"/>
    </g>
    <g stroke-linecap="butt" transform="matrix(1,0,0,1,-307,-172)" stroke-miterlimit="1.45">
      <path fill="none" d="M888.4014 1041.051 L1133.4014 1041.051 L1133.4014 1056.051 L1148.4014 1056.051 L1148.4014 1073.3666 L888.4014 1073.3666 Z" clip-path="url(#clipPath2)"/>
      <path fill="none" d="M1133.4014 1041.051 L1133.4014 1056.051 L1148.4014 1056.051 Z" fill-rule="evenodd" clip-path="url(#clipPath2)"/>
      <text x="913.9463" xml:space="preserve" y="1061.6298" font-family="sans-serif" clip-path="url(#clipPath2)" stroke="none">derive integrity and encryption keys</text>
    </g>
    <g fill="white" transform="matrix(1,0,0,1,-307,-172)" stroke="white">
      <circle r="15" clip-path="url(#clipPath2)" cx="832.7347" cy="1030.8677" stroke="none"/>
    </g>
    <g stroke-miterlimit="1.45" font-family="sans-serif" transform="matrix(1,0,0,1,-307,-172)" stroke-linecap="butt">
      <text x="824.0892" xml:space="preserve" y="1035.2886" clip-path="url(#clipPath2)" stroke="none">DC</text>
      <circle fill="none" r="15" clip-path="url(#clipPath2)" cx="832.7347" cy="1030.8677"/>
    </g>
    <g fill="rgb(240,238,234)" transform="matrix(1,0,0,1,-307,-172)" stroke="rgb(240,238,234)">
      <rect x="868.068" width="298" height="94" y="1114.3677" clip-path="url(#clipPath2)" stroke="none"/>
    </g>
    <g font-size="13" stroke-miterlimit="1.45" font-family="sans-serif" transform="matrix(1,0,0,1,-307,-172)" stroke-linecap="butt">
      <text x="870.068" xml:space="preserve" y="1128.7202" clip-path="url(#clipPath2)" stroke="none">libcharon/sa/child_sa.c</text>
      <rect fill="none" x="868.068" width="298" height="94" y="1114.3677" clip-path="url(#clipPath2)"/>
    </g>
    <g fill="silver" transform="matrix(1,0,0,1,-307,-172)" stroke="silver">
      <rect x="877.7347" width="280" height="62" y="1138.4654" clip-path="url(#clipPath2)" stroke="none"/>
    </g>
    <g font-size="13" stroke-miterlimit="1.45" font-family="sans-serif" transform="matrix(1,0,0,1,-307,-172)" stroke-linecap="butt">
      <text x="998.7298" xml:space="preserve" y="1152.8179" clip-path="url(#clipPath2)" stroke="none">install</text>
      <rect fill="none" x="877.7347" width="280" height="62" y="1138.4654" clip-path="url(#clipPath2)"/>
    </g>
    <g fill="rgb(238,237,237)" transform="matrix(1,0,0,1,-307,-172)" stroke="rgb(238,237,237)">
      <rect x="887.7347" width="260" height="30" y="1161.4654" clip-path="url(#clipPath2)" stroke="none"/>
    </g>
    <g font-size="13" stroke-miterlimit="1.45" font-family="sans-serif" transform="matrix(1,0,0,1,-307,-172)" stroke-linecap="butt">
      <text x="909.7642" xml:space="preserve" y="1181.2546" clip-path="url(#clipPath2)" stroke="none">hydra-&gt;kernel_interface-&gt;add_sa</text>
      <rect fill="none" x="887.7347" width="260" height="30" y="1161.4654" clip-path="url(#clipPath2)"/>
    </g>
    <g fill="white" transform="matrix(1,0,0,1,-307,-172)" stroke="white">
      <circle r="15" clip-path="url(#clipPath2)" cx="832.7347" cy="1169.4654" stroke="none"/>
    </g>
    <g stroke-miterlimit="1.45" font-family="sans-serif" transform="matrix(1,0,0,1,-307,-172)" stroke-linecap="butt">
      <text x="827.7747" xml:space="preserve" y="1173.8862" clip-path="url(#clipPath2)" stroke="none">IS</text>
      <circle fill="none" r="15" clip-path="url(#clipPath2)" cx="832.7347" cy="1169.4654"/>
    </g>
    <g fill="rgb(240,238,234)" transform="matrix(1,0,0,1,-307,-172)" stroke="rgb(240,238,234)">
      <rect x="867.4013" width="298" height="94" y="1216.3447" clip-path="url(#clipPath2)" stroke="none"/>
    </g>
    <g font-size="13" stroke-miterlimit="1.45" font-family="sans-serif" transform="matrix(1,0,0,1,-307,-172)" stroke-linecap="butt">
      <text x="869.4014" xml:space="preserve" y="1230.6973" clip-path="url(#clipPath2)" stroke="none">libcharon/sa/child_sa.c</text>
      <rect fill="none" x="867.4013" width="298" height="94" y="1216.3447" clip-path="url(#clipPath2)"/>
    </g>
    <g fill="silver" transform="matrix(1,0,0,1,-307,-172)" stroke="silver">
      <rect x="877.068" width="280" height="62" y="1240.4425" clip-path="url(#clipPath2)" stroke="none"/>
    </g>
    <g font-size="13" stroke-miterlimit="1.45" font-family="sans-serif" transform="matrix(1,0,0,1,-307,-172)" stroke-linecap="butt">
      <text x="978.0616" xml:space="preserve" y="1254.795" clip-path="url(#clipPath2)" stroke="none">add_policies</text>
      <rect fill="none" x="877.068" width="280" height="62" y="1240.4425" clip-path="url(#clipPath2)"/>
    </g>
    <g fill="rgb(238,237,237)" transform="matrix(1,0,0,1,-307,-172)" stroke="rgb(238,237,237)">
      <rect x="887.068" width="260" height="30" y="1263.4425" clip-path="url(#clipPath2)" stroke="none"/>
    </g>
    <g font-size="13" stroke-miterlimit="1.45" font-family="sans-serif" transform="matrix(1,0,0,1,-307,-172)" stroke-linecap="butt">
      <text x="897.4337" xml:space="preserve" y="1283.2318" clip-path="url(#clipPath2)" stroke="none">hydra-&gt;kernel_interface-&gt;add_policy</text>
      <rect fill="none" x="887.068" width="260" height="30" y="1263.4425" clip-path="url(#clipPath2)"/>
    </g>
    <g fill="white" transform="matrix(1,0,0,1,-307,-172)" stroke="white">
      <circle r="15" clip-path="url(#clipPath2)" cx="832.068" cy="1271.4425" stroke="none"/>
    </g>
    <g stroke-miterlimit="1.45" font-family="sans-serif" transform="matrix(1,0,0,1,-307,-172)" stroke-linecap="butt">
      <text x="827.0231" xml:space="preserve" y="1275.8634" clip-path="url(#clipPath2)" stroke="none">IP</text>
      <circle fill="none" r="15" clip-path="url(#clipPath2)" cx="832.068" cy="1271.4425"/>
    </g>
    <g fill="silver" transform="matrix(1,0,0,1,-307,-172)" stroke="silver">
      <rect x="382.932" width="280" height="364" y="953.1885" clip-path="url(#clipPath2)" stroke="none"/>
    </g>
    <g font-size="13" stroke-miterlimit="1.45" font-family="sans-serif" transform="matrix(1,0,0,1,-307,-172)" stroke-linecap="butt">
      <text x="467.5169" xml:space="preserve" y="967.541" clip-path="url(#clipPath2)" stroke="none">select_and_install</text>
      <rect fill="none" x="382.932" width="280" height="364" y="953.1885" clip-path="url(#clipPath2)"/>
    </g>
    <g fill="rgb(238,237,237)" transform="matrix(1,0,0,1,-307,-172)" stroke="rgb(238,237,237)">
      <rect x="392.932" width="260" height="30" y="974.4947" clip-path="url(#clipPath2)" stroke="none"/>
    </g>
    <g font-size="13" stroke-miterlimit="1.45" font-family="sans-serif" transform="matrix(1,0,0,1,-307,-172)" stroke-linecap="butt">
      <text x="396.6041" xml:space="preserve" y="994.2841" clip-path="url(#clipPath2)" stroke="none">child_sa-&gt;set_state(CHILD_INSTALLING)</text>
      <rect fill="none" x="392.932" width="260" height="30" y="974.4947" clip-path="url(#clipPath2)"/>
    </g>
    <g fill="rgb(238,237,237)" transform="matrix(1,0,0,1,-307,-172)" stroke="rgb(238,237,237)">
      <rect x="392.932" width="160" height="30" y="1025.3885" clip-path="url(#clipPath2)" stroke="none"/>
    </g>
    <g font-size="13" stroke-miterlimit="1.45" font-family="sans-serif" transform="matrix(1,0,0,1,-307,-172)" stroke-linecap="butt">
      <text x="417.8534" xml:space="preserve" y="1045.1779" clip-path="url(#clipPath2)" stroke="none">derive_child_keys</text>
      <rect fill="none" x="392.932" width="160" height="30" y="1025.3885" clip-path="url(#clipPath2)"/>
    </g>
    <g fill="rgb(255,204,0)" transform="matrix(1,0,0,1,-307,-172)" stroke="rgb(255,204,0)">
      <rect x="552.932" width="100" height="30" y="1025.3885" clip-path="url(#clipPath2)" stroke="none"/>
    </g>
    <g font-size="13" stroke-miterlimit="1.45" font-family="sans-serif" transform="matrix(1,0,0,1,-307,-172)" stroke-linecap="butt">
      <text x="580.0265" xml:space="preserve" y="1045.1779" clip-path="url(#clipPath2)" stroke="none">keymat</text>
      <rect fill="none" x="552.932" width="100" height="30" y="1025.3885" clip-path="url(#clipPath2)"/>
    </g>
    <g fill="white" transform="matrix(1,0,0,1,-307,-172)" stroke="white">
      <circle r="15" clip-path="url(#clipPath2)" cx="707.932" cy="1040.3885" stroke="none"/>
    </g>
    <g stroke-miterlimit="1.45" font-family="sans-serif" transform="matrix(1,0,0,1,-307,-172)" stroke-linecap="butt">
      <text x="699.2865" xml:space="preserve" y="1044.8094" clip-path="url(#clipPath2)" stroke="none">DC</text>
      <circle fill="none" r="15" clip-path="url(#clipPath2)" cx="707.932" cy="1040.3885"/>
    </g>
    <g fill="rgb(238,237,237)" transform="matrix(1,0,0,1,-307,-172)" stroke="rgb(238,237,237)">
      <rect x="392.932" width="260" height="30" y="1076.2822" clip-path="url(#clipPath2)" stroke="none"/>
    </g>
    <g font-size="13" stroke-miterlimit="1.45" font-family="sans-serif" transform="matrix(1,0,0,1,-307,-172)" stroke-linecap="butt">
      <text x="447.9059" xml:space="preserve" y="1096.0715" clip-path="url(#clipPath2)" stroke="none">child_sa-&gt;install //SAD</text>
      <rect fill="none" x="392.932" width="260" height="30" y="1076.2822" clip-path="url(#clipPath2)"/>
    </g>
    <g fill="white" transform="matrix(1,0,0,1,-307,-172)" stroke="white">
      <circle r="15" clip-path="url(#clipPath2)" cx="707.932" cy="1091.2822" stroke="none"/>
    </g>
    <g stroke-miterlimit="1.45" font-family="sans-serif" transform="matrix(1,0,0,1,-307,-172)" stroke-linecap="butt">
      <text x="702.972" xml:space="preserve" y="1095.7031" clip-path="url(#clipPath2)" stroke="none">IS</text>
      <circle fill="none" r="15" clip-path="url(#clipPath2)" cx="707.932" cy="1091.2822"/>
    </g>
    <g fill="rgb(238,237,237)" transform="matrix(1,0,0,1,-307,-172)" stroke="rgb(238,237,237)">
      <rect x="392.932" width="260" height="30" y="1127.176" clip-path="url(#clipPath2)" stroke="none"/>
    </g>
    <g font-size="13" stroke-miterlimit="1.45" font-family="sans-serif" transform="matrix(1,0,0,1,-307,-172)" stroke-linecap="butt">
      <text x="447.2393" xml:space="preserve" y="1146.9653" clip-path="url(#clipPath2)" stroke="none">chunk_clear(&amp;integ_i) ...</text>
      <rect fill="none" x="392.932" width="260" height="30" y="1127.176" clip-path="url(#clipPath2)"/>
    </g>
    <g fill="rgb(238,237,237)" transform="matrix(1,0,0,1,-307,-172)" stroke="rgb(238,237,237)">
      <rect x="392.932" width="260" height="30" y="1178.0697" clip-path="url(#clipPath2)" stroke="none"/>
    </g>
    <g font-size="13" stroke-miterlimit="1.45" font-family="sans-serif" transform="matrix(1,0,0,1,-307,-172)" stroke-linecap="butt">
      <text x="428.7962" xml:space="preserve" y="1197.859" clip-path="url(#clipPath2)" stroke="none">child_sa-&gt;add_policies //SPD</text>
      <rect fill="none" x="392.932" width="260" height="30" y="1178.0697" clip-path="url(#clipPath2)"/>
    </g>
    <g fill="rgb(238,237,237)" transform="matrix(1,0,0,1,-307,-172)" stroke="rgb(238,237,237)">
      <rect x="392.932" width="260" height="30" y="1228.9635" clip-path="url(#clipPath2)" stroke="none"/>
    </g>
    <g font-size="13" stroke-miterlimit="1.45" font-family="sans-serif" transform="matrix(1,0,0,1,-307,-172)" stroke-linecap="butt">
      <text x="399.5843" xml:space="preserve" y="1248.7528" clip-path="url(#clipPath2)" stroke="none">child_sa-&gt;set_state(CHILD_INSTALLED)</text>
      <rect fill="none" x="392.932" width="260" height="30" y="1228.9635" clip-path="url(#clipPath2)"/>
    </g>
    <g fill="rgb(238,237,237)" transform="matrix(1,0,0,1,-307,-172)" stroke="rgb(238,237,237)">
      <rect x="392.932" width="260" height="30" y="1279.8572" clip-path="url(#clipPath2)" stroke="none"/>
    </g>
    <g font-size="13" stroke-miterlimit="1.45" font-family="sans-serif" transform="matrix(1,0,0,1,-307,-172)" stroke-linecap="butt">
      <text x="454.1646" xml:space="preserve" y="1299.6466" clip-path="url(#clipPath2)" stroke="none">ike_sa-&gt;add_child_sa</text>
      <rect fill="none" x="392.932" width="260" height="30" y="1279.8572" clip-path="url(#clipPath2)"/>
    </g>
    <g fill="white" transform="matrix(1,0,0,1,-307,-172)" stroke="white">
      <circle r="15" clip-path="url(#clipPath2)" cx="337.932" cy="1135.1885" stroke="none"/>
    </g>
    <g stroke-miterlimit="1.45" font-family="sans-serif" transform="matrix(1,0,0,1,-307,-172)" stroke-linecap="butt">
      <text x="332.972" xml:space="preserve" y="1139.6094" clip-path="url(#clipPath2)" stroke="none">SI</text>
      <circle fill="none" r="15" clip-path="url(#clipPath2)" cx="337.932" cy="1135.1885"/>
    </g>
    <g fill="white" transform="matrix(1,0,0,1,-307,-172)" stroke="white">
      <circle r="15" clip-path="url(#clipPath2)" cx="831.4013" cy="538.925" stroke="none"/>
    </g>
    <g stroke-miterlimit="1.45" font-family="sans-serif" transform="matrix(1,0,0,1,-307,-172)" stroke-linecap="butt">
      <text x="826.4414" xml:space="preserve" y="543.3459" clip-path="url(#clipPath2)" stroke="none">SI</text>
      <circle fill="none" r="15" clip-path="url(#clipPath2)" cx="831.4013" cy="538.925"/>
    </g>
    <g fill="rgb(238,237,237)" transform="matrix(1,0,0,1,-307,-172)" stroke="rgb(238,237,237)">
      <rect x="886.4013" width="260" height="30" y="576.7583" clip-path="url(#clipPath2)" stroke="none"/>
    </g>
    <g font-size="13" stroke-miterlimit="1.45" font-family="sans-serif" transform="matrix(1,0,0,1,-307,-172)" stroke-linecap="butt">
      <text x="969.2351" xml:space="preserve" y="596.5477" clip-path="url(#clipPath2)" stroke="none">build_payloads</text>
      <rect fill="none" x="886.4013" width="260" height="30" y="576.7583" clip-path="url(#clipPath2)"/>
    </g>
    <g fill="silver" transform="matrix(1,0,0,1,-307,-172)" stroke="silver">
      <rect x="876.4013" width="280" height="62" y="636.7583" clip-path="url(#clipPath2)" stroke="none"/>
    </g>
    <g font-size="13" stroke-miterlimit="1.45" font-family="sans-serif" transform="matrix(1,0,0,1,-307,-172)" stroke-linecap="butt">
      <text x="969.2351" xml:space="preserve" y="651.1109" clip-path="url(#clipPath2)" stroke="none">build_payloads</text>
      <rect fill="none" x="876.4013" width="280" height="62" y="636.7583" clip-path="url(#clipPath2)"/>
    </g>
    <g fill="rgb(238,237,237)" transform="matrix(1,0,0,1,-307,-172)" stroke="rgb(238,237,237)">
      <rect x="885.7347" width="160" height="30" y="661.2708" clip-path="url(#clipPath2)" stroke="none"/>
    </g>
    <g font-size="13" stroke-miterlimit="1.45" font-family="sans-serif" transform="matrix(1,0,0,1,-307,-172)" stroke-linecap="butt">
      <text x="892.7652" xml:space="preserve" y="681.0601" clip-path="url(#clipPath2)" stroke="none">ke_pld_create_from_dh</text>
      <rect fill="none" x="885.7347" width="160" height="30" y="661.2708" clip-path="url(#clipPath2)"/>
    </g>
    <g fill="rgb(255,204,0)" transform="matrix(1,0,0,1,-307,-172)" stroke="rgb(255,204,0)">
      <rect x="1045.7347" width="100" height="30" y="661.2708" clip-path="url(#clipPath2)" stroke="none"/>
    </g>
    <g font-size="13" stroke-miterlimit="1.45" font-family="sans-serif" transform="matrix(1,0,0,1,-307,-172)" stroke-linecap="butt">
      <text x="1087.6097" xml:space="preserve" y="681.0601" clip-path="url(#clipPath2)" stroke="none">dh</text>
      <rect fill="none" x="1045.7347" width="100" height="30" y="661.2708" clip-path="url(#clipPath2)"/>
    </g>
    <g fill="rgb(240,238,234)" transform="matrix(1,0,0,1,-307,-172)" stroke="rgb(240,238,234)">
      <rect x="373.2653" width="298" height="256" y="631.4854" clip-path="url(#clipPath2)" stroke="none"/>
    </g>
    <g font-size="13" stroke-miterlimit="1.45" font-family="sans-serif" transform="matrix(1,0,0,1,-307,-172)" stroke-linecap="butt">
      <text x="375.2653" xml:space="preserve" y="645.838" clip-path="url(#clipPath2)" stroke="none">libcharon/sa/ikev2/tasks/child_create.c</text>
      <rect fill="none" x="373.2653" width="298" height="256" y="631.4854" clip-path="url(#clipPath2)"/>
    </g>
    <g fill="silver" transform="matrix(1,0,0,1,-307,-172)" stroke="silver">
      <rect x="382.932" width="280" height="62" y="655.3833" clip-path="url(#clipPath2)" stroke="none"/>
    </g>
    <g font-size="13" stroke-miterlimit="1.45" font-family="sans-serif" transform="matrix(1,0,0,1,-307,-172)" stroke-linecap="butt">
      <text x="493.482" xml:space="preserve" y="669.7359" clip-path="url(#clipPath2)" stroke="none">process_i</text>
      <rect fill="none" x="382.932" width="280" height="62" y="655.3833" clip-path="url(#clipPath2)"/>
    </g>
    <g fill="rgb(238,237,237)" transform="matrix(1,0,0,1,-307,-172)" stroke="rgb(238,237,237)">
      <rect x="392.932" width="260" height="30" y="678.3833" clip-path="url(#clipPath2)" stroke="none"/>
    </g>
    <g font-size="13" stroke-miterlimit="1.45" font-family="sans-serif" transform="matrix(1,0,0,1,-307,-172)" stroke-linecap="butt">
      <text x="435.6104" xml:space="preserve" y="698.1727" clip-path="url(#clipPath2)" stroke="none">process_payloads(message)</text>
      <rect fill="none" x="392.932" width="260" height="30" y="678.3833" clip-path="url(#clipPath2)"/>
    </g>
    <g fill="silver" transform="matrix(1,0,0,1,-307,-172)" stroke="silver">
      <rect x="382.932" width="280" height="62" y="732.8458" clip-path="url(#clipPath2)" stroke="none"/>
    </g>
    <g font-size="13" stroke-miterlimit="1.45" font-family="sans-serif" transform="matrix(1,0,0,1,-307,-172)" stroke-linecap="butt">
      <text x="467.4185" xml:space="preserve" y="747.1984" clip-path="url(#clipPath2)" stroke="none">process_payloads</text>
      <rect fill="none" x="382.932" width="280" height="62" y="732.8458" clip-path="url(#clipPath2)"/>
    </g>
    <g fill="rgb(238,237,237)" transform="matrix(1,0,0,1,-307,-172)" stroke="rgb(238,237,237)">
      <rect x="392.2653" width="160" height="30" y="758.0708" clip-path="url(#clipPath2)" stroke="none"/>
    </g>
    <g font-size="13" stroke-miterlimit="1.45" font-family="sans-serif" transform="matrix(1,0,0,1,-307,-172)" stroke-linecap="butt">
      <text x="400.6193" xml:space="preserve" y="777.8602" clip-path="url(#clipPath2)" stroke="none">set_other_public_value</text>
      <rect fill="none" x="392.2653" width="160" height="30" y="758.0708" clip-path="url(#clipPath2)"/>
    </g>
    <g fill="rgb(255,204,0)" transform="matrix(1,0,0,1,-307,-172)" stroke="rgb(255,204,0)">
      <rect x="552.2653" width="100" height="30" y="758.0708" clip-path="url(#clipPath2)" stroke="none"/>
    </g>
    <g font-size="13" stroke-miterlimit="1.45" font-family="sans-serif" transform="matrix(1,0,0,1,-307,-172)" stroke-linecap="butt">
      <text x="594.1403" xml:space="preserve" y="777.8602" clip-path="url(#clipPath2)" stroke="none">dh</text>
      <rect fill="none" x="552.2653" width="100" height="30" y="758.0708" clip-path="url(#clipPath2)"/>
    </g>
    <g fill="silver" transform="matrix(1,0,0,1,-307,-172)" stroke="silver">
      <rect x="382.932" width="280" height="62" y="818.0708" clip-path="url(#clipPath2)" stroke="none"/>
    </g>
    <g font-size="13" stroke-miterlimit="1.45" font-family="sans-serif" transform="matrix(1,0,0,1,-307,-172)" stroke-linecap="butt">
      <text x="493.482" xml:space="preserve" y="832.4234" clip-path="url(#clipPath2)" stroke="none">process_i</text>
      <rect fill="none" x="382.932" width="280" height="62" y="818.0708" clip-path="url(#clipPath2)"/>
    </g>
    <g fill="rgb(238,237,237)" transform="matrix(1,0,0,1,-307,-172)" stroke="rgb(238,237,237)">
      <rect x="392.932" width="260" height="30" y="839.2521" clip-path="url(#clipPath2)" stroke="none"/>
    </g>
    <g font-size="13" stroke-miterlimit="1.45" font-family="sans-serif" transform="matrix(1,0,0,1,-307,-172)" stroke-linecap="butt">
      <text x="467.5169" xml:space="preserve" y="859.0414" clip-path="url(#clipPath2)" stroke="none">select_and_install</text>
      <rect fill="none" x="392.932" width="260" height="30" y="839.2521" clip-path="url(#clipPath2)"/>
    </g>
    <g fill="white" transform="matrix(1,0,0,1,-307,-172)" stroke="white">
      <circle r="15" clip-path="url(#clipPath2)" cx="337.932" cy="854.2521" stroke="none"/>
    </g>
    <g stroke-miterlimit="1.45" font-family="sans-serif" transform="matrix(1,0,0,1,-307,-172)" stroke-linecap="butt">
      <text x="332.972" xml:space="preserve" y="858.673" clip-path="url(#clipPath2)" stroke="none">SI</text>
      <circle fill="none" r="15" clip-path="url(#clipPath2)" cx="337.932" cy="854.2521"/>
    </g>
    <g fill="white" transform="matrix(1,0,0,1,-307,-172)" stroke="white">
      <rect x="719" y="661.2708" clip-path="url(#clipPath2)" width="100" rx="4" ry="4" height="30" stroke="none"/>
    </g>
    <g stroke-miterlimit="1.45" font-family="sans-serif" transform="matrix(1,0,0,1,-307,-172)" stroke-linecap="butt">
      <text x="743.9746" xml:space="preserve" y="680.6917" clip-path="url(#clipPath2)" stroke="none">Message</text>
      <rect x="719" y="661.2708" clip-path="url(#clipPath2)" fill="none" width="100" stroke-dasharray="6,2" rx="4" ry="4" height="30"/>
    </g>
    <g fill="white" transform="matrix(1,0,0,1,-307,-172)" stroke="white">
      <circle r="15" clip-path="url(#clipPath2)" cx="707.932" cy="1193.0697" stroke="none"/>
    </g>
    <g stroke-miterlimit="1.45" font-family="sans-serif" transform="matrix(1,0,0,1,-307,-172)" stroke-linecap="butt">
      <text x="702.8871" xml:space="preserve" y="1197.4906" clip-path="url(#clipPath2)" stroke="none">IP</text>
      <circle fill="none" r="15" clip-path="url(#clipPath2)" cx="707.932" cy="1193.0697"/>
      <path fill="none" d="M522.932 343.4625 L522.932 355.6437" clip-path="url(#clipPath2)"/>
      <path d="M522.932 363.6437 L527.932 351.6437 L522.932 354.6437 L517.932 351.6437 Z" clip-path="url(#clipPath2)" stroke="none"/>
      <path fill="none" d="M522.932 393.6437 L522.932 405.8203" clip-path="url(#clipPath2)"/>
      <path d="M522.932 413.8203 L527.932 401.8203 L522.932 404.8203 L517.932 401.8203 Z" clip-path="url(#clipPath2)" stroke="none"/>
      <path fill="none" d="M522.932 443.8516 L522.932 456.0063" clip-path="url(#clipPath2)"/>
      <path d="M522.932 464.0063 L527.932 452.0063 L522.932 455.0063 L517.932 452.0063 Z" clip-path="url(#clipPath2)" stroke="none"/>
      <path fill="none" d="M522.932 502.2687 L522.932 516.0062" clip-path="url(#clipPath2)"/>
      <path d="M522.932 524.0062 L527.932 512.0062 L522.932 515.0062 L517.932 512.0062 Z" clip-path="url(#clipPath2)" stroke="none"/>
      <path fill="none" d="M522.932 293.2812 L522.932 305.4625" clip-path="url(#clipPath2)"/>
      <path d="M522.932 313.4625 L527.932 301.4625 L522.932 304.4625 L517.932 301.4625 Z" clip-path="url(#clipPath2)" stroke="none"/>
      <path fill="none" stroke-dasharray="6,2" d="M671.2726 231.1438 L719.0388 231.1438" clip-path="url(#clipPath2)"/>
      <path fill="none" stroke-dasharray="6,2" d="M818.9651 231.1438 L858.6883 231.1438" clip-path="url(#clipPath2)"/>
      <path stroke-dasharray="6,2" d="M866.6883 231.1438 L854.6883 226.1438 L857.6883 231.1438 L854.6883 236.1438 Z" clip-path="url(#clipPath2)" stroke="none"/>
      <path fill="none" d="M1016.4014 293.2812 L1016.4014 310.2437" clip-path="url(#clipPath2)"/>
      <path d="M1016.4014 318.2437 L1021.4014 306.2437 L1016.4014 309.2437 L1011.4014 306.2437 Z" clip-path="url(#clipPath2)" stroke="none"/>
      <path fill="none" d="M1015.7347 370.1437 L1015.7347 379.1807" clip-path="url(#clipPath2)"/>
      <path d="M1015.7347 387.1807 L1020.7347 375.1807 L1015.7347 378.1807 L1010.7347 375.1807 Z" clip-path="url(#clipPath2)" stroke="none"/>
      <path fill="none" d="M1017.3223 417.2062 L1017.3223 426.2159" clip-path="url(#clipPath2)"/>
      <path d="M1017.3223 434.2159 L1022.3223 422.2159 L1017.3223 425.2159 L1012.3223 422.2159 Z" clip-path="url(#clipPath2)" stroke="none"/>
      <path fill="none" stroke-dasharray="6,2" d="M1017.4044 472.2437 L1017.5728 485.1696 L1017.426 494.6197" clip-path="url(#clipPath2)"/>
      <path stroke-dasharray="6,2" d="M1017.3018 502.6187 L1022.4875 490.6978 L1017.4415 493.6198 L1012.4887 490.5426 Z" clip-path="url(#clipPath2)" stroke="none"/>
      <text x="1021.6476" xml:space="preserve" y="493.7526" clip-path="url(#clipPath2)" stroke="none">NEED_MORE</text>
      <path fill="none" d="M847.7347 1030.8677 L870.4014 1030.8677" clip-path="url(#clipPath2)"/>
      <path d="M878.4014 1030.8677 L866.4014 1025.8677 L869.4014 1030.8677 L866.4014 1035.8677 Z" clip-path="url(#clipPath2)" stroke="none"/>
      <path fill="none" d="M847.7347 1169.4653 L869.7347 1169.4653" clip-path="url(#clipPath2)"/>
      <path d="M877.7347 1169.4653 L865.7347 1164.4653 L868.7347 1169.4653 L865.7347 1174.4653 Z" clip-path="url(#clipPath2)" stroke="none"/>
      <path fill="none" d="M847.068 1271.4425 L869.068 1271.4425" clip-path="url(#clipPath2)"/>
      <path d="M877.068 1271.4425 L865.068 1266.4425 L868.068 1271.4425 L865.068 1276.4425 Z" clip-path="url(#clipPath2)" stroke="none"/>
      <path fill="none" d="M522.932 1004.4948 L522.932 1017.3846" clip-path="url(#clipPath2)"/>
      <path d="M522.932 1025.3845 L527.932 1013.3845 L522.932 1016.3845 L517.932 1013.3845 Z" clip-path="url(#clipPath2)" stroke="none"/>
      <path fill="none" d="M652.932 1040.3885 L684.932 1040.3885" clip-path="url(#clipPath2)"/>
      <path d="M692.932 1040.3885 L680.932 1035.3885 L683.932 1040.3885 L680.932 1045.3885 Z" clip-path="url(#clipPath2)" stroke="none"/>
      <path fill="none" d="M522.932 1055.4198 L522.932 1068.2822" clip-path="url(#clipPath2)"/>
      <path d="M522.932 1076.2822 L527.932 1064.2822 L522.932 1067.2822 L517.932 1064.2822 Z" clip-path="url(#clipPath2)" stroke="none"/>
      <path fill="none" d="M652.932 1091.2822 L684.932 1091.2822" clip-path="url(#clipPath2)"/>
      <path d="M692.932 1091.2822 L680.932 1086.2822 L683.932 1091.2822 L680.932 1096.2822 Z" clip-path="url(#clipPath2)" stroke="none"/>
      <path fill="none" d="M522.932 1106.2822 L522.932 1119.176" clip-path="url(#clipPath2)"/>
      <path d="M522.932 1127.176 L527.932 1115.176 L522.932 1118.176 L517.932 1115.176 Z" clip-path="url(#clipPath2)" stroke="none"/>
      <path fill="none" d="M522.932 1157.176 L522.932 1170.0697" clip-path="url(#clipPath2)"/>
      <path d="M522.932 1178.0697 L527.932 1166.0697 L522.932 1169.0697 L517.932 1166.0697 Z" clip-path="url(#clipPath2)" stroke="none"/>
      <path fill="none" d="M522.932 1208.0697 L522.932 1220.9635" clip-path="url(#clipPath2)"/>
      <path d="M522.932 1228.9635 L527.932 1216.9635 L522.932 1219.9635 L517.932 1216.9635 Z" clip-path="url(#clipPath2)" stroke="none"/>
      <path fill="none" d="M522.932 1258.9635 L522.932 1271.8573" clip-path="url(#clipPath2)"/>
      <path d="M522.932 1279.8573 L527.932 1267.8573 L522.932 1270.8573 L517.932 1267.8573 Z" clip-path="url(#clipPath2)" stroke="none"/>
      <path fill="none" d="M352.932 1135.1885 L374.932 1135.1885" clip-path="url(#clipPath2)"/>
      <path d="M382.932 1135.1885 L370.932 1130.1885 L373.932 1135.1885 L370.932 1140.1885 Z" clip-path="url(#clipPath2)" stroke="none"/>
      <path fill="none" d="M886.4014 538.925 L854.4014 538.925" clip-path="url(#clipPath2)"/>
      <path d="M846.4014 538.925 L858.4014 543.925 L855.4014 538.925 L858.4014 533.925 Z" clip-path="url(#clipPath2)" stroke="none"/>
      <path fill="none" d="M1016.4014 553.925 L1016.4014 568.7584" clip-path="url(#clipPath2)"/>
      <path d="M1016.4014 576.7584 L1021.4014 564.7584 L1016.4014 567.7584 L1011.4014 564.7584 Z" clip-path="url(#clipPath2)" stroke="none"/>
      <path fill="none" d="M1016.4014 606.7584 L1016.4014 628.7584" clip-path="url(#clipPath2)"/>
      <path d="M1016.4014 636.7584 L1021.4014 624.7584 L1016.4014 627.7584 L1011.4014 624.7584 Z" clip-path="url(#clipPath2)" stroke="none"/>
      <path fill="none" stroke-dasharray="6,2" d="M522.2653 596.1437 L522.2653 623.4854" clip-path="url(#clipPath2)"/>
      <path stroke-dasharray="6,2" d="M522.2653 631.4854 L527.2653 619.4854 L522.2653 622.4854 L517.2653 619.4854 Z" clip-path="url(#clipPath2)" stroke="none"/>
      <text x="526.2653" xml:space="preserve" y="618.2355" clip-path="url(#clipPath2)" stroke="none">NEED_MORE</text>
      <path fill="none" d="M522.932 708.3834 L522.932 724.8458" clip-path="url(#clipPath2)"/>
      <path d="M522.932 732.8458 L527.932 720.8458 L522.932 723.8458 L517.932 720.8458 Z" clip-path="url(#clipPath2)" stroke="none"/>
      <path fill="none" d="M522.932 794.8458 L522.932 810.0709" clip-path="url(#clipPath2)"/>
      <path d="M522.932 818.0709 L527.932 806.0709 L522.932 809.0709 L517.932 806.0709 Z" clip-path="url(#clipPath2)" stroke="none"/>
      <path fill="none" d="M392.932 854.2521 L360.932 854.2521" clip-path="url(#clipPath2)"/>
      <path d="M352.932 854.2521 L364.932 859.2521 L361.932 854.2521 L364.932 849.2521 Z" clip-path="url(#clipPath2)" stroke="none"/>
      <path fill="none" stroke-dasharray="6,2" d="M866.7324 676.2708 L818.9637 676.2708" clip-path="url(#clipPath2)"/>
      <path fill="none" stroke-dasharray="6,2" d="M719.0166 676.2708 L679.2759 676.2708" clip-path="url(#clipPath2)"/>
      <path stroke-dasharray="6,2" d="M671.2759 676.2708 L683.2759 681.2708 L680.2759 676.2708 L683.2759 671.2708 Z" clip-path="url(#clipPath2)" stroke="none"/>
      <path fill="none" d="M652.932 1193.0697 L684.932 1193.0697" clip-path="url(#clipPath2)"/>
      <path d="M692.932 1193.0697 L680.932 1188.0697 L683.932 1193.0697 L680.932 1198.0697 Z" clip-path="url(#clipPath2)" stroke="none"/>
    </g>
  </g>
</svg>
