<?xml version="1.0" encoding="UTF-8"?><svg xmlns="http://www.w3.org/2000/svg" xmlns:xlink="http://www.w3.org/1999/xlink" fill-opacity="1" color-rendering="auto" color-interpolation="auto" stroke="black" text-rendering="auto" stroke-linecap="square" width="894" stroke-miterlimit="10" stroke-opacity="1" shape-rendering="auto" fill="black" stroke-dasharray="none" font-weight="normal" stroke-width="1" height="1016" font-family="'Dialog'" font-style="normal" stroke-linejoin="miter" font-size="12" stroke-dashoffset="0" image-rendering="auto">
  <!--Generated by ySVG-->
  <defs id="genericDefs"/>
  <g>
    <defs id="defs1">
      <clipPath clipPathUnits="userSpaceOnUse" id="clipPath1">
        <path d="M0 0 L894 0 L894 1016 L0 1016 L0 0 Z"/>
      </clipPath>
      <clipPath clipPathUnits="userSpaceOnUse" id="clipPath2">
        <path d="M307 172 L1201 172 L1201 1188 L307 1188 L307 172 Z"/>
      </clipPath>
    </defs>
    <g fill="white" transform="translate(-307,-172)" stroke="white">
      <rect x="307" width="894" height="1016" y="172" clip-path="url(#clipPath2)" stroke="none"/>
    </g>
    <g fill="white" transform="matrix(1,0,0,1,-307,-172)" stroke="white">
      <rect x="845.7347" y="187.0555" clip-path="url(#clipPath2)" width="340" rx="4" ry="4" height="571.396" stroke="none"/>
    </g>
    <g stroke-miterlimit="1.45" font-family="sans-serif" transform="matrix(1,0,0,1,-307,-172)" stroke-linecap="butt">
      <text x="983.4993" xml:space="preserve" y="204.1942" clip-path="url(#clipPath2)" stroke="none">Responder</text>
    </g>
    <g stroke-dasharray="0,4" stroke-miterlimit="1.45" stroke-dashoffset="2" transform="matrix(1,0,0,1,-307,-172)" stroke-linecap="round">
      <rect x="845.7347" y="187.0555" clip-path="url(#clipPath2)" fill="none" width="340" rx="4" ry="4" height="571.396"/>
    </g>
    <g fill="white" transform="matrix(1,0,0,1,-307,-172)" stroke="white">
      <rect x="352.2653" y="187.0555" clip-path="url(#clipPath2)" width="340" rx="4" ry="4" height="571.396" stroke="none"/>
    </g>
    <g stroke-miterlimit="1.45" font-family="sans-serif" transform="matrix(1,0,0,1,-307,-172)" stroke-linecap="butt">
      <text x="498.8395" xml:space="preserve" y="204.1942" clip-path="url(#clipPath2)" stroke="none">Initiator</text>
    </g>
    <g stroke-dasharray="0,4" stroke-miterlimit="1.45" stroke-dashoffset="2" transform="matrix(1,0,0,1,-307,-172)" stroke-linecap="round">
      <rect x="352.2653" y="187.0555" clip-path="url(#clipPath2)" fill="none" width="340" rx="4" ry="4" height="571.396"/>
    </g>
    <g fill="rgb(240,238,234)" transform="matrix(1,0,0,1,-307,-172)" stroke="rgb(240,238,234)">
      <rect x="373.932" width="298" height="393.4775" y="778.5467" clip-path="url(#clipPath2)" stroke="none"/>
    </g>
    <g font-size="13" stroke-miterlimit="1.45" font-family="sans-serif" transform="matrix(1,0,0,1,-307,-172)" stroke-linecap="butt">
      <text x="375.932" xml:space="preserve" y="792.6136" clip-path="url(#clipPath2)" stroke="none">libcharon/sa/ikev2/tasks/child_create.c</text>
      <rect fill="none" x="373.932" width="298" height="393.4775" y="778.5467" clip-path="url(#clipPath2)"/>
    </g>
    <g fill="rgb(240,238,234)" transform="matrix(1,0,0,1,-307,-172)" stroke="rgb(240,238,234)">
      <rect x="373.2653" width="298" height="532.403" y="216.1438" clip-path="url(#clipPath2)" stroke="none"/>
    </g>
    <g font-size="13" stroke-miterlimit="1.45" font-family="sans-serif" transform="matrix(1,0,0,1,-307,-172)" stroke-linecap="butt">
      <text x="375.2653" xml:space="preserve" y="230.2106" clip-path="url(#clipPath2)" stroke="none">libcharon/sa/ikev2/tasks/child_create.c</text>
      <rect fill="none" x="373.2653" width="298" height="532.403" y="216.1438" clip-path="url(#clipPath2)"/>
    </g>
    <g fill="silver" transform="matrix(1,0,0,1,-307,-172)" stroke="silver">
      <rect x="382.932" width="280" height="159.73" y="240.2813" clip-path="url(#clipPath2)" stroke="none"/>
    </g>
    <g font-size="13" stroke-miterlimit="1.45" font-family="sans-serif" transform="matrix(1,0,0,1,-307,-172)" stroke-linecap="butt">
      <text x="501.8927" xml:space="preserve" y="254.3481" clip-path="url(#clipPath2)" stroke="none">build_i</text>
      <rect fill="none" x="382.932" width="280" height="159.73" y="240.2813" clip-path="url(#clipPath2)"/>
    </g>
    <g fill="rgb(238,237,237)" transform="matrix(1,0,0,1,-307,-172)" stroke="rgb(238,237,237)">
      <rect x="392.932" width="260" height="30" y="262.3695" clip-path="url(#clipPath2)" stroke="none"/>
    </g>
    <g font-size="13" stroke-miterlimit="1.45" font-family="sans-serif" transform="matrix(1,0,0,1,-307,-172)" stroke-linecap="butt">
      <text x="440.9488" xml:space="preserve" y="281.87" clip-path="url(#clipPath2)" stroke="none">allocate_spi(this) //kernel</text>
      <rect fill="none" x="392.932" width="260" height="30" y="262.3695" clip-path="url(#clipPath2)"/>
    </g>
    <g fill="rgb(238,237,237)" transform="matrix(1,0,0,1,-307,-172)" stroke="rgb(238,237,237)">
      <rect x="392.932" width="160" height="30" y="312.5508" clip-path="url(#clipPath2)" stroke="none"/>
    </g>
    <g font-size="13" stroke-miterlimit="1.45" font-family="sans-serif" transform="matrix(1,0,0,1,-307,-172)" stroke-linecap="butt">
      <text x="408.3954" xml:space="preserve" y="332.0513" clip-path="url(#clipPath2)" stroke="none">keymat-&gt;create_dh</text>
      <rect fill="none" x="392.932" width="160" height="30" y="312.5508" clip-path="url(#clipPath2)"/>
    </g>
    <g fill="rgb(255,204,0)" transform="matrix(1,0,0,1,-307,-172)" stroke="rgb(255,204,0)">
      <rect x="552.932" width="100" height="30" y="312.5508" clip-path="url(#clipPath2)" stroke="none"/>
    </g>
    <g font-size="13" stroke-miterlimit="1.45" font-family="sans-serif" transform="matrix(1,0,0,1,-307,-172)" stroke-linecap="butt">
      <text x="594.6864" xml:space="preserve" y="332.0513" clip-path="url(#clipPath2)" stroke="none">dh</text>
      <rect fill="none" x="552.932" width="100" height="30" y="312.5508" clip-path="url(#clipPath2)"/>
    </g>
    <g fill="white" transform="matrix(1,0,0,1,-307,-172)" stroke="white">
      <path d="M719 447.3833 L804 447.3833 L804 462.3833 L819 462.3833 L819 477.3833 L719 477.3833 Z" clip-path="url(#clipPath2)" stroke="none"/>
      <path d="M804 447.3833 L804 462.3833 L819 462.3833 Z" clip-path="url(#clipPath2)" fill-rule="evenodd" stroke="none"/>
    </g>
    <g stroke-linecap="butt" transform="matrix(1,0,0,1,-307,-172)" stroke-miterlimit="1.45">
      <path fill="none" d="M719 447.3833 L804 447.3833 L804 462.3833 L819 462.3833 L819 477.3833 L719 477.3833 Z" clip-path="url(#clipPath2)"/>
      <path fill="none" d="M804 447.3833 L804 462.3833 L819 462.3833 Z" fill-rule="evenodd" clip-path="url(#clipPath2)"/>
      <text x="742.4219" xml:space="preserve" y="466.5376" font-family="sans-serif" clip-path="url(#clipPath2)" stroke="none">PFS case</text>
    </g>
    <g fill="rgb(238,237,237)" transform="matrix(1,0,0,1,-307,-172)" stroke="rgb(238,237,237)">
      <rect x="392.932" width="260" height="30" y="362.732" clip-path="url(#clipPath2)" stroke="none"/>
    </g>
    <g font-size="13" stroke-miterlimit="1.45" font-family="sans-serif" transform="matrix(1,0,0,1,-307,-172)" stroke-linecap="butt">
      <text x="474.4644" xml:space="preserve" y="382.2325" clip-path="url(#clipPath2)" stroke="none">build_payloads</text>
      <rect fill="none" x="392.932" width="260" height="30" y="362.732" clip-path="url(#clipPath2)"/>
    </g>
    <g fill="silver" transform="matrix(1,0,0,1,-307,-172)" stroke="silver">
      <rect x="382.932" width="280" height="62" y="422.732" clip-path="url(#clipPath2)" stroke="none"/>
    </g>
    <g font-size="13" stroke-miterlimit="1.45" font-family="sans-serif" transform="matrix(1,0,0,1,-307,-172)" stroke-linecap="butt">
      <text x="474.4644" xml:space="preserve" y="436.7989" clip-path="url(#clipPath2)" stroke="none">build_payloads</text>
      <rect fill="none" x="382.932" width="280" height="62" y="422.732" clip-path="url(#clipPath2)"/>
    </g>
    <g fill="rgb(238,237,237)" transform="matrix(1,0,0,1,-307,-172)" stroke="rgb(238,237,237)">
      <rect x="392.932" width="160" height="30" y="447.2445" clip-path="url(#clipPath2)" stroke="none"/>
    </g>
    <g font-size="13" stroke-miterlimit="1.45" font-family="sans-serif" transform="matrix(1,0,0,1,-307,-172)" stroke-linecap="butt">
      <text x="397.8202" xml:space="preserve" y="466.745" clip-path="url(#clipPath2)" stroke="none">ke_pld_create_from_dh</text>
      <rect fill="none" x="392.932" width="160" height="30" y="447.2445" clip-path="url(#clipPath2)"/>
    </g>
    <g fill="rgb(255,204,0)" transform="matrix(1,0,0,1,-307,-172)" stroke="rgb(255,204,0)">
      <rect x="552.932" width="100" height="30" y="447.2445" clip-path="url(#clipPath2)" stroke="none"/>
    </g>
    <g font-size="13" stroke-miterlimit="1.45" font-family="sans-serif" transform="matrix(1,0,0,1,-307,-172)" stroke-linecap="butt">
      <text x="594.6864" xml:space="preserve" y="466.745" clip-path="url(#clipPath2)" stroke="none">dh</text>
      <rect fill="none" x="552.932" width="100" height="30" y="447.2445" clip-path="url(#clipPath2)"/>
    </g>
    <g fill="white" transform="matrix(1,0,0,1,-307,-172)" stroke="white">
      <rect x="719" y="222.1597" clip-path="url(#clipPath2)" width="100" rx="4" ry="4" height="30" stroke="none"/>
    </g>
    <g stroke-miterlimit="1.45" font-family="sans-serif" transform="matrix(1,0,0,1,-307,-172)" stroke-linecap="butt">
      <text x="742.7031" xml:space="preserve" y="241.3139" clip-path="url(#clipPath2)" stroke="none">Message</text>
      <rect x="719" y="222.1597" clip-path="url(#clipPath2)" fill="none" width="100" stroke-dasharray="6,2" rx="4" ry="4" height="30"/>
    </g>
    <g fill="rgb(240,238,234)" transform="matrix(1,0,0,1,-307,-172)" stroke="rgb(240,238,234)">
      <rect x="866.7347" width="298" height="532.1634" y="216.3833" clip-path="url(#clipPath2)" stroke="none"/>
    </g>
    <g font-size="13" stroke-miterlimit="1.45" font-family="sans-serif" transform="matrix(1,0,0,1,-307,-172)" stroke-linecap="butt">
      <text x="868.7347" xml:space="preserve" y="230.4502" clip-path="url(#clipPath2)" stroke="none">libcharon/sa/ikev2/tasks/child_create.c</text>
      <rect fill="none" x="866.7347" width="298" height="532.1634" y="216.3833" clip-path="url(#clipPath2)"/>
    </g>
    <g fill="silver" transform="matrix(1,0,0,1,-307,-172)" stroke="silver">
      <rect x="876.4013" width="280" height="62" y="240.2813" clip-path="url(#clipPath2)" stroke="none"/>
    </g>
    <g font-size="13" stroke-miterlimit="1.45" font-family="sans-serif" transform="matrix(1,0,0,1,-307,-172)" stroke-linecap="butt">
      <text x="985.3582" xml:space="preserve" y="254.3481" clip-path="url(#clipPath2)" stroke="none">process_r</text>
      <rect fill="none" x="876.4013" width="280" height="62" y="240.2813" clip-path="url(#clipPath2)"/>
    </g>
    <g fill="rgb(238,237,237)" transform="matrix(1,0,0,1,-307,-172)" stroke="rgb(238,237,237)">
      <rect x="886.4013" width="260" height="30" y="263.2813" clip-path="url(#clipPath2)" stroke="none"/>
    </g>
    <g font-size="13" stroke-miterlimit="1.45" font-family="sans-serif" transform="matrix(1,0,0,1,-307,-172)" stroke-linecap="butt">
      <text x="924.5127" xml:space="preserve" y="282.7817" clip-path="url(#clipPath2)" stroke="none">process_payloads(message)</text>
      <rect fill="none" x="886.4013" width="260" height="30" y="263.2813" clip-path="url(#clipPath2)"/>
    </g>
    <g fill="silver" transform="matrix(1,0,0,1,-307,-172)" stroke="silver">
      <rect x="876.4013" width="280" height="154" y="318.2438" clip-path="url(#clipPath2)" stroke="none"/>
    </g>
    <g font-size="13" stroke-miterlimit="1.45" font-family="sans-serif" transform="matrix(1,0,0,1,-307,-172)" stroke-linecap="butt">
      <text x="958.7964" xml:space="preserve" y="332.3106" clip-path="url(#clipPath2)" stroke="none">process_payloads</text>
      <rect fill="none" x="876.4013" width="280" height="154" y="318.2438" clip-path="url(#clipPath2)"/>
    </g>
    <g fill="rgb(238,237,237)" transform="matrix(1,0,0,1,-307,-172)" stroke="rgb(238,237,237)">
      <rect x="885.7347" width="160" height="30" y="434.2188" clip-path="url(#clipPath2)" stroke="none"/>
    </g>
    <g font-size="13" stroke-miterlimit="1.45" font-family="sans-serif" transform="matrix(1,0,0,1,-307,-172)" stroke-linecap="butt">
      <text x="891.4227" xml:space="preserve" y="453.7192" clip-path="url(#clipPath2)" stroke="none">set_other_public_value</text>
      <rect fill="none" x="885.7347" width="160" height="30" y="434.2188" clip-path="url(#clipPath2)"/>
    </g>
    <g fill="rgb(255,204,0)" transform="matrix(1,0,0,1,-307,-172)" stroke="rgb(255,204,0)">
      <rect x="1045.7347" width="100" height="30" y="434.2188" clip-path="url(#clipPath2)" stroke="none"/>
    </g>
    <g font-size="13" stroke-miterlimit="1.45" font-family="sans-serif" transform="matrix(1,0,0,1,-307,-172)" stroke-linecap="butt">
      <text x="1087.4891" xml:space="preserve" y="453.7192" clip-path="url(#clipPath2)" stroke="none">dh</text>
      <rect fill="none" x="1045.7347" width="100" height="30" y="434.2188" clip-path="url(#clipPath2)"/>
    </g>
    <g fill="rgb(238,237,237)" transform="matrix(1,0,0,1,-307,-172)" stroke="rgb(238,237,237)">
      <rect x="885.7347" width="260" height="30" y="340.1438" clip-path="url(#clipPath2)" stroke="none"/>
    </g>
    <g font-size="13" stroke-miterlimit="1.45" font-family="sans-serif" transform="matrix(1,0,0,1,-307,-172)" stroke-linecap="butt">
      <text x="900.7437" xml:space="preserve" y="359.6442" clip-path="url(#clipPath2)" stroke="none">get_dh_group_number(ke_payload)</text>
      <rect fill="none" x="885.7347" width="260" height="30" y="340.1438" clip-path="url(#clipPath2)"/>
    </g>
    <g fill="rgb(238,237,237)" transform="matrix(1,0,0,1,-307,-172)" stroke="rgb(238,237,237)">
      <rect x="885.7347" width="160" height="30" y="387.1813" clip-path="url(#clipPath2)" stroke="none"/>
    </g>
    <g font-size="13" stroke-miterlimit="1.45" font-family="sans-serif" transform="matrix(1,0,0,1,-307,-172)" stroke-linecap="butt">
      <text x="901.1981" xml:space="preserve" y="406.6817" clip-path="url(#clipPath2)" stroke="none">keymat-&gt;create_dh</text>
      <rect fill="none" x="885.7347" width="160" height="30" y="387.1813" clip-path="url(#clipPath2)"/>
    </g>
    <g fill="rgb(255,204,0)" transform="matrix(1,0,0,1,-307,-172)" stroke="rgb(255,204,0)">
      <rect x="1045.7347" width="100" height="30" y="387.1813" clip-path="url(#clipPath2)" stroke="none"/>
    </g>
    <g font-size="13" stroke-miterlimit="1.45" font-family="sans-serif" transform="matrix(1,0,0,1,-307,-172)" stroke-linecap="butt">
      <text x="1087.4891" xml:space="preserve" y="406.6817" clip-path="url(#clipPath2)" stroke="none">dh</text>
      <rect fill="none" x="1045.7347" width="100" height="30" y="387.1813" clip-path="url(#clipPath2)"/>
    </g>
    <g fill="silver" transform="matrix(1,0,0,1,-307,-172)" stroke="silver">
      <rect x="876.4013" width="280" height="116" y="537.3093" clip-path="url(#clipPath2)" stroke="none"/>
    </g>
    <g font-size="13" stroke-miterlimit="1.45" font-family="sans-serif" transform="matrix(1,0,0,1,-307,-172)" stroke-linecap="butt">
      <text x="994.4956" xml:space="preserve" y="551.3762" clip-path="url(#clipPath2)" stroke="none">build_r</text>
      <rect fill="none" x="876.4013" width="280" height="116" y="537.3093" clip-path="url(#clipPath2)"/>
    </g>
    <g fill="rgb(238,237,237)" transform="matrix(1,0,0,1,-307,-172)" stroke="rgb(238,237,237)">
      <rect x="886.4013" width="260" height="30" y="558.6156" clip-path="url(#clipPath2)" stroke="none"/>
    </g>
    <g font-size="13" stroke-miterlimit="1.45" font-family="sans-serif" transform="matrix(1,0,0,1,-307,-172)" stroke-linecap="butt">
      <text x="958.9043" xml:space="preserve" y="578.116" clip-path="url(#clipPath2)" stroke="none">select_and_install</text>
      <rect fill="none" x="886.4013" width="260" height="30" y="558.6156" clip-path="url(#clipPath2)"/>
    </g>
    <g fill="rgb(240,238,234)" transform="matrix(1,0,0,1,-307,-172)" stroke="rgb(240,238,234)">
      <rect x="868.7347" width="298" height="142" y="799.7258" clip-path="url(#clipPath2)" stroke="none"/>
    </g>
    <g font-size="13" stroke-miterlimit="1.45" font-family="sans-serif" transform="matrix(1,0,0,1,-307,-172)" stroke-linecap="butt">
      <text x="870.7347" xml:space="preserve" y="813.7927" clip-path="url(#clipPath2)" stroke="none">libcharon/sa/ikev2/keymat_v2.c</text>
      <rect fill="none" x="868.7347" width="298" height="142" y="799.7258" clip-path="url(#clipPath2)"/>
    </g>
    <g fill="silver" transform="matrix(1,0,0,1,-307,-172)" stroke="silver">
      <rect x="878.4013" width="280" height="107" y="823.905" clip-path="url(#clipPath2)" stroke="none"/>
    </g>
    <g font-size="13" stroke-miterlimit="1.45" font-family="sans-serif" transform="matrix(1,0,0,1,-307,-172)" stroke-linecap="butt">
      <text x="961.0249" xml:space="preserve" y="837.9719" clip-path="url(#clipPath2)" stroke="none">derive_child_keys</text>
      <rect fill="none" x="878.4013" width="280" height="107" y="823.905" clip-path="url(#clipPath2)"/>
    </g>
    <g fill="rgb(238,237,237)" transform="matrix(1,0,0,1,-307,-172)" stroke="rgb(238,237,237)">
      <rect x="888.4013" width="160" height="30" y="844.3008" clip-path="url(#clipPath2)" stroke="none"/>
    </g>
    <g font-size="13" stroke-miterlimit="1.45" font-family="sans-serif" transform="matrix(1,0,0,1,-307,-172)" stroke-linecap="butt">
      <text x="908.762" xml:space="preserve" y="863.8013" clip-path="url(#clipPath2)" stroke="none">get_shared_secret</text>
      <rect fill="none" x="888.4013" width="160" height="30" y="844.3008" clip-path="url(#clipPath2)"/>
    </g>
    <g fill="rgb(255,204,0)" transform="matrix(1,0,0,1,-307,-172)" stroke="rgb(255,204,0)">
      <rect x="1048.4013" width="100" height="30" y="844.3008" clip-path="url(#clipPath2)" stroke="none"/>
    </g>
    <g font-size="13" stroke-miterlimit="1.45" font-family="sans-serif" transform="matrix(1,0,0,1,-307,-172)" stroke-linecap="butt">
      <text x="1090.1558" xml:space="preserve" y="863.8013" clip-path="url(#clipPath2)" stroke="none">dh</text>
      <rect fill="none" x="1048.4013" width="100" height="30" y="844.3008" clip-path="url(#clipPath2)"/>
    </g>
    <g fill="white" transform="matrix(1,0,0,1,-307,-172)" stroke="white">
      <path d="M888.4014 887.5883 L1133.4014 887.5883 L1133.4014 902.5883 L1148.4014 902.5883 L1148.4014 919.9039 L888.4014 919.9039 Z" clip-path="url(#clipPath2)" stroke="none"/>
      <path d="M1133.4014 887.5883 L1133.4014 902.5883 L1148.4014 902.5883 Z" clip-path="url(#clipPath2)" fill-rule="evenodd" stroke="none"/>
    </g>
    <g stroke-linecap="butt" transform="matrix(1,0,0,1,-307,-172)" stroke-miterlimit="1.45">
      <path fill="none" d="M888.4014 887.5883 L1133.4014 887.5883 L1133.4014 902.5883 L1148.4014 902.5883 L1148.4014 919.9039 L888.4014 919.9039 Z" clip-path="url(#clipPath2)"/>
      <path fill="none" d="M1133.4014 887.5883 L1133.4014 902.5883 L1148.4014 902.5883 Z" fill-rule="evenodd" clip-path="url(#clipPath2)"/>
      <text x="909.2939" xml:space="preserve" y="907.9004" font-family="sans-serif" clip-path="url(#clipPath2)" stroke="none">derive integrity and encryption keys</text>
    </g>
    <g fill="white" transform="matrix(1,0,0,1,-307,-172)" stroke="white">
      <circle r="15" clip-path="url(#clipPath2)" cx="832.7347" cy="877.405" stroke="none"/>
    </g>
    <g stroke-miterlimit="1.45" font-family="sans-serif" transform="matrix(1,0,0,1,-307,-172)" stroke-linecap="butt">
      <text x="823.9251" xml:space="preserve" y="881.5593" clip-path="url(#clipPath2)" stroke="none">DC</text>
      <circle fill="none" r="15" clip-path="url(#clipPath2)" cx="832.7347" cy="877.405"/>
    </g>
    <g fill="rgb(240,238,234)" transform="matrix(1,0,0,1,-307,-172)" stroke="rgb(240,238,234)">
      <rect x="868.068" width="298" height="94" y="960.905" clip-path="url(#clipPath2)" stroke="none"/>
    </g>
    <g font-size="13" stroke-miterlimit="1.45" font-family="sans-serif" transform="matrix(1,0,0,1,-307,-172)" stroke-linecap="butt">
      <text x="870.068" xml:space="preserve" y="974.9719" clip-path="url(#clipPath2)" stroke="none">libcharon/sa/child_sa.c</text>
      <rect fill="none" x="868.068" width="298" height="94" y="960.905" clip-path="url(#clipPath2)"/>
    </g>
    <g fill="silver" transform="matrix(1,0,0,1,-307,-172)" stroke="silver">
      <rect x="877.7347" width="280" height="62" y="985.0027" clip-path="url(#clipPath2)" stroke="none"/>
    </g>
    <g font-size="13" stroke-miterlimit="1.45" font-family="sans-serif" transform="matrix(1,0,0,1,-307,-172)" stroke-linecap="butt">
      <text x="998.2791" xml:space="preserve" y="999.0696" clip-path="url(#clipPath2)" stroke="none">install</text>
      <rect fill="none" x="877.7347" width="280" height="62" y="985.0027" clip-path="url(#clipPath2)"/>
    </g>
    <g fill="rgb(238,237,237)" transform="matrix(1,0,0,1,-307,-172)" stroke="rgb(238,237,237)">
      <rect x="887.7347" width="260" height="30" y="1008.0027" clip-path="url(#clipPath2)" stroke="none"/>
    </g>
    <g font-size="13" stroke-miterlimit="1.45" font-family="sans-serif" transform="matrix(1,0,0,1,-307,-172)" stroke-linecap="butt">
      <text x="907.9488" xml:space="preserve" y="1027.5032" clip-path="url(#clipPath2)" stroke="none">hydra-&gt;kernel_interface-&gt;add_sa</text>
      <rect fill="none" x="887.7347" width="260" height="30" y="1008.0027" clip-path="url(#clipPath2)"/>
    </g>
    <g fill="white" transform="matrix(1,0,0,1,-307,-172)" stroke="white">
      <circle r="15" clip-path="url(#clipPath2)" cx="832.7347" cy="1016.0027" stroke="none"/>
    </g>
    <g stroke-miterlimit="1.45" font-family="sans-serif" transform="matrix(1,0,0,1,-307,-172)" stroke-linecap="butt">
      <text x="827.1566" xml:space="preserve" y="1020.157" clip-path="url(#clipPath2)" stroke="none">IS</text>
      <circle fill="none" r="15" clip-path="url(#clipPath2)" cx="832.7347" cy="1016.0027"/>
    </g>
    <g fill="rgb(240,238,234)" transform="matrix(1,0,0,1,-307,-172)" stroke="rgb(240,238,234)">
      <rect x="867.4013" width="298" height="94" y="1062.882" clip-path="url(#clipPath2)" stroke="none"/>
    </g>
    <g font-size="13" stroke-miterlimit="1.45" font-family="sans-serif" transform="matrix(1,0,0,1,-307,-172)" stroke-linecap="butt">
      <text x="869.4014" xml:space="preserve" y="1076.949" clip-path="url(#clipPath2)" stroke="none">libcharon/sa/child_sa.c</text>
      <rect fill="none" x="867.4013" width="298" height="94" y="1062.882" clip-path="url(#clipPath2)"/>
    </g>
    <g fill="silver" transform="matrix(1,0,0,1,-307,-172)" stroke="silver">
      <rect x="877.068" width="280" height="62" y="1086.9798" clip-path="url(#clipPath2)" stroke="none"/>
    </g>
    <g font-size="13" stroke-miterlimit="1.45" font-family="sans-serif" transform="matrix(1,0,0,1,-307,-172)" stroke-linecap="butt">
      <text x="977.1031" xml:space="preserve" y="1101.0466" clip-path="url(#clipPath2)" stroke="none">add_policies</text>
      <rect fill="none" x="877.068" width="280" height="62" y="1086.9798" clip-path="url(#clipPath2)"/>
    </g>
    <g fill="rgb(238,237,237)" transform="matrix(1,0,0,1,-307,-172)" stroke="rgb(238,237,237)">
      <rect x="887.068" width="260" height="30" y="1109.9798" clip-path="url(#clipPath2)" stroke="none"/>
    </g>
    <g font-size="13" stroke-miterlimit="1.45" font-family="sans-serif" transform="matrix(1,0,0,1,-307,-172)" stroke-linecap="butt">
      <text x="895.5167" xml:space="preserve" y="1129.4802" clip-path="url(#clipPath2)" stroke="none">hydra-&gt;kernel_interface-&gt;add_policy</text>
      <rect fill="none" x="887.068" width="260" height="30" y="1109.9798" clip-path="url(#clipPath2)"/>
    </g>
    <g fill="white" transform="matrix(1,0,0,1,-307,-172)" stroke="white">
      <circle r="15" clip-path="url(#clipPath2)" cx="832.068" cy="1117.9798" stroke="none"/>
    </g>
    <g stroke-miterlimit="1.45" font-family="sans-serif" transform="matrix(1,0,0,1,-307,-172)" stroke-linecap="butt">
      <text x="826.6803" xml:space="preserve" y="1122.134" clip-path="url(#clipPath2)" stroke="none">IP</text>
      <circle fill="none" r="15" clip-path="url(#clipPath2)" cx="832.068" cy="1117.9798"/>
    </g>
    <g fill="silver" transform="matrix(1,0,0,1,-307,-172)" stroke="silver">
      <rect x="382.932" width="280" height="364" y="799.7258" clip-path="url(#clipPath2)" stroke="none"/>
    </g>
    <g font-size="13" stroke-miterlimit="1.45" font-family="sans-serif" transform="matrix(1,0,0,1,-307,-172)" stroke-linecap="butt">
      <text x="465.4349" xml:space="preserve" y="813.7927" clip-path="url(#clipPath2)" stroke="none">select_and_install</text>
      <rect fill="none" x="382.932" width="280" height="364" y="799.7258" clip-path="url(#clipPath2)"/>
    </g>
    <g fill="rgb(238,237,237)" transform="matrix(1,0,0,1,-307,-172)" stroke="rgb(238,237,237)">
      <rect x="392.932" width="260" height="30" y="821.032" clip-path="url(#clipPath2)" stroke="none"/>
    </g>
    <g font-size="13" stroke-miterlimit="1.45" font-family="sans-serif" transform="matrix(1,0,0,1,-307,-172)" stroke-linecap="butt">
      <text x="395.6488" xml:space="preserve" y="840.5325" clip-path="url(#clipPath2)" stroke="none">child_sa-&gt;set_state:CHILD_INSTALLING</text>
      <rect fill="none" x="392.932" width="260" height="30" y="821.032" clip-path="url(#clipPath2)"/>
    </g>
    <g fill="rgb(238,237,237)" transform="matrix(1,0,0,1,-307,-172)" stroke="rgb(238,237,237)">
      <rect x="392.932" width="160" height="30" y="871.9258" clip-path="url(#clipPath2)" stroke="none"/>
    </g>
    <g font-size="13" stroke-miterlimit="1.45" font-family="sans-serif" transform="matrix(1,0,0,1,-307,-172)" stroke-linecap="butt">
      <text x="415.5555" xml:space="preserve" y="891.4263" clip-path="url(#clipPath2)" stroke="none">derive_child_keys</text>
      <rect fill="none" x="392.932" width="160" height="30" y="871.9258" clip-path="url(#clipPath2)"/>
    </g>
    <g fill="rgb(255,204,0)" transform="matrix(1,0,0,1,-307,-172)" stroke="rgb(255,204,0)">
      <rect x="552.932" width="100" height="30" y="871.9258" clip-path="url(#clipPath2)" stroke="none"/>
    </g>
    <g font-size="13" stroke-miterlimit="1.45" font-family="sans-serif" transform="matrix(1,0,0,1,-307,-172)" stroke-linecap="butt">
      <text x="578.4586" xml:space="preserve" y="891.4263" clip-path="url(#clipPath2)" stroke="none">keymat</text>
      <rect fill="none" x="552.932" width="100" height="30" y="871.9258" clip-path="url(#clipPath2)"/>
    </g>
    <g fill="white" transform="matrix(1,0,0,1,-307,-172)" stroke="white">
      <circle r="15" clip-path="url(#clipPath2)" cx="707.932" cy="886.9258" stroke="none"/>
    </g>
    <g stroke-miterlimit="1.45" font-family="sans-serif" transform="matrix(1,0,0,1,-307,-172)" stroke-linecap="butt">
      <text x="699.1224" xml:space="preserve" y="891.0801" clip-path="url(#clipPath2)" stroke="none">DC</text>
      <circle fill="none" r="15" clip-path="url(#clipPath2)" cx="707.932" cy="886.9258"/>
    </g>
    <g fill="rgb(238,237,237)" transform="matrix(1,0,0,1,-307,-172)" stroke="rgb(238,237,237)">
      <rect x="392.932" width="260" height="30" y="922.8195" clip-path="url(#clipPath2)" stroke="none"/>
    </g>
    <g font-size="13" stroke-miterlimit="1.45" font-family="sans-serif" transform="matrix(1,0,0,1,-307,-172)" stroke-linecap="butt">
      <text x="449.6102" xml:space="preserve" y="942.32" clip-path="url(#clipPath2)" stroke="none">child_sa-&gt;install //SAD</text>
      <rect fill="none" x="392.932" width="260" height="30" y="922.8195" clip-path="url(#clipPath2)"/>
    </g>
    <g fill="white" transform="matrix(1,0,0,1,-307,-172)" stroke="white">
      <circle r="15" clip-path="url(#clipPath2)" cx="707.932" cy="937.8195" stroke="none"/>
    </g>
    <g stroke-miterlimit="1.45" font-family="sans-serif" transform="matrix(1,0,0,1,-307,-172)" stroke-linecap="butt">
      <text x="702.3539" xml:space="preserve" y="941.9738" clip-path="url(#clipPath2)" stroke="none">IS</text>
      <circle fill="none" r="15" clip-path="url(#clipPath2)" cx="707.932" cy="937.8195"/>
    </g>
    <g fill="rgb(238,237,237)" transform="matrix(1,0,0,1,-307,-172)" stroke="rgb(238,237,237)">
      <rect x="392.932" width="260" height="30" y="973.7133" clip-path="url(#clipPath2)" stroke="none"/>
    </g>
    <g font-size="13" stroke-miterlimit="1.45" font-family="sans-serif" transform="matrix(1,0,0,1,-307,-172)" stroke-linecap="butt">
      <text x="443.891" xml:space="preserve" y="993.2138" clip-path="url(#clipPath2)" stroke="none">chunk_clear(&amp;integ_i) ...</text>
      <rect fill="none" x="392.932" width="260" height="30" y="973.7133" clip-path="url(#clipPath2)"/>
    </g>
    <g fill="rgb(238,237,237)" transform="matrix(1,0,0,1,-307,-172)" stroke="rgb(238,237,237)">
      <rect x="392.932" width="260" height="30" y="1024.607" clip-path="url(#clipPath2)" stroke="none"/>
    </g>
    <g font-size="13" stroke-miterlimit="1.45" font-family="sans-serif" transform="matrix(1,0,0,1,-307,-172)" stroke-linecap="butt">
      <text x="429.6278" xml:space="preserve" y="1044.1075" clip-path="url(#clipPath2)" stroke="none">child_sa-&gt;add_policies //SPD</text>
      <rect fill="none" x="392.932" width="260" height="30" y="1024.607" clip-path="url(#clipPath2)"/>
    </g>
    <g fill="rgb(238,237,237)" transform="matrix(1,0,0,1,-307,-172)" stroke="rgb(238,237,237)">
      <rect x="392.932" width="260" height="30" y="1075.5008" clip-path="url(#clipPath2)" stroke="none"/>
    </g>
    <g font-size="13" stroke-miterlimit="1.45" font-family="sans-serif" transform="matrix(1,0,0,1,-307,-172)" stroke-linecap="butt">
      <text x="398.3529" xml:space="preserve" y="1095.0012" clip-path="url(#clipPath2)" stroke="none">child_sa-&gt;set_state:CHILD_INSTALLED</text>
      <rect fill="none" x="392.932" width="260" height="30" y="1075.5008" clip-path="url(#clipPath2)"/>
    </g>
    <g fill="rgb(238,237,237)" transform="matrix(1,0,0,1,-307,-172)" stroke="rgb(238,237,237)">
      <rect x="392.932" width="260" height="30" y="1126.3945" clip-path="url(#clipPath2)" stroke="none"/>
    </g>
    <g font-size="13" stroke-miterlimit="1.45" font-family="sans-serif" transform="matrix(1,0,0,1,-307,-172)" stroke-linecap="butt">
      <text x="453.4156" xml:space="preserve" y="1145.895" clip-path="url(#clipPath2)" stroke="none">ike_sa-&gt;add_child_sa</text>
      <rect fill="none" x="392.932" width="260" height="30" y="1126.3945" clip-path="url(#clipPath2)"/>
    </g>
    <g fill="white" transform="matrix(1,0,0,1,-307,-172)" stroke="white">
      <circle r="15" clip-path="url(#clipPath2)" cx="337.932" cy="981.7258" stroke="none"/>
    </g>
    <g stroke-miterlimit="1.45" font-family="sans-serif" transform="matrix(1,0,0,1,-307,-172)" stroke-linecap="butt">
      <text x="332.3539" xml:space="preserve" y="985.8801" clip-path="url(#clipPath2)" stroke="none">SI</text>
      <circle fill="none" r="15" clip-path="url(#clipPath2)" cx="337.932" cy="981.7258"/>
    </g>
    <g fill="white" transform="matrix(1,0,0,1,-307,-172)" stroke="white">
      <circle r="15" clip-path="url(#clipPath2)" cx="831.4013" cy="573.6156" stroke="none"/>
    </g>
    <g stroke-miterlimit="1.45" font-family="sans-serif" transform="matrix(1,0,0,1,-307,-172)" stroke-linecap="butt">
      <text x="825.8232" xml:space="preserve" y="577.7698" clip-path="url(#clipPath2)" stroke="none">SI</text>
      <circle fill="none" r="15" clip-path="url(#clipPath2)" cx="831.4013" cy="573.6156"/>
    </g>
    <g fill="rgb(238,237,237)" transform="matrix(1,0,0,1,-307,-172)" stroke="rgb(238,237,237)">
      <rect x="886.4013" width="260" height="30" y="611.4489" clip-path="url(#clipPath2)" stroke="none"/>
    </g>
    <g font-size="13" stroke-miterlimit="1.45" font-family="sans-serif" transform="matrix(1,0,0,1,-307,-172)" stroke-linecap="butt">
      <text x="967.9338" xml:space="preserve" y="630.9494" clip-path="url(#clipPath2)" stroke="none">build_payloads</text>
      <rect fill="none" x="886.4013" width="260" height="30" y="611.4489" clip-path="url(#clipPath2)"/>
    </g>
    <g fill="silver" transform="matrix(1,0,0,1,-307,-172)" stroke="silver">
      <rect x="876.4013" width="280" height="62" y="674.9874" clip-path="url(#clipPath2)" stroke="none"/>
    </g>
    <g font-size="13" stroke-miterlimit="1.45" font-family="sans-serif" transform="matrix(1,0,0,1,-307,-172)" stroke-linecap="butt">
      <text x="967.9338" xml:space="preserve" y="689.0543" clip-path="url(#clipPath2)" stroke="none">build_payloads</text>
      <rect fill="none" x="876.4013" width="280" height="62" y="674.9874" clip-path="url(#clipPath2)"/>
    </g>
    <g fill="rgb(238,237,237)" transform="matrix(1,0,0,1,-307,-172)" stroke="rgb(238,237,237)">
      <rect x="885.7347" width="160" height="30" y="695.9614" clip-path="url(#clipPath2)" stroke="none"/>
    </g>
    <g font-size="13" stroke-miterlimit="1.45" font-family="sans-serif" transform="matrix(1,0,0,1,-307,-172)" stroke-linecap="butt">
      <text x="890.6229" xml:space="preserve" y="715.4619" clip-path="url(#clipPath2)" stroke="none">ke_pld_create_from_dh</text>
      <rect fill="none" x="885.7347" width="160" height="30" y="695.9614" clip-path="url(#clipPath2)"/>
    </g>
    <g fill="rgb(255,204,0)" transform="matrix(1,0,0,1,-307,-172)" stroke="rgb(255,204,0)">
      <rect x="1045.7347" width="100" height="30" y="695.9614" clip-path="url(#clipPath2)" stroke="none"/>
    </g>
    <g font-size="13" stroke-miterlimit="1.45" font-family="sans-serif" transform="matrix(1,0,0,1,-307,-172)" stroke-linecap="butt">
      <text x="1087.4891" xml:space="preserve" y="715.4619" clip-path="url(#clipPath2)" stroke="none">dh</text>
      <rect fill="none" x="1045.7347" width="100" height="30" y="695.9614" clip-path="url(#clipPath2)"/>
    </g>
    <g fill="silver" transform="matrix(1,0,0,1,-307,-172)" stroke="silver">
      <rect x="382.932" width="280" height="62" y="514.732" clip-path="url(#clipPath2)" stroke="none"/>
    </g>
    <g font-size="13" stroke-miterlimit="1.45" font-family="sans-serif" transform="matrix(1,0,0,1,-307,-172)" stroke-linecap="butt">
      <text x="492.7552" xml:space="preserve" y="528.7989" clip-path="url(#clipPath2)" stroke="none">process_i</text>
      <rect fill="none" x="382.932" width="280" height="62" y="514.732" clip-path="url(#clipPath2)"/>
    </g>
    <g fill="rgb(238,237,237)" transform="matrix(1,0,0,1,-307,-172)" stroke="rgb(238,237,237)">
      <rect x="392.932" width="260" height="30" y="537.732" clip-path="url(#clipPath2)" stroke="none"/>
    </g>
    <g font-size="13" stroke-miterlimit="1.45" font-family="sans-serif" transform="matrix(1,0,0,1,-307,-172)" stroke-linecap="butt">
      <text x="431.0433" xml:space="preserve" y="557.2325" clip-path="url(#clipPath2)" stroke="none">process_payloads(message)</text>
      <rect fill="none" x="392.932" width="260" height="30" y="537.732" clip-path="url(#clipPath2)"/>
    </g>
    <g fill="silver" transform="matrix(1,0,0,1,-307,-172)" stroke="silver">
      <rect x="382.932" width="280" height="62" y="592.1945" clip-path="url(#clipPath2)" stroke="none"/>
    </g>
    <g font-size="13" stroke-miterlimit="1.45" font-family="sans-serif" transform="matrix(1,0,0,1,-307,-172)" stroke-linecap="butt">
      <text x="465.327" xml:space="preserve" y="606.2614" clip-path="url(#clipPath2)" stroke="none">process_payloads</text>
      <rect fill="none" x="382.932" width="280" height="62" y="592.1945" clip-path="url(#clipPath2)"/>
    </g>
    <g fill="rgb(238,237,237)" transform="matrix(1,0,0,1,-307,-172)" stroke="rgb(238,237,237)">
      <rect x="392.2653" width="160" height="30" y="617.4195" clip-path="url(#clipPath2)" stroke="none"/>
    </g>
    <g font-size="13" stroke-miterlimit="1.45" font-family="sans-serif" transform="matrix(1,0,0,1,-307,-172)" stroke-linecap="butt">
      <text x="397.9533" xml:space="preserve" y="636.92" clip-path="url(#clipPath2)" stroke="none">set_other_public_value</text>
      <rect fill="none" x="392.2653" width="160" height="30" y="617.4195" clip-path="url(#clipPath2)"/>
    </g>
    <g fill="rgb(255,204,0)" transform="matrix(1,0,0,1,-307,-172)" stroke="rgb(255,204,0)">
      <rect x="552.2653" width="100" height="30" y="617.4195" clip-path="url(#clipPath2)" stroke="none"/>
    </g>
    <g font-size="13" stroke-miterlimit="1.45" font-family="sans-serif" transform="matrix(1,0,0,1,-307,-172)" stroke-linecap="butt">
      <text x="594.0197" xml:space="preserve" y="636.92" clip-path="url(#clipPath2)" stroke="none">dh</text>
      <rect fill="none" x="552.2653" width="100" height="30" y="617.4195" clip-path="url(#clipPath2)"/>
    </g>
    <g fill="silver" transform="matrix(1,0,0,1,-307,-172)" stroke="silver">
      <rect x="382.932" width="280" height="62" y="677.4195" clip-path="url(#clipPath2)" stroke="none"/>
    </g>
    <g font-size="13" stroke-miterlimit="1.45" font-family="sans-serif" transform="matrix(1,0,0,1,-307,-172)" stroke-linecap="butt">
      <text x="492.7552" xml:space="preserve" y="691.4864" clip-path="url(#clipPath2)" stroke="none">process_i</text>
      <rect fill="none" x="382.932" width="280" height="62" y="677.4195" clip-path="url(#clipPath2)"/>
    </g>
    <g fill="rgb(238,237,237)" transform="matrix(1,0,0,1,-307,-172)" stroke="rgb(238,237,237)">
      <rect x="392.932" width="260" height="30" y="698.6008" clip-path="url(#clipPath2)" stroke="none"/>
    </g>
    <g font-size="13" stroke-miterlimit="1.45" font-family="sans-serif" transform="matrix(1,0,0,1,-307,-172)" stroke-linecap="butt">
      <text x="465.4349" xml:space="preserve" y="718.1013" clip-path="url(#clipPath2)" stroke="none">select_and_install</text>
      <rect fill="none" x="392.932" width="260" height="30" y="698.6008" clip-path="url(#clipPath2)"/>
    </g>
    <g fill="white" transform="matrix(1,0,0,1,-307,-172)" stroke="white">
      <circle r="15" clip-path="url(#clipPath2)" cx="337.932" cy="713.6008" stroke="none"/>
    </g>
    <g stroke-miterlimit="1.45" font-family="sans-serif" transform="matrix(1,0,0,1,-307,-172)" stroke-linecap="butt">
      <text x="332.3539" xml:space="preserve" y="717.7551" clip-path="url(#clipPath2)" stroke="none">SI</text>
      <circle fill="none" r="15" clip-path="url(#clipPath2)" cx="337.932" cy="713.6008"/>
    </g>
    <g fill="white" transform="matrix(1,0,0,1,-307,-172)" stroke="white">
      <rect x="719" y="698.6008" clip-path="url(#clipPath2)" width="100" rx="4" ry="4" height="30" stroke="none"/>
    </g>
    <g stroke-miterlimit="1.45" font-family="sans-serif" transform="matrix(1,0,0,1,-307,-172)" stroke-linecap="butt">
      <text x="742.7031" xml:space="preserve" y="717.7551" clip-path="url(#clipPath2)" stroke="none">Message</text>
      <rect x="719" y="698.6008" clip-path="url(#clipPath2)" fill="none" width="100" stroke-dasharray="6,2" rx="4" ry="4" height="30"/>
    </g>
    <g fill="white" transform="matrix(1,0,0,1,-307,-172)" stroke="white">
      <circle r="15" clip-path="url(#clipPath2)" cx="707.932" cy="1039.607" stroke="none"/>
    </g>
    <g stroke-miterlimit="1.45" font-family="sans-serif" transform="matrix(1,0,0,1,-307,-172)" stroke-linecap="butt">
      <text x="702.5443" xml:space="preserve" y="1043.7614" clip-path="url(#clipPath2)" stroke="none">IP</text>
      <circle fill="none" r="15" clip-path="url(#clipPath2)" cx="707.932" cy="1039.607"/>
      <path fill="none" d="M522.932 292.3695 L522.932 304.5461" clip-path="url(#clipPath2)"/>
      <path d="M522.932 312.5461 L527.932 300.5461 L522.932 303.5461 L517.932 300.5461 Z" clip-path="url(#clipPath2)" stroke="none"/>
      <path fill="none" d="M522.932 342.5773 L522.932 354.732" clip-path="url(#clipPath2)"/>
      <path d="M522.932 362.732 L527.932 350.732 L522.932 353.732 L517.932 350.732 Z" clip-path="url(#clipPath2)" stroke="none"/>
      <path fill="none" d="M522.932 400.0113 L522.932 414.732" clip-path="url(#clipPath2)"/>
      <path d="M522.932 422.732 L527.932 410.732 L522.932 413.732 L517.932 410.732 Z" clip-path="url(#clipPath2)" stroke="none"/>
      <path fill="none" stroke-dasharray="6,2" d="M671.2726 237.1597 L719.0388 237.1597" clip-path="url(#clipPath2)"/>
      <path fill="none" stroke-dasharray="6,2" d="M818.9761 237.1597 L858.71 237.1597" clip-path="url(#clipPath2)"/>
      <path stroke-dasharray="6,2" d="M866.71 237.1597 L854.71 232.1597 L857.71 237.1597 L854.71 242.1597 Z" clip-path="url(#clipPath2)" stroke="none"/>
      <path fill="none" d="M1016.4014 293.2812 L1016.4014 310.2437" clip-path="url(#clipPath2)"/>
      <path d="M1016.4014 318.2437 L1021.4014 306.2437 L1016.4014 309.2437 L1011.4014 306.2437 Z" clip-path="url(#clipPath2)" stroke="none"/>
      <path fill="none" d="M1015.7347 370.1437 L1015.7347 379.1807" clip-path="url(#clipPath2)"/>
      <path d="M1015.7347 387.1807 L1020.7347 375.1807 L1015.7347 378.1807 L1010.7347 375.1807 Z" clip-path="url(#clipPath2)" stroke="none"/>
      <path fill="none" d="M1017.3223 417.2062 L1017.3223 426.2159" clip-path="url(#clipPath2)"/>
      <path d="M1017.3223 434.2159 L1022.3223 422.2159 L1017.3223 425.2159 L1012.3223 422.2159 Z" clip-path="url(#clipPath2)" stroke="none"/>
      <path fill="none" stroke-dasharray="6,2" d="M1016.4014 472.2437 L1016.4014 529.3093" clip-path="url(#clipPath2)"/>
      <path stroke-dasharray="6,2" d="M1016.4014 537.3093 L1021.4014 525.3093 L1016.4014 528.3093 L1011.4014 525.3093 Z" clip-path="url(#clipPath2)" stroke="none"/>
      <text x="1020.4014" xml:space="preserve" y="508.9308" clip-path="url(#clipPath2)" stroke="none">NEED_MORE</text>
      <path fill="none" d="M847.7347 877.405 L870.4014 877.405" clip-path="url(#clipPath2)"/>
      <path d="M878.4014 877.405 L866.4014 872.405 L869.4014 877.405 L866.4014 882.405 Z" clip-path="url(#clipPath2)" stroke="none"/>
      <path fill="none" d="M847.7347 1016.0027 L869.7347 1016.0027" clip-path="url(#clipPath2)"/>
      <path d="M877.7347 1016.0027 L865.7347 1011.0027 L868.7347 1016.0027 L865.7347 1021.0027 Z" clip-path="url(#clipPath2)" stroke="none"/>
      <path fill="none" d="M847.068 1117.9797 L869.068 1117.9797" clip-path="url(#clipPath2)"/>
      <path d="M877.068 1117.9797 L865.068 1112.9797 L868.068 1117.9797 L865.068 1122.9797 Z" clip-path="url(#clipPath2)" stroke="none"/>
      <path fill="none" d="M522.932 851.032 L522.932 863.9219" clip-path="url(#clipPath2)"/>
      <path d="M522.932 871.9219 L527.932 859.9219 L522.932 862.9219 L517.932 859.9219 Z" clip-path="url(#clipPath2)" stroke="none"/>
      <path fill="none" d="M652.932 886.9258 L684.932 886.9258" clip-path="url(#clipPath2)"/>
      <path d="M692.932 886.9258 L680.932 881.9258 L683.932 886.9258 L680.932 891.9258 Z" clip-path="url(#clipPath2)" stroke="none"/>
      <path fill="none" d="M522.932 901.957 L522.932 914.8195" clip-path="url(#clipPath2)"/>
      <path d="M522.932 922.8195 L527.932 910.8195 L522.932 913.8195 L517.932 910.8195 Z" clip-path="url(#clipPath2)" stroke="none"/>
      <path fill="none" d="M652.932 937.8195 L684.932 937.8195" clip-path="url(#clipPath2)"/>
      <path d="M692.932 937.8195 L680.932 932.8195 L683.932 937.8195 L680.932 942.8195 Z" clip-path="url(#clipPath2)" stroke="none"/>
      <path fill="none" d="M522.932 952.8195 L522.932 965.7133" clip-path="url(#clipPath2)"/>
      <path d="M522.932 973.7133 L527.932 961.7133 L522.932 964.7133 L517.932 961.7133 Z" clip-path="url(#clipPath2)" stroke="none"/>
      <path fill="none" d="M522.932 1003.7133 L522.932 1016.6071" clip-path="url(#clipPath2)"/>
      <path d="M522.932 1024.6071 L527.932 1012.6071 L522.932 1015.6071 L517.932 1012.6071 Z" clip-path="url(#clipPath2)" stroke="none"/>
      <path fill="none" d="M522.932 1054.6071 L522.932 1067.5007" clip-path="url(#clipPath2)"/>
      <path d="M522.932 1075.5007 L527.932 1063.5007 L522.932 1066.5007 L517.932 1063.5007 Z" clip-path="url(#clipPath2)" stroke="none"/>
      <path fill="none" d="M522.932 1105.5007 L522.932 1118.3945" clip-path="url(#clipPath2)"/>
      <path d="M522.932 1126.3945 L527.932 1114.3945 L522.932 1117.3945 L517.932 1114.3945 Z" clip-path="url(#clipPath2)" stroke="none"/>
      <path fill="none" d="M352.932 981.7258 L374.932 981.7258" clip-path="url(#clipPath2)"/>
      <path d="M382.932 981.7258 L370.932 976.7258 L373.932 981.7258 L370.932 986.7258 Z" clip-path="url(#clipPath2)" stroke="none"/>
      <path fill="none" d="M886.4014 573.6155 L854.4014 573.6155" clip-path="url(#clipPath2)"/>
      <path d="M846.4014 573.6155 L858.4014 578.6155 L855.4014 573.6155 L858.4014 568.6155 Z" clip-path="url(#clipPath2)" stroke="none"/>
      <path fill="none" d="M1016.4014 588.6155 L1016.4014 603.4489" clip-path="url(#clipPath2)"/>
      <path d="M1016.4014 611.4489 L1021.4014 599.4489 L1016.4014 602.4489 L1011.4014 599.4489 Z" clip-path="url(#clipPath2)" stroke="none"/>
      <path fill="none" d="M1016.4014 641.4489 L1016.4014 666.9874" clip-path="url(#clipPath2)"/>
      <path d="M1016.4014 674.9874 L1021.4014 662.9874 L1016.4014 665.9874 L1011.4014 662.9874 Z" clip-path="url(#clipPath2)" stroke="none"/>
      <path fill="none" stroke-dasharray="6,2" d="M522.932 484.732 L522.932 506.732" clip-path="url(#clipPath2)"/>
      <path stroke-dasharray="6,2" d="M522.932 514.7321 L527.932 502.7321 L522.932 505.7321 L517.932 502.7321 Z" clip-path="url(#clipPath2)" stroke="none"/>
      <text x="443.8324" xml:space="preserve" y="503.8863" clip-path="url(#clipPath2)" stroke="none">NEED_MORE</text>
      <path fill="none" d="M522.932 567.732 L522.932 584.1945" clip-path="url(#clipPath2)"/>
      <path d="M522.932 592.1945 L527.932 580.1945 L522.932 583.1945 L517.932 580.1945 Z" clip-path="url(#clipPath2)" stroke="none"/>
      <path fill="none" d="M522.932 654.1945 L522.932 669.4195" clip-path="url(#clipPath2)"/>
      <path d="M522.932 677.4195 L527.932 665.4195 L522.932 668.4195 L517.932 665.4195 Z" clip-path="url(#clipPath2)" stroke="none"/>
      <path fill="none" d="M392.932 713.6008 L360.932 713.6008" clip-path="url(#clipPath2)"/>
      <path d="M352.932 713.6008 L364.932 718.6008 L361.932 713.6008 L364.932 708.6008 Z" clip-path="url(#clipPath2)" stroke="none"/>
      <path fill="none" stroke-dasharray="6,2" d="M866.7089 713.6008 L819.0472 713.6008" clip-path="url(#clipPath2)"/>
      <path fill="none" stroke-dasharray="6,2" d="M719.0244 713.6008 L679.2911 713.6008" clip-path="url(#clipPath2)"/>
      <path stroke-dasharray="6,2" d="M671.2911 713.6008 L683.2911 718.6008 L680.2911 713.6008 L683.2911 708.6008 Z" clip-path="url(#clipPath2)" stroke="none"/>
      <path fill="none" d="M652.932 1039.6071 L684.932 1039.6071" clip-path="url(#clipPath2)"/>
      <path d="M692.932 1039.6071 L680.932 1034.6071 L683.932 1039.6071 L680.932 1044.6071 Z" clip-path="url(#clipPath2)" stroke="none"/>
    </g>
  </g>
</svg>
