<?xml version="1.0" encoding="UTF-8"?><svg xmlns="http://www.w3.org/2000/svg" xmlns:xlink="http://www.w3.org/1999/xlink" fill-opacity="1" color-rendering="auto" color-interpolation="auto" stroke="black" text-rendering="auto" stroke-linecap="square" width="681" stroke-miterlimit="10" stroke-opacity="1" shape-rendering="auto" fill="black" stroke-dasharray="none" font-weight="normal" stroke-width="1" height="394" font-family="'Dialog'" font-style="normal" stroke-linejoin="miter" font-size="12" stroke-dashoffset="0" image-rendering="auto">
  <!--Generated by ySVG-->
  <defs id="genericDefs"/>
  <g>
    <defs id="defs1">
      <clipPath clipPathUnits="userSpaceOnUse" id="clipPath1">
        <path d="M0 0 L681 0 L681 394 L0 394 L0 0 Z"/>
      </clipPath>
      <clipPath clipPathUnits="userSpaceOnUse" id="clipPath2">
        <path d="M45 433 L726 433 L726 827 L45 827 L45 433 Z"/>
      </clipPath>
    </defs>
    <g fill="white" transform="translate(-45,-433)" stroke="white">
      <rect x="45" width="681" height="394" y="433" clip-path="url(#clipPath2)" stroke="none"/>
    </g>
    <g fill="white" transform="matrix(1,0,0,1,-45,-433)" stroke="white">
      <rect x="452.8199" y="448" clip-path="url(#clipPath2)" width="258" rx="4" ry="4" height="364" stroke="none"/>
    </g>
    <g fill="rgb(238,68,68)" stroke-miterlimit="1.45" font-family="sans-serif" transform="matrix(1,0,0,1,-45,-433)" stroke-linecap="butt" stroke="rgb(238,68,68)">
      <text x="553.7096" xml:space="preserve" y="465.1387" clip-path="url(#clipPath2)" stroke="none">TRUSTED</text>
    </g>
    <g stroke-linecap="round" transform="matrix(1,0,0,1,-45,-433)" stroke-dashoffset="2" fill="rgb(238,68,68)" stroke-dasharray="0,4" stroke="rgb(238,68,68)" stroke-miterlimit="1.45">
      <rect x="452.8199" y="448" clip-path="url(#clipPath2)" fill="none" width="258" rx="4" ry="4" height="364"/>
    </g>
    <g fill="white" transform="matrix(1,0,0,1,-45,-433)" stroke="white">
      <rect x="60.8199" y="448" clip-path="url(#clipPath2)" width="392" rx="4" ry="4" height="364" stroke="none"/>
    </g>
    <g stroke-miterlimit="1.45" font-family="sans-serif" transform="matrix(1,0,0,1,-45,-433)" stroke-linecap="butt">
      <text x="219.8297" xml:space="preserve" y="465.1387" clip-path="url(#clipPath2)" stroke="none">UNTRUSTED</text>
    </g>
    <g stroke-dasharray="0,4" stroke-miterlimit="1.45" stroke-dashoffset="2" transform="matrix(1,0,0,1,-45,-433)" stroke-linecap="round">
      <rect x="60.8199" y="448" clip-path="url(#clipPath2)" fill="none" width="392" rx="4" ry="4" height="364"/>
    </g>
    <g fill="silver" transform="matrix(1,0,0,1,-45,-433)" stroke="silver">
      <rect x="71.5695" width="302" height="322" y="474.2669" clip-path="url(#clipPath2)" stroke="none"/>
    </g>
    <g font-size="13" stroke-miterlimit="1.45" font-family="sans-serif" transform="matrix(1,0,0,1,-45,-433)" stroke-linecap="butt">
      <text x="200.1241" xml:space="preserve" y="492.3338" clip-path="url(#clipPath2)" stroke="none">charon</text>
      <rect fill="none" x="71.5695" width="302" height="322" y="474.2669" clip-path="url(#clipPath2)"/>
    </g>
    <g fill="rgb(242,242,240)" transform="matrix(1,0,0,1,-45,-433)" stroke="rgb(242,242,240)">
      <rect x="83.1389" y="552.2669" clip-path="url(#clipPath2)" width="120" rx="4" ry="4" height="184" stroke="none"/>
    </g>
    <g font-size="13" stroke-miterlimit="1.45" font-family="sans-serif" transform="matrix(1,0,0,1,-45,-433)" stroke-linecap="butt">
      <text x="126.0701" xml:space="preserve" y="570.3338" clip-path="url(#clipPath2)" stroke="none">tasks</text>
      <rect x="83.1389" y="552.2669" clip-path="url(#clipPath2)" fill="none" width="120" stroke-dasharray="6,2" rx="4" ry="4" height="184"/>
    </g>
    <g fill="rgb(242,242,240)" transform="matrix(1,0,0,1,-45,-433)" stroke="rgb(242,242,240)">
      <rect x="243.5695" y="501.2669" clip-path="url(#clipPath2)" width="120" rx="4" ry="4" height="286" stroke="none"/>
    </g>
    <g font-size="13" stroke-miterlimit="1.45" font-family="sans-serif" transform="matrix(1,0,0,1,-45,-433)" stroke-linecap="butt">
      <text x="280.08" xml:space="preserve" y="519.3338" clip-path="url(#clipPath2)" stroke="none">plugins</text>
      <rect x="243.5695" y="501.2669" clip-path="url(#clipPath2)" fill="none" width="120" stroke-dasharray="6,2" rx="4" ry="4" height="286"/>
    </g>
    <g fill="white" transform="matrix(1,0,0,1,-45,-433)" stroke="white">
      <rect x="253.5695" width="100" height="30" y="530.0047" clip-path="url(#clipPath2)" stroke="none"/>
    </g>
    <g font-size="13" stroke-miterlimit="1.45" font-family="sans-serif" transform="matrix(1,0,0,1,-45,-433)" stroke-linecap="butt">
      <text x="293.6766" xml:space="preserve" y="549.5052" clip-path="url(#clipPath2)" stroke="none">DH</text>
      <rect fill="none" x="253.5695" width="100" height="30" y="530.0047" clip-path="url(#clipPath2)"/>
    </g>
    <g fill="white" transform="matrix(1,0,0,1,-45,-433)" stroke="white">
      <rect x="253.5695" width="100" height="30" y="566.3654" clip-path="url(#clipPath2)" stroke="none"/>
    </g>
    <g font-size="13" stroke-miterlimit="1.45" font-family="sans-serif" transform="matrix(1,0,0,1,-45,-433)" stroke-linecap="butt">
      <text x="279.0961" xml:space="preserve" y="585.8658" clip-path="url(#clipPath2)" stroke="none">keymat</text>
      <rect fill="none" x="253.5695" width="100" height="30" y="566.3654" clip-path="url(#clipPath2)"/>
    </g>
    <g fill="white" transform="matrix(1,0,0,1,-45,-433)" stroke="white">
      <rect x="253.5695" width="100" height="30" y="602.726" clip-path="url(#clipPath2)" stroke="none"/>
    </g>
    <g font-size="13" stroke-miterlimit="1.45" font-family="sans-serif" transform="matrix(1,0,0,1,-45,-433)" stroke-linecap="butt">
      <text x="279.6547" xml:space="preserve" y="622.2264" clip-path="url(#clipPath2)" stroke="none">nonceg</text>
      <rect fill="none" x="253.5695" width="100" height="30" y="602.726" clip-path="url(#clipPath2)"/>
    </g>
    <g fill="white" transform="matrix(1,0,0,1,-45,-433)" stroke="white">
      <rect x="253.5695" width="100" height="30" y="675.4472" clip-path="url(#clipPath2)" stroke="none"/>
    </g>
    <g font-size="13" stroke-miterlimit="1.45" font-family="sans-serif" transform="matrix(1,0,0,1,-45,-433)" stroke-linecap="butt">
      <text x="279.2325" xml:space="preserve" y="694.9477" clip-path="url(#clipPath2)" stroke="none">listener</text>
      <rect fill="none" x="253.5695" width="100" height="30" y="675.4472" clip-path="url(#clipPath2)"/>
    </g>
    <g fill="white" transform="matrix(1,0,0,1,-45,-433)" stroke="white">
      <rect x="253.5695" width="100" height="30" y="639.0866" clip-path="url(#clipPath2)" stroke="none"/>
    </g>
    <g font-size="13" stroke-miterlimit="1.45" font-family="sans-serif" transform="matrix(1,0,0,1,-45,-433)" stroke-linecap="butt">
      <text x="263.0682" xml:space="preserve" y="658.5871" clip-path="url(#clipPath2)" stroke="none">kernel_ipsec</text>
      <rect fill="none" x="253.5695" width="100" height="30" y="639.0866" clip-path="url(#clipPath2)"/>
    </g>
    <g fill="white" transform="matrix(1,0,0,1,-45,-433)" stroke="white">
      <rect x="253.5695" width="100" height="30" y="712.6299" clip-path="url(#clipPath2)" stroke="none"/>
    </g>
    <g font-size="13" stroke-miterlimit="1.45" font-family="sans-serif" transform="matrix(1,0,0,1,-45,-433)" stroke-linecap="butt">
      <text x="265.7279" xml:space="preserve" y="732.1304" clip-path="url(#clipPath2)" stroke="none">private_key</text>
      <rect fill="none" x="253.5695" width="100" height="30" y="712.6299" clip-path="url(#clipPath2)"/>
    </g>
    <g fill="white" transform="matrix(1,0,0,1,-45,-433)" stroke="white">
      <rect x="253.5695" width="100" height="30" y="749.8126" clip-path="url(#clipPath2)" stroke="none"/>
    </g>
    <g font-size="13" stroke-miterlimit="1.45" font-family="sans-serif" transform="matrix(1,0,0,1,-45,-433)" stroke-linecap="butt">
      <text x="269.1525" xml:space="preserve" y="769.313" clip-path="url(#clipPath2)" stroke="none">public_key</text>
      <rect fill="none" x="253.5695" width="100" height="30" y="749.8126" clip-path="url(#clipPath2)"/>
    </g>
    <g fill="rgb(238,68,68)" transform="matrix(1,0,0,1,-45,-433)" stroke="rgb(238,68,68)">
      <rect x="529.5695" width="170" height="30" y="639.9087" clip-path="url(#clipPath2)" stroke="none"/>
    </g>
    <g font-size="13" stroke-miterlimit="1.45" font-family="sans-serif" transform="matrix(1,0,0,1,-45,-433)" stroke-linecap="butt">
      <text x="570.4945" xml:space="preserve" y="659.4091" clip-path="url(#clipPath2)" stroke="none">key_manager</text>
      <rect fill="none" x="529.5695" width="170" height="30" y="639.9087" clip-path="url(#clipPath2)"/>
    </g>
    <g fill="rgb(238,68,68)" transform="matrix(1,0,0,1,-45,-433)" stroke="rgb(238,68,68)">
      <rect x="529.5695" width="15" height="15" y="608.9087" clip-path="url(#clipPath2)" stroke="none"/>
    </g>
    <g font-size="13" stroke-miterlimit="1.45" font-family="sans-serif" transform="matrix(1,0,0,1,-45,-433)" stroke-linecap="butt">
      <text x="497.6329" xml:space="preserve" y="620.9091" clip-path="url(#clipPath2)" stroke="none">TCB</text>
      <rect fill="none" x="529.5695" width="15" height="15" y="608.9087" clip-path="url(#clipPath2)"/>
    </g>
    <g fill="rgb(206,222,226)" transform="matrix(1,0,0,1,-45,-433)" stroke="rgb(206,222,226)">
      <rect x="93.1389" width="100" height="30" y="584" clip-path="url(#clipPath2)" stroke="none"/>
    </g>
    <g stroke-miterlimit="1.45" font-family="sans-serif" transform="matrix(1,0,0,1,-45,-433)" stroke-linecap="butt">
      <text x="121.8167" xml:space="preserve" y="603.1543" clip-path="url(#clipPath2)" stroke="none">ike_init</text>
      <rect fill="none" x="93.1389" width="100" height="30" y="584" clip-path="url(#clipPath2)"/>
    </g>
    <g fill="rgb(206,222,226)" transform="matrix(1,0,0,1,-45,-433)" stroke="rgb(206,222,226)">
      <rect x="93.1389" width="100" height="30" y="621.2669" clip-path="url(#clipPath2)" stroke="none"/>
    </g>
    <g stroke-miterlimit="1.45" font-family="sans-serif" transform="matrix(1,0,0,1,-45,-433)" stroke-linecap="butt">
      <text x="117.6712" xml:space="preserve" y="640.4212" clip-path="url(#clipPath2)" stroke="none">ike_auth</text>
      <rect fill="none" x="93.1389" width="100" height="30" y="621.2669" clip-path="url(#clipPath2)"/>
    </g>
    <g fill="rgb(206,222,226)" transform="matrix(1,0,0,1,-45,-433)" stroke="rgb(206,222,226)">
      <rect x="93.1389" width="100" height="30" y="658.5338" clip-path="url(#clipPath2)" stroke="none"/>
    </g>
    <g stroke-miterlimit="1.45" font-family="sans-serif" transform="matrix(1,0,0,1,-45,-433)" stroke-linecap="butt">
      <text x="106.7171" xml:space="preserve" y="677.6881" clip-path="url(#clipPath2)" stroke="none">child_create</text>
      <rect fill="none" x="93.1389" width="100" height="30" y="658.5338" clip-path="url(#clipPath2)"/>
    </g>
    <g fill="rgb(206,222,226)" transform="matrix(1,0,0,1,-45,-433)" stroke="rgb(206,222,226)">
      <rect x="93.1389" width="100" height="30" y="695.8007" clip-path="url(#clipPath2)" stroke="none"/>
    </g>
    <g stroke-miterlimit="1.45" font-family="sans-serif" transform="matrix(1,0,0,1,-45,-433)" stroke-linecap="butt">
      <text x="137.4173" xml:space="preserve" y="714.955" clip-path="url(#clipPath2)" stroke="none">...</text>
      <rect fill="none" x="93.1389" width="100" height="30" y="695.8007" clip-path="url(#clipPath2)"/>
    </g>
    <g fill="white" transform="matrix(1,0,0,1,-45,-433)" stroke="white">
      <rect x="436.5695" y="530.0047" clip-path="url(#clipPath2)" width="30" rx="4" ry="4" height="249.8078" stroke="none"/>
    </g>
    <g stroke-miterlimit="1.45" font-family="sans-serif" transform="matrix(1,0,0,1,-45,-433)" stroke-linecap="butt">
      <text x="441.9923" xml:space="preserve" y="659.0629" clip-path="url(#clipPath2)" stroke="none">IPC</text>
      <rect x="436.5695" y="530.0047" clip-path="url(#clipPath2)" fill="none" width="30" rx="4" ry="4" height="249.8078"/>
      <path fill="none" d="M203.1045 644.2669 L235.575 644.2669" clip-path="url(#clipPath2)"/>
      <path d="M243.575 644.2669 L231.575 639.2669 L234.575 644.2669 L231.575 649.2669 Z" clip-path="url(#clipPath2)" stroke="none"/>
      <text x="212.7341" xml:space="preserve" y="659.4056" clip-path="url(#clipPath2)" stroke="none">use</text>
      <path fill="none" d="M353.5695 545.0048 L428.5586 545.0048" clip-path="url(#clipPath2)"/>
      <path d="M436.5586 545.0048 L424.5586 540.0048 L427.5586 545.0048 L424.5586 550.0048 Z" clip-path="url(#clipPath2)" stroke="none"/>
      <path fill="none" d="M353.5695 581.3654 L428.5919 581.3654" clip-path="url(#clipPath2)"/>
      <path d="M436.5919 581.3654 L424.5919 576.3654 L427.5919 581.3654 L424.5919 586.3654 Z" clip-path="url(#clipPath2)" stroke="none"/>
      <path fill="none" d="M353.5695 617.726 L428.5775 617.726" clip-path="url(#clipPath2)"/>
      <path d="M436.5775 617.726 L424.5775 612.726 L427.5775 617.726 L424.5775 622.726 Z" clip-path="url(#clipPath2)" stroke="none"/>
      <path fill="none" d="M353.5695 654.0866 L428.5715 654.0866" clip-path="url(#clipPath2)"/>
      <path d="M436.5715 654.0866 L424.5715 649.0866 L427.5715 654.0866 L424.5715 659.0866 Z" clip-path="url(#clipPath2)" stroke="none"/>
      <path fill="none" d="M353.5695 690.4472 L428.5711 690.4472" clip-path="url(#clipPath2)"/>
      <path d="M436.5711 690.4472 L424.5711 685.4472 L427.5711 690.4472 L424.5711 695.4472 Z" clip-path="url(#clipPath2)" stroke="none"/>
      <path fill="none" d="M353.5695 727.6299 L428.5919 727.6299" clip-path="url(#clipPath2)"/>
      <path d="M436.5919 727.6299 L424.5919 722.6299 L427.5919 727.6299 L424.5919 732.6299 Z" clip-path="url(#clipPath2)" stroke="none"/>
      <path fill="none" d="M353.5695 764.8126 L428.5919 764.8126" clip-path="url(#clipPath2)"/>
      <path d="M436.5919 764.8126 L424.5919 759.8126 L427.5919 764.8126 L424.5919 769.8126 Z" clip-path="url(#clipPath2)" stroke="none"/>
      <path fill="none" d="M466.5721 654.9086 L521.5695 654.9086" clip-path="url(#clipPath2)"/>
      <path d="M529.5695 654.9086 L517.5695 649.9086 L520.5695 654.9086 L517.5695 659.9086 Z" clip-path="url(#clipPath2)" stroke="none"/>
    </g>
  </g>
</svg>
