<?xml version="1.0" encoding="UTF-8"?>
<svg xmlns="http://www.w3.org/2000/svg" xmlns:xlink="http://www.w3.org/1999/xlink" fill-opacity="1" color-rendering="auto" color-interpolation="auto" stroke="black" text-rendering="auto" stroke-linecap="square" width="331" stroke-miterlimit="10" stroke-opacity="1" shape-rendering="auto" fill="black" stroke-dasharray="none" font-weight="normal" stroke-width="1" height="331" font-family="'Dialog'" font-style="normal" stroke-linejoin="miter" font-size="12" stroke-dashoffset="0" image-rendering="auto">
  <!--Generated by ySVG-->
  <defs id="genericDefs"/>
  <g>
    <defs id="defs1">
      <clipPath clipPathUnits="userSpaceOnUse" id="clipPath1">
        <path d="M0 0 L331 0 L331 331 L0 331 L0 0 Z"/>
      </clipPath>
      <clipPath clipPathUnits="userSpaceOnUse" id="clipPath2">
        <path d="M-41 -15 L290 -15 L290 316 L-41 316 L-41 -15 Z"/>
      </clipPath>
    </defs>
    <g fill="white" transform="translate(41,15)" stroke="white">
      <rect x="-41" width="331" height="331" y="-15" clip-path="url(#clipPath2)" stroke="none"/>
    </g>
    <g fill="rgb(204,204,255)" transform="matrix(1,0,0,1,41,15)" stroke="rgb(204,204,255)">
      <circle r="42.5" clip-path="url(#clipPath2)" cx="42.5" cy="63.5" stroke="none"/>
    </g>
    <g stroke-miterlimit="1.45" font-family="sans-serif" transform="matrix(1,0,0,1,41,15)" stroke-linecap="butt">
      <text x="26.3633" xml:space="preserve" y="67.6562" clip-path="url(#clipPath2)" stroke="none">clean</text>
      <circle fill="none" r="42.5" clip-path="url(#clipPath2)" cx="42.5" cy="63.5" stroke="rgb(128,128,255)"/>
    </g>
    <g fill="rgb(255,204,204)" transform="matrix(1,0,0,1,41,15)" stroke="rgb(255,204,204)">
      <circle r="42.5" clip-path="url(#clipPath2)" cx="210.8064" cy="160.6717" stroke="none"/>
    </g>
    <g stroke-miterlimit="1.45" font-family="sans-serif" transform="matrix(1,0,0,1,41,15)" stroke-linecap="butt">
      <text x="190.9665" xml:space="preserve" y="164.828" clip-path="url(#clipPath2)" stroke="none">invalid</text>
      <circle fill="none" r="42.5" clip-path="url(#clipPath2)" cx="210.8064" cy="160.6717" stroke="rgb(255,128,128)"/>
    </g>
    <g fill="white" transform="matrix(1,0,0,1,41,15)" stroke="white">
      <circle r="42.5" clip-path="url(#clipPath2)" cx="42.5" cy="257.8434" stroke="none"/>
    </g>
    <g stroke-miterlimit="1.45" font-family="sans-serif" transform="matrix(1,0,0,1,41,15)" stroke-linecap="butt">
      <text x="19.5137" xml:space="preserve" y="261.9997" clip-path="url(#clipPath2)" stroke="none">created</text>
      <circle fill="none" r="42.5" clip-path="url(#clipPath2)" cx="42.5" cy="257.8434"/>
      <path fill="none" d="M63.75 21 L63.75 6 L69.75 0 L100 0 L106 6 L106 36.25 L100 42.25 L93 42.25" clip-path="url(#clipPath2)" stroke="rgb(128,128,255)"/>
      <path fill="rgb(128,128,255)" d="M85 42.25 L97 47.25 L94 42.25 L97 37.25 Z" clip-path="url(#clipPath2)" stroke="none"/>
    </g>
    <g fill="rgb(255,17,17)" stroke-dasharray="6,2" stroke-miterlimit="1.45" transform="matrix(1,0,0,1,41,15)" stroke-linecap="butt" stroke="rgb(255,17,17)">
      <path fill="none" d="M81.5294 80.2601 L169.7985 131.2223" clip-path="url(#clipPath2)"/>
      <path d="M176.7267 135.2223 L168.8344 124.8922 L168.9324 130.7223 L163.8344 133.5524 Z" clip-path="url(#clipPath2)" stroke="none"/>
      <path fill="none" d="M232.0564 118.1717 L232.0564 103.1717 L238.0564 97.1717 L268.3064 97.1717 L274.3064 103.1717 L274.3064 133.4217 L268.3064 139.4217 L261.3064 139.4217" clip-path="url(#clipPath2)"/>
      <path d="M253.3064 139.4217 L265.3064 144.4217 L262.3064 139.4217 L265.3064 134.4217 Z" clip-path="url(#clipPath2)" stroke="none"/>
      <path fill="none" stroke-dasharray="none" d="M171.7294 143.8841 L83.4708 92.928" clip-path="url(#clipPath2)" stroke="rgb(128,128,255)"/>
      <path fill="rgb(128,128,255)" stroke-dasharray="none" d="M76.5426 88.928 L84.4349 99.2581 L84.3368 93.428 L89.4349 90.5979 Z" clip-path="url(#clipPath2)" stroke="none"/>
      <path fill="none" stroke-dasharray="none" d="M42.5 106 L42.5 207.3434" clip-path="url(#clipPath2)" stroke="black"/>
      <path fill="black" stroke-dasharray="none" d="M42.5 215.3434 L47.5 203.3434 L42.5 206.3434 L37.5 203.3434 Z" clip-path="url(#clipPath2)" stroke="none"/>
    </g>
    <g stroke-miterlimit="1.45" font-family="sans-serif" transform="matrix(1,0,0,1,41,15)" stroke-linecap="butt">
      <text x="59.5" xml:space="preserve" y="137.4921" clip-path="url(#clipPath2)" stroke="none">create</text>
      <path fill="none" d="M32.5 216.517 L32.5 112.7802" clip-path="url(#clipPath2)"/>
      <path d="M32.5 104.7802 L27.5 116.7802 L32.5 113.7802 L37.5 116.7802 Z" clip-path="url(#clipPath2)" stroke="none"/>
      <text x="-23.9746" xml:space="preserve" y="137.4921" clip-path="url(#clipPath2)" stroke="none">consume</text>
    </g>
    <g fill="rgb(255,17,17)" stroke-dasharray="6,2" stroke-miterlimit="1.45" transform="matrix(1,0,0,1,41,15)" stroke-linecap="butt" stroke="rgb(255,17,17)">
      <path fill="none" d="M79.3061 236.5934 L167.0721 185.9217" clip-path="url(#clipPath2)"/>
      <path d="M174.0003 181.9217 L161.108 183.5916 L166.206 186.4217 L166.108 192.2518 Z" clip-path="url(#clipPath2)" stroke="none"/>
      <path fill="none" stroke-dasharray="none" d="M52.5 216.517 L52.5 112.7802" clip-path="url(#clipPath2)" stroke="rgb(128,128,255)"/>
      <path fill="rgb(128,128,255)" stroke-dasharray="none" d="M52.5 104.7802 L47.5 116.7802 L52.5 113.7802 L57.5 116.7802 Z" clip-path="url(#clipPath2)" stroke="none"/>
    </g>
  </g>
</svg>
