<?xml version="1.0" encoding="UTF-8"?>
<svg xmlns="http://www.w3.org/2000/svg" xmlns:xlink="http://www.w3.org/1999/xlink" fill-opacity="1" color-rendering="auto" color-interpolation="auto" stroke="black" text-rendering="auto" stroke-linecap="square" width="364" stroke-miterlimit="10" stroke-opacity="1" shape-rendering="auto" fill="black" stroke-dasharray="none" font-weight="normal" stroke-width="1" height="399" font-family="'Dialog'" font-style="normal" stroke-linejoin="miter" font-size="12" stroke-dashoffset="0" image-rendering="auto">
  <!--Generated by ySVG-->
  <defs id="genericDefs"/>
  <g>
    <defs id="defs1">
      <clipPath clipPathUnits="userSpaceOnUse" id="clipPath1">
        <path d="M0 0 L364 0 L364 399 L0 399 L0 0 Z"/>
      </clipPath>
      <clipPath clipPathUnits="userSpaceOnUse" id="clipPath2">
        <path d="M-31 -40 L333 -40 L333 359 L-31 359 L-31 -40 Z"/>
      </clipPath>
    </defs>
    <g fill="white" transform="translate(31,40)" stroke="white">
      <rect x="-31" width="364" height="399" y="-40" clip-path="url(#clipPath2)" stroke="none"/>
    </g>
    <g fill="rgb(204,204,255)" transform="matrix(1,0,0,1,31,40)" stroke="rgb(204,204,255)">
      <circle r="42.5" clip-path="url(#clipPath2)" cx="254.0743" cy="280.0743" stroke="none"/>
    </g>
    <g stroke-miterlimit="1.45" font-family="sans-serif" transform="matrix(1,0,0,1,31,40)" stroke-linecap="butt">
      <text x="237.9376" xml:space="preserve" y="284.2306" clip-path="url(#clipPath2)" stroke="none">clean</text>
      <circle fill="none" r="42.5" clip-path="url(#clipPath2)" cx="254.0743" cy="280.0743" stroke="rgb(128,128,255)"/>
    </g>
    <g fill="rgb(255,204,204)" transform="matrix(1,0,0,1,31,40)" stroke="rgb(255,204,204)">
      <circle r="42.5" clip-path="url(#clipPath2)" cx="254.0743" cy="68.5" stroke="none"/>
    </g>
    <g stroke-miterlimit="1.45" font-family="sans-serif" transform="matrix(1,0,0,1,31,40)" stroke-linecap="butt">
      <text x="234.2345" xml:space="preserve" y="72.6562" clip-path="url(#clipPath2)" stroke="none">invalid</text>
      <circle fill="none" r="42.5" clip-path="url(#clipPath2)" cx="254.0743" cy="68.5" stroke="rgb(255,128,128)"/>
    </g>
    <g fill="white" transform="matrix(1,0,0,1,31,40)" stroke="white">
      <circle r="42.5" clip-path="url(#clipPath2)" cx="42.5" cy="68.5" stroke="none"/>
    </g>
    <g stroke-miterlimit="1.45" font-family="sans-serif" transform="matrix(1,0,0,1,31,40)" stroke-linecap="butt">
      <text x="19.5137" xml:space="preserve" y="72.6562" clip-path="url(#clipPath2)" stroke="none">created</text>
      <circle fill="none" r="42.5" clip-path="url(#clipPath2)" cx="42.5" cy="68.5"/>
    </g>
    <g fill="white" transform="matrix(1,0,0,1,31,40)" stroke="white">
      <circle r="42.5" clip-path="url(#clipPath2)" cx="42.5" cy="280.0743" stroke="none"/>
    </g>
    <g stroke-miterlimit="1.45" font-family="sans-serif" transform="matrix(1,0,0,1,31,40)" stroke-linecap="butt">
      <text x="11.5098" xml:space="preserve" y="284.2306" clip-path="url(#clipPath2)" stroke="none">generated</text>
      <circle fill="none" r="42.5" clip-path="url(#clipPath2)" cx="42.5" cy="280.0743"/>
      <path fill="none" d="M275.3243 322.5743 L275.3243 337.5743 L281.3243 343.5743 L311.5743 343.5743 L317.5743 337.5743 L317.5743 307.3243 L311.5743 301.3243 L304.5743 301.3243" clip-path="url(#clipPath2)" stroke="rgb(128,128,255)"/>
      <path fill="rgb(128,128,255)" d="M296.5743 301.3243 L308.5743 306.3243 L305.5743 301.3243 L308.5743 296.3243 Z" clip-path="url(#clipPath2)" stroke="none"/>
    </g>
    <g fill="rgb(255,17,17)" stroke-dasharray="6,2" stroke-miterlimit="1.45" transform="matrix(1,0,0,1,31,40)" stroke-linecap="butt" stroke="rgb(255,17,17)">
      <path fill="none" d="M249.0743 237.8473 L249.0743 118.7128" clip-path="url(#clipPath2)"/>
      <path d="M249.0743 110.7128 L244.0743 122.7128 L249.0743 119.7128 L254.0743 122.7128 Z" clip-path="url(#clipPath2)" stroke="none"/>
      <path fill="none" d="M275.3243 26 L275.3243 11 L281.3243 5 L311.5743 5 L317.5743 11 L317.5743 41.25 L311.5743 47.25 L304.5743 47.25" clip-path="url(#clipPath2)"/>
      <path d="M296.5743 47.25 L308.5743 52.25 L305.5743 47.25 L308.5743 42.25 Z" clip-path="url(#clipPath2)" stroke="none"/>
      <path fill="none" stroke-dasharray="none" d="M259.0743 110.7271 L259.0743 229.8615" clip-path="url(#clipPath2)" stroke="rgb(128,128,255)"/>
      <path fill="rgb(128,128,255)" stroke-dasharray="none" d="M259.0743 237.8615 L264.0743 225.8615 L259.0743 228.8615 L254.0743 225.8615 Z" clip-path="url(#clipPath2)" stroke="none"/>
      <path fill="none" stroke-dasharray="none" d="M61.25 26 L61.25 8.5 L69.75 0 L102.5 0 L111 8.5 L111 41.25 L102.5 49.75 L93 49.75" clip-path="url(#clipPath2)" stroke="black"/>
      <path fill="black" stroke-dasharray="none" d="M85 49.75 L97 54.75 L94 49.75 L97 44.75 Z" clip-path="url(#clipPath2)" stroke="none"/>
    </g>
    <g stroke-miterlimit="1.45" font-family="sans-serif" transform="matrix(1,0,0,1,31,40)" stroke-linecap="butt">
      <text x="118" xml:space="preserve" y="29.0312" clip-path="url(#clipPath2)" stroke="none">get_dha_id</text>
      <path fill="none" d="M66.25 26 L66.25 11 L72.25 5 L100 5 L106 11 L106 38.75 L100 44.75 L93 44.75" clip-path="url(#clipPath2)"/>
      <path d="M85 44.75 L97 49.75 L94 44.75 L97 39.75 Z" clip-path="url(#clipPath2)" stroke="none"/>
      <text x="3.2217" xml:space="preserve" y="-11.5146" clip-path="url(#clipPath2)" stroke="none">get_secvalue</text>
      <path fill="none" d="M220.7087 253.7797 L74.4609 107.532" clip-path="url(#clipPath2)"/>
      <path d="M68.8041 101.8751 L73.7538 113.8959 L75.168 108.2391 L80.8249 106.8249 Z" clip-path="url(#clipPath2)" stroke="none"/>
      <text x="93.7872" xml:space="preserve" y="180.3543" clip-path="url(#clipPath2)" stroke="none">create</text>
    </g>
    <g fill="rgb(255,17,17)" stroke-dasharray="6,2" stroke-miterlimit="1.45" transform="matrix(1,0,0,1,31,40)" stroke-linecap="butt" stroke="rgb(255,17,17)">
      <path fill="none" d="M85 68.5 L203.5743 68.5" clip-path="url(#clipPath2)"/>
      <path d="M211.5743 68.5 L199.5743 63.5 L202.5743 68.5 L199.5743 73.5 Z" clip-path="url(#clipPath2)" stroke="none"/>
      <path fill="none" stroke-dasharray="none" d="M75.8887 94.8177 L222.0872 241.0161" clip-path="url(#clipPath2)" stroke="rgb(128,128,255)"/>
      <path fill="rgb(128,128,255)" stroke-dasharray="none" d="M227.744 246.673 L222.7943 234.6521 L221.3801 240.309 L215.7232 241.7232 Z" clip-path="url(#clipPath2)" stroke="none"/>
      <path fill="none" stroke-dasharray="none" d="M42.5 111 L42.5 229.5743" clip-path="url(#clipPath2)" stroke="black"/>
      <path fill="black" stroke-dasharray="none" d="M42.5 237.5743 L47.5 225.5743 L42.5 228.5743 L37.5 225.5743 Z" clip-path="url(#clipPath2)" stroke="none"/>
    </g>
    <g stroke-miterlimit="1.45" font-family="sans-serif" transform="matrix(1,0,0,1,31,40)" stroke-linecap="butt">
      <text x="-13.8633" xml:space="preserve" y="178.4434" clip-path="url(#clipPath2)" stroke="none">generate</text>
      <path fill="none" d="M84.7271 275.0743 L203.8615 275.0743" clip-path="url(#clipPath2)"/>
      <path d="M211.8615 275.0743 L199.8615 270.0743 L202.8615 275.0743 L199.8615 280.0743 Z" clip-path="url(#clipPath2)" stroke="none"/>
      <text x="121.0499" xml:space="preserve" y="270.2462" clip-path="url(#clipPath2)" stroke="none">consume</text>
    </g>
    <g fill="rgb(255,17,17)" stroke-dasharray="6,2" stroke-miterlimit="1.45" transform="matrix(1,0,0,1,31,40)" stroke-linecap="butt" stroke="rgb(255,17,17)">
      <path fill="none" d="M72.552 250.0223 L218.3654 104.2089" clip-path="url(#clipPath2)"/>
      <path d="M224.0223 98.552 L212.0015 103.5018 L217.6583 104.916 L219.0726 110.5729 Z" clip-path="url(#clipPath2)" stroke="none"/>
      <path fill="none" stroke-dasharray="none" d="M84.7271 285.0743 L203.8615 285.0743" clip-path="url(#clipPath2)" stroke="rgb(128,128,255)"/>
      <path fill="rgb(128,128,255)" stroke-dasharray="none" d="M211.8615 285.0743 L199.8615 280.0743 L202.8615 285.0743 L199.8615 290.0743 Z" clip-path="url(#clipPath2)" stroke="none"/>
    </g>
  </g>
</svg>
