<?xml version="1.0" encoding="UTF-8"?>
<svg xmlns="http://www.w3.org/2000/svg" xmlns:xlink="http://www.w3.org/1999/xlink" fill-opacity="1" color-rendering="auto" color-interpolation="auto" stroke="black" text-rendering="auto" stroke-linecap="square" width="587" stroke-miterlimit="10" stroke-opacity="1" shape-rendering="auto" fill="black" stroke-dasharray="none" font-weight="normal" stroke-width="1" height="528" font-family="'Dialog'" font-style="normal" stroke-linejoin="miter" font-size="12" stroke-dashoffset="0" image-rendering="auto">
  <!--Generated by ySVG-->
  <defs id="genericDefs"/>
  <g>
    <defs id="defs1">
      <clipPath clipPathUnits="userSpaceOnUse" id="clipPath1">
        <path d="M0 0 L587 0 L587 528 L0 528 L0 0 Z"/>
      </clipPath>
      <clipPath clipPathUnits="userSpaceOnUse" id="clipPath2">
        <path d="M-82 -15 L505 -15 L505 513 L-82 513 L-82 -15 Z"/>
      </clipPath>
    </defs>
    <g fill="white" transform="translate(82,15)" stroke="white">
      <rect x="-82" width="587" height="528" y="-15" clip-path="url(#clipPath2)" stroke="none"/>
    </g>
    <g fill="rgb(204,204,255)" transform="matrix(1,0,0,1,82,15)" stroke="rgb(204,204,255)">
      <circle r="42.5" clip-path="url(#clipPath2)" cx="87.5029" cy="110.4343" stroke="none"/>
    </g>
    <g stroke-miterlimit="1.45" font-family="sans-serif" transform="matrix(1,0,0,1,82,15)" stroke-linecap="butt">
      <text x="71.3662" xml:space="preserve" y="114.5905" clip-path="url(#clipPath2)" stroke="none">clean</text>
      <circle fill="none" r="42.5" clip-path="url(#clipPath2)" cx="87.5029" cy="110.4343" stroke="rgb(128,128,255)"/>
    </g>
    <g fill="rgb(255,204,204)" transform="matrix(1,0,0,1,82,15)" stroke="rgb(255,204,204)">
      <circle r="42.5" clip-path="url(#clipPath2)" cx="425.8019" cy="220.3543" stroke="none"/>
    </g>
    <g stroke-miterlimit="1.45" font-family="sans-serif" transform="matrix(1,0,0,1,82,15)" stroke-linecap="butt">
      <text x="405.962" xml:space="preserve" y="224.5105" clip-path="url(#clipPath2)" stroke="none">invalid</text>
      <circle fill="none" r="42.5" clip-path="url(#clipPath2)" cx="425.8019" cy="220.3543" stroke="rgb(255,128,128)"/>
    </g>
    <g fill="white" transform="matrix(1,0,0,1,82,15)" stroke="white">
      <circle r="42.5" clip-path="url(#clipPath2)" cx="296.5832" cy="42.5" stroke="none"/>
    </g>
    <g stroke-miterlimit="1.45" font-family="sans-serif" transform="matrix(1,0,0,1,82,15)" stroke-linecap="butt">
      <text x="282.0695" xml:space="preserve" y="46.6562" clip-path="url(#clipPath2)" stroke="none">stale</text>
      <circle fill="none" r="42.5" clip-path="url(#clipPath2)" cx="296.5832" cy="42.5"/>
    </g>
    <g fill="white" transform="matrix(1,0,0,1,82,15)" stroke="white">
      <circle r="42.5" clip-path="url(#clipPath2)" cx="296.5832" cy="398.2086" stroke="none"/>
    </g>
    <g stroke-miterlimit="1.45" font-family="sans-serif" transform="matrix(1,0,0,1,82,15)" stroke-linecap="butt">
      <text x="278.4719" xml:space="preserve" y="402.3648" clip-path="url(#clipPath2)" stroke="none">linked</text>
      <circle fill="none" r="42.5" clip-path="url(#clipPath2)" cx="296.5832" cy="398.2086"/>
    </g>
    <g fill="white" transform="matrix(1,0,0,1,82,15)" stroke="white">
      <circle r="42.5" clip-path="url(#clipPath2)" cx="87.5029" cy="330.2743" stroke="none"/>
    </g>
    <g stroke-miterlimit="1.45" font-family="sans-serif" transform="matrix(1,0,0,1,82,15)" stroke-linecap="butt">
      <text x="62.4365" xml:space="preserve" y="334.4305" clip-path="url(#clipPath2)" stroke="none">checked</text>
      <circle fill="none" r="42.5" clip-path="url(#clipPath2)" cx="87.5029" cy="330.2743"/>
      <path fill="none" d="M66.2529 67.9343 L66.2529 52.9343 L60.2529 46.9343 L30.0029 46.9343 L24.0029 52.9343 L24.0029 83.1843 L30.0029 89.1843 L37.0029 89.1843" clip-path="url(#clipPath2)" stroke="rgb(128,128,255)"/>
      <path fill="rgb(128,128,255)" d="M45.0029 89.1843 L33.0029 84.1843 L36.0029 89.1843 L33.0029 94.1843 Z" clip-path="url(#clipPath2)" stroke="none"/>
    </g>
    <g fill="rgb(255,17,17)" stroke-dasharray="6,2" stroke-miterlimit="1.45" transform="matrix(1,0,0,1,82,15)" stroke-linecap="butt" stroke="rgb(255,17,17)">
      <path fill="none" d="M129.1467 118.7079 L379.5878 200.0811" clip-path="url(#clipPath2)"/>
      <path d="M387.1962 202.5532 L377.3286 194.0898 L378.6367 199.7721 L374.2385 203.6003 Z" clip-path="url(#clipPath2)" stroke="none"/>
      <path fill="none" d="M447.0519 177.8543 L447.0519 162.8543 L453.0519 156.8543 L483.3019 156.8543 L489.3019 162.8543 L489.3019 193.1043 L483.3019 199.1043 L476.3019 199.1043" clip-path="url(#clipPath2)"/>
      <path d="M468.3019 199.1043 L480.3019 204.1043 L477.3019 199.1043 L480.3019 194.1043 Z" clip-path="url(#clipPath2)" stroke="none"/>
      <path fill="none" stroke-dasharray="none" d="M384.1339 212.0729 L133.6749 130.6938" clip-path="url(#clipPath2)" stroke="rgb(128,128,255)"/>
      <path fill="rgb(128,128,255)" stroke-dasharray="none" d="M126.0664 128.2216 L135.934 136.6851 L134.6259 131.0028 L139.0242 127.1746 Z" clip-path="url(#clipPath2)" stroke="none"/>
      <path fill="none" d="M321.5641 76.8832 L396.1187 179.4989" clip-path="url(#clipPath2)"/>
      <path d="M400.821 185.971 L397.8127 173.3239 L395.5309 178.6899 L389.7225 179.2018 Z" clip-path="url(#clipPath2)" stroke="none"/>
      <path fill="none" stroke-dasharray="none" d="M256.1633 55.6332 L135.5313 94.8289" clip-path="url(#clipPath2)" stroke="rgb(128,128,255)"/>
      <path fill="rgb(128,128,255)" stroke-dasharray="none" d="M127.9228 97.3011 L140.8806 98.3481 L136.4823 94.5199 L137.7904 88.8376 Z" clip-path="url(#clipPath2)" stroke="none"/>
      <path fill="none" stroke-dasharray="none" d="M116.3304 141.6053 L271.1115 354.6432" clip-path="url(#clipPath2)" stroke="black"/>
      <path fill="black" stroke-dasharray="none" d="M275.8138 361.1154 L272.8054 348.4683 L270.5237 353.8342 L264.7152 354.3461 Z" clip-path="url(#clipPath2)" stroke="none"/>
    </g>
    <g stroke-miterlimit="1.45" font-family="sans-serif" transform="matrix(1,0,0,1,82,15)" stroke-linecap="butt">
      <text x="209.456" xml:space="preserve" y="262.2009" clip-path="url(#clipPath2)" stroke="none">create</text>
      <path fill="none" d="M282.8332 440.7086 L282.8332 463.2086 L269.3332 476.7086 L231.5832 476.7086 L218.0832 463.2086 L218.0832 425.4586 L231.5832 411.9586 L246.0832 411.9586" clip-path="url(#clipPath2)"/>
      <path d="M254.0832 411.9586 L242.0832 406.9586 L245.0832 411.9586 L242.0832 416.9586 Z" clip-path="url(#clipPath2)" stroke="none"/>
      <text x="126.9445" xml:space="preserve" y="439.0523" clip-path="url(#clipPath2)" stroke="none">add_certificate</text>
      <path fill="none" d="M277.8332 440.7086 L277.8332 460.7086 L266.8332 471.7086 L234.0832 471.7086 L223.0832 460.7086 L223.0832 427.9586 L234.0832 416.9586 L246.0832 416.9586" clip-path="url(#clipPath2)"/>
      <path d="M254.0832 416.9586 L242.0832 411.9586 L245.0832 416.9586 L242.0832 421.9586 Z" clip-path="url(#clipPath2)" stroke="none"/>
      <text x="162.6144" xml:space="preserve" y="492.3492" clip-path="url(#clipPath2)" stroke="none">get_last_cert</text>
      <path fill="none" d="M272.8332 440.7086 L272.8332 458.2086 L264.3332 466.7086 L236.5832 466.7086 L228.0832 458.2086 L228.0832 430.4586 L236.5832 421.9586 L246.0832 421.9586" clip-path="url(#clipPath2)"/>
      <path d="M254.0832 421.9586 L242.0832 416.9586 L245.0832 421.9586 L242.0832 426.9586 Z" clip-path="url(#clipPath2)" stroke="none"/>
      <text x="253.6403" xml:space="preserve" y="492.5421" clip-path="url(#clipPath2)" stroke="none">get_not_before</text>
      <path fill="none" d="M267.8332 440.7086 L267.8332 455.7086 L261.8332 461.7086 L239.0832 461.7086 L233.0832 455.7086 L233.0832 432.9586 L239.0832 426.9586 L246.0832 426.9586" clip-path="url(#clipPath2)"/>
      <path d="M254.0832 426.9586 L242.0832 421.9586 L245.0832 426.9586 L242.0832 431.9586 Z" clip-path="url(#clipPath2)" stroke="none"/>
      <text x="172.1232" xml:space="preserve" y="407.1334" clip-path="url(#clipPath2)" stroke="none">get_not_after</text>
    </g>
    <g fill="rgb(255,17,17)" stroke-dasharray="6,2" stroke-miterlimit="1.45" transform="matrix(1,0,0,1,82,15)" stroke-linecap="butt" stroke="rgb(255,17,17)">
      <path fill="none" d="M321.5641 363.8253 L396.1187 261.2096" clip-path="url(#clipPath2)"/>
      <path d="M400.821 254.7375 L389.7225 261.5067 L395.5309 262.0186 L397.8127 267.3846 Z" clip-path="url(#clipPath2)" stroke="none"/>
      <path fill="none" stroke-dasharray="none" d="M267.7133 366.9792 L112.9869 154.0165" clip-path="url(#clipPath2)" stroke="rgb(128,128,255)"/>
      <path fill="rgb(128,128,255)" stroke-dasharray="none" d="M108.2846 147.5444 L111.293 160.1915 L113.5747 154.8255 L119.3831 154.3136 Z" clip-path="url(#clipPath2)" stroke="none"/>
      <path fill="none" stroke-dasharray="none" d="M256.1633 385.0753 L135.5313 345.8796" clip-path="url(#clipPath2)" stroke="black"/>
      <path fill="black" stroke-dasharray="none" d="M127.9228 343.4075 L137.7904 351.871 L136.4823 346.1887 L140.8806 342.3604 Z" clip-path="url(#clipPath2)" stroke="none"/>
    </g>
    <g stroke-miterlimit="1.45" font-family="sans-serif" transform="matrix(1,0,0,1,82,15)" stroke-linecap="butt">
      <text x="147.9655" xml:space="preserve" y="344.4418" clip-path="url(#clipPath2)" stroke="none">check</text>
      <path fill="none" d="M66.2529 287.7743 L66.2529 272.7743 L60.2529 266.7743 L30.0029 266.7743 L24.0029 272.7743 L24.0029 303.0243 L30.0029 309.0243 L37.0029 309.0243" clip-path="url(#clipPath2)"/>
      <path d="M45.0029 309.0243 L33.0029 304.0243 L36.0029 309.0243 L33.0029 314.0243 Z" clip-path="url(#clipPath2)" stroke="none"/>
      <text x="-64.2529" xml:space="preserve" y="262.0555" clip-path="url(#clipPath2)" stroke="none">get_certificate</text>
    </g>
    <g fill="rgb(255,17,17)" stroke-dasharray="6,2" stroke-miterlimit="1.45" transform="matrix(1,0,0,1,82,15)" stroke-linecap="butt" stroke="rgb(255,17,17)">
      <path fill="none" d="M127.9228 317.1411 L377.7735 235.9596" clip-path="url(#clipPath2)"/>
      <path d="M385.382 233.4875 L372.4242 232.4404 L376.8225 236.2687 L375.5144 241.951 Z" clip-path="url(#clipPath2)" stroke="none"/>
      <path fill="none" stroke-dasharray="none" d="M87.5029 287.7743 L87.5029 160.9343" clip-path="url(#clipPath2)" stroke="rgb(128,128,255)"/>
      <path fill="rgb(128,128,255)" stroke-dasharray="none" d="M87.5029 152.9343 L82.5029 164.9343 L87.5029 161.9343 L92.5029 164.9343 Z" clip-path="url(#clipPath2)" stroke="none"/>
    </g>
  </g>
</svg>
