<?xml version="1.0" encoding="UTF-8"?>
<svg xmlns="http://www.w3.org/2000/svg" xmlns:xlink="http://www.w3.org/1999/xlink" fill-opacity="1" color-rendering="auto" color-interpolation="auto" stroke="black" text-rendering="auto" stroke-linecap="square" width="496" stroke-miterlimit="10" stroke-opacity="1" shape-rendering="auto" fill="black" stroke-dasharray="none" font-weight="normal" stroke-width="1" height="497" font-family="'Dialog'" font-style="normal" stroke-linejoin="miter" font-size="12" stroke-dashoffset="0" image-rendering="auto">
  <!--Generated by ySVG-->
  <defs id="genericDefs"/>
  <g>
    <defs id="defs1">
      <clipPath clipPathUnits="userSpaceOnUse" id="clipPath1">
        <path d="M0 0 L496 0 L496 497 L0 497 L0 0 Z"/>
      </clipPath>
      <clipPath clipPathUnits="userSpaceOnUse" id="clipPath2">
        <path d="M-15 -15 L481 -15 L481 482 L-15 482 L-15 -15 Z"/>
      </clipPath>
    </defs>
    <g fill="white" transform="translate(15,15)" stroke="white">
      <rect x="-15" width="496" height="497" y="-15" clip-path="url(#clipPath2)" stroke="none"/>
    </g>
    <g fill="rgb(204,204,255)" transform="matrix(1,0,0,1,15,15)" stroke="rgb(204,204,255)">
      <circle r="42.5" clip-path="url(#clipPath2)" cx="63.5" cy="110.4343" stroke="none"/>
    </g>
    <g stroke-miterlimit="1.45" font-family="sans-serif" transform="matrix(1,0,0,1,15,15)" stroke-linecap="butt">
      <text x="47.3633" xml:space="preserve" y="114.5905" clip-path="url(#clipPath2)" stroke="none">clean</text>
      <circle fill="none" r="42.5" clip-path="url(#clipPath2)" cx="63.5" cy="110.4343" stroke="rgb(128,128,255)"/>
    </g>
    <g fill="rgb(255,204,204)" transform="matrix(1,0,0,1,15,15)" stroke="rgb(255,204,204)">
      <circle r="42.5" clip-path="url(#clipPath2)" cx="401.7989" cy="220.3543" stroke="none"/>
    </g>
    <g stroke-miterlimit="1.45" font-family="sans-serif" transform="matrix(1,0,0,1,15,15)" stroke-linecap="butt">
      <text x="381.9591" xml:space="preserve" y="224.5105" clip-path="url(#clipPath2)" stroke="none">invalid</text>
      <circle fill="none" r="42.5" clip-path="url(#clipPath2)" cx="401.7989" cy="220.3543" stroke="rgb(255,128,128)"/>
    </g>
    <g fill="white" transform="matrix(1,0,0,1,15,15)" stroke="white">
      <circle r="42.5" clip-path="url(#clipPath2)" cx="272.5802" cy="42.5" stroke="none"/>
    </g>
    <g stroke-miterlimit="1.45" font-family="sans-serif" transform="matrix(1,0,0,1,15,15)" stroke-linecap="butt">
      <text x="258.0666" xml:space="preserve" y="46.6562" clip-path="url(#clipPath2)" stroke="none">stale</text>
      <circle fill="none" r="42.5" clip-path="url(#clipPath2)" cx="272.5802" cy="42.5"/>
    </g>
    <g fill="white" transform="matrix(1,0,0,1,15,15)" stroke="white">
      <circle r="42.5" clip-path="url(#clipPath2)" cx="272.5802" cy="398.2086" stroke="none"/>
    </g>
    <g stroke-miterlimit="1.45" font-family="sans-serif" transform="matrix(1,0,0,1,15,15)" stroke-linecap="butt">
      <text x="249.5939" xml:space="preserve" y="402.3648" clip-path="url(#clipPath2)" stroke="none">created</text>
      <circle fill="none" r="42.5" clip-path="url(#clipPath2)" cx="272.5802" cy="398.2086"/>
    </g>
    <g fill="white" transform="matrix(1,0,0,1,15,15)" stroke="white">
      <circle r="42.5" clip-path="url(#clipPath2)" cx="63.5" cy="330.2743" stroke="none"/>
    </g>
    <g stroke-miterlimit="1.45" font-family="sans-serif" transform="matrix(1,0,0,1,15,15)" stroke-linecap="butt">
      <text x="32.5098" xml:space="preserve" y="334.4305" clip-path="url(#clipPath2)" stroke="none">generated</text>
      <circle fill="none" r="42.5" clip-path="url(#clipPath2)" cx="63.5" cy="330.2743"/>
      <path fill="none" d="M42.25 67.9343 L42.25 52.9343 L36.25 46.9343 L6 46.9343 L0 52.9343 L0 83.1843 L6 89.1843 L13 89.1843" clip-path="url(#clipPath2)" stroke="rgb(128,128,255)"/>
      <path fill="rgb(128,128,255)" d="M21 89.1843 L9 84.1843 L12 89.1843 L9 94.1843 Z" clip-path="url(#clipPath2)" stroke="none"/>
    </g>
    <g fill="rgb(255,17,17)" stroke-dasharray="6,2" stroke-miterlimit="1.45" transform="matrix(1,0,0,1,15,15)" stroke-linecap="butt" stroke="rgb(255,17,17)">
      <path fill="none" d="M105.1438 118.7079 L355.5848 200.0811" clip-path="url(#clipPath2)"/>
      <path d="M363.1933 202.5532 L353.3257 194.0898 L354.6338 199.7721 L350.2355 203.6003 Z" clip-path="url(#clipPath2)" stroke="none"/>
      <path fill="none" d="M423.049 177.8543 L423.049 162.8543 L429.049 156.8543 L459.299 156.8543 L465.299 162.8543 L465.299 193.1043 L459.299 199.1043 L452.299 199.1043" clip-path="url(#clipPath2)"/>
      <path d="M444.299 199.1043 L456.299 204.1043 L453.299 199.1043 L456.299 194.1043 Z" clip-path="url(#clipPath2)" stroke="none"/>
      <path fill="none" stroke-dasharray="none" d="M360.131 212.0729 L109.6719 130.6938" clip-path="url(#clipPath2)" stroke="rgb(128,128,255)"/>
      <path fill="rgb(128,128,255)" stroke-dasharray="none" d="M102.0635 128.2216 L111.9311 136.6851 L110.623 131.0028 L115.0212 127.1746 Z" clip-path="url(#clipPath2)" stroke="none"/>
      <path fill="none" d="M297.5611 76.8832 L372.1158 179.4989" clip-path="url(#clipPath2)"/>
      <path d="M376.8181 185.971 L373.8097 173.3239 L371.528 178.6899 L365.7196 179.2018 Z" clip-path="url(#clipPath2)" stroke="none"/>
      <path fill="none" stroke-dasharray="none" d="M232.1603 55.6332 L111.5284 94.8289" clip-path="url(#clipPath2)" stroke="rgb(128,128,255)"/>
      <path fill="rgb(128,128,255)" stroke-dasharray="none" d="M103.9199 97.3011 L116.8777 98.3481 L112.4794 94.5199 L113.7875 88.8376 Z" clip-path="url(#clipPath2)" stroke="none"/>
      <path fill="none" stroke-dasharray="none" d="M253.8302 440.7086 L253.8302 458.2086 L245.3302 466.7086 L212.5802 466.7086 L204.0802 458.2086 L204.0802 425.4586 L212.5802 416.9586 L222.0802 416.9586" clip-path="url(#clipPath2)" stroke="black"/>
      <path fill="black" stroke-dasharray="none" d="M230.0802 416.9586 L218.0802 411.9586 L221.0802 416.9586 L218.0802 421.9586 Z" clip-path="url(#clipPath2)" stroke="none"/>
    </g>
    <g stroke-miterlimit="1.45" font-family="sans-serif" transform="matrix(1,0,0,1,15,15)" stroke-linecap="butt">
      <text x="136.8478" xml:space="preserve" y="445.9898" clip-path="url(#clipPath2)" stroke="none">get_dha_id</text>
      <path fill="none" d="M248.8302 440.7086 L248.8302 455.7086 L242.8302 461.7086 L215.0802 461.7086 L209.0802 455.7086 L209.0802 427.9586 L215.0802 421.9586 L222.0802 421.9586" clip-path="url(#clipPath2)"/>
      <path d="M230.0802 421.9586 L218.0802 416.9586 L221.0802 421.9586 L218.0802 426.9586 Z" clip-path="url(#clipPath2)" stroke="none"/>
      <text x="146.0519" xml:space="preserve" y="405.4439" clip-path="url(#clipPath2)" stroke="none">get_secvalue</text>
      <path fill="none" d="M92.3274 141.6053 L247.1085 354.6432" clip-path="url(#clipPath2)"/>
      <path d="M251.8108 361.1154 L248.8025 348.4683 L246.5207 353.8342 L240.7123 354.3461 Z" clip-path="url(#clipPath2)" stroke="none"/>
      <text x="185.4531" xml:space="preserve" y="262.2009" clip-path="url(#clipPath2)" stroke="none">create</text>
    </g>
    <g fill="rgb(255,17,17)" stroke-dasharray="6,2" stroke-miterlimit="1.45" transform="matrix(1,0,0,1,15,15)" stroke-linecap="butt" stroke="rgb(255,17,17)">
      <path fill="none" d="M297.5611 363.8253 L372.1158 261.2096" clip-path="url(#clipPath2)"/>
      <path d="M376.8181 254.7375 L365.7195 261.5067 L371.528 262.0186 L373.8097 267.3846 Z" clip-path="url(#clipPath2)" stroke="none"/>
      <path fill="none" stroke-dasharray="none" d="M243.7104 366.9792 L88.984 154.0165" clip-path="url(#clipPath2)" stroke="rgb(128,128,255)"/>
      <path fill="rgb(128,128,255)" stroke-dasharray="none" d="M84.2817 147.5444 L87.29 160.1915 L89.5718 154.8255 L95.3802 154.3136 Z" clip-path="url(#clipPath2)" stroke="none"/>
      <path fill="none" stroke-dasharray="none" d="M232.1603 385.0753 L111.5284 345.8796" clip-path="url(#clipPath2)" stroke="black"/>
      <path fill="black" stroke-dasharray="none" d="M103.9199 343.4075 L113.7875 351.871 L112.4794 346.1887 L116.8777 342.3604 Z" clip-path="url(#clipPath2)" stroke="none"/>
    </g>
    <g stroke-miterlimit="1.45" font-family="sans-serif" transform="matrix(1,0,0,1,15,15)" stroke-linecap="butt">
      <text x="115.2655" xml:space="preserve" y="336.6159" clip-path="url(#clipPath2)" stroke="none">generate</text>
      <path fill="none" d="M58.5 288.0613 L58.5 160.6294" clip-path="url(#clipPath2)"/>
      <path d="M58.5 152.6294 L53.5 164.6294 L58.5 161.6294 L63.5 164.6294 Z" clip-path="url(#clipPath2)" stroke="none"/>
      <text x="2.0254" xml:space="preserve" y="207.6555" clip-path="url(#clipPath2)" stroke="none">consume</text>
    </g>
    <g fill="rgb(255,17,17)" stroke-dasharray="6,2" stroke-miterlimit="1.45" transform="matrix(1,0,0,1,15,15)" stroke-linecap="butt" stroke="rgb(255,17,17)">
      <path fill="none" d="M103.9199 317.1411 L353.7706 235.9596" clip-path="url(#clipPath2)"/>
      <path d="M361.3791 233.4875 L348.4213 232.4404 L352.8195 236.2687 L351.5115 241.951 Z" clip-path="url(#clipPath2)" stroke="none"/>
      <path fill="none" stroke-dasharray="none" d="M68.5 288.0613 L68.5 160.6294" clip-path="url(#clipPath2)" stroke="rgb(128,128,255)"/>
      <path fill="rgb(128,128,255)" stroke-dasharray="none" d="M68.5 152.6294 L63.5 164.6294 L68.5 161.6294 L73.5 164.6294 Z" clip-path="url(#clipPath2)" stroke="none"/>
    </g>
  </g>
</svg>
