<?xml version="1.0" encoding="UTF-8"?>
<svg xmlns="http://www.w3.org/2000/svg" xmlns:xlink="http://www.w3.org/1999/xlink" fill-opacity="1" color-rendering="auto" color-interpolation="auto" stroke="black" text-rendering="auto" stroke-linecap="square" width="1047" stroke-miterlimit="10" stroke-opacity="1" shape-rendering="auto" fill="black" stroke-dasharray="none" font-weight="normal" stroke-width="1" height="796" font-family="'Dialog'" font-style="normal" stroke-linejoin="miter" font-size="12" stroke-dashoffset="0" image-rendering="auto">
  <!--Generated by ySVG-->
  <defs id="genericDefs"/>
  <g>
    <defs id="defs1">
      <clipPath clipPathUnits="userSpaceOnUse" id="clipPath1">
        <path d="M0 0 L1047 0 L1047 796 L0 796 L0 0 Z"/>
      </clipPath>
      <clipPath clipPathUnits="userSpaceOnUse" id="clipPath2">
        <path d="M-135 -38 L912 -38 L912 758 L-135 758 L-135 -38 Z"/>
      </clipPath>
    </defs>
    <g fill="white" transform="translate(135,38)" stroke="white">
      <rect x="-135" width="1047" height="796" y="-38" clip-path="url(#clipPath2)" stroke="none"/>
    </g>
    <g fill="rgb(204,204,255)" transform="matrix(1,0,0,1,135,38)" stroke="rgb(204,204,255)">
      <circle r="42.5" clip-path="url(#clipPath2)" cx="274.2308" cy="83.5" stroke="none"/>
    </g>
    <g stroke-miterlimit="1.45" font-family="sans-serif" transform="matrix(1,0,0,1,135,38)" stroke-linecap="butt">
      <text x="258.0941" xml:space="preserve" y="87.6562" clip-path="url(#clipPath2)" stroke="none">clean</text>
      <circle fill="none" r="42.5" clip-path="url(#clipPath2)" cx="274.2308" cy="83.5" stroke="rgb(128,128,255)"/>
    </g>
    <g fill="rgb(255,204,204)" transform="matrix(1,0,0,1,135,38)" stroke="rgb(255,204,204)">
      <circle r="42.5" clip-path="url(#clipPath2)" cx="665.1692" cy="245.432" stroke="none"/>
    </g>
    <g stroke-miterlimit="1.45" font-family="sans-serif" transform="matrix(1,0,0,1,135,38)" stroke-linecap="butt">
      <text x="645.3293" xml:space="preserve" y="249.5882" clip-path="url(#clipPath2)" stroke="none">invalid</text>
      <circle fill="none" r="42.5" clip-path="url(#clipPath2)" cx="665.1692" cy="245.432" stroke="rgb(255,128,128)"/>
    </g>
    <g fill="white" transform="matrix(1,0,0,1,135,38)" stroke="white">
      <circle r="42.5" clip-path="url(#clipPath2)" cx="112.2988" cy="245.432" stroke="none"/>
    </g>
    <g stroke-miterlimit="1.45" font-family="sans-serif" transform="matrix(1,0,0,1,135,38)" stroke-linecap="butt">
      <text x="97.7852" xml:space="preserve" y="249.5882" clip-path="url(#clipPath2)" stroke="none">stale</text>
      <circle fill="none" r="42.5" clip-path="url(#clipPath2)" cx="112.2988" cy="245.432"/>
    </g>
    <g fill="white" transform="matrix(1,0,0,1,135,38)" stroke="white">
      <circle r="42.5" clip-path="url(#clipPath2)" cx="665.1692" cy="474.4384" stroke="none"/>
    </g>
    <g stroke-miterlimit="1.45" font-family="sans-serif" transform="matrix(1,0,0,1,135,38)" stroke-linecap="butt">
      <text x="643.929" xml:space="preserve" y="478.5946" clip-path="url(#clipPath2)" stroke="none">unauth</text>
      <circle fill="none" r="42.5" clip-path="url(#clipPath2)" cx="665.1692" cy="474.4384"/>
    </g>
    <g fill="white" transform="matrix(1,0,0,1,135,38)" stroke="white">
      <circle r="42.5" clip-path="url(#clipPath2)" cx="503.2372" cy="636.3704" stroke="none"/>
    </g>
    <g stroke-miterlimit="1.45" font-family="sans-serif" transform="matrix(1,0,0,1,135,38)" stroke-linecap="butt">
      <text x="477.9657" xml:space="preserve" y="640.5266" clip-path="url(#clipPath2)" stroke="none">loc_auth</text>
      <circle fill="none" r="42.5" clip-path="url(#clipPath2)" cx="503.2372" cy="636.3704"/>
    </g>
    <g fill="white" transform="matrix(1,0,0,1,135,38)" stroke="white">
      <circle r="42.5" clip-path="url(#clipPath2)" cx="503.2372" cy="83.5" stroke="none"/>
    </g>
    <g stroke-miterlimit="1.45" font-family="sans-serif" transform="matrix(1,0,0,1,135,38)" stroke-linecap="butt">
      <text x="474.5995" xml:space="preserve" y="87.6562" clip-path="url(#clipPath2)" stroke="none">rem_auth</text>
      <circle fill="none" r="42.5" clip-path="url(#clipPath2)" cx="503.2372" cy="83.5"/>
    </g>
    <g fill="white" transform="matrix(1,0,0,1,135,38)" stroke="white">
      <circle r="42.5" clip-path="url(#clipPath2)" cx="274.2308" cy="636.3704" stroke="none"/>
    </g>
    <g stroke-miterlimit="1.45" font-family="sans-serif" transform="matrix(1,0,0,1,135,38)" stroke-linecap="butt">
      <text x="232.2543" xml:space="preserve" y="640.5266" clip-path="url(#clipPath2)" stroke="none">authenticated</text>
      <circle fill="none" r="42.5" clip-path="url(#clipPath2)" cx="274.2308" cy="636.3704"/>
    </g>
    <g fill="white" transform="matrix(1,0,0,1,135,38)" stroke="white">
      <circle r="42.5" clip-path="url(#clipPath2)" cx="112.2988" cy="474.4384" stroke="none"/>
    </g>
    <g stroke-miterlimit="1.45" font-family="sans-serif" transform="matrix(1,0,0,1,135,38)" stroke-linecap="butt">
      <text x="94.0615" xml:space="preserve" y="478.5946" clip-path="url(#clipPath2)" stroke="none">active</text>
      <circle fill="none" r="42.5" clip-path="url(#clipPath2)" cx="112.2988" cy="474.4384"/>
      <path fill="none" d="M295.4808 41 L295.4808 26 L301.4808 20 L331.7308 20 L337.7308 26 L337.7308 56.25 L331.7308 62.25 L324.7308 62.25" clip-path="url(#clipPath2)" stroke="rgb(128,128,255)"/>
      <path fill="rgb(128,128,255)" d="M316.7308 62.25 L328.7308 67.25 L325.7308 62.25 L328.7308 57.25 Z" clip-path="url(#clipPath2)" stroke="none"/>
    </g>
    <g fill="rgb(255,17,17)" stroke-dasharray="6,2" stroke-miterlimit="1.45" transform="matrix(1,0,0,1,135,38)" stroke-linecap="butt" stroke="rgb(255,17,17)">
      <path fill="none" d="M315.157 95.0402 L620.7272 221.6115" clip-path="url(#clipPath2)"/>
      <path d="M628.1182 224.673 L618.9451 215.4614 L619.8033 221.2289 L615.1182 224.7002 Z" clip-path="url(#clipPath2)" stroke="none"/>
      <path fill="none" d="M686.4192 202.932 L686.4192 187.932 L692.4192 181.932 L722.6692 181.932 L728.6692 187.932 L728.6692 218.182 L722.6692 224.182 L715.6692 224.182" clip-path="url(#clipPath2)"/>
      <path d="M707.6692 224.182 L719.6692 229.182 L716.6692 224.182 L719.6692 219.182 Z" clip-path="url(#clipPath2)" stroke="none"/>
      <path fill="none" stroke-dasharray="none" d="M624.2476 233.8937 L318.6659 107.3176" clip-path="url(#clipPath2)" stroke="rgb(128,128,255)"/>
      <path fill="rgb(128,128,255)" stroke-dasharray="none" d="M311.2748 104.2561 L320.448 113.4677 L319.5898 107.7002 L324.2748 104.2289 Z" clip-path="url(#clipPath2)" stroke="none"/>
      <path fill="none" stroke-dasharray="none" d="M142.3509 215.3799 L238.5219 119.2089" clip-path="url(#clipPath2)" stroke="rgb(128,128,255)"/>
      <path fill="rgb(128,128,255)" stroke-dasharray="none" d="M244.1788 113.552 L232.158 118.5018 L237.8148 119.916 L239.229 125.5729 Z" clip-path="url(#clipPath2)" stroke="none"/>
      <path fill="none" d="M154.7988 245.432 L614.6692 245.432" clip-path="url(#clipPath2)"/>
      <path d="M622.6692 245.432 L610.6692 240.432 L613.6692 245.432 L610.6692 250.432 Z" clip-path="url(#clipPath2)" stroke="none"/>
      <path fill="none" stroke-dasharray="none" d="M307.6165 109.8146 L633.1849 435.3831" clip-path="url(#clipPath2)" stroke="black"/>
      <path fill="black" stroke-dasharray="none" d="M638.8418 441.0399 L633.892 429.0191 L632.4778 434.676 L626.821 436.0902 Z" clip-path="url(#clipPath2)" stroke="none"/>
    </g>
    <g stroke-miterlimit="1.45" font-family="sans-serif" transform="matrix(1,0,0,1,135,38)" stroke-linecap="butt">
      <text x="528.071" xml:space="preserve" y="440.3338" clip-path="url(#clipPath2)" stroke="none">create</text>
      <path fill="none" d="M676.4192 431.9384 L676.4192 406.9384 L692.4192 390.9384 L732.6692 390.9384 L748.6692 406.9384 L748.6692 447.1884 L732.6692 463.1884 L715.6692 463.1884" clip-path="url(#clipPath2)"/>
      <path d="M707.6692 463.1884 L719.6692 468.1884 L716.6692 463.1884 L719.6692 458.1884 Z" clip-path="url(#clipPath2)" stroke="none"/>
      <text x="766.8876" xml:space="preserve" y="500.6792" clip-path="url(#clipPath2)" stroke="none">is_initiator</text>
      <path fill="none" d="M681.4192 431.9384 L681.4192 409.4384 L694.9192 395.9384 L730.1692 395.9384 L743.6692 409.4384 L743.6692 444.6884 L730.1692 458.1884 L715.6692 458.1884" clip-path="url(#clipPath2)"/>
      <path d="M707.6692 458.1884 L719.6692 463.1884 L716.6692 458.1884 L719.6692 453.1884 Z" clip-path="url(#clipPath2)" stroke="none"/>
      <text x="722.7253" xml:space="preserve" y="480.7729" clip-path="url(#clipPath2)" stroke="none">get_nonce_rem</text>
      <path fill="none" d="M686.4192 431.9384 L686.4192 411.9384 L697.4192 400.9384 L727.6692 400.9384 L738.6692 411.9384 L738.6692 442.1884 L727.6692 453.1884 L715.6692 453.1884" clip-path="url(#clipPath2)"/>
      <path d="M707.6692 453.1884 L719.6692 458.1884 L716.6692 453.1884 L719.6692 448.1884 Z" clip-path="url(#clipPath2)" stroke="none"/>
      <text x="780.6692" xml:space="preserve" y="446.3446" clip-path="url(#clipPath2)" stroke="none">get_nonce_loc</text>
      <path fill="none" d="M691.4192 431.9384 L691.4192 414.4384 L699.9192 405.9384 L725.1692 405.9384 L733.6692 414.4384 L733.6692 439.6884 L725.1692 448.1884 L715.6692 448.1884" clip-path="url(#clipPath2)"/>
      <path d="M707.6692 448.1884 L719.6692 453.1884 L716.6692 448.1884 L719.6692 443.1884 Z" clip-path="url(#clipPath2)" stroke="none"/>
      <text x="775.6692" xml:space="preserve" y="418.5946" clip-path="url(#clipPath2)" stroke="none">get_sk_ike_auth_loc</text>
      <path fill="none" d="M696.4192 431.9384 L696.4192 416.9384 L702.4192 410.9384 L722.6692 410.9384 L728.6692 416.9384 L728.6692 437.1884 L722.6692 443.1884 L715.6692 443.1884" clip-path="url(#clipPath2)"/>
      <path d="M707.6692 443.1884 L719.6692 448.1884 L716.6692 443.1884 L719.6692 438.1884 Z" clip-path="url(#clipPath2)" stroke="none"/>
      <text x="701.1995" xml:space="preserve" y="382.6405" clip-path="url(#clipPath2)" stroke="none">get_sk_ike_auth_rem</text>
      <path fill="none" d="M631.7795 448.1197 L306.1763 122.5165" clip-path="url(#clipPath2)" stroke="rgb(128,128,255)"/>
      <path fill="rgb(128,128,255)" d="M300.5194 116.8597 L305.4692 128.8805 L306.8834 123.2236 L312.5402 121.8094 Z" clip-path="url(#clipPath2)" stroke="none"/>
    </g>
    <g fill="rgb(255,17,17)" stroke-dasharray="6,2" stroke-miterlimit="1.45" transform="matrix(1,0,0,1,135,38)" stroke-linecap="butt" stroke="rgb(255,17,17)">
      <path fill="none" d="M665.1692 431.9384 L665.1692 295.932" clip-path="url(#clipPath2)"/>
      <path d="M665.1692 287.932 L660.1692 299.932 L665.1692 296.932 L670.1692 299.932 Z" clip-path="url(#clipPath2)" stroke="none"/>
      <path fill="none" stroke-dasharray="none" d="M635.1172 504.4904 L538.9461 600.6615" clip-path="url(#clipPath2)" stroke="black"/>
      <path fill="black" stroke-dasharray="none" d="M533.2892 606.3184 L545.3101 601.3686 L539.6532 599.9544 L538.239 594.2975 Z" clip-path="url(#clipPath2)" stroke="none"/>
    </g>
    <g stroke-miterlimit="1.45" font-family="sans-serif" transform="matrix(1,0,0,1,135,38)" stroke-linecap="butt">
      <text x="611.7775" xml:space="preserve" y="599.5392" clip-path="url(#clipPath2)" stroke="none">sign</text>
      <path fill="none" d="M514.4872 678.8704 L514.4872 703.8704 L530.4872 719.8704 L570.7372 719.8704 L586.7372 703.8704 L586.7372 663.6204 L570.7372 647.6204 L553.7372 647.6204" clip-path="url(#clipPath2)"/>
      <path d="M545.7372 647.6204 L557.7372 652.6204 L554.7372 647.6204 L557.7372 642.6204 Z" clip-path="url(#clipPath2)" stroke="none"/>
      <text x="466.3207" xml:space="preserve" y="733.0769" clip-path="url(#clipPath2)" stroke="none">is_initiator</text>
      <path fill="none" d="M519.4872 678.8704 L519.4872 701.3704 L532.9872 714.8704 L568.2372 714.8704 L581.7372 701.3704 L581.7372 666.1204 L568.2372 652.6204 L553.7372 652.6204" clip-path="url(#clipPath2)"/>
      <path d="M545.7372 652.6204 L557.7372 657.6204 L554.7372 652.6204 L557.7372 647.6204 Z" clip-path="url(#clipPath2)" stroke="none"/>
      <text x="560.7934" xml:space="preserve" y="737.4548" clip-path="url(#clipPath2)" stroke="none">get_nonce_rem</text>
      <path fill="none" d="M524.4872 678.8704 L524.4872 698.8704 L535.4872 709.8704 L565.7372 709.8704 L576.7372 698.8704 L576.7372 668.6204 L565.7372 657.6204 L553.7372 657.6204" clip-path="url(#clipPath2)"/>
      <path d="M545.7372 657.6204 L557.7372 662.6204 L554.7372 657.6204 L557.7372 652.6204 Z" clip-path="url(#clipPath2)" stroke="none"/>
      <text x="555.3515" xml:space="preserve" y="640.4065" clip-path="url(#clipPath2)" stroke="none">get_nonce_loc</text>
      <path fill="none" d="M529.4872 678.8704 L529.4872 696.3704 L537.9872 704.8704 L563.2372 704.8704 L571.7372 696.3704 L571.7372 671.1204 L563.2372 662.6204 L553.7372 662.6204" clip-path="url(#clipPath2)"/>
      <path d="M545.7372 662.6204 L557.7372 667.6204 L554.7372 662.6204 L557.7372 657.6204 Z" clip-path="url(#clipPath2)" stroke="none"/>
      <text x="613.7372" xml:space="preserve" y="675.2766" clip-path="url(#clipPath2)" stroke="none">get_sk_ike_auth_loc</text>
      <path fill="none" d="M534.4872 678.8704 L534.4872 693.8704 L540.4872 699.8704 L560.7372 699.8704 L566.7372 693.8704 L566.7372 673.6204 L560.7372 667.6204 L553.7372 667.6204" clip-path="url(#clipPath2)"/>
      <path d="M545.7372 667.6204 L557.7372 672.6204 L554.7372 667.6204 L557.7372 662.6204 Z" clip-path="url(#clipPath2)" stroke="none"/>
      <text x="608.7372" xml:space="preserve" y="698.0266" clip-path="url(#clipPath2)" stroke="none">get_sk_ike_auth_rem</text>
      <path fill="none" d="M486.9732 597.1055 L293.5563 130.1559" clip-path="url(#clipPath2)" stroke="rgb(128,128,255)"/>
      <path fill="rgb(128,128,255)" d="M290.4949 122.7649 L290.4677 135.7648 L293.939 131.0798 L299.7065 131.938 Z" clip-path="url(#clipPath2)" stroke="none"/>
    </g>
    <g fill="rgb(255,17,17)" stroke-dasharray="6,2" stroke-miterlimit="1.45" transform="matrix(1,0,0,1,135,38)" stroke-linecap="butt" stroke="rgb(255,17,17)">
      <path fill="none" d="M519.5013 597.1055 L645.8437 292.0879" clip-path="url(#clipPath2)"/>
      <path d="M648.9052 284.6969 L639.6935 293.87 L645.461 293.0118 L648.9324 297.6968 Z" clip-path="url(#clipPath2)" stroke="none"/>
      <path fill="none" stroke-dasharray="none" d="M514.4872 41 L514.4872 16 L530.4872 0 L570.7372 0 L586.7372 16 L586.7372 56.25 L570.7372 72.25 L553.7372 72.25" clip-path="url(#clipPath2)" stroke="black"/>
      <path fill="black" stroke-dasharray="none" d="M545.7372 72.25 L557.7372 77.25 L554.7372 72.25 L557.7372 67.25 Z" clip-path="url(#clipPath2)" stroke="none"/>
    </g>
    <g stroke-miterlimit="1.45" font-family="sans-serif" transform="matrix(1,0,0,1,135,38)" stroke-linecap="butt">
      <text x="572.6713" xml:space="preserve" y="85.4565" clip-path="url(#clipPath2)" stroke="none">is_initiator</text>
      <path fill="none" d="M519.4872 41 L519.4872 18.5 L532.9872 5 L568.2372 5 L581.7372 18.5 L581.7372 53.75 L568.2372 67.25 L553.7372 67.25" clip-path="url(#clipPath2)"/>
      <path d="M545.7372 67.25 L557.7372 72.25 L554.7372 67.25 L557.7372 62.25 Z" clip-path="url(#clipPath2)" stroke="none"/>
      <text x="560.7934" xml:space="preserve" y="-9.272" clip-path="url(#clipPath2)" stroke="none">get_nonce_rem</text>
      <path fill="none" d="M524.4872 41 L524.4872 21 L535.4872 10 L565.7372 10 L576.7372 21 L576.7372 51.25 L565.7372 62.25 L553.7372 62.25" clip-path="url(#clipPath2)"/>
      <path d="M545.7372 62.25 L557.7372 67.25 L554.7372 62.25 L557.7372 57.25 Z" clip-path="url(#clipPath2)" stroke="none"/>
      <text x="396.9755" xml:space="preserve" y="25.1562" clip-path="url(#clipPath2)" stroke="none">get_nonce_loc</text>
      <path fill="none" d="M529.4872 41 L529.4872 23.5 L537.9872 15 L563.2372 15 L571.7372 23.5 L571.7372 48.75 L563.2372 57.25 L553.7372 57.25" clip-path="url(#clipPath2)"/>
      <path d="M545.7372 57.25 L557.7372 62.25 L554.7372 57.25 L557.7372 52.25 Z" clip-path="url(#clipPath2)" stroke="none"/>
      <text x="436.7836" xml:space="preserve" y="-9.7397" clip-path="url(#clipPath2)" stroke="none">get_sk_ike_auth_loc</text>
      <path fill="none" d="M534.4872 41 L534.4872 26 L540.4872 20 L560.7372 20 L566.7372 26 L566.7372 46.25 L560.7372 52.25 L553.7372 52.25" clip-path="url(#clipPath2)"/>
      <path d="M545.7372 52.25 L557.7372 57.25 L554.7372 52.25 L557.7372 47.25 Z" clip-path="url(#clipPath2)" stroke="none"/>
      <text x="608.7372" xml:space="preserve" y="50.4062" clip-path="url(#clipPath2)" stroke="none">get_sk_ike_auth_rem</text>
      <path fill="none" d="M460.7372 83.5 L324.7308 83.5" clip-path="url(#clipPath2)" stroke="rgb(128,128,255)"/>
      <path fill="rgb(128,128,255)" d="M316.7308 83.5 L328.7308 88.5 L325.7308 83.5 L328.7308 78.5 Z" clip-path="url(#clipPath2)" stroke="none"/>
    </g>
    <g fill="rgb(255,17,17)" stroke-dasharray="6,2" stroke-miterlimit="1.45" transform="matrix(1,0,0,1,135,38)" stroke-linecap="butt" stroke="rgb(255,17,17)">
      <path fill="none" d="M533.2892 113.552 L629.4603 209.7231" clip-path="url(#clipPath2)"/>
      <path d="M635.1172 215.3799 L630.1674 203.3591 L628.7532 209.016 L623.0964 210.4302 Z" clip-path="url(#clipPath2)" stroke="none"/>
      <path fill="none" stroke-dasharray="none" d="M460.7372 636.3704 L324.7308 636.3704" clip-path="url(#clipPath2)" stroke="black"/>
      <path fill="black" stroke-dasharray="none" d="M316.7308 636.3704 L328.7308 641.3704 L325.7308 636.3704 L328.7308 631.3704 Z" clip-path="url(#clipPath2)" stroke="none"/>
    </g>
    <g stroke-miterlimit="1.45" font-family="sans-serif" transform="matrix(1,0,0,1,135,38)" stroke-linecap="butt">
      <text x="350.566" xml:space="preserve" y="591.5422" clip-path="url(#clipPath2)" stroke="none">authenticate</text>
      <path fill="none" d="M285.4808 678.8704 L285.4808 703.8704 L301.4808 719.8704 L341.7308 719.8704 L357.7308 703.8704 L357.7308 663.6204 L341.7308 647.6204 L324.7308 647.6204" clip-path="url(#clipPath2)"/>
      <path d="M316.7308 647.6204 L328.7308 652.6204 L325.7308 647.6204 L328.7308 642.6204 Z" clip-path="url(#clipPath2)" stroke="none"/>
      <text x="343.6649" xml:space="preserve" y="733.0769" clip-path="url(#clipPath2)" stroke="none">is_initiator</text>
      <path fill="none" d="M290.4808 678.8704 L290.4808 701.3704 L303.9808 714.8704 L339.2308 714.8704 L352.7308 701.3704 L352.7308 666.1204 L339.2308 652.6204 L324.7308 652.6204" clip-path="url(#clipPath2)"/>
      <path d="M316.7308 652.6204 L328.7308 657.6204 L325.7308 652.6204 L328.7308 647.6204 Z" clip-path="url(#clipPath2)" stroke="none"/>
      <text x="219.1805" xml:space="preserve" y="737.4548" clip-path="url(#clipPath2)" stroke="none">get_nonce_rem</text>
      <path fill="none" d="M295.4808 678.8704 L295.4808 698.8704 L306.4808 709.8704 L336.7308 709.8704 L347.7308 698.8704 L347.7308 668.6204 L336.7308 657.6204 L324.7308 657.6204" clip-path="url(#clipPath2)"/>
      <path d="M316.7308 657.6204 L328.7308 662.6204 L325.7308 657.6204 L328.7308 652.6204 Z" clip-path="url(#clipPath2)" stroke="none"/>
      <text x="360.1293" xml:space="preserve" y="617.6223" clip-path="url(#clipPath2)" stroke="none">get_nonce_loc</text>
      <path fill="none" d="M300.4808 678.8704 L300.4808 696.3704 L308.9808 704.8704 L334.2308 704.8704 L342.7308 696.3704 L342.7308 671.1204 L334.2308 662.6204 L324.7308 662.6204" clip-path="url(#clipPath2)"/>
      <path d="M316.7308 662.6204 L328.7308 667.6204 L325.7308 662.6204 L328.7308 657.6204 Z" clip-path="url(#clipPath2)" stroke="none"/>
      <text x="139.3656" xml:space="preserve" y="700.5266" clip-path="url(#clipPath2)" stroke="none">get_sk_ike_auth_loc</text>
      <path fill="none" d="M305.4808 678.8704 L305.4808 693.8704 L311.4808 699.8704 L331.7308 699.8704 L337.7308 693.8704 L337.7308 673.6204 L331.7308 667.6204 L324.7308 667.6204" clip-path="url(#clipPath2)"/>
      <path d="M316.7308 667.6204 L328.7308 672.6204 L325.7308 667.6204 L328.7308 662.6204 Z" clip-path="url(#clipPath2)" stroke="none"/>
      <text x="379.7308" xml:space="preserve" y="698.0266" clip-path="url(#clipPath2)" stroke="none">get_sk_ike_auth_rem</text>
      <path fill="none" d="M274.2308 593.8704 L274.2308 134" clip-path="url(#clipPath2)" stroke="rgb(128,128,255)"/>
      <path fill="rgb(128,128,255)" d="M274.2308 126 L269.2308 138 L274.2308 135 L279.2308 138 Z" clip-path="url(#clipPath2)" stroke="none"/>
    </g>
    <g fill="rgb(255,17,17)" stroke-dasharray="6,2" stroke-miterlimit="1.45" transform="matrix(1,0,0,1,135,38)" stroke-linecap="butt" stroke="rgb(255,17,17)">
      <path fill="none" d="M304.2828 606.3184 L629.4603 281.1409" clip-path="url(#clipPath2)"/>
      <path d="M635.1172 275.484 L623.0964 280.4337 L628.7532 281.848 L630.1674 287.5048 Z" clip-path="url(#clipPath2)" stroke="none"/>
      <path fill="none" stroke-dasharray="none" d="M244.1788 606.3184 L148.0077 510.1473" clip-path="url(#clipPath2)" stroke="black"/>
      <path fill="black" stroke-dasharray="none" d="M142.3509 504.4904 L147.3006 516.5112 L148.7148 510.8544 L154.3717 509.4402 Z" clip-path="url(#clipPath2)" stroke="none"/>
    </g>
    <g stroke-miterlimit="1.45" font-family="sans-serif" transform="matrix(1,0,0,1,135,38)" stroke-linecap="butt">
      <text x="161.5545" xml:space="preserve" y="643.9364" clip-path="url(#clipPath2)" stroke="none">activate</text>
      <path fill="none" d="M101.0488 431.9384 L101.0488 406.9384 L85.0488 390.9384 L44.7988 390.9384 L28.7988 406.9384 L28.7988 447.1884 L44.7988 463.1884 L61.7988 463.1884" clip-path="url(#clipPath2)"/>
      <path d="M69.7988 463.1884 L57.7988 458.1884 L60.7988 463.1884 L57.7988 468.1884 Z" clip-path="url(#clipPath2)" stroke="none"/>
      <text x="82.9829" xml:space="preserve" y="382.0443" clip-path="url(#clipPath2)" stroke="none">is_initiator</text>
      <path fill="none" d="M96.0488 431.9384 L96.0488 409.4384 L82.5488 395.9384 L47.2988 395.9384 L33.7988 409.4384 L33.7988 444.6884 L47.2988 458.1884 L61.7988 458.1884" clip-path="url(#clipPath2)"/>
      <path d="M69.7988 458.1884 L57.7988 453.1884 L60.7988 458.1884 L57.7988 463.1884 Z" clip-path="url(#clipPath2)" stroke="none"/>
      <text x="-100.4453" xml:space="preserve" y="413.5946" clip-path="url(#clipPath2)" stroke="none">get_nonce_rem</text>
      <path fill="none" d="M91.0488 431.9384 L91.0488 411.9384 L80.0488 400.9384 L49.7988 400.9384 L38.7988 411.9384 L38.7988 442.1884 L49.7988 453.1884 L61.7988 453.1884" clip-path="url(#clipPath2)"/>
      <path d="M69.7988 453.1884 L57.7988 448.1884 L60.7988 453.1884 L57.7988 458.1884 Z" clip-path="url(#clipPath2)" stroke="none"/>
      <text x="-25.3271" xml:space="preserve" y="478.7148" clip-path="url(#clipPath2)" stroke="none">get_nonce_loc</text>
      <path fill="none" d="M86.0488 431.9384 L86.0488 414.4384 L77.5488 405.9384 L52.2988 405.9384 L43.7988 414.4384 L43.7988 439.6884 L52.2988 448.1884 L61.7988 448.1884" clip-path="url(#clipPath2)"/>
      <path d="M69.7988 448.1884 L57.7988 443.1884 L60.7988 448.1884 L57.7988 453.1884 Z" clip-path="url(#clipPath2)" stroke="none"/>
      <text x="-117.3164" xml:space="preserve" y="443.8446" clip-path="url(#clipPath2)" stroke="none">get_sk_ike_auth_loc</text>
      <path fill="none" d="M81.0488 431.9384 L81.0488 416.9384 L75.0488 410.9384 L54.7988 410.9384 L48.7988 416.9384 L48.7988 437.1884 L54.7988 443.1884 L61.7988 443.1884" clip-path="url(#clipPath2)"/>
      <path d="M69.7988 443.1884 L57.7988 438.1884 L60.7988 443.1884 L57.7988 448.1884 Z" clip-path="url(#clipPath2)" stroke="none"/>
      <text x="-49.5791" xml:space="preserve" y="382.6405" clip-path="url(#clipPath2)" stroke="none">get_sk_ike_auth_rem</text>
      <path fill="none" d="M128.5629 435.1735 L254.9053 130.1559" clip-path="url(#clipPath2)" stroke="rgb(128,128,255)"/>
      <path fill="rgb(128,128,255)" d="M257.9668 122.7649 L248.7552 131.938 L254.5226 131.0798 L257.994 135.7648 Z" clip-path="url(#clipPath2)" stroke="none"/>
    </g>
    <g fill="rgb(255,17,17)" stroke-dasharray="6,2" stroke-miterlimit="1.45" transform="matrix(1,0,0,1,135,38)" stroke-linecap="butt" stroke="rgb(255,17,17)">
      <path fill="none" d="M151.5637 458.1743 L618.5133 264.7575" clip-path="url(#clipPath2)"/>
      <path d="M625.9044 261.696 L612.9044 261.6688 L617.5895 265.1402 L616.7313 270.9076 Z" clip-path="url(#clipPath2)" stroke="none"/>
    </g>
  </g>
</svg>
