<?xml version="1.0" encoding="UTF-8"?>
<svg xmlns="http://www.w3.org/2000/svg" xmlns:xlink="http://www.w3.org/1999/xlink" fill-opacity="1" color-rendering="auto" color-interpolation="auto" stroke="black" text-rendering="auto" stroke-linecap="square" width="681" stroke-miterlimit="10" stroke-opacity="1" shape-rendering="auto" fill="black" stroke-dasharray="none" font-weight="normal" stroke-width="1" height="638" font-family="'Dialog'" font-style="normal" stroke-linejoin="miter" font-size="12" stroke-dashoffset="0" image-rendering="auto">
  <!--Generated by ySVG-->
  <defs id="genericDefs"/>
  <g>
    <defs id="defs1">
      <clipPath clipPathUnits="userSpaceOnUse" id="clipPath1">
        <path d="M0 0 L681 0 L681 638 L0 638 L0 0 Z"/>
      </clipPath>
      <clipPath clipPathUnits="userSpaceOnUse" id="clipPath2">
        <path d="M-15 -15 L666 -15 L666 623 L-15 623 L-15 -15 Z"/>
      </clipPath>
    </defs>
    <g fill="white" transform="translate(15,15)" stroke="white">
      <rect x="-15" width="681" height="638" y="-15" clip-path="url(#clipPath2)" stroke="none"/>
    </g>
    <g fill="rgb(204,204,255)" transform="matrix(1,0,0,1,15,15)" stroke="rgb(204,204,255)">
      <circle r="42.5" clip-path="url(#clipPath2)" cx="257.8434" cy="63.5" stroke="none"/>
    </g>
    <g stroke-miterlimit="1.45" font-family="sans-serif" transform="matrix(1,0,0,1,15,15)" stroke-linecap="butt">
      <text x="241.7067" xml:space="preserve" y="67.6562" clip-path="url(#clipPath2)" stroke="none">clean</text>
      <circle fill="none" r="42.5" clip-path="url(#clipPath2)" cx="257.8434" cy="63.5" stroke="rgb(128,128,255)"/>
    </g>
    <g fill="rgb(255,204,204)" transform="matrix(1,0,0,1,15,15)" stroke="rgb(255,204,204)">
      <circle r="42.5" clip-path="url(#clipPath2)" cx="63.5" cy="175.7042" stroke="none"/>
    </g>
    <g stroke-miterlimit="1.45" font-family="sans-serif" transform="matrix(1,0,0,1,15,15)" stroke-linecap="butt">
      <text x="43.6602" xml:space="preserve" y="179.8605" clip-path="url(#clipPath2)" stroke="none">invalid</text>
      <circle fill="none" r="42.5" clip-path="url(#clipPath2)" cx="63.5" cy="175.7042" stroke="rgb(255,128,128)"/>
    </g>
    <g fill="white" transform="matrix(1,0,0,1,15,15)" stroke="white">
      <circle r="42.5" clip-path="url(#clipPath2)" cx="452.1869" cy="175.7042" stroke="none"/>
    </g>
    <g stroke-miterlimit="1.45" font-family="sans-serif" transform="matrix(1,0,0,1,15,15)" stroke-linecap="butt">
      <text x="430.9466" xml:space="preserve" y="179.8605" clip-path="url(#clipPath2)" stroke="none">unauth</text>
      <circle fill="none" r="42.5" clip-path="url(#clipPath2)" cx="452.1869" cy="175.7042"/>
    </g>
    <g fill="white" transform="matrix(1,0,0,1,15,15)" stroke="white">
      <circle r="42.5" clip-path="url(#clipPath2)" cx="452.1869" cy="400.1127" stroke="none"/>
    </g>
    <g stroke-miterlimit="1.45" font-family="sans-serif" transform="matrix(1,0,0,1,15,15)" stroke-linecap="butt">
      <text x="426.9154" xml:space="preserve" y="404.269" clip-path="url(#clipPath2)" stroke="none">loc_auth</text>
      <circle fill="none" r="42.5" clip-path="url(#clipPath2)" cx="452.1869" cy="400.1127"/>
    </g>
    <g fill="white" transform="matrix(1,0,0,1,15,15)" stroke="white">
      <circle r="42.5" clip-path="url(#clipPath2)" cx="257.8434" cy="512.3169" stroke="none"/>
    </g>
    <g stroke-miterlimit="1.45" font-family="sans-serif" transform="matrix(1,0,0,1,15,15)" stroke-linecap="butt">
      <text x="215.8669" xml:space="preserve" y="516.4732" clip-path="url(#clipPath2)" stroke="none">authenticated</text>
      <circle fill="none" r="42.5" clip-path="url(#clipPath2)" cx="257.8434" cy="512.3169"/>
    </g>
    <g fill="white" transform="matrix(1,0,0,1,15,15)" stroke="white">
      <circle r="42.5" clip-path="url(#clipPath2)" cx="63.5" cy="400.1127" stroke="none"/>
    </g>
    <g stroke-miterlimit="1.45" font-family="sans-serif" transform="matrix(1,0,0,1,15,15)" stroke-linecap="butt">
      <text x="45.2627" xml:space="preserve" y="404.269" clip-path="url(#clipPath2)" stroke="none">active</text>
      <circle fill="none" r="42.5" clip-path="url(#clipPath2)" cx="63.5" cy="400.1127"/>
      <path fill="none" d="M279.0934 21 L279.0934 6 L285.0934 0 L315.3434 0 L321.3434 6 L321.3434 36.25 L315.3434 42.25 L308.3434 42.25" clip-path="url(#clipPath2)" stroke="rgb(128,128,255)"/>
      <path fill="rgb(128,128,255)" d="M300.3434 42.25 L312.3434 47.25 L309.3434 42.25 L312.3434 37.25 Z" clip-path="url(#clipPath2)" stroke="none"/>
    </g>
    <g fill="rgb(255,17,17)" stroke-dasharray="6,2" stroke-miterlimit="1.45" transform="matrix(1,0,0,1,15,15)" stroke-linecap="butt" stroke="rgb(255,17,17)">
      <path fill="none" d="M223.7854 88.9369 L109.4854 154.928" clip-path="url(#clipPath2)"/>
      <path d="M102.5572 158.928 L115.4495 157.2582 L110.3514 154.428 L110.4495 148.5979 Z" clip-path="url(#clipPath2)" stroke="none"/>
      <path fill="none" d="M42.25 133.2042 L42.25 118.2042 L36.25 112.2042 L6 112.2042 L0 118.2042 L0 148.4542 L6 154.4542 L13 154.4542" clip-path="url(#clipPath2)"/>
      <path d="M21 154.4542 L9 149.4542 L12 154.4542 L9 159.4542 Z" clip-path="url(#clipPath2)" stroke="none"/>
      <path fill="none" stroke-dasharray="none" d="M97.5433 150.2758 L211.8969 84.2538" clip-path="url(#clipPath2)" stroke="rgb(128,128,255)"/>
      <path fill="rgb(128,128,255)" stroke-dasharray="none" d="M218.8251 80.2538 L205.9328 81.9236 L211.0308 84.7538 L210.9328 90.5839 Z" clip-path="url(#clipPath2)" stroke="none"/>
      <path fill="none" stroke-dasharray="none" d="M296.9015 80.2766 L411.2014 146.2678" clip-path="url(#clipPath2)" stroke="black"/>
      <path fill="black" stroke-dasharray="none" d="M418.1296 150.2678 L410.2373 139.9377 L410.3354 145.7678 L405.2373 148.5979 Z" clip-path="url(#clipPath2)" stroke="none"/>
    </g>
    <g stroke-miterlimit="1.45" font-family="sans-serif" transform="matrix(1,0,0,1,15,15)" stroke-linecap="butt">
      <text x="345.0222" xml:space="preserve" y="102.0764" clip-path="url(#clipPath2)" stroke="none">create</text>
      <path fill="none" d="M470.9369 133.2042 L470.9369 115.7042 L479.4369 107.2042 L512.1869 107.2042 L520.6869 115.7042 L520.6869 148.4542 L512.1869 156.9542 L502.6869 156.9542" clip-path="url(#clipPath2)"/>
      <path d="M494.6869 156.9542 L506.6869 161.9542 L503.6869 156.9542 L506.6869 151.9542 Z" clip-path="url(#clipPath2)" stroke="none"/>
      <text x="527.6869" xml:space="preserve" y="136.2355" clip-path="url(#clipPath2)" stroke="none">get_nonce_rem</text>
      <path fill="none" d="M475.9369 133.2042 L475.9369 118.2042 L481.9369 112.2042 L509.6869 112.2042 L515.6869 118.2042 L515.6869 145.9542 L509.6869 151.9542 L502.6869 151.9542" clip-path="url(#clipPath2)"/>
      <path d="M494.6869 151.9542 L506.6869 156.9542 L503.6869 151.9542 L506.6869 146.9542 Z" clip-path="url(#clipPath2)" stroke="none"/>
      <text x="489.9002" xml:space="preserve" y="85.5895" clip-path="url(#clipPath2)" stroke="none">get_sk_ike_auth_loc</text>
      <path fill="none" d="M413.1142 158.9191 L298.8508 92.9491" clip-path="url(#clipPath2)" stroke="rgb(128,128,255)"/>
      <path fill="rgb(128,128,255)" d="M291.9226 88.9491 L299.8149 99.2793 L299.7169 93.4491 L304.8149 90.619 Z" clip-path="url(#clipPath2)" stroke="none"/>
    </g>
    <g fill="rgb(255,17,17)" stroke-dasharray="6,2" stroke-miterlimit="1.45" transform="matrix(1,0,0,1,15,15)" stroke-linecap="butt" stroke="rgb(255,17,17)">
      <path fill="none" d="M409.6869 175.7042 L114 175.7042" clip-path="url(#clipPath2)"/>
      <path d="M106 175.7042 L118 180.7042 L115 175.7042 L118 170.7042 Z" clip-path="url(#clipPath2)" stroke="none"/>
      <path fill="none" stroke-dasharray="none" d="M452.1869 218.2042 L452.1869 349.6127" clip-path="url(#clipPath2)" stroke="black"/>
      <path fill="black" stroke-dasharray="none" d="M452.1869 357.6127 L457.1869 345.6127 L452.1869 348.6127 L447.1869 345.6127 Z" clip-path="url(#clipPath2)" stroke="none"/>
    </g>
    <g stroke-miterlimit="1.45" font-family="sans-serif" transform="matrix(1,0,0,1,15,15)" stroke-linecap="butt">
      <text x="454.1869" xml:space="preserve" y="274.6387" clip-path="url(#clipPath2)" stroke="none">sign</text>
      <path fill="none" d="M470.9369 357.6127 L470.9369 340.1127 L479.4369 331.6127 L512.1869 331.6127 L520.6869 340.1127 L520.6869 372.8627 L512.1869 381.3627 L502.6869 381.3627" clip-path="url(#clipPath2)"/>
      <path d="M494.6869 381.3627 L506.6869 386.3627 L503.6869 381.3627 L506.6869 376.3627 Z" clip-path="url(#clipPath2)" stroke="none"/>
      <text x="502.6761" xml:space="preserve" y="406.0141" clip-path="url(#clipPath2)" stroke="none">get_nonce_loc</text>
      <path fill="none" d="M475.9369 357.6127 L475.9369 342.6127 L481.9369 336.6127 L509.6869 336.6127 L515.6869 342.6127 L515.6869 370.3627 L509.6869 376.3627 L502.6869 376.3627" clip-path="url(#clipPath2)"/>
      <path d="M494.6869 376.3627 L506.6869 381.3627 L503.6869 376.3627 L506.6869 371.3627 Z" clip-path="url(#clipPath2)" stroke="none"/>
      <text x="522.6869" xml:space="preserve" y="380.644" clip-path="url(#clipPath2)" stroke="none">get_sk_ike_auth_rem</text>
      <path fill="none" d="M430.9369 363.3066 L283.0934 107.2343" clip-path="url(#clipPath2)" stroke="rgb(128,128,255)"/>
      <path fill="rgb(128,128,255)" d="M279.0934 100.3061 L280.7633 113.1984 L283.5934 108.1003 L289.4236 108.1984 Z" clip-path="url(#clipPath2)" stroke="none"/>
    </g>
    <g fill="rgb(255,17,17)" stroke-dasharray="6,2" stroke-miterlimit="1.45" transform="matrix(1,0,0,1,15,15)" stroke-linecap="butt" stroke="rgb(255,17,17)">
      <path fill="none" d="M415.3808 378.8627 L107.2343 200.9542" clip-path="url(#clipPath2)"/>
      <path d="M100.3061 196.9542 L108.1984 207.2844 L108.1003 201.4542 L113.1984 198.6241 Z" clip-path="url(#clipPath2)" stroke="none"/>
      <path fill="none" stroke-dasharray="none" d="M415.3808 421.3627 L301.5777 487.0669" clip-path="url(#clipPath2)" stroke="black"/>
      <path fill="black" stroke-dasharray="none" d="M294.6495 491.0669 L307.5418 489.3971 L302.4437 486.5669 L302.5418 480.7368 Z" clip-path="url(#clipPath2)" stroke="none"/>
    </g>
    <g stroke-miterlimit="1.45" font-family="sans-serif" transform="matrix(1,0,0,1,15,15)" stroke-linecap="butt">
      <text x="358.1154" xml:space="preserve" y="468.7202" clip-path="url(#clipPath2)" stroke="none">authenticate</text>
      <path fill="none" d="M241.5934 554.817 L241.5934 574.817 L230.5934 585.817 L195.3434 585.817 L184.3434 574.817 L184.3434 539.567 L195.3434 528.567 L207.3434 528.567" clip-path="url(#clipPath2)"/>
      <path d="M215.3434 528.567 L203.3434 523.567 L206.3434 528.567 L203.3434 533.567 Z" clip-path="url(#clipPath2)" stroke="none"/>
      <text x="228.7775" xml:space="preserve" y="602.7735" clip-path="url(#clipPath2)" stroke="none">is_initiator</text>
      <path fill="none" d="M236.5934 554.817 L236.5934 572.317 L228.0934 580.817 L197.8434 580.817 L189.3434 572.317 L189.3434 542.067 L197.8434 533.567 L207.3434 533.567" clip-path="url(#clipPath2)"/>
      <path d="M215.3434 533.567 L203.3434 528.567 L206.3434 533.567 L203.3434 538.567 Z" clip-path="url(#clipPath2)" stroke="none"/>
      <text x="116.7931" xml:space="preserve" y="515.545" clip-path="url(#clipPath2)" stroke="none">get_nonce_rem</text>
      <path fill="none" d="M231.5934 554.817 L231.5934 569.817 L225.5934 575.817 L200.3434 575.817 L194.3434 569.817 L194.3434 544.567 L200.3434 538.567 L207.3434 538.567" clip-path="url(#clipPath2)"/>
      <path d="M215.3434 538.567 L203.3434 533.567 L206.3434 538.567 L203.3434 543.567 Z" clip-path="url(#clipPath2)" stroke="none"/>
      <text x="126.2175" xml:space="preserve" y="602.3433" clip-path="url(#clipPath2)" stroke="none">get_nonce_loc</text>
      <path fill="none" d="M257.8434 469.8169 L257.8434 114" clip-path="url(#clipPath2)" stroke="rgb(128,128,255)"/>
      <path fill="rgb(128,128,255)" d="M257.8434 106 L252.8434 118 L257.8434 115 L262.8434 118 Z" clip-path="url(#clipPath2)" stroke="none"/>
    </g>
    <g fill="rgb(255,17,17)" stroke-dasharray="6,2" stroke-miterlimit="1.45" transform="matrix(1,0,0,1,15,15)" stroke-linecap="butt" stroke="rgb(255,17,17)">
      <path fill="none" d="M236.5934 475.5109 L88.75 219.4385" clip-path="url(#clipPath2)"/>
      <path d="M84.75 212.5103 L86.4199 225.4026 L89.25 220.3046 L95.0801 220.4026 Z" clip-path="url(#clipPath2)" stroke="none"/>
      <path fill="none" stroke-dasharray="none" d="M221.0374 491.0669 L107.2343 425.3627" clip-path="url(#clipPath2)" stroke="black"/>
      <path fill="black" stroke-dasharray="none" d="M100.3061 421.3627 L108.1984 431.6928 L108.1003 425.8627 L113.1984 423.0326 Z" clip-path="url(#clipPath2)" stroke="none"/>
    </g>
    <g stroke-miterlimit="1.45" font-family="sans-serif" transform="matrix(1,0,0,1,15,15)" stroke-linecap="butt">
      <text x="129.5263" xml:space="preserve" y="426.4767" clip-path="url(#clipPath2)" stroke="none">activate</text>
      <path fill="none" d="M84.75 363.3066 L232.5934 107.2343" clip-path="url(#clipPath2)" stroke="rgb(128,128,255)"/>
      <path fill="rgb(128,128,255)" d="M236.5934 100.3061 L226.2633 108.1984 L232.0934 108.1003 L234.9236 113.1984 Z" clip-path="url(#clipPath2)" stroke="none"/>
    </g>
    <g fill="rgb(255,17,17)" stroke-dasharray="6,2" stroke-miterlimit="1.45" transform="matrix(1,0,0,1,15,15)" stroke-linecap="butt" stroke="rgb(255,17,17)">
      <path fill="none" d="M63.5 357.6127 L63.5 226.2042" clip-path="url(#clipPath2)"/>
      <path d="M63.5 218.2042 L58.5 230.2042 L63.5 227.2042 L68.5 230.2042 Z" clip-path="url(#clipPath2)" stroke="none"/>
    </g>
  </g>
</svg>
