<?xml version="1.0" encoding="UTF-8"?>
<svg xmlns="http://www.w3.org/2000/svg" xmlns:xlink="http://www.w3.org/1999/xlink" fill-opacity="1" color-rendering="auto" color-interpolation="auto" stroke="black" text-rendering="auto" stroke-linecap="square" width="376" stroke-miterlimit="10" stroke-opacity="1" shape-rendering="auto" fill="black" stroke-dasharray="none" font-weight="normal" stroke-width="1" height="376" font-family="'Dialog'" font-style="normal" stroke-linejoin="miter" font-size="12" stroke-dashoffset="0" image-rendering="auto">
  <!--Generated by ySVG-->
  <defs id="genericDefs"/>
  <g>
    <defs id="defs1">
      <clipPath clipPathUnits="userSpaceOnUse" id="clipPath1">
        <path d="M0 0 L376 0 L376 376 L0 376 L0 0 Z"/>
      </clipPath>
      <clipPath clipPathUnits="userSpaceOnUse" id="clipPath2">
        <path d="M-54 -15 L322 -15 L322 361 L-54 361 L-54 -15 Z"/>
      </clipPath>
    </defs>
    <g fill="white" transform="translate(54,15)" stroke="white">
      <rect x="-54" width="376" height="376" y="-15" clip-path="url(#clipPath2)" stroke="none"/>
    </g>
    <g fill="rgb(204,204,255)" transform="matrix(1,0,0,1,54,15)" stroke="rgb(204,204,255)">
      <circle r="42.5" clip-path="url(#clipPath2)" cx="74.3213" cy="63.5" stroke="none"/>
    </g>
    <g stroke-miterlimit="1.45" font-family="sans-serif" transform="matrix(1,0,0,1,54,15)" stroke-linecap="butt">
      <text x="58.1846" xml:space="preserve" y="67.6562" clip-path="url(#clipPath2)" stroke="none">clean</text>
      <circle fill="none" r="42.5" clip-path="url(#clipPath2)" cx="74.3213" cy="63.5" stroke="rgb(128,128,255)"/>
    </g>
    <g fill="rgb(255,204,204)" transform="matrix(1,0,0,1,54,15)" stroke="rgb(255,204,204)">
      <circle r="42.5" clip-path="url(#clipPath2)" cx="242.6276" cy="160.6717" stroke="none"/>
    </g>
    <g stroke-miterlimit="1.45" font-family="sans-serif" transform="matrix(1,0,0,1,54,15)" stroke-linecap="butt">
      <text x="222.7878" xml:space="preserve" y="164.828" clip-path="url(#clipPath2)" stroke="none">invalid</text>
      <circle fill="none" r="42.5" clip-path="url(#clipPath2)" cx="242.6276" cy="160.6717" stroke="rgb(255,128,128)"/>
    </g>
    <g fill="white" transform="matrix(1,0,0,1,54,15)" stroke="white">
      <circle r="42.5" clip-path="url(#clipPath2)" cx="74.3213" cy="257.8434" stroke="none"/>
    </g>
    <g stroke-miterlimit="1.45" font-family="sans-serif" transform="matrix(1,0,0,1,54,15)" stroke-linecap="butt">
      <text x="56.084" xml:space="preserve" y="261.9997" clip-path="url(#clipPath2)" stroke="none">active</text>
      <circle fill="none" r="42.5" clip-path="url(#clipPath2)" cx="74.3213" cy="257.8434"/>
      <path fill="none" d="M95.5713 21 L95.5713 6 L101.5713 0 L131.8213 0 L137.8213 6 L137.8213 36.25 L131.8213 42.25 L124.8213 42.25" clip-path="url(#clipPath2)" stroke="rgb(128,128,255)"/>
      <path fill="rgb(128,128,255)" d="M116.8213 42.25 L128.8213 47.25 L125.8213 42.25 L128.8213 37.25 Z" clip-path="url(#clipPath2)" stroke="none"/>
    </g>
    <g fill="rgb(255,17,17)" stroke-dasharray="6,2" stroke-miterlimit="1.45" transform="matrix(1,0,0,1,54,15)" stroke-linecap="butt" stroke="rgb(255,17,17)">
      <path fill="none" d="M113.3507 80.2601 L201.6198 131.2223" clip-path="url(#clipPath2)"/>
      <path d="M208.548 135.2223 L200.6557 124.8922 L200.7537 130.7223 L195.6557 133.5524 Z" clip-path="url(#clipPath2)" stroke="none"/>
      <path fill="none" d="M263.8777 118.1717 L263.8777 103.1717 L269.8777 97.1717 L300.1277 97.1717 L306.1277 103.1717 L306.1277 133.4217 L300.1277 139.4217 L293.1277 139.4217" clip-path="url(#clipPath2)"/>
      <path d="M285.1277 139.4217 L297.1277 144.4217 L294.1277 139.4217 L297.1277 134.4217 Z" clip-path="url(#clipPath2)" stroke="none"/>
      <path fill="none" stroke-dasharray="none" d="M203.5507 143.8841 L115.2921 92.928" clip-path="url(#clipPath2)" stroke="rgb(128,128,255)"/>
      <path fill="rgb(128,128,255)" stroke-dasharray="none" d="M108.3639 88.928 L116.2562 99.2581 L116.1581 93.428 L121.2562 90.5979 Z" clip-path="url(#clipPath2)" stroke="none"/>
      <path fill="none" stroke-dasharray="none" d="M79.3213 105.6805 L79.3213 207.6048" clip-path="url(#clipPath2)" stroke="black"/>
      <path fill="black" stroke-dasharray="none" d="M79.3213 215.6048 L84.3213 203.6048 L79.3213 206.6048 L74.3213 203.6048 Z" clip-path="url(#clipPath2)" stroke="none"/>
    </g>
    <g stroke-miterlimit="1.45" font-family="sans-serif" transform="matrix(1,0,0,1,54,15)" stroke-linecap="butt">
      <text x="81.3213" xml:space="preserve" y="137.4921" clip-path="url(#clipPath2)" stroke="none">create</text>
      <path fill="none" d="M55.5713 300.3434 L55.5713 317.8434 L47.0713 326.3434 L14.3213 326.3434 L5.8213 317.8434 L5.8213 285.0934 L14.3213 276.5934 L23.8213 276.5934" clip-path="url(#clipPath2)"/>
      <path d="M31.8213 276.5934 L19.8213 271.5934 L22.8213 276.5934 L19.8213 281.5934 Z" clip-path="url(#clipPath2)" stroke="none"/>
      <text x="-36.9385" xml:space="preserve" y="268.5016" clip-path="url(#clipPath2)" stroke="none">get_sk_d</text>
      <path fill="none" d="M50.5713 300.3434 L50.5713 315.3434 L44.5713 321.3434 L16.8213 321.3434 L10.8213 315.3434 L10.8213 287.5934 L16.8213 281.5934 L23.8213 281.5934" clip-path="url(#clipPath2)"/>
      <path d="M31.8213 281.5934 L19.8213 276.5934 L22.8213 281.5934 L19.8213 286.5934 Z" clip-path="url(#clipPath2)" stroke="none"/>
      <text x="-36.2153" xml:space="preserve" y="340.84" clip-path="url(#clipPath2)" stroke="none">get_ae_id</text>
      <path fill="none" d="M69.3213 215.6629 L69.3213 113.7386" clip-path="url(#clipPath2)" stroke="rgb(128,128,255)"/>
      <path fill="rgb(128,128,255)" d="M69.3213 105.7386 L64.3213 117.7386 L69.3213 114.7386 L74.3213 117.7386 Z" clip-path="url(#clipPath2)" stroke="none"/>
    </g>
    <g fill="rgb(255,17,17)" stroke-dasharray="6,2" stroke-miterlimit="1.45" transform="matrix(1,0,0,1,54,15)" stroke-linecap="butt" stroke="rgb(255,17,17)">
      <path fill="none" d="M111.1274 236.5934 L198.8934 185.9217" clip-path="url(#clipPath2)"/>
      <path d="M205.8216 181.9217 L192.9293 183.5916 L198.0273 186.4217 L197.9293 192.2518 Z" clip-path="url(#clipPath2)" stroke="none"/>
    </g>
  </g>
</svg>
