<?xml version="1.0" encoding="UTF-8"?>
<svg xmlns="http://www.w3.org/2000/svg" xmlns:xlink="http://www.w3.org/1999/xlink" fill-opacity="1" color-rendering="auto" color-interpolation="auto" stroke="black" text-rendering="auto" stroke-linecap="square" width="419" stroke-miterlimit="10" stroke-opacity="1" shape-rendering="auto" fill="black" stroke-dasharray="none" font-weight="normal" stroke-width="1" height="395" font-family="'Dialog'" font-style="normal" stroke-linejoin="miter" font-size="12" stroke-dashoffset="0" image-rendering="auto">
  <!--Generated by ySVG-->
  <defs id="genericDefs"/>
  <g>
    <defs id="defs1">
      <clipPath clipPathUnits="userSpaceOnUse" id="clipPath1">
        <path d="M0 0 L419 0 L419 395 L0 395 L0 0 Z"/>
      </clipPath>
      <clipPath clipPathUnits="userSpaceOnUse" id="clipPath2">
        <path d="M-54 -15 L365 -15 L365 380 L-54 380 L-54 -15 Z"/>
      </clipPath>
    </defs>
    <g fill="white" transform="translate(54,15)" stroke="white">
      <rect x="-54" width="419" height="395" y="-15" clip-path="url(#clipPath2)" stroke="none"/>
    </g>
    <g fill="rgb(204,204,255)" transform="matrix(1,0,0,1,54,15)" stroke="rgb(204,204,255)">
      <circle r="42.5" clip-path="url(#clipPath2)" cx="74.3213" cy="63.5" stroke="none"/>
    </g>
    <g stroke-miterlimit="1.45" font-family="sans-serif" transform="matrix(1,0,0,1,54,15)" stroke-linecap="butt">
      <text x="58.1846" xml:space="preserve" y="67.6562" clip-path="url(#clipPath2)" stroke="none">clean</text>
      <circle fill="none" r="42.5" clip-path="url(#clipPath2)" cx="74.3213" cy="63.5" stroke="rgb(128,128,255)"/>
    </g>
    <g fill="rgb(255,204,204)" transform="matrix(1,0,0,1,54,15)" stroke="rgb(255,204,204)">
      <circle r="42.5" clip-path="url(#clipPath2)" cx="285.8956" cy="275.0743" stroke="none"/>
    </g>
    <g stroke-miterlimit="1.45" font-family="sans-serif" transform="matrix(1,0,0,1,54,15)" stroke-linecap="butt">
      <text x="266.0558" xml:space="preserve" y="279.2306" clip-path="url(#clipPath2)" stroke="none">invalid</text>
      <circle fill="none" r="42.5" clip-path="url(#clipPath2)" cx="285.8956" cy="275.0743" stroke="rgb(255,128,128)"/>
    </g>
    <g fill="white" transform="matrix(1,0,0,1,54,15)" stroke="white">
      <circle r="42.5" clip-path="url(#clipPath2)" cx="285.8956" cy="63.5" stroke="none"/>
    </g>
    <g stroke-miterlimit="1.45" font-family="sans-serif" transform="matrix(1,0,0,1,54,15)" stroke-linecap="butt">
      <text x="271.382" xml:space="preserve" y="67.6562" clip-path="url(#clipPath2)" stroke="none">stale</text>
      <circle fill="none" r="42.5" clip-path="url(#clipPath2)" cx="285.8956" cy="63.5"/>
    </g>
    <g fill="white" transform="matrix(1,0,0,1,54,15)" stroke="white">
      <circle r="42.5" clip-path="url(#clipPath2)" cx="74.3213" cy="275.0743" stroke="none"/>
    </g>
    <g stroke-miterlimit="1.45" font-family="sans-serif" transform="matrix(1,0,0,1,54,15)" stroke-linecap="butt">
      <text x="56.084" xml:space="preserve" y="279.2306" clip-path="url(#clipPath2)" stroke="none">active</text>
      <circle fill="none" r="42.5" clip-path="url(#clipPath2)" cx="74.3213" cy="275.0743"/>
      <path fill="none" d="M95.5713 21 L95.5713 6 L101.5713 0 L131.8213 0 L137.8213 6 L137.8213 36.25 L131.8213 42.25 L124.8213 42.25" clip-path="url(#clipPath2)" stroke="rgb(128,128,255)"/>
      <path fill="rgb(128,128,255)" d="M116.8213 42.25 L128.8213 47.25 L125.8213 42.25 L128.8213 37.25 Z" clip-path="url(#clipPath2)" stroke="none"/>
    </g>
    <g fill="rgb(255,17,17)" stroke-dasharray="6,2" stroke-miterlimit="1.45" transform="matrix(1,0,0,1,54,15)" stroke-linecap="butt" stroke="rgb(255,17,17)">
      <path fill="none" d="M107.6869 89.7946 L253.9347 236.0423" clip-path="url(#clipPath2)"/>
      <path d="M259.5916 241.6992 L254.6418 229.6784 L253.2276 235.3352 L247.5707 236.7494 Z" clip-path="url(#clipPath2)" stroke="none"/>
      <path fill="none" d="M307.1456 232.5743 L307.1456 217.5743 L313.1456 211.5743 L343.3956 211.5743 L349.3956 217.5743 L349.3956 247.8243 L343.3956 253.8243 L336.3956 253.8243" clip-path="url(#clipPath2)"/>
      <path d="M328.3956 253.8243 L340.3956 258.8243 L337.3956 253.8243 L340.3956 248.8243 Z" clip-path="url(#clipPath2)" stroke="none"/>
      <path fill="none" stroke-dasharray="none" d="M252.5069 248.7567 L106.3085 102.5582" clip-path="url(#clipPath2)" stroke="rgb(128,128,255)"/>
      <path fill="rgb(128,128,255)" stroke-dasharray="none" d="M100.6516 96.9014 L105.6013 108.9222 L107.0156 103.2653 L112.6724 101.8511 Z" clip-path="url(#clipPath2)" stroke="none"/>
      <path fill="none" stroke-dasharray="none" d="M243.3956 63.5 L124.8213 63.5" clip-path="url(#clipPath2)" stroke="rgb(128,128,255)"/>
      <path fill="rgb(128,128,255)" stroke-dasharray="none" d="M116.8213 63.5 L128.8213 68.5 L125.8213 63.5 L128.8213 58.5 Z" clip-path="url(#clipPath2)" stroke="none"/>
      <path fill="none" d="M285.8956 106 L285.8956 224.5743" clip-path="url(#clipPath2)"/>
      <path d="M285.8956 232.5743 L290.8956 220.5743 L285.8956 223.5743 L280.8956 220.5743 Z" clip-path="url(#clipPath2)" stroke="none"/>
      <path fill="none" stroke-dasharray="none" d="M79.3213 105.7271 L79.3213 224.8615" clip-path="url(#clipPath2)" stroke="black"/>
      <path fill="black" stroke-dasharray="none" d="M79.3213 232.8615 L84.3213 220.8615 L79.3213 223.8615 L74.3213 220.8615 Z" clip-path="url(#clipPath2)" stroke="none"/>
    </g>
    <g stroke-miterlimit="1.45" font-family="sans-serif" transform="matrix(1,0,0,1,54,15)" stroke-linecap="butt">
      <text x="81.3213" xml:space="preserve" y="157.6216" clip-path="url(#clipPath2)" stroke="none">create</text>
      <path fill="none" d="M55.5713 317.5743 L55.5713 335.0743 L47.0713 343.5743 L14.3213 343.5743 L5.8213 335.0743 L5.8213 302.3243 L14.3213 293.8243 L23.8213 293.8243" clip-path="url(#clipPath2)"/>
      <path d="M31.8213 293.8243 L19.8213 288.8243 L22.8213 293.8243 L19.8213 298.8243 Z" clip-path="url(#clipPath2)" stroke="none"/>
      <text x="-36.9385" xml:space="preserve" y="359.9786" clip-path="url(#clipPath2)" stroke="none">get_sk_d</text>
      <path fill="none" d="M50.5713 317.5743 L50.5713 332.5743 L44.5713 338.5743 L16.8213 338.5743 L10.8213 332.5743 L10.8213 304.8243 L16.8213 298.8243 L23.8213 298.8243" clip-path="url(#clipPath2)"/>
      <path d="M31.8213 298.8243 L19.8213 293.8243 L22.8213 298.8243 L19.8213 303.8243 Z" clip-path="url(#clipPath2)" stroke="none"/>
      <text x="-36.2153" xml:space="preserve" y="287.6403" clip-path="url(#clipPath2)" stroke="none">get_ae_id</text>
      <path fill="none" d="M69.3213 232.8473 L69.3213 113.7128" clip-path="url(#clipPath2)" stroke="rgb(128,128,255)"/>
      <path fill="rgb(128,128,255)" d="M69.3213 105.7128 L64.3213 117.7128 L69.3213 114.7128 L74.3213 117.7128 Z" clip-path="url(#clipPath2)" stroke="none"/>
    </g>
    <g fill="rgb(255,17,17)" stroke-dasharray="6,2" stroke-miterlimit="1.45" transform="matrix(1,0,0,1,54,15)" stroke-linecap="butt" stroke="rgb(255,17,17)">
      <path fill="none" d="M116.8213 275.0743 L235.3956 275.0743" clip-path="url(#clipPath2)"/>
      <path d="M243.3956 275.0743 L231.3956 270.0743 L234.3956 275.0743 L231.3956 280.0743 Z" clip-path="url(#clipPath2)" stroke="none"/>
    </g>
  </g>
</svg>
