<?xml version="1.0" encoding="UTF-8"?>
<svg xmlns="http://www.w3.org/2000/svg" xmlns:xlink="http://www.w3.org/1999/xlink" fill-opacity="1" color-rendering="auto" color-interpolation="auto" stroke="black" text-rendering="auto" stroke-linecap="square" width="348" stroke-miterlimit="10" stroke-opacity="1" shape-rendering="auto" fill="black" stroke-dasharray="none" font-weight="normal" stroke-width="1" height="348" font-family="'Dialog'" font-style="normal" stroke-linejoin="miter" font-size="12" stroke-dashoffset="0" image-rendering="auto">
  <!--Generated by ySVG-->
  <defs id="genericDefs"/>
  <g>
    <defs id="defs1">
      <clipPath clipPathUnits="userSpaceOnUse" id="clipPath1">
        <path d="M0 0 L348 0 L348 348 L0 348 L0 0 Z"/>
      </clipPath>
      <clipPath clipPathUnits="userSpaceOnUse" id="clipPath2">
        <path d="M-15 -15 L333 -15 L333 333 L-15 333 L-15 -15 Z"/>
      </clipPath>
    </defs>
    <g fill="white" transform="translate(15,15)" stroke="white">
      <rect x="-15" width="348" height="348" y="-15" clip-path="url(#clipPath2)" stroke="none"/>
    </g>
    <g fill="rgb(204,204,255)" transform="matrix(1,0,0,1,15,15)" stroke="rgb(204,204,255)">
      <circle r="42.5" clip-path="url(#clipPath2)" cx="254.0743" cy="275.0743" stroke="none"/>
    </g>
    <g stroke-miterlimit="1.45" font-family="sans-serif" transform="matrix(1,0,0,1,15,15)" stroke-linecap="butt">
      <text x="237.9376" xml:space="preserve" y="279.2306" clip-path="url(#clipPath2)" stroke="none">clean</text>
      <circle fill="none" r="42.5" clip-path="url(#clipPath2)" cx="254.0743" cy="275.0743" stroke="rgb(128,128,255)"/>
    </g>
    <g fill="rgb(255,204,204)" transform="matrix(1,0,0,1,15,15)" stroke="rgb(255,204,204)">
      <circle r="42.5" clip-path="url(#clipPath2)" cx="42.5" cy="63.5" stroke="none"/>
    </g>
    <g stroke-miterlimit="1.45" font-family="sans-serif" transform="matrix(1,0,0,1,15,15)" stroke-linecap="butt">
      <text x="22.6602" xml:space="preserve" y="67.6562" clip-path="url(#clipPath2)" stroke="none">invalid</text>
      <circle fill="none" r="42.5" clip-path="url(#clipPath2)" cx="42.5" cy="63.5" stroke="rgb(255,128,128)"/>
    </g>
    <g fill="white" transform="matrix(1,0,0,1,15,15)" stroke="white">
      <circle r="42.5" clip-path="url(#clipPath2)" cx="254.0743" cy="63.5" stroke="none"/>
    </g>
    <g stroke-miterlimit="1.45" font-family="sans-serif" transform="matrix(1,0,0,1,15,15)" stroke-linecap="butt">
      <text x="228.7472" xml:space="preserve" y="67.6562" clip-path="url(#clipPath2)" stroke="none">selected</text>
      <circle fill="none" r="42.5" clip-path="url(#clipPath2)" cx="254.0743" cy="63.5"/>
    </g>
    <g fill="white" transform="matrix(1,0,0,1,15,15)" stroke="white">
      <circle r="42.5" clip-path="url(#clipPath2)" cx="42.5" cy="275.0743" stroke="none"/>
    </g>
    <g stroke-miterlimit="1.45" font-family="sans-serif" transform="matrix(1,0,0,1,15,15)" stroke-linecap="butt">
      <text x="24.2627" xml:space="preserve" y="279.2306" clip-path="url(#clipPath2)" stroke="none">active</text>
      <circle fill="none" r="42.5" clip-path="url(#clipPath2)" cx="42.5" cy="275.0743"/>
      <path fill="none" d="M275.3243 232.5743 L275.3243 217.5743 L281.3243 211.5743 L311.5743 211.5743 L317.5743 217.5743 L317.5743 247.8243 L311.5743 253.8243 L304.5743 253.8243" clip-path="url(#clipPath2)" stroke="rgb(128,128,255)"/>
      <path fill="rgb(128,128,255)" d="M296.5743 253.8243 L308.5743 258.8243 L305.5743 253.8243 L308.5743 248.8243 Z" clip-path="url(#clipPath2)" stroke="none"/>
    </g>
    <g fill="rgb(255,17,17)" stroke-dasharray="6,2" stroke-miterlimit="1.45" transform="matrix(1,0,0,1,15,15)" stroke-linecap="butt" stroke="rgb(255,17,17)">
      <path fill="none" d="M220.7087 248.7797 L74.4609 102.532" clip-path="url(#clipPath2)"/>
      <path d="M68.8041 96.8751 L73.7538 108.8959 L75.168 103.2391 L80.8249 101.8249 Z" clip-path="url(#clipPath2)" stroke="none"/>
      <path fill="none" d="M63.75 21 L63.75 6 L69.75 0 L100 0 L106 6 L106 36.25 L100 42.25 L93 42.25" clip-path="url(#clipPath2)"/>
      <path d="M85 42.25 L97 47.25 L94 42.25 L97 37.25 Z" clip-path="url(#clipPath2)" stroke="none"/>
      <path fill="none" stroke-dasharray="none" d="M75.8887 89.8177 L222.0872 236.0161" clip-path="url(#clipPath2)" stroke="rgb(128,128,255)"/>
      <path fill="rgb(128,128,255)" stroke-dasharray="none" d="M227.744 241.673 L222.7943 229.6521 L221.3801 235.309 L215.7232 236.7232 Z" clip-path="url(#clipPath2)" stroke="none"/>
      <path fill="none" d="M211.5743 63.5 L93 63.5" clip-path="url(#clipPath2)"/>
      <path d="M85 63.5 L97 68.5 L94 63.5 L97 58.5 Z" clip-path="url(#clipPath2)" stroke="none"/>
      <path fill="none" stroke-dasharray="none" d="M254.0743 106 L254.0743 224.5743" clip-path="url(#clipPath2)" stroke="rgb(128,128,255)"/>
      <path fill="rgb(128,128,255)" stroke-dasharray="none" d="M254.0743 232.5743 L259.0743 220.5743 L254.0743 223.5743 L249.0743 220.5743 Z" clip-path="url(#clipPath2)" stroke="none"/>
      <path fill="none" stroke-dasharray="none" d="M211.8473 280.0743 L92.7128 280.0743" clip-path="url(#clipPath2)" stroke="black"/>
      <path fill="black" stroke-dasharray="none" d="M84.7128 280.0743 L96.7128 285.0743 L93.7128 280.0743 L96.7128 275.0743 Z" clip-path="url(#clipPath2)" stroke="none"/>
    </g>
    <g stroke-miterlimit="1.45" font-family="sans-serif" transform="matrix(1,0,0,1,15,15)" stroke-linecap="butt">
      <text x="129.1094" xml:space="preserve" y="293.215" clip-path="url(#clipPath2)" stroke="none">create</text>
      <path fill="none" d="M227.7797 96.8657 L81.532 243.1134" clip-path="url(#clipPath2)"/>
      <path d="M75.8751 248.7703 L87.8959 243.8205 L82.2391 242.4063 L80.8249 236.7495 Z" clip-path="url(#clipPath2)" stroke="none"/>
      <text x="89.5802" xml:space="preserve" y="250.2058" clip-path="url(#clipPath2)" stroke="none">unselect_sa</text>
      <path fill="none" d="M68.8232 241.6801 L215.0501 95.4532" clip-path="url(#clipPath2)"/>
      <path d="M220.7069 89.7963 L208.6861 94.7461 L214.343 96.1603 L215.7572 101.8172 Z" clip-path="url(#clipPath2)" stroke="none"/>
      <text x="137.9316" xml:space="preserve" y="100.4837" clip-path="url(#clipPath2)" stroke="none">select_sa</text>
    </g>
    <g fill="rgb(255,17,17)" stroke-dasharray="6,2" stroke-miterlimit="1.45" transform="matrix(1,0,0,1,15,15)" stroke-linecap="butt" stroke="rgb(255,17,17)">
      <path fill="none" d="M42.5 232.5743 L42.5 114" clip-path="url(#clipPath2)"/>
      <path d="M42.5 106 L37.5 118 L42.5 115 L47.5 118 Z" clip-path="url(#clipPath2)" stroke="none"/>
      <path fill="none" stroke-dasharray="none" d="M84.7271 270.0743 L203.8615 270.0743" clip-path="url(#clipPath2)" stroke="rgb(128,128,255)"/>
      <path fill="rgb(128,128,255)" stroke-dasharray="none" d="M211.8615 270.0743 L199.8615 265.0743 L202.8615 270.0743 L199.8615 275.0743 Z" clip-path="url(#clipPath2)" stroke="none"/>
    </g>
  </g>
</svg>
