<?xml version="1.0" encoding="UTF-8"?>
<svg xmlns="http://www.w3.org/2000/svg" xmlns:xlink="http://www.w3.org/1999/xlink" fill-opacity="1" color-rendering="auto" color-interpolation="auto" stroke="black" text-rendering="auto" stroke-linecap="square" width="460" stroke-miterlimit="10" stroke-opacity="1" shape-rendering="auto" fill="black" stroke-dasharray="none" font-weight="normal" stroke-width="1" height="411" font-family="'Dialog'" font-style="normal" stroke-linejoin="miter" font-size="12" stroke-dashoffset="0" image-rendering="auto">
  <!--Generated by ySVG-->
  <defs id="genericDefs"/>
  <g>
    <defs id="defs1">
      <clipPath clipPathUnits="userSpaceOnUse" id="clipPath1">
        <path d="M0 0 L460 0 L460 411 L0 411 L0 0 Z"/>
      </clipPath>
      <clipPath clipPathUnits="userSpaceOnUse" id="clipPath2">
        <path d="M-82 -42 L378 -42 L378 369 L-82 369 L-82 -42 Z"/>
      </clipPath>
    </defs>
    <g fill="white" transform="translate(82,42)" stroke="white">
      <rect x="-82" width="460" height="411" y="-42" clip-path="url(#clipPath2)" stroke="none"/>
    </g>
    <g fill="rgb(204,204,255)" transform="matrix(1,0,0,1,82,42)" stroke="rgb(204,204,255)">
      <circle r="42.5" clip-path="url(#clipPath2)" cx="299.0773" cy="290.0743" stroke="none"/>
    </g>
    <g stroke-miterlimit="1.45" font-family="sans-serif" transform="matrix(1,0,0,1,82,42)" stroke-linecap="butt">
      <text x="282.9406" xml:space="preserve" y="294.2306" clip-path="url(#clipPath2)" stroke="none">clean</text>
      <circle fill="none" r="42.5" clip-path="url(#clipPath2)" cx="299.0773" cy="290.0743" stroke="rgb(128,128,255)"/>
    </g>
    <g fill="rgb(255,204,204)" transform="matrix(1,0,0,1,82,42)" stroke="rgb(255,204,204)">
      <circle r="42.5" clip-path="url(#clipPath2)" cx="299.0773" cy="78.5" stroke="none"/>
    </g>
    <g stroke-miterlimit="1.45" font-family="sans-serif" transform="matrix(1,0,0,1,82,42)" stroke-linecap="butt">
      <text x="279.2374" xml:space="preserve" y="82.6562" clip-path="url(#clipPath2)" stroke="none">invalid</text>
      <circle fill="none" r="42.5" clip-path="url(#clipPath2)" cx="299.0773" cy="78.5" stroke="rgb(255,128,128)"/>
    </g>
    <g fill="white" transform="matrix(1,0,0,1,82,42)" stroke="white">
      <circle r="42.5" clip-path="url(#clipPath2)" cx="87.5029" cy="78.5" stroke="none"/>
    </g>
    <g stroke-miterlimit="1.45" font-family="sans-serif" transform="matrix(1,0,0,1,82,42)" stroke-linecap="butt">
      <text x="69.3916" xml:space="preserve" y="82.6562" clip-path="url(#clipPath2)" stroke="none">linked</text>
      <circle fill="none" r="42.5" clip-path="url(#clipPath2)" cx="87.5029" cy="78.5"/>
    </g>
    <g fill="white" transform="matrix(1,0,0,1,82,42)" stroke="white">
      <circle r="42.5" clip-path="url(#clipPath2)" cx="87.5029" cy="290.0743" stroke="none"/>
    </g>
    <g stroke-miterlimit="1.45" font-family="sans-serif" transform="matrix(1,0,0,1,82,42)" stroke-linecap="butt">
      <text x="62.4365" xml:space="preserve" y="294.2306" clip-path="url(#clipPath2)" stroke="none">checked</text>
      <circle fill="none" r="42.5" clip-path="url(#clipPath2)" cx="87.5029" cy="290.0743"/>
      <path fill="none" d="M320.3273 332.5743 L320.3273 347.5743 L326.3273 353.5743 L356.5773 353.5743 L362.5773 347.5743 L362.5773 317.3243 L356.5773 311.3243 L349.5773 311.3243" clip-path="url(#clipPath2)" stroke="rgb(128,128,255)"/>
      <path fill="rgb(128,128,255)" d="M341.5773 311.3243 L353.5773 316.3243 L350.5773 311.3243 L353.5773 306.3243 Z" clip-path="url(#clipPath2)" stroke="none"/>
    </g>
    <g fill="rgb(255,17,17)" stroke-dasharray="6,2" stroke-miterlimit="1.45" transform="matrix(1,0,0,1,82,42)" stroke-linecap="butt" stroke="rgb(255,17,17)">
      <path fill="none" d="M294.0773 247.8473 L294.0773 128.7128" clip-path="url(#clipPath2)"/>
      <path d="M294.0773 120.7128 L289.0773 132.7128 L294.0773 129.7128 L299.0773 132.7128 Z" clip-path="url(#clipPath2)" stroke="none"/>
      <path fill="none" d="M320.3273 36 L320.3273 21 L326.3273 15 L356.5773 15 L362.5773 21 L362.5773 51.25 L356.5773 57.25 L349.5773 57.25" clip-path="url(#clipPath2)"/>
      <path d="M341.5773 57.25 L353.5773 62.25 L350.5773 57.25 L353.5773 52.25 Z" clip-path="url(#clipPath2)" stroke="none"/>
      <path fill="none" stroke-dasharray="none" d="M304.0773 120.7271 L304.0773 239.8615" clip-path="url(#clipPath2)" stroke="rgb(128,128,255)"/>
      <path fill="rgb(128,128,255)" stroke-dasharray="none" d="M304.0773 247.8615 L309.0773 235.8615 L304.0773 238.8615 L299.0773 235.8615 Z" clip-path="url(#clipPath2)" stroke="none"/>
      <path fill="none" stroke-dasharray="none" d="M265.7116 263.7798 L119.4638 117.532" clip-path="url(#clipPath2)" stroke="black"/>
      <path fill="black" stroke-dasharray="none" d="M113.807 111.8751 L118.7567 123.8959 L120.171 118.2391 L125.8278 116.8249 Z" clip-path="url(#clipPath2)" stroke="none"/>
    </g>
    <g stroke-miterlimit="1.45" font-family="sans-serif" transform="matrix(1,0,0,1,82,42)" stroke-linecap="butt">
      <text x="138.7901" xml:space="preserve" y="190.3543" clip-path="url(#clipPath2)" stroke="none">create</text>
      <path fill="none" d="M101.2529 36 L101.2529 13.5 L114.7529 0 L152.5029 0 L166.0029 13.5 L166.0029 51.25 L152.5029 64.75 L138.0029 64.75" clip-path="url(#clipPath2)"/>
      <path d="M130.0029 64.75 L142.0029 69.75 L139.0029 64.75 L142.0029 59.75 Z" clip-path="url(#clipPath2)" stroke="none"/>
      <text x="32.2817" xml:space="preserve" y="-13.4956" clip-path="url(#clipPath2)" stroke="none">add_certificate</text>
      <path fill="none" d="M106.2529 36 L106.2529 16 L117.2529 5 L150.0029 5 L161.0029 16 L161.0029 48.75 L150.0029 59.75 L138.0029 59.75" clip-path="url(#clipPath2)"/>
      <path d="M130.0029 59.75 L142.0029 64.75 L139.0029 59.75 L142.0029 54.75 Z" clip-path="url(#clipPath2)" stroke="none"/>
      <text x="16.0156" xml:space="preserve" y="29.6562" clip-path="url(#clipPath2)" stroke="none">get_last_cert</text>
      <path fill="none" d="M111.2529 36 L111.2529 18.5 L119.7529 10 L147.5029 10 L156.0029 18.5 L156.0029 46.25 L147.5029 54.75 L138.0029 54.75" clip-path="url(#clipPath2)"/>
      <path d="M130.0029 54.75 L142.0029 59.75 L139.0029 54.75 L142.0029 49.75 Z" clip-path="url(#clipPath2)" stroke="none"/>
      <text x="163.0029" xml:space="preserve" y="61.5312" clip-path="url(#clipPath2)" stroke="none">get_not_before</text>
      <path fill="none" d="M116.2529 36 L116.2529 21 L122.2529 15 L145.0029 15 L151.0029 21 L151.0029 43.75 L145.0029 49.75 L138.0029 49.75" clip-path="url(#clipPath2)"/>
      <path d="M130.0029 49.75 L142.0029 54.75 L139.0029 49.75 L142.0029 44.75 Z" clip-path="url(#clipPath2)" stroke="none"/>
      <text x="137.0059" xml:space="preserve" y="-4.8252" clip-path="url(#clipPath2)" stroke="none">get_not_after</text>
    </g>
    <g fill="rgb(255,17,17)" stroke-dasharray="6,2" stroke-miterlimit="1.45" transform="matrix(1,0,0,1,82,42)" stroke-linecap="butt" stroke="rgb(255,17,17)">
      <path fill="none" d="M130.0029 78.5 L248.5773 78.5" clip-path="url(#clipPath2)"/>
      <path d="M256.5773 78.5 L244.5773 73.5 L247.5773 78.5 L244.5773 83.5 Z" clip-path="url(#clipPath2)" stroke="none"/>
      <path fill="none" stroke-dasharray="none" d="M120.8917 104.8177 L267.0901 251.0161" clip-path="url(#clipPath2)" stroke="rgb(128,128,255)"/>
      <path fill="rgb(128,128,255)" stroke-dasharray="none" d="M272.7469 256.6729 L267.7972 244.6521 L266.383 250.309 L260.7261 251.7232 Z" clip-path="url(#clipPath2)" stroke="none"/>
      <path fill="none" stroke-dasharray="none" d="M87.5029 121 L87.5029 239.5743" clip-path="url(#clipPath2)" stroke="black"/>
      <path fill="black" stroke-dasharray="none" d="M87.5029 247.5743 L92.5029 235.5743 L87.5029 238.5743 L82.5029 235.5743 Z" clip-path="url(#clipPath2)" stroke="none"/>
    </g>
    <g stroke-miterlimit="1.45" font-family="sans-serif" transform="matrix(1,0,0,1,82,42)" stroke-linecap="butt">
      <text x="50.3701" xml:space="preserve" y="172.6216" clip-path="url(#clipPath2)" stroke="none">check</text>
      <path fill="none" d="M66.2529 332.5743 L66.2529 347.5743 L60.2529 353.5743 L30.0029 353.5743 L24.0029 347.5743 L24.0029 317.3243 L30.0029 311.3243 L37.0029 311.3243" clip-path="url(#clipPath2)"/>
      <path d="M45.0029 311.3243 L33.0029 306.3243 L36.0029 311.3243 L33.0029 316.3243 Z" clip-path="url(#clipPath2)" stroke="none"/>
      <text x="-64.2529" xml:space="preserve" y="306.6056" clip-path="url(#clipPath2)" stroke="none">get_certificate</text>
    </g>
    <g fill="rgb(255,17,17)" stroke-dasharray="6,2" stroke-miterlimit="1.45" transform="matrix(1,0,0,1,82,42)" stroke-linecap="butt" stroke="rgb(255,17,17)">
      <path fill="none" d="M117.555 260.0223 L263.3684 114.2089" clip-path="url(#clipPath2)"/>
      <path d="M269.0252 108.552 L257.0044 113.5018 L262.6613 114.916 L264.0755 120.5729 Z" clip-path="url(#clipPath2)" stroke="none"/>
      <path fill="none" stroke-dasharray="none" d="M130.0029 290.0743 L248.5773 290.0743" clip-path="url(#clipPath2)" stroke="rgb(128,128,255)"/>
      <path fill="rgb(128,128,255)" stroke-dasharray="none" d="M256.5773 290.0743 L244.5773 285.0743 L247.5773 290.0743 L244.5773 295.0743 Z" clip-path="url(#clipPath2)" stroke="none"/>
    </g>
  </g>
</svg>
