<?xml version="1.0" encoding="UTF-8"?><svg xmlns="http://www.w3.org/2000/svg" xmlns:xlink="http://www.w3.org/1999/xlink" fill-opacity="1" color-rendering="auto" color-interpolation="auto" stroke="black" text-rendering="auto" stroke-linecap="square" width="909" stroke-miterlimit="10" stroke-opacity="1" shape-rendering="auto" fill="black" stroke-dasharray="none" font-weight="normal" stroke-width="1" height="594" font-family="'Dialog'" font-style="normal" stroke-linejoin="miter" font-size="12" stroke-dashoffset="0" image-rendering="auto">
  <!--Generated by ySVG-->
  <defs id="genericDefs"/>
  <g>
    <defs id="defs1">
      <clipPath clipPathUnits="userSpaceOnUse" id="clipPath1">
        <path d="M0 0 L909 0 L909 594 L0 594 L0 0 Z"/>
      </clipPath>
      <clipPath clipPathUnits="userSpaceOnUse" id="clipPath2">
        <path d="M571 141 L1480 141 L1480 735 L571 735 L571 141 Z"/>
      </clipPath>
    </defs>
    <g fill="white" transform="translate(-571,-141)" stroke="white">
      <rect x="571" width="909" height="594" y="141" clip-path="url(#clipPath2)" stroke="none"/>
    </g>
    <g fill="white" transform="matrix(1,0,0,1,-571,-141)" stroke="white">
      <rect x="614.8333" y="159.5389" clip-path="url(#clipPath2)" width="340" rx="4" ry="4" height="434.6538" stroke="none"/>
    </g>
    <g stroke-miterlimit="1.45" font-family="sans-serif" transform="matrix(1,0,0,1,-571,-141)" stroke-linecap="butt">
      <text x="761.4075" xml:space="preserve" y="176.6776" clip-path="url(#clipPath2)" stroke="none">Initiator</text>
    </g>
    <g stroke-dasharray="0,4" stroke-miterlimit="1.45" stroke-dashoffset="2" transform="matrix(1,0,0,1,-571,-141)" stroke-linecap="round">
      <rect x="614.8333" y="159.5389" clip-path="url(#clipPath2)" fill="none" width="340" rx="4" ry="4" height="434.6538"/>
    </g>
    <g fill="white" transform="matrix(1,0,0,1,-571,-141)" stroke="white">
      <rect x="1094.722" y="156.0661" clip-path="url(#clipPath2)" width="340" rx="4" ry="4" height="438.1266" stroke="none"/>
    </g>
    <g stroke-miterlimit="1.45" font-family="sans-serif" transform="matrix(1,0,0,1,-571,-141)" stroke-linecap="butt">
      <text x="1232.4867" xml:space="preserve" y="173.2048" clip-path="url(#clipPath2)" stroke="none">Responder</text>
    </g>
    <g stroke-dasharray="0,4" stroke-miterlimit="1.45" stroke-dashoffset="2" transform="matrix(1,0,0,1,-571,-141)" stroke-linecap="round">
      <rect x="1094.722" y="156.0661" clip-path="url(#clipPath2)" fill="none" width="340" rx="4" ry="4" height="438.1266"/>
    </g>
    <g fill="rgb(240,238,234)" transform="matrix(1,0,0,1,-571,-141)" stroke="rgb(240,238,234)">
      <rect x="634.8333" width="300" height="396" y="190" clip-path="url(#clipPath2)" stroke="none"/>
    </g>
    <g font-size="13" stroke-miterlimit="1.45" font-family="sans-serif" transform="matrix(1,0,0,1,-571,-141)" stroke-linecap="butt">
      <text x="636.8333" xml:space="preserve" y="204.0669" clip-path="url(#clipPath2)" stroke="none">libcharon/sa/ikev2/tasks/ike_auth.c</text>
      <rect fill="none" x="634.8333" width="300" height="396" y="190" clip-path="url(#clipPath2)"/>
    </g>
    <g fill="silver" transform="matrix(1,0,0,1,-571,-141)" stroke="silver">
      <rect x="646.5" width="280" height="106" y="213.5906" clip-path="url(#clipPath2)" stroke="none"/>
    </g>
    <g font-size="13" stroke-miterlimit="1.45" font-family="sans-serif" transform="matrix(1,0,0,1,-571,-141)" stroke-linecap="butt">
      <text x="765.4607" xml:space="preserve" y="227.6575" clip-path="url(#clipPath2)" stroke="none">build_i</text>
      <rect fill="none" x="646.5" width="280" height="106" y="213.5906" clip-path="url(#clipPath2)"/>
    </g>
    <g fill="rgb(238,237,237)" transform="matrix(1,0,0,1,-571,-141)" stroke="rgb(238,237,237)">
      <rect x="656.5" width="160" height="30" y="233.0906" clip-path="url(#clipPath2)" stroke="none"/>
    </g>
    <g font-size="13" stroke-miterlimit="1.45" font-family="sans-serif" transform="matrix(1,0,0,1,-571,-141)" stroke-linecap="butt">
      <text x="671.7983" xml:space="preserve" y="252.5911" clip-path="url(#clipPath2)" stroke="none">auth_create_builder</text>
      <rect fill="none" x="656.5" width="160" height="30" y="233.0906" clip-path="url(#clipPath2)"/>
    </g>
    <g fill="rgb(238,237,237)" transform="matrix(1,0,0,1,-571,-141)" stroke="rgb(238,237,237)">
      <rect x="656.5" width="260" height="30" y="280.2487" clip-path="url(#clipPath2)" stroke="none"/>
    </g>
    <g font-size="13" stroke-miterlimit="1.45" font-family="sans-serif" transform="matrix(1,0,0,1,-571,-141)" stroke-linecap="butt">
      <text x="734.5254" xml:space="preserve" y="299.7492" clip-path="url(#clipPath2)" stroke="none">my_auth-&gt;build</text>
      <rect fill="none" x="656.5" width="260" height="30" y="280.2487" clip-path="url(#clipPath2)"/>
    </g>
    <g fill="rgb(153,204,255)" transform="matrix(1,0,0,1,-571,-141)" stroke="rgb(153,204,255)">
      <rect x="816.5" width="100" height="30" y="233.0906" clip-path="url(#clipPath2)" stroke="none"/>
    </g>
    <g font-size="13" stroke-miterlimit="1.45" font-family="sans-serif" transform="matrix(1,0,0,1,-571,-141)" stroke-linecap="butt">
      <text x="838.3005" xml:space="preserve" y="252.5911" clip-path="url(#clipPath2)" stroke="none">my_auth</text>
      <rect fill="none" x="816.5" width="100" height="30" y="233.0906" clip-path="url(#clipPath2)"/>
    </g>
    <g fill="white" transform="matrix(1,0,0,1,-571,-141)" stroke="white">
      <rect x="974.8333" y="234.7269" clip-path="url(#clipPath2)" width="100" rx="4" ry="4" height="30" stroke="none"/>
    </g>
    <g stroke-miterlimit="1.45" font-family="sans-serif" transform="matrix(1,0,0,1,-571,-141)" stroke-linecap="butt">
      <text x="998.5364" xml:space="preserve" y="253.8812" clip-path="url(#clipPath2)" stroke="none">Message</text>
      <rect x="974.8333" y="234.7269" clip-path="url(#clipPath2)" fill="none" width="100" stroke-dasharray="6,2" rx="4" ry="4" height="30"/>
    </g>
    <g fill="rgb(240,238,234)" transform="matrix(1,0,0,1,-571,-141)" stroke="rgb(240,238,234)">
      <rect x="1116.3887" width="300" height="396" y="190" clip-path="url(#clipPath2)" stroke="none"/>
    </g>
    <g font-size="13" stroke-miterlimit="1.45" font-family="sans-serif" transform="matrix(1,0,0,1,-571,-141)" stroke-linecap="butt">
      <text x="1118.3887" xml:space="preserve" y="204.0669" clip-path="url(#clipPath2)" stroke="none">libcharon/sa/ikev2/tasks/ike_auth.c</text>
      <rect fill="none" x="1116.3887" width="300" height="396" y="190" clip-path="url(#clipPath2)"/>
    </g>
    <g fill="silver" transform="matrix(1,0,0,1,-571,-141)" stroke="silver">
      <rect x="1128.0553" width="280" height="161" y="212.7156" clip-path="url(#clipPath2)" stroke="none"/>
    </g>
    <g font-size="13" stroke-miterlimit="1.45" font-family="sans-serif" transform="matrix(1,0,0,1,-571,-141)" stroke-linecap="butt">
      <text x="1237.0121" xml:space="preserve" y="226.7825" clip-path="url(#clipPath2)" stroke="none">process_r</text>
      <rect fill="none" x="1128.0553" width="280" height="161" y="212.7156" clip-path="url(#clipPath2)"/>
    </g>
    <g fill="rgb(238,237,237)" transform="matrix(1,0,0,1,-571,-141)" stroke="rgb(238,237,237)">
      <rect x="1138.0553" width="160" height="30" y="233.0906" clip-path="url(#clipPath2)" stroke="none"/>
    </g>
    <g font-size="13" stroke-miterlimit="1.45" font-family="sans-serif" transform="matrix(1,0,0,1,-571,-141)" stroke-linecap="butt">
      <text x="1152.9188" xml:space="preserve" y="252.5911" clip-path="url(#clipPath2)" stroke="none">auth_create_verifier</text>
      <rect fill="none" x="1138.0553" width="160" height="30" y="233.0906" clip-path="url(#clipPath2)"/>
    </g>
    <g fill="rgb(153,204,255)" transform="matrix(1,0,0,1,-571,-141)" stroke="rgb(153,204,255)">
      <rect x="1298.0553" width="100" height="30" y="233.0906" clip-path="url(#clipPath2)" stroke="none"/>
    </g>
    <g font-size="13" stroke-miterlimit="1.45" font-family="sans-serif" transform="matrix(1,0,0,1,-571,-141)" stroke-linecap="butt">
      <text x="1312.7179" xml:space="preserve" y="252.5911" clip-path="url(#clipPath2)" stroke="none">other_auth</text>
      <rect fill="none" x="1298.0553" width="100" height="30" y="233.0906" clip-path="url(#clipPath2)"/>
    </g>
    <g fill="rgb(238,237,237)" transform="matrix(1,0,0,1,-571,-141)" stroke="rgb(238,237,237)">
      <rect x="1138.0553" width="260" height="30" y="281.7156" clip-path="url(#clipPath2)" stroke="none"/>
    </g>
    <g font-size="13" stroke-miterlimit="1.45" font-family="sans-serif" transform="matrix(1,0,0,1,-571,-141)" stroke-linecap="butt">
      <text x="1199.8053" xml:space="preserve" y="301.2161" clip-path="url(#clipPath2)" stroke="none">other_auth-&gt;process</text>
      <rect fill="none" x="1138.0553" width="260" height="30" y="281.7156" clip-path="url(#clipPath2)"/>
    </g>
    <g fill="rgb(238,237,237)" transform="matrix(1,0,0,1,-571,-141)" stroke="rgb(238,237,237)">
      <rect x="1138.0553" width="260" height="30" y="330.3406" clip-path="url(#clipPath2)" stroke="none"/>
    </g>
    <g font-size="13" stroke-miterlimit="1.45" font-family="sans-serif" transform="matrix(1,0,0,1,-571,-141)" stroke-linecap="butt">
      <text x="1199.3007" xml:space="preserve" y="349.8411" clip-path="url(#clipPath2)" stroke="none">add_auth_cfg(ike_sa)</text>
      <rect fill="none" x="1138.0553" width="260" height="30" y="330.3406" clip-path="url(#clipPath2)"/>
    </g>
    <g fill="silver" transform="matrix(1,0,0,1,-571,-141)" stroke="silver">
      <rect x="1128.0553" width="280" height="161" y="409.9406" clip-path="url(#clipPath2)" stroke="none"/>
    </g>
    <g font-size="13" stroke-miterlimit="1.45" font-family="sans-serif" transform="matrix(1,0,0,1,-571,-141)" stroke-linecap="butt">
      <text x="1246.1495" xml:space="preserve" y="424.0075" clip-path="url(#clipPath2)" stroke="none">build_r</text>
      <rect fill="none" x="1128.0553" width="280" height="161" y="409.9406" clip-path="url(#clipPath2)"/>
    </g>
    <g fill="rgb(238,237,237)" transform="matrix(1,0,0,1,-571,-141)" stroke="rgb(238,237,237)">
      <rect x="1138.0553" width="160" height="30" y="432.1969" clip-path="url(#clipPath2)" stroke="none"/>
    </g>
    <g font-size="13" stroke-miterlimit="1.45" font-family="sans-serif" transform="matrix(1,0,0,1,-571,-141)" stroke-linecap="butt">
      <text x="1153.3536" xml:space="preserve" y="451.6974" clip-path="url(#clipPath2)" stroke="none">auth_create_builder</text>
      <rect fill="none" x="1138.0553" width="160" height="30" y="432.1969" clip-path="url(#clipPath2)"/>
    </g>
    <g fill="rgb(153,204,255)" transform="matrix(1,0,0,1,-571,-141)" stroke="rgb(153,204,255)">
      <rect x="1298.0553" width="100" height="30" y="432.1969" clip-path="url(#clipPath2)" stroke="none"/>
    </g>
    <g font-size="13" stroke-miterlimit="1.45" font-family="sans-serif" transform="matrix(1,0,0,1,-571,-141)" stroke-linecap="butt">
      <text x="1319.8558" xml:space="preserve" y="451.6974" clip-path="url(#clipPath2)" stroke="none">my_auth</text>
      <rect fill="none" x="1298.0553" width="100" height="30" y="432.1969" clip-path="url(#clipPath2)"/>
    </g>
    <g fill="rgb(240,238,234)" transform="matrix(1,0,0,1,-571,-141)" stroke="rgb(240,238,234)">
      <rect x="1074.722" width="300" height="95" y="624.1927" clip-path="url(#clipPath2)" stroke="none"/>
    </g>
    <g font-size="13" stroke-miterlimit="1.45" font-family="sans-serif" transform="matrix(1,0,0,1,-571,-141)" stroke-linecap="butt">
      <text x="1076.722" xml:space="preserve" y="638.2596" clip-path="url(#clipPath2)" stroke="none">libcharon/sa/authenticator.c</text>
      <rect fill="none" x="1074.722" width="300" height="95" y="624.1927" clip-path="url(#clipPath2)"/>
    </g>
    <g fill="silver" transform="matrix(1,0,0,1,-571,-141)" stroke="silver">
      <rect x="1084.722" width="280" height="62" y="646.5841" clip-path="url(#clipPath2)" stroke="none"/>
    </g>
    <g font-size="13" stroke-miterlimit="1.45" font-family="sans-serif" transform="matrix(1,0,0,1,-571,-141)" stroke-linecap="butt">
      <text x="1130.7926" xml:space="preserve" y="660.6511" clip-path="url(#clipPath2)" stroke="none">authenticator_create_builder</text>
      <rect fill="none" x="1084.722" width="280" height="62" y="646.5841" clip-path="url(#clipPath2)"/>
    </g>
    <g fill="white" transform="matrix(1,0,0,1,-571,-141)" stroke="white">
      <path d="M1094.722 669.4037 L1339.722 669.4037 L1339.722 684.4037 L1354.722 684.4037 L1354.722 701.4037 L1094.722 701.4037 Z" clip-path="url(#clipPath2)" stroke="none"/>
      <path d="M1339.722 669.4037 L1339.722 684.4037 L1354.722 684.4037 Z" clip-path="url(#clipPath2)" fill-rule="evenodd" stroke="none"/>
    </g>
    <g stroke-linecap="butt" transform="matrix(1,0,0,1,-571,-141)" stroke-miterlimit="1.45">
      <path fill="none" d="M1094.722 669.4037 L1339.722 669.4037 L1339.722 684.4037 L1354.722 684.4037 L1354.722 701.4037 L1094.722 701.4037 Z" clip-path="url(#clipPath2)"/>
      <path fill="none" d="M1339.722 669.4037 L1339.722 684.4037 L1354.722 684.4037 Z" fill-rule="evenodd" clip-path="url(#clipPath2)"/>
      <text x="1117.264" xml:space="preserve" y="682.5736" font-family="sans-serif" clip-path="url(#clipPath2)" stroke="none">Input: ike_sa, cfg, nonces, init msgs</text>
      <text x="1103.0961" xml:space="preserve" y="696.5424" font-family="sans-serif" clip-path="url(#clipPath2)" stroke="none">create authenticator to build signatures.</text>
    </g>
    <g fill="white" transform="matrix(1,0,0,1,-571,-141)" stroke="white">
      <circle r="15" clip-path="url(#clipPath2)" cx="1044.722" cy="669.8341" stroke="none"/>
    </g>
    <g stroke-miterlimit="1.45" font-family="sans-serif" transform="matrix(1,0,0,1,-571,-141)" stroke-linecap="butt">
      <text x="1036.4164" xml:space="preserve" y="673.9885" clip-path="url(#clipPath2)" stroke="none">CB</text>
      <circle fill="none" r="15" clip-path="url(#clipPath2)" cx="1044.722" cy="669.8341"/>
    </g>
    <g fill="white" transform="matrix(1,0,0,1,-571,-141)" stroke="white">
      <circle r="15" clip-path="url(#clipPath2)" cx="1083.0553" cy="447.1969" stroke="none"/>
    </g>
    <g stroke-miterlimit="1.45" font-family="sans-serif" transform="matrix(1,0,0,1,-571,-141)" stroke-linecap="butt">
      <text x="1074.7496" xml:space="preserve" y="451.3512" clip-path="url(#clipPath2)" stroke="none">CB</text>
      <circle fill="none" r="15" clip-path="url(#clipPath2)" cx="1083.0553" cy="447.1969"/>
    </g>
    <g fill="white" transform="matrix(1,0,0,1,-571,-141)" stroke="white">
      <circle r="15" clip-path="url(#clipPath2)" cx="601.5" cy="248.0906" stroke="none"/>
    </g>
    <g stroke-miterlimit="1.45" font-family="sans-serif" transform="matrix(1,0,0,1,-571,-141)" stroke-linecap="butt">
      <text x="593.1943" xml:space="preserve" y="252.2449" clip-path="url(#clipPath2)" stroke="none">CB</text>
      <circle fill="none" r="15" clip-path="url(#clipPath2)" cx="601.5" cy="248.0906"/>
    </g>
    <g fill="white" transform="matrix(1,0,0,1,-571,-141)" stroke="white">
      <circle r="15" clip-path="url(#clipPath2)" cx="601.5" cy="295.2487" stroke="none"/>
    </g>
    <g stroke-miterlimit="1.45" font-family="sans-serif" transform="matrix(1,0,0,1,-571,-141)" stroke-linecap="butt">
      <text x="593.2793" xml:space="preserve" y="299.403" clip-path="url(#clipPath2)" stroke="none">BA</text>
      <circle fill="none" r="15" clip-path="url(#clipPath2)" cx="601.5" cy="295.2487"/>
    </g>
    <g fill="rgb(238,237,237)" transform="matrix(1,0,0,1,-571,-141)" stroke="rgb(238,237,237)">
      <rect x="1138.0553" width="260" height="30" y="479.7844" clip-path="url(#clipPath2)" stroke="none"/>
    </g>
    <g font-size="13" stroke-miterlimit="1.45" font-family="sans-serif" transform="matrix(1,0,0,1,-571,-141)" stroke-linecap="butt">
      <text x="1216.0807" xml:space="preserve" y="499.2849" clip-path="url(#clipPath2)" stroke="none">my_auth-&gt;build</text>
      <rect fill="none" x="1138.0553" width="260" height="30" y="479.7844" clip-path="url(#clipPath2)"/>
    </g>
    <g fill="white" transform="matrix(1,0,0,1,-571,-141)" stroke="white">
      <circle r="15" clip-path="url(#clipPath2)" cx="1083.0553" cy="494.7844" stroke="none"/>
    </g>
    <g stroke-miterlimit="1.45" font-family="sans-serif" transform="matrix(1,0,0,1,-571,-141)" stroke-linecap="butt">
      <text x="1074.8346" xml:space="preserve" y="498.9387" clip-path="url(#clipPath2)" stroke="none">BA</text>
      <circle fill="none" r="15" clip-path="url(#clipPath2)" cx="1083.0553" cy="494.7844"/>
    </g>
    <g fill="rgb(238,237,237)" transform="matrix(1,0,0,1,-571,-141)" stroke="rgb(238,237,237)">
      <rect x="1138.0553" width="260" height="30" y="527.3719" clip-path="url(#clipPath2)" stroke="none"/>
    </g>
    <g font-size="13" stroke-miterlimit="1.45" font-family="sans-serif" transform="matrix(1,0,0,1,-571,-141)" stroke-linecap="butt">
      <text x="1144.9774" xml:space="preserve" y="546.8724" clip-path="url(#clipPath2)" stroke="none">ike_sa-&gt;set_state (IKE_ESTABLISHED)</text>
      <rect fill="none" x="1138.0553" width="260" height="30" y="527.3719" clip-path="url(#clipPath2)"/>
    </g>
    <g fill="rgb(240,238,234)" transform="matrix(1,0,0,1,-571,-141)" stroke="rgb(240,238,234)">
      <rect x="694.722" width="300" height="95" y="624.1927" clip-path="url(#clipPath2)" stroke="none"/>
    </g>
    <g font-size="13" stroke-miterlimit="1.45" font-family="sans-serif" transform="matrix(1,0,0,1,-571,-141)" stroke-linecap="butt">
      <text x="696.722" xml:space="preserve" y="638.2596" clip-path="url(#clipPath2)" stroke="none">libcharon/sa/authenticator.c</text>
      <rect fill="none" x="694.722" width="300" height="95" y="624.1927" clip-path="url(#clipPath2)"/>
    </g>
    <g fill="silver" transform="matrix(1,0,0,1,-571,-141)" stroke="silver">
      <rect x="704.722" width="280" height="62" y="646.4037" clip-path="url(#clipPath2)" stroke="none"/>
    </g>
    <g font-size="13" stroke-miterlimit="1.45" font-family="sans-serif" transform="matrix(1,0,0,1,-571,-141)" stroke-linecap="butt">
      <text x="750.3577" xml:space="preserve" y="660.4706" clip-path="url(#clipPath2)" stroke="none">authenticator_create_verifier</text>
      <rect fill="none" x="704.722" width="280" height="62" y="646.4037" clip-path="url(#clipPath2)"/>
    </g>
    <g fill="white" transform="matrix(1,0,0,1,-571,-141)" stroke="white">
      <path d="M714.722 669.4037 L959.722 669.4037 L959.722 684.4037 L974.722 684.4037 L974.722 701.4037 L714.722 701.4037 Z" clip-path="url(#clipPath2)" stroke="none"/>
      <path d="M959.722 669.4037 L959.722 684.4037 L974.722 684.4037 Z" clip-path="url(#clipPath2)" fill-rule="evenodd" stroke="none"/>
    </g>
    <g stroke-linecap="butt" transform="matrix(1,0,0,1,-571,-141)" stroke-miterlimit="1.45">
      <path fill="none" d="M714.722 669.4037 L959.722 669.4037 L959.722 684.4037 L974.722 684.4037 L974.722 701.4037 L714.722 701.4037 Z" clip-path="url(#clipPath2)"/>
      <path fill="none" d="M959.722 669.4037 L959.722 684.4037 L974.722 684.4037 Z" fill-rule="evenodd" clip-path="url(#clipPath2)"/>
      <text x="750.2982" xml:space="preserve" y="682.5736" font-family="sans-serif" clip-path="url(#clipPath2)" stroke="none">Input: ike_sa, nonces, init msgs</text>
      <text x="720.8109" xml:space="preserve" y="696.5424" font-family="sans-serif" clip-path="url(#clipPath2)" stroke="none">create authenticator to verify signatures.</text>
    </g>
    <g fill="white" transform="matrix(1,0,0,1,-571,-141)" stroke="white">
      <circle r="15" clip-path="url(#clipPath2)" cx="664.722" cy="671.6927" stroke="none"/>
    </g>
    <g stroke-miterlimit="1.45" font-family="sans-serif" transform="matrix(1,0,0,1,-571,-141)" stroke-linecap="butt">
      <text x="656.428" xml:space="preserve" y="675.847" clip-path="url(#clipPath2)" stroke="none">CV</text>
      <circle fill="none" r="15" clip-path="url(#clipPath2)" cx="664.722" cy="671.6927"/>
    </g>
    <g fill="white" transform="matrix(1,0,0,1,-571,-141)" stroke="white">
      <circle r="15" clip-path="url(#clipPath2)" cx="1449.722" cy="248.0906" stroke="none"/>
    </g>
    <g stroke-miterlimit="1.45" font-family="sans-serif" transform="matrix(1,0,0,1,-571,-141)" stroke-linecap="butt">
      <text x="1441.4281" xml:space="preserve" y="252.2449" clip-path="url(#clipPath2)" stroke="none">CV</text>
      <circle fill="none" r="15" clip-path="url(#clipPath2)" cx="1449.722" cy="248.0906"/>
    </g>
    <g fill="white" transform="matrix(1,0,0,1,-571,-141)" stroke="white">
      <circle r="15" clip-path="url(#clipPath2)" cx="1449.722" cy="296.7156" stroke="none"/>
    </g>
    <g stroke-miterlimit="1.45" font-family="sans-serif" transform="matrix(1,0,0,1,-571,-141)" stroke-linecap="butt">
      <text x="1441.9994" xml:space="preserve" y="300.8699" clip-path="url(#clipPath2)" stroke="none">PA</text>
      <circle fill="none" r="15" clip-path="url(#clipPath2)" cx="1449.722" cy="296.7156"/>
    </g>
    <g fill="white" transform="matrix(1,0,0,1,-571,-141)" stroke="white">
      <rect x="974.8333" y="547.5531" clip-path="url(#clipPath2)" width="100" rx="4" ry="4" height="30" stroke="none"/>
    </g>
    <g stroke-miterlimit="1.45" font-family="sans-serif" transform="matrix(1,0,0,1,-571,-141)" stroke-linecap="butt">
      <text x="998.5364" xml:space="preserve" y="566.7074" clip-path="url(#clipPath2)" stroke="none">Message</text>
      <rect x="974.8333" y="547.5531" clip-path="url(#clipPath2)" fill="none" width="100" stroke-dasharray="6,2" rx="4" ry="4" height="30"/>
    </g>
    <g fill="silver" transform="matrix(1,0,0,1,-571,-141)" stroke="silver">
      <rect x="646.5" width="280" height="161" y="409.9406" clip-path="url(#clipPath2)" stroke="none"/>
    </g>
    <g font-size="13" stroke-miterlimit="1.45" font-family="sans-serif" transform="matrix(1,0,0,1,-571,-141)" stroke-linecap="butt">
      <text x="756.3232" xml:space="preserve" y="424.0075" clip-path="url(#clipPath2)" stroke="none">process_i</text>
      <rect fill="none" x="646.5" width="280" height="161" y="409.9406" clip-path="url(#clipPath2)"/>
    </g>
    <g fill="rgb(238,237,237)" transform="matrix(1,0,0,1,-571,-141)" stroke="rgb(238,237,237)">
      <rect x="656.5" width="160" height="30" y="432.4712" clip-path="url(#clipPath2)" stroke="none"/>
    </g>
    <g font-size="13" stroke-miterlimit="1.45" font-family="sans-serif" transform="matrix(1,0,0,1,-571,-141)" stroke-linecap="butt">
      <text x="671.3635" xml:space="preserve" y="451.9717" clip-path="url(#clipPath2)" stroke="none">auth_create_verifier</text>
      <rect fill="none" x="656.5" width="160" height="30" y="432.4712" clip-path="url(#clipPath2)"/>
    </g>
    <g fill="rgb(153,204,255)" transform="matrix(1,0,0,1,-571,-141)" stroke="rgb(153,204,255)">
      <rect x="816.5" width="100" height="30" y="432.4712" clip-path="url(#clipPath2)" stroke="none"/>
    </g>
    <g font-size="13" stroke-miterlimit="1.45" font-family="sans-serif" transform="matrix(1,0,0,1,-571,-141)" stroke-linecap="butt">
      <text x="831.1626" xml:space="preserve" y="451.9717" clip-path="url(#clipPath2)" stroke="none">other_auth</text>
      <rect fill="none" x="816.5" width="100" height="30" y="432.4712" clip-path="url(#clipPath2)"/>
    </g>
    <g fill="white" transform="matrix(1,0,0,1,-571,-141)" stroke="white">
      <circle r="15" clip-path="url(#clipPath2)" cx="601.5" cy="447.4712" stroke="none"/>
    </g>
    <g stroke-miterlimit="1.45" font-family="sans-serif" transform="matrix(1,0,0,1,-571,-141)" stroke-linecap="butt">
      <text x="593.2061" xml:space="preserve" y="451.6255" clip-path="url(#clipPath2)" stroke="none">CV</text>
      <circle fill="none" r="15" clip-path="url(#clipPath2)" cx="601.5" cy="447.4712"/>
    </g>
    <g fill="white" transform="matrix(1,0,0,1,-571,-141)" stroke="white">
      <circle r="15" clip-path="url(#clipPath2)" cx="601.5" cy="496.0962" stroke="none"/>
    </g>
    <g stroke-miterlimit="1.45" font-family="sans-serif" transform="matrix(1,0,0,1,-571,-141)" stroke-linecap="butt">
      <text x="593.7773" xml:space="preserve" y="500.2505" clip-path="url(#clipPath2)" stroke="none">PA</text>
      <circle fill="none" r="15" clip-path="url(#clipPath2)" cx="601.5" cy="496.0962"/>
    </g>
    <g fill="rgb(238,237,237)" transform="matrix(1,0,0,1,-571,-141)" stroke="rgb(238,237,237)">
      <rect x="654.8333" width="260" height="30" y="481.0962" clip-path="url(#clipPath2)" stroke="none"/>
    </g>
    <g font-size="13" stroke-miterlimit="1.45" font-family="sans-serif" transform="matrix(1,0,0,1,-571,-141)" stroke-linecap="butt">
      <text x="716.5833" xml:space="preserve" y="500.5967" clip-path="url(#clipPath2)" stroke="none">other_auth-&gt;process</text>
      <rect fill="none" x="654.8333" width="260" height="30" y="481.0962" clip-path="url(#clipPath2)"/>
    </g>
    <g fill="rgb(238,237,237)" transform="matrix(1,0,0,1,-571,-141)" stroke="rgb(238,237,237)">
      <rect x="654.8333" width="260" height="30" y="529.7212" clip-path="url(#clipPath2)" stroke="none"/>
    </g>
    <g font-size="13" stroke-miterlimit="1.45" font-family="sans-serif" transform="matrix(1,0,0,1,-571,-141)" stroke-linecap="butt">
      <text x="661.7554" xml:space="preserve" y="549.2217" clip-path="url(#clipPath2)" stroke="none">ike_sa-&gt;set_state (IKE_ESTABLISHED)</text>
      <rect fill="none" x="654.8333" width="260" height="30" y="529.7212" clip-path="url(#clipPath2)"/>
      <path fill="none" d="M786.5 263.1387 L786.5 272.2487" clip-path="url(#clipPath2)"/>
      <path d="M786.5 280.2487 L791.5 268.2487 L786.5 271.2487 L781.5 268.2487 Z" clip-path="url(#clipPath2)" stroke="none"/>
      <path fill="none" stroke-dasharray="6,2" d="M954.8447 249.7269 L974.8365 249.7269" clip-path="url(#clipPath2)"/>
      <path fill="none" stroke-dasharray="6,2" d="M1074.8079 249.7269 L1086.6953 249.7269" clip-path="url(#clipPath2)"/>
      <path stroke-dasharray="6,2" d="M1094.6953 249.7269 L1082.6953 244.7269 L1085.6953 249.7269 L1082.6953 254.7269 Z" clip-path="url(#clipPath2)" stroke="none"/>
      <path fill="none" d="M1268.0553 263.1207 L1268.0553 273.7156" clip-path="url(#clipPath2)"/>
      <path d="M1268.0553 281.7156 L1273.0553 269.7156 L1268.0553 272.7156 L1263.0553 269.7156 Z" clip-path="url(#clipPath2)" stroke="none"/>
      <path fill="none" d="M1268.0553 311.7156 L1268.0553 322.3406" clip-path="url(#clipPath2)"/>
      <path d="M1268.0553 330.3406 L1273.0553 318.3406 L1268.0553 321.3406 L1263.0553 318.3406 Z" clip-path="url(#clipPath2)" stroke="none"/>
      <path fill="none" stroke-dasharray="6,2" d="M1268.0553 373.7156 L1268.0553 401.9406" clip-path="url(#clipPath2)"/>
      <path stroke-dasharray="6,2" d="M1268.0553 409.9406 L1273.0553 397.9406 L1268.0553 400.9406 L1263.0553 397.9406 Z" clip-path="url(#clipPath2)" stroke="none"/>
      <text x="1272.0553" xml:space="preserve" font-size="12" y="395.9824" clip-path="url(#clipPath2)" stroke="none">NEED_MORE</text>
      <path fill="none" d="M1059.7212 669.989 L1066.7224 670.0613" clip-path="url(#clipPath2)"/>
      <path d="M1074.722 670.1439 L1062.7743 665.0202 L1065.7225 670.051 L1062.671 675.0197 Z" clip-path="url(#clipPath2)" stroke="none"/>
      <path fill="none" d="M1138.0553 447.1969 L1106.0553 447.1969" clip-path="url(#clipPath2)"/>
      <path d="M1098.0553 447.1969 L1110.0553 452.1969 L1107.0553 447.1969 L1110.0553 442.1969 Z" clip-path="url(#clipPath2)" stroke="none"/>
      <path fill="none" d="M656.5 248.0906 L624.5 248.0906" clip-path="url(#clipPath2)"/>
      <path d="M616.5 248.0906 L628.5 253.0906 L625.5 248.0906 L628.5 243.0906 Z" clip-path="url(#clipPath2)" stroke="none"/>
      <path fill="none" d="M656.5 295.2487 L624.5 295.2487" clip-path="url(#clipPath2)"/>
      <path d="M616.5 295.2487 L628.5 300.2487 L625.5 295.2487 L628.5 290.2487 Z" clip-path="url(#clipPath2)" stroke="none"/>
      <path fill="none" d="M1268.0553 462.1799 L1268.0553 471.7844" clip-path="url(#clipPath2)"/>
      <path d="M1268.0553 479.7844 L1273.0553 467.7844 L1268.0553 470.7844 L1263.0553 467.7844 Z" clip-path="url(#clipPath2)" stroke="none"/>
      <path fill="none" d="M1138.0553 494.7844 L1106.0553 494.7844" clip-path="url(#clipPath2)"/>
      <path d="M1098.0553 494.7844 L1110.0553 499.7844 L1107.0553 494.7844 L1110.0553 489.7844 Z" clip-path="url(#clipPath2)" stroke="none"/>
      <path fill="none" d="M1268.0553 509.7844 L1268.0553 519.3719" clip-path="url(#clipPath2)"/>
      <path d="M1268.0553 527.3719 L1273.0553 515.3719 L1268.0553 518.3719 L1263.0553 515.3719 Z" clip-path="url(#clipPath2)" stroke="none"/>
      <path fill="none" d="M679.722 671.6927 L686.722 671.6927" clip-path="url(#clipPath2)"/>
      <path d="M694.722 671.6927 L682.722 666.6927 L685.722 671.6927 L682.722 676.6927 Z" clip-path="url(#clipPath2)" stroke="none"/>
      <path fill="none" d="M1398.0553 248.0906 L1426.722 248.0906" clip-path="url(#clipPath2)"/>
      <path d="M1434.722 248.0906 L1422.722 243.0906 L1425.722 248.0906 L1422.722 253.0906 Z" clip-path="url(#clipPath2)" stroke="none"/>
      <path fill="none" d="M1398.0553 296.7156 L1426.722 296.7156" clip-path="url(#clipPath2)"/>
      <path d="M1434.722 296.7156 L1422.722 291.7156 L1425.722 296.7156 L1422.722 301.7156 Z" clip-path="url(#clipPath2)" stroke="none"/>
      <path fill="none" stroke-dasharray="6,2" d="M1094.691 562.5531 L1074.8048 562.5531" clip-path="url(#clipPath2)"/>
      <path fill="none" stroke-dasharray="6,2" d="M974.8082 562.5531 L962.844 562.5531" clip-path="url(#clipPath2)"/>
      <path stroke-dasharray="6,2" d="M954.844 562.5531 L966.844 567.5531 L963.844 562.5531 L966.844 557.5531 Z" clip-path="url(#clipPath2)" stroke="none"/>
      <path fill="none" stroke-dasharray="6,2" d="M786.5 319.5906 L786.5 401.9406" clip-path="url(#clipPath2)"/>
      <path stroke-dasharray="6,2" d="M786.5 409.9406 L791.5 397.9406 L786.5 400.9406 L781.5 397.9406 Z" clip-path="url(#clipPath2)" stroke="none"/>
      <text x="707.4004" xml:space="preserve" font-size="12" y="368.9199" clip-path="url(#clipPath2)" stroke="none">NEED_MORE</text>
      <path fill="none" d="M656.5 447.4713 L624.5 447.4713" clip-path="url(#clipPath2)"/>
      <path d="M616.5 447.4713 L628.5 452.4713 L625.5 447.4713 L628.5 442.4713 Z" clip-path="url(#clipPath2)" stroke="none"/>
      <path fill="none" d="M784.8333 462.4975 L784.8333 473.0963" clip-path="url(#clipPath2)"/>
      <path d="M784.8333 481.0963 L789.8333 469.0963 L784.8333 472.0963 L779.8333 469.0963 Z" clip-path="url(#clipPath2)" stroke="none"/>
      <path fill="none" d="M654.8333 496.0963 L624.5 496.0963" clip-path="url(#clipPath2)"/>
      <path d="M616.5 496.0963 L628.5 501.0963 L625.5 496.0963 L628.5 491.0963 Z" clip-path="url(#clipPath2)" stroke="none"/>
      <path fill="none" d="M784.8333 511.0963 L784.8333 521.7213" clip-path="url(#clipPath2)"/>
      <path d="M784.8333 529.7213 L789.8333 517.7213 L784.8333 520.7213 L779.8333 517.7213 Z" clip-path="url(#clipPath2)" stroke="none"/>
    </g>
  </g>
</svg>
