<?xml version="1.0" encoding="UTF-8"?><svg xmlns="http://www.w3.org/2000/svg" xmlns:xlink="http://www.w3.org/1999/xlink" fill-opacity="1" color-rendering="auto" color-interpolation="auto" stroke="black" text-rendering="auto" stroke-linecap="square" width="781" stroke-miterlimit="10" stroke-opacity="1" shape-rendering="auto" fill="black" stroke-dasharray="none" font-weight="normal" stroke-width="1" height="716" font-family="'Dialog'" font-style="normal" stroke-linejoin="miter" font-size="12" stroke-dashoffset="0" image-rendering="auto">
  <!--Generated by ySVG-->
  <defs id="genericDefs"/>
  <g>
    <defs id="defs1">
      <clipPath clipPathUnits="userSpaceOnUse" id="clipPath1">
        <path d="M0 0 L781 0 L781 716 L0 716 L0 0 Z"/>
      </clipPath>
      <clipPath clipPathUnits="userSpaceOnUse" id="clipPath2">
        <path d="M21 68 L802 68 L802 784 L21 784 L21 68 Z"/>
      </clipPath>
    </defs>
    <g fill="white" transform="translate(-21,-68)" stroke="white">
      <rect x="21" width="781" height="716" y="68" clip-path="url(#clipPath2)" stroke="none"/>
    </g>
    <g fill="rgb(240,238,234)" transform="matrix(1,0,0,1,-21,-68)" stroke="rgb(240,238,234)">
      <rect x="81.3746" width="300" height="292" y="136.1927" clip-path="url(#clipPath2)" stroke="none"/>
    </g>
    <g font-size="13" stroke-miterlimit="1.45" font-family="sans-serif" transform="matrix(1,0,0,1,-21,-68)" stroke-linecap="butt">
      <text x="83.3746" xml:space="preserve" y="150.2596" clip-path="url(#clipPath2)" stroke="none">libcharon/sa/ikev2/auth...ors/pubkey_auth...c</text>
      <rect fill="none" x="81.3746" width="300" height="292" y="136.1927" clip-path="url(#clipPath2)"/>
    </g>
    <g fill="silver" transform="matrix(1,0,0,1,-21,-68)" stroke="silver">
      <rect x="91.3746" width="280" height="256" y="159.6865" clip-path="url(#clipPath2)" stroke="none"/>
    </g>
    <g font-size="13" stroke-miterlimit="1.45" font-family="sans-serif" transform="matrix(1,0,0,1,-21,-68)" stroke-linecap="butt">
      <text x="215.3912" xml:space="preserve" y="173.7534" clip-path="url(#clipPath2)" stroke="none">build</text>
      <rect fill="none" x="91.3746" width="280" height="256" y="159.6865" clip-path="url(#clipPath2)"/>
    </g>
    <g fill="rgb(238,237,237)" transform="matrix(1,0,0,1,-21,-68)" stroke="rgb(238,237,237)">
      <rect x="101.3746" width="260" height="30" y="182.2927" clip-path="url(#clipPath2)" stroke="none"/>
    </g>
    <g font-size="13" stroke-miterlimit="1.45" font-family="sans-serif" transform="matrix(1,0,0,1,-21,-68)" stroke-linecap="butt">
      <text x="143.6468" xml:space="preserve" y="201.7932" clip-path="url(#clipPath2)" stroke="none">lib-&gt;credmgr-&gt;get_private</text>
      <rect fill="none" x="101.3746" width="260" height="30" y="182.2927" clip-path="url(#clipPath2)"/>
    </g>
    <g fill="white" transform="matrix(1,0,0,1,-21,-68)" stroke="white">
      <circle r="15" clip-path="url(#clipPath2)" cx="411.3746" cy="197.2927" stroke="none"/>
    </g>
    <g stroke-miterlimit="1.45" font-family="sans-serif" transform="matrix(1,0,0,1,-21,-68)" stroke-linecap="butt">
      <text x="403.107" xml:space="preserve" y="201.447" clip-path="url(#clipPath2)" stroke="none">GP</text>
      <circle fill="none" r="15" clip-path="url(#clipPath2)" cx="411.3746" cy="197.2927"/>
    </g>
    <g fill="rgb(238,237,237)" transform="matrix(1,0,0,1,-21,-68)" stroke="rgb(238,237,237)">
      <rect x="101.3746" width="160" height="30" y="231.2927" clip-path="url(#clipPath2)" stroke="none"/>
    </g>
    <g font-size="13" stroke-miterlimit="1.45" font-family="sans-serif" transform="matrix(1,0,0,1,-21,-68)" stroke-linecap="butt">
      <text x="114.9972" xml:space="preserve" y="250.7932" clip-path="url(#clipPath2)" stroke="none">ike_sa-&gt;get_keymat</text>
      <rect fill="none" x="101.3746" width="160" height="30" y="231.2927" clip-path="url(#clipPath2)"/>
    </g>
    <g fill="rgb(255,204,0)" transform="matrix(1,0,0,1,-21,-68)" stroke="rgb(255,204,0)">
      <rect x="261.3746" width="100" height="30" y="231.2927" clip-path="url(#clipPath2)" stroke="none"/>
    </g>
    <g stroke-miterlimit="1.45" font-family="sans-serif" transform="matrix(1,0,0,1,-21,-68)" stroke-linecap="butt">
      <text x="288.7838" xml:space="preserve" y="250.447" clip-path="url(#clipPath2)" stroke="none">keymat</text>
      <rect fill="none" x="261.3746" width="100" height="30" y="231.2927" clip-path="url(#clipPath2)"/>
    </g>
    <g fill="rgb(238,237,237)" transform="matrix(1,0,0,1,-21,-68)" stroke="rgb(238,237,237)">
      <rect x="101.3746" width="160" height="30" y="278.0052" clip-path="url(#clipPath2)" stroke="none"/>
    </g>
    <g font-size="13" stroke-miterlimit="1.45" font-family="sans-serif" transform="matrix(1,0,0,1,-21,-68)" stroke-linecap="butt">
      <text x="129.3968" xml:space="preserve" y="297.5057" clip-path="url(#clipPath2)" stroke="none">get_auth_octets</text>
      <rect fill="none" x="101.3746" width="160" height="30" y="278.0052" clip-path="url(#clipPath2)"/>
    </g>
    <g fill="rgb(255,204,0)" transform="matrix(1,0,0,1,-21,-68)" stroke="rgb(255,204,0)">
      <rect x="261.3746" width="100" height="30" y="278.0052" clip-path="url(#clipPath2)" stroke="none"/>
    </g>
    <g stroke-miterlimit="1.45" font-family="sans-serif" transform="matrix(1,0,0,1,-21,-68)" stroke-linecap="butt">
      <text x="288.7838" xml:space="preserve" y="297.1595" clip-path="url(#clipPath2)" stroke="none">keymat</text>
      <rect fill="none" x="261.3746" width="100" height="30" y="278.0052" clip-path="url(#clipPath2)"/>
    </g>
    <g fill="white" transform="matrix(1,0,0,1,-21,-68)" stroke="white">
      <circle r="15" clip-path="url(#clipPath2)" cx="411.3746" cy="293.0052" stroke="none"/>
    </g>
    <g stroke-miterlimit="1.45" font-family="sans-serif" transform="matrix(1,0,0,1,-21,-68)" stroke-linecap="butt">
      <text x="403.4527" xml:space="preserve" y="297.1595" clip-path="url(#clipPath2)" stroke="none">A8</text>
      <circle fill="none" r="15" clip-path="url(#clipPath2)" cx="411.3746" cy="293.0052"/>
    </g>
    <g fill="rgb(238,237,237)" transform="matrix(1,0,0,1,-21,-68)" stroke="rgb(238,237,237)">
      <rect x="101.3746" width="160" height="30" y="324.7177" clip-path="url(#clipPath2)" stroke="none"/>
    </g>
    <g font-size="13" stroke-miterlimit="1.45" font-family="sans-serif" transform="matrix(1,0,0,1,-21,-68)" stroke-linecap="butt">
      <text x="167.9366" xml:space="preserve" y="344.2182" clip-path="url(#clipPath2)" stroke="none">sign</text>
      <rect fill="none" x="101.3746" width="160" height="30" y="324.7177" clip-path="url(#clipPath2)"/>
    </g>
    <g fill="rgb(255,204,0)" transform="matrix(1,0,0,1,-21,-68)" stroke="rgb(255,204,0)">
      <rect x="261.3746" width="100" height="30" y="324.7177" clip-path="url(#clipPath2)" stroke="none"/>
    </g>
    <g stroke-miterlimit="1.45" font-family="sans-serif" transform="matrix(1,0,0,1,-21,-68)" stroke-linecap="butt">
      <text x="290.1607" xml:space="preserve" y="343.872" clip-path="url(#clipPath2)" stroke="none">private</text>
      <rect fill="none" x="261.3746" width="100" height="30" y="324.7177" clip-path="url(#clipPath2)"/>
    </g>
    <g fill="white" transform="matrix(1,0,0,1,-21,-68)" stroke="white">
      <path d="M101.3746 371.4302 L346.3746 371.4302 L346.3746 386.4302 L361.3746 386.4302 L361.3746 403.7458 L101.3746 403.7458 Z" clip-path="url(#clipPath2)" stroke="none"/>
      <path d="M346.3746 371.4302 L346.3746 386.4302 L361.3746 386.4302 Z" clip-path="url(#clipPath2)" fill-rule="evenodd" stroke="none"/>
    </g>
    <g stroke-linecap="butt" transform="matrix(1,0,0,1,-21,-68)" stroke-miterlimit="1.45">
      <path fill="none" d="M101.3746 371.4302 L346.3746 371.4302 L346.3746 386.4302 L361.3746 386.4302 L361.3746 403.7458 L101.3746 403.7458 Z" clip-path="url(#clipPath2)"/>
      <path fill="none" d="M346.3746 371.4302 L346.3746 386.4302 L361.3746 386.4302 Z" fill-rule="evenodd" clip-path="url(#clipPath2)"/>
      <text x="122.1471" xml:space="preserve" y="384.758" font-family="sans-serif" clip-path="url(#clipPath2)" stroke="none">generate AUTH payload and append</text>
      <text x="196.4791" xml:space="preserve" y="398.7267" font-family="sans-serif" clip-path="url(#clipPath2)" stroke="none">to message</text>
    </g>
    <g fill="white" transform="matrix(1,0,0,1,-21,-68)" stroke="white">
      <circle r="15" clip-path="url(#clipPath2)" cx="231.3746" cy="98.9677" stroke="none"/>
    </g>
    <g stroke-miterlimit="1.45" font-family="sans-serif" transform="matrix(1,0,0,1,-21,-68)" stroke-linecap="butt">
      <text x="223.1539" xml:space="preserve" y="103.122" clip-path="url(#clipPath2)" stroke="none">BA</text>
      <circle fill="none" r="15" clip-path="url(#clipPath2)" cx="231.3746" cy="98.9677"/>
    </g>
    <g fill="rgb(240,238,234)" transform="matrix(1,0,0,1,-21,-68)" stroke="rgb(240,238,234)">
      <rect x="441.3746" width="300" height="367.0166" y="136.1927" clip-path="url(#clipPath2)" stroke="none"/>
    </g>
    <g font-size="13" stroke-miterlimit="1.45" font-family="sans-serif" transform="matrix(1,0,0,1,-21,-68)" stroke-linecap="butt">
      <text x="443.3746" xml:space="preserve" y="150.2596" clip-path="url(#clipPath2)" stroke="none">libcharon/sa/ikev2/auth...ors/pubkey_auth...c</text>
      <rect fill="none" x="441.3746" width="300" height="367.0166" y="136.1927" clip-path="url(#clipPath2)"/>
    </g>
    <g fill="silver" transform="matrix(1,0,0,1,-21,-68)" stroke="silver">
      <rect x="451.3746" width="280" height="330.4602" y="159.6865" clip-path="url(#clipPath2)" stroke="none"/>
    </g>
    <g font-size="13" stroke-miterlimit="1.45" font-family="sans-serif" transform="matrix(1,0,0,1,-21,-68)" stroke-linecap="butt">
      <text x="566.2538" xml:space="preserve" y="173.7534" clip-path="url(#clipPath2)" stroke="none">process</text>
      <rect fill="none" x="451.3746" width="280" height="330.4602" y="159.6865" clip-path="url(#clipPath2)"/>
    </g>
    <g fill="rgb(238,237,237)" transform="matrix(1,0,0,1,-21,-68)" stroke="rgb(238,237,237)">
      <rect x="461.3746" width="160" height="30" y="181.7702" clip-path="url(#clipPath2)" stroke="none"/>
    </g>
    <g font-size="13" stroke-miterlimit="1.45" font-family="sans-serif" transform="matrix(1,0,0,1,-21,-68)" stroke-linecap="butt">
      <text x="474.9972" xml:space="preserve" y="201.2706" clip-path="url(#clipPath2)" stroke="none">ike_sa-&gt;get_keymat</text>
      <rect fill="none" x="461.3746" width="160" height="30" y="181.7702" clip-path="url(#clipPath2)"/>
    </g>
    <g fill="rgb(255,204,0)" transform="matrix(1,0,0,1,-21,-68)" stroke="rgb(255,204,0)">
      <rect x="621.3746" width="100" height="30" y="181.7702" clip-path="url(#clipPath2)" stroke="none"/>
    </g>
    <g stroke-miterlimit="1.45" font-family="sans-serif" transform="matrix(1,0,0,1,-21,-68)" stroke-linecap="butt">
      <text x="648.7838" xml:space="preserve" y="200.9245" clip-path="url(#clipPath2)" stroke="none">keymat</text>
      <rect fill="none" x="621.3746" width="100" height="30" y="181.7702" clip-path="url(#clipPath2)"/>
    </g>
    <g fill="rgb(238,237,237)" transform="matrix(1,0,0,1,-21,-68)" stroke="rgb(238,237,237)">
      <rect x="461.3746" width="160" height="30" y="228.4827" clip-path="url(#clipPath2)" stroke="none"/>
    </g>
    <g font-size="13" stroke-miterlimit="1.45" font-family="sans-serif" transform="matrix(1,0,0,1,-21,-68)" stroke-linecap="butt">
      <text x="489.3968" xml:space="preserve" y="247.9832" clip-path="url(#clipPath2)" stroke="none">get_auth_octets</text>
      <rect fill="none" x="461.3746" width="160" height="30" y="228.4827" clip-path="url(#clipPath2)"/>
    </g>
    <g fill="rgb(255,204,0)" transform="matrix(1,0,0,1,-21,-68)" stroke="rgb(255,204,0)">
      <rect x="621.3746" width="100" height="30" y="228.4827" clip-path="url(#clipPath2)" stroke="none"/>
    </g>
    <g stroke-miterlimit="1.45" font-family="sans-serif" transform="matrix(1,0,0,1,-21,-68)" stroke-linecap="butt">
      <text x="648.7838" xml:space="preserve" y="247.637" clip-path="url(#clipPath2)" stroke="none">keymat</text>
      <rect fill="none" x="621.3746" width="100" height="30" y="228.4827" clip-path="url(#clipPath2)"/>
    </g>
    <g fill="white" transform="matrix(1,0,0,1,-21,-68)" stroke="white">
      <path d="M461.3746 356.9077 L706.3746 356.9077 L706.3746 371.9077 L721.3746 371.9077 L721.3746 386.9077 L461.3746 386.9077 Z" clip-path="url(#clipPath2)" stroke="none"/>
      <path d="M706.3746 356.9077 L706.3746 371.9077 L721.3746 371.9077 Z" clip-path="url(#clipPath2)" fill-rule="evenodd" stroke="none"/>
    </g>
    <g stroke-linecap="butt" transform="matrix(1,0,0,1,-21,-68)" stroke-miterlimit="1.45">
      <path fill="none" d="M461.3746 356.9077 L706.3746 356.9077 L706.3746 371.9077 L721.3746 371.9077 L721.3746 386.9077 L461.3746 386.9077 Z" clip-path="url(#clipPath2)"/>
      <path fill="none" d="M706.3746 356.9077 L706.3746 371.9077 L721.3746 371.9077 Z" fill-rule="evenodd" clip-path="url(#clipPath2)"/>
      <text x="483.6969" xml:space="preserve" y="376.062" font-family="sans-serif" clip-path="url(#clipPath2)" stroke="none">foreach: verify trustchain of pubkey</text>
    </g>
    <g fill="rgb(238,237,237)" transform="matrix(1,0,0,1,-21,-68)" stroke="rgb(238,237,237)">
      <rect x="461.3746" width="260" height="30" y="275.1952" clip-path="url(#clipPath2)" stroke="none"/>
    </g>
    <g font-size="13" stroke-miterlimit="1.45" font-family="sans-serif" transform="matrix(1,0,0,1,-21,-68)" stroke-linecap="butt">
      <text x="468.9505" xml:space="preserve" y="294.6956" clip-path="url(#clipPath2)" stroke="none">lib-&gt;credmgr-&gt;create_public_enum...</text>
      <rect fill="none" x="461.3746" width="260" height="30" y="275.1952" clip-path="url(#clipPath2)"/>
    </g>
    <g fill="rgb(238,237,237)" transform="matrix(1,0,0,1,-21,-68)" stroke="rgb(238,237,237)">
      <rect x="461.3746" width="260" height="30" y="321.9077" clip-path="url(#clipPath2)" stroke="none"/>
    </g>
    <g font-size="13" stroke-miterlimit="1.45" font-family="sans-serif" transform="matrix(1,0,0,1,-21,-68)" stroke-linecap="butt">
      <text x="509.3883" xml:space="preserve" y="341.4081" clip-path="url(#clipPath2)" stroke="none">enumerator-&gt;enumerate</text>
      <rect fill="none" x="461.3746" width="260" height="30" y="321.9077" clip-path="url(#clipPath2)"/>
    </g>
    <g fill="white" transform="matrix(1,0,0,1,-21,-68)" stroke="white">
      <circle r="15" clip-path="url(#clipPath2)" cx="591.3746" cy="98.9677" stroke="none"/>
    </g>
    <g stroke-miterlimit="1.45" font-family="sans-serif" transform="matrix(1,0,0,1,-21,-68)" stroke-linecap="butt">
      <text x="583.652" xml:space="preserve" y="103.122" clip-path="url(#clipPath2)" stroke="none">PA</text>
      <circle fill="none" r="15" clip-path="url(#clipPath2)" cx="591.3746" cy="98.9677"/>
    </g>
    <g fill="white" transform="matrix(1,0,0,1,-21,-68)" stroke="white">
      <circle r="15" clip-path="url(#clipPath2)" cx="771.3746" cy="243.4827" stroke="none"/>
    </g>
    <g stroke-miterlimit="1.45" font-family="sans-serif" transform="matrix(1,0,0,1,-21,-68)" stroke-linecap="butt">
      <text x="763.4528" xml:space="preserve" y="247.637" clip-path="url(#clipPath2)" stroke="none">A8</text>
      <circle fill="none" r="15" clip-path="url(#clipPath2)" cx="771.3746" cy="243.4827"/>
    </g>
    <g fill="white" transform="matrix(1,0,0,1,-21,-68)" stroke="white">
      <circle r="15" clip-path="url(#clipPath2)" cx="771.3746" cy="336.9077" stroke="none"/>
    </g>
    <g stroke-miterlimit="1.45" font-family="sans-serif" transform="matrix(1,0,0,1,-21,-68)" stroke-linecap="butt">
      <text x="763.3649" xml:space="preserve" y="341.062" clip-path="url(#clipPath2)" stroke="none">PU</text>
      <circle fill="none" r="15" clip-path="url(#clipPath2)" cx="771.3746" cy="336.9077"/>
    </g>
    <g fill="rgb(238,237,237)" transform="matrix(1,0,0,1,-21,-68)" stroke="rgb(238,237,237)">
      <rect x="461.3746" width="260" height="30" y="409.3777" clip-path="url(#clipPath2)" stroke="none"/>
    </g>
    <g font-size="13" stroke-miterlimit="1.45" font-family="sans-serif" transform="matrix(1,0,0,1,-21,-68)" stroke-linecap="butt">
      <text x="545.5668" xml:space="preserve" y="428.8782" clip-path="url(#clipPath2)" stroke="none">public-&gt;verify</text>
      <rect fill="none" x="461.3746" width="260" height="30" y="409.3777" clip-path="url(#clipPath2)"/>
    </g>
    <g fill="white" transform="matrix(1,0,0,1,-21,-68)" stroke="white">
      <path d="M461.3746 447.6722 L706.3746 447.6722 L706.3746 462.6722 L721.3746 462.6722 L721.3746 477.6722 L461.3746 477.6722 Z" clip-path="url(#clipPath2)" stroke="none"/>
      <path d="M706.3746 447.6722 L706.3746 462.6722 L721.3746 462.6722 Z" clip-path="url(#clipPath2)" fill-rule="evenodd" stroke="none"/>
    </g>
    <g stroke-linecap="butt" transform="matrix(1,0,0,1,-21,-68)" stroke-miterlimit="1.45">
      <path fill="none" d="M461.3746 447.6722 L706.3746 447.6722 L706.3746 462.6722 L721.3746 462.6722 L721.3746 477.6722 L461.3746 477.6722 Z" clip-path="url(#clipPath2)"/>
      <path fill="none" d="M706.3746 447.6722 L706.3746 462.6722 L721.3746 462.6722 Z" fill-rule="evenodd" clip-path="url(#clipPath2)"/>
      <text x="495.4859" xml:space="preserve" y="466.8265" font-family="sans-serif" clip-path="url(#clipPath2)" stroke="none">foreach: verify sig of AUTH data</text>
    </g>
    <g fill="rgb(240,238,234)" transform="matrix(1,0,0,1,-21,-68)" stroke="rgb(240,238,234)">
      <rect x="81.3746" width="300" height="148" y="450.4177" clip-path="url(#clipPath2)" stroke="none"/>
    </g>
    <g font-size="13" stroke-miterlimit="1.45" font-family="sans-serif" transform="matrix(1,0,0,1,-21,-68)" stroke-linecap="butt">
      <text x="83.3746" xml:space="preserve" y="464.4846" clip-path="url(#clipPath2)" stroke="none">libs...swan/credentials/credential_manager.c</text>
      <rect fill="none" x="81.3746" width="300" height="148" y="450.4177" clip-path="url(#clipPath2)"/>
    </g>
    <g fill="silver" transform="matrix(1,0,0,1,-21,-68)" stroke="silver">
      <rect x="91.3746" width="280" height="114" y="472.5427" clip-path="url(#clipPath2)" stroke="none"/>
    </g>
    <g font-size="13" stroke-miterlimit="1.45" font-family="sans-serif" transform="matrix(1,0,0,1,-21,-68)" stroke-linecap="butt">
      <text x="194.4693" xml:space="preserve" y="486.6096" clip-path="url(#clipPath2)" stroke="none">get_private</text>
      <rect fill="none" x="91.3746" width="280" height="114" y="472.5427" clip-path="url(#clipPath2)"/>
    </g>
    <g fill="rgb(238,237,237)" transform="matrix(1,0,0,1,-21,-68)" stroke="rgb(238,237,237)">
      <rect x="101.3746" width="260" height="30" y="495.0411" clip-path="url(#clipPath2)" stroke="none"/>
    </g>
    <g font-size="13" stroke-miterlimit="1.45" font-family="sans-serif" transform="matrix(1,0,0,1,-21,-68)" stroke-linecap="butt">
      <text x="162.4549" xml:space="preserve" y="514.5416" clip-path="url(#clipPath2)" stroke="none">get_private_by_keyid</text>
      <rect fill="none" x="101.3746" width="260" height="30" y="495.0411" clip-path="url(#clipPath2)"/>
    </g>
    <g fill="white" transform="matrix(1,0,0,1,-21,-68)" stroke="white">
      <circle r="15" clip-path="url(#clipPath2)" cx="51.3746" cy="524.4177" stroke="none"/>
    </g>
    <g stroke-miterlimit="1.45" font-family="sans-serif" transform="matrix(1,0,0,1,-21,-68)" stroke-linecap="butt">
      <text x="43.107" xml:space="preserve" y="528.572" clip-path="url(#clipPath2)" stroke="none">GP</text>
      <circle fill="none" r="15" clip-path="url(#clipPath2)" cx="51.3746" cy="524.4177"/>
    </g>
    <g fill="rgb(238,237,237)" transform="matrix(1,0,0,1,-21,-68)" stroke="rgb(238,237,237)">
      <rect x="101.3746" width="260" height="30" y="543.5591" clip-path="url(#clipPath2)" stroke="none"/>
    </g>
    <g font-size="13" stroke-miterlimit="1.45" font-family="sans-serif" transform="matrix(1,0,0,1,-21,-68)" stroke-linecap="butt">
      <text x="167.203" xml:space="preserve" y="563.0596" clip-path="url(#clipPath2)" stroke="none">get_private_by_cert</text>
      <rect fill="none" x="101.3746" width="260" height="30" y="543.5591" clip-path="url(#clipPath2)"/>
    </g>
    <g fill="rgb(240,238,234)" transform="matrix(1,0,0,1,-21,-68)" stroke="rgb(240,238,234)">
      <rect x="81.3746" width="300" height="148" y="620.6427" clip-path="url(#clipPath2)" stroke="none"/>
    </g>
    <g font-size="13" stroke-miterlimit="1.45" font-family="sans-serif" transform="matrix(1,0,0,1,-21,-68)" stroke-linecap="butt">
      <text x="83.3746" xml:space="preserve" y="634.7097" clip-path="url(#clipPath2)" stroke="none">libcharon/sa/ikev2/keymat_v2.c</text>
      <rect fill="none" x="81.3746" width="300" height="148" y="620.6427" clip-path="url(#clipPath2)"/>
    </g>
    <g fill="silver" transform="matrix(1,0,0,1,-21,-68)" stroke="silver">
      <rect x="91.3746" width="280" height="114" y="642.7677" clip-path="url(#clipPath2)" stroke="none"/>
    </g>
    <g font-size="13" stroke-miterlimit="1.45" font-family="sans-serif" transform="matrix(1,0,0,1,-21,-68)" stroke-linecap="butt">
      <text x="179.3968" xml:space="preserve" y="656.8347" clip-path="url(#clipPath2)" stroke="none">get_auth_octets</text>
      <rect fill="none" x="91.3746" width="280" height="114" y="642.7677" clip-path="url(#clipPath2)"/>
    </g>
    <g fill="rgb(238,237,237)" transform="matrix(1,0,0,1,-21,-68)" stroke="rgb(238,237,237)">
      <rect x="101.3746" width="260" height="30" y="669.124" clip-path="url(#clipPath2)" stroke="none"/>
    </g>
    <g font-size="13" stroke-miterlimit="1.45" font-family="sans-serif" transform="matrix(1,0,0,1,-21,-68)" stroke-linecap="butt">
      <text x="138.5116" xml:space="preserve" y="688.6245" clip-path="url(#clipPath2)" stroke="none">skp = skp_verify || skp_build</text>
      <rect fill="none" x="101.3746" width="260" height="30" y="669.124" clip-path="url(#clipPath2)"/>
    </g>
    <g fill="white" transform="matrix(1,0,0,1,-21,-68)" stroke="white">
      <path d="M101.3746 709.874 L346.3746 709.874 L346.3746 724.874 L361.3746 724.874 L361.3746 742.1896 L101.3746 742.1896 Z" clip-path="url(#clipPath2)" stroke="none"/>
      <path d="M346.3746 709.874 L346.3746 724.874 L361.3746 724.874 Z" clip-path="url(#clipPath2)" fill-rule="evenodd" stroke="none"/>
    </g>
    <g stroke-linecap="butt" transform="matrix(1,0,0,1,-21,-68)" stroke-miterlimit="1.45">
      <path fill="none" d="M101.3746 709.874 L346.3746 709.874 L346.3746 724.874 L361.3746 724.874 L361.3746 742.1896 L101.3746 742.1896 Z" clip-path="url(#clipPath2)"/>
      <path fill="none" d="M346.3746 709.874 L346.3746 724.874 L361.3746 724.874 Z" fill-rule="evenodd" clip-path="url(#clipPath2)"/>
      <text x="123.527" xml:space="preserve" y="723.2017" font-family="sans-serif" clip-path="url(#clipPath2)" stroke="none">use prf with skp to create auth data</text>
      <text x="184.2477" xml:space="preserve" y="737.1705" font-family="sans-serif" clip-path="url(#clipPath2)" stroke="none">from ike_sa_init</text>
    </g>
    <g fill="white" transform="matrix(1,0,0,1,-21,-68)" stroke="white">
      <circle r="15" clip-path="url(#clipPath2)" cx="51.3746" cy="694.6427" stroke="none"/>
    </g>
    <g stroke-miterlimit="1.45" font-family="sans-serif" transform="matrix(1,0,0,1,-21,-68)" stroke-linecap="butt">
      <text x="43.4527" xml:space="preserve" y="698.7971" clip-path="url(#clipPath2)" stroke="none">A8</text>
      <circle fill="none" r="15" clip-path="url(#clipPath2)" cx="51.3746" cy="694.6427"/>
      <path fill="none" d="M361.3746 197.2927 L388.3746 197.2927" clip-path="url(#clipPath2)"/>
      <path d="M396.3746 197.2927 L384.3746 192.2927 L387.3746 197.2927 L384.3746 202.2927 Z" clip-path="url(#clipPath2)" stroke="none"/>
      <path fill="none" d="M231.3746 212.2927 L231.3746 223.2828" clip-path="url(#clipPath2)"/>
      <path d="M231.3746 231.2828 L236.3746 219.2828 L231.3746 222.2828 L226.3746 219.2828 Z" clip-path="url(#clipPath2)" stroke="none"/>
      <path fill="none" d="M231.5426 261.3026 L231.5426 269.992" clip-path="url(#clipPath2)"/>
      <path d="M231.5426 277.992 L236.5426 265.992 L231.5426 268.992 L226.5426 265.992 Z" clip-path="url(#clipPath2)" stroke="none"/>
      <path fill="none" d="M361.3746 293.0052 L388.3746 293.0052" clip-path="url(#clipPath2)"/>
      <path d="M396.3746 293.0052 L384.3746 288.0052 L387.3746 293.0052 L384.3746 298.0052 Z" clip-path="url(#clipPath2)" stroke="none"/>
      <path fill="none" d="M230.9504 308.0276 L230.9504 316.7092" clip-path="url(#clipPath2)"/>
      <path d="M230.9504 324.7092 L235.9504 312.7092 L230.9504 315.7092 L225.9504 312.7092 Z" clip-path="url(#clipPath2)" stroke="none"/>
      <path fill="none" d="M231.3746 354.6773 L231.3746 363.4219" clip-path="url(#clipPath2)"/>
      <path d="M231.3746 371.4219 L236.3746 359.4219 L231.3746 362.4219 L226.3746 359.4219 Z" clip-path="url(#clipPath2)" stroke="none"/>
      <path fill="none" d="M231.3746 113.9677 L231.3746 128.1493" clip-path="url(#clipPath2)"/>
      <path d="M231.3746 136.1493 L236.3746 124.1493 L231.3746 127.1493 L226.3746 124.1493 Z" clip-path="url(#clipPath2)" stroke="none"/>
      <path fill="none" d="M591.9545 211.7558 L591.9545 220.4724" clip-path="url(#clipPath2)"/>
      <path d="M591.9545 228.4724 L596.9545 216.4724 L591.9545 219.4724 L586.9545 216.4724 Z" clip-path="url(#clipPath2)" stroke="none"/>
      <path fill="none" d="M591.3746 258.4616 L591.3746 267.1952" clip-path="url(#clipPath2)"/>
      <path d="M591.3746 275.1952 L596.3746 263.1952 L591.3746 266.1952 L586.3746 263.1952 Z" clip-path="url(#clipPath2)" stroke="none"/>
      <path fill="none" d="M591.3746 305.1952 L591.3746 313.9077" clip-path="url(#clipPath2)"/>
      <path d="M591.3746 321.9077 L596.3746 309.9077 L591.3746 312.9077 L586.3746 309.9077 Z" clip-path="url(#clipPath2)" stroke="none"/>
      <path fill="none" d="M591.3746 113.9677 L591.3746 128.1493" clip-path="url(#clipPath2)"/>
      <path d="M591.3746 136.1493 L596.3746 124.1493 L591.3746 127.1493 L586.3746 124.1493 Z" clip-path="url(#clipPath2)" stroke="none"/>
      <path fill="none" d="M721.3746 243.4827 L748.3746 243.4827" clip-path="url(#clipPath2)"/>
      <path d="M756.3746 243.4827 L744.3746 238.4827 L747.3746 243.4827 L744.3746 248.4827 Z" clip-path="url(#clipPath2)" stroke="none"/>
      <path fill="none" d="M721.3746 336.9077 L748.3746 336.9077" clip-path="url(#clipPath2)"/>
      <path d="M756.3746 336.9077 L744.3746 331.9077 L747.3746 336.9077 L744.3746 341.9077 Z" clip-path="url(#clipPath2)" stroke="none"/>
      <path fill="none" d="M591.3746 386.8954 L591.3746 401.3777" clip-path="url(#clipPath2)"/>
      <path d="M591.3746 409.3777 L596.3746 397.3777 L591.3746 400.3777 L586.3746 397.3777 Z" clip-path="url(#clipPath2)" stroke="none"/>
      <path fill="none" d="M66.3746 524.4177 L73.3746 524.4177" clip-path="url(#clipPath2)"/>
      <path d="M81.3746 524.4177 L69.3746 519.4177 L72.3746 524.4177 L69.3746 529.4177 Z" clip-path="url(#clipPath2)" stroke="none"/>
      <path fill="none" d="M231.3746 525.0411 L231.3746 535.5591" clip-path="url(#clipPath2)"/>
      <path d="M231.3746 543.5591 L236.3746 531.5591 L231.3746 534.5591 L226.3746 531.5591 Z" clip-path="url(#clipPath2)" stroke="none"/>
      <text x="240.6286" xml:space="preserve" y="537.2305" clip-path="url(#clipPath2)" stroke="none">or</text>
      <path fill="none" d="M66.3746 694.6428 L73.3746 694.6428" clip-path="url(#clipPath2)"/>
      <path d="M81.3746 694.6428 L69.3746 689.6428 L72.3746 694.6428 L69.3746 699.6428 Z" clip-path="url(#clipPath2)" stroke="none"/>
    </g>
  </g>
</svg>
