<?xml version="1.0" encoding="UTF-8"?><svg xmlns="http://www.w3.org/2000/svg" xmlns:xlink="http://www.w3.org/1999/xlink" fill-opacity="1" color-rendering="auto" color-interpolation="auto" stroke="black" text-rendering="auto" stroke-linecap="square" width="991" stroke-miterlimit="10" stroke-opacity="1" shape-rendering="auto" fill="black" stroke-dasharray="none" font-weight="normal" stroke-width="1" height="348" font-family="'Dialog'" font-style="normal" stroke-linejoin="miter" font-size="12" stroke-dashoffset="0" image-rendering="auto">
  <!--Generated by ySVG-->
  <defs id="genericDefs"/>
  <g>
    <defs id="defs1">
      <clipPath clipPathUnits="userSpaceOnUse" id="clipPath1">
        <path d="M0 0 L991 0 L991 348 L0 348 L0 0 Z"/>
      </clipPath>
      <clipPath clipPathUnits="userSpaceOnUse" id="clipPath2">
        <path d="M-15 -15 L976 -15 L976 333 L-15 333 L-15 -15 Z"/>
      </clipPath>
    </defs>
    <g fill="white" transform="translate(15,15)" stroke="white">
      <rect x="-15" width="991" height="348" y="-15" clip-path="url(#clipPath2)" stroke="none"/>
    </g>
    <g fill="rgb(240,238,234)" transform="matrix(1,0,0,1,15,15)" stroke="rgb(240,238,234)">
      <rect x="45.298" width="595" height="317.0243" y="0.9505" clip-path="url(#clipPath2)" stroke="none"/>
    </g>
    <g font-size="13" stroke-miterlimit="1.45" font-family="sans-serif" transform="matrix(1,0,0,1,15,15)" stroke-linecap="butt">
      <text x="47.298" xml:space="preserve" y="15.0174" clip-path="url(#clipPath2)" stroke="none">libstrongswan/credentials/credential_manager.c</text>
      <rect fill="none" x="45.298" width="595" height="317.0243" y="0.9505" clip-path="url(#clipPath2)"/>
    </g>
    <g fill="white" transform="matrix(1,0,0,1,15,15)" stroke="white">
      <circle r="15" clip-path="url(#clipPath2)" cx="15.1667" cy="57.2787" stroke="none"/>
    </g>
    <g stroke-miterlimit="1.45" font-family="sans-serif" transform="matrix(1,0,0,1,15,15)" stroke-linecap="butt">
      <text x="7.1569" xml:space="preserve" y="61.433" clip-path="url(#clipPath2)" stroke="none">PU</text>
      <circle fill="none" r="15" clip-path="url(#clipPath2)" cx="15.1667" cy="57.2787"/>
    </g>
    <g fill="silver" transform="matrix(1,0,0,1,15,15)" stroke="silver">
      <rect x="55.1667" width="280" height="65.6689" y="24.4443" clip-path="url(#clipPath2)" stroke="none"/>
    </g>
    <g font-size="13" stroke-miterlimit="1.45" font-family="sans-serif" transform="matrix(1,0,0,1,15,15)" stroke-linecap="butt">
      <text x="132.7438" xml:space="preserve" y="38.5112" clip-path="url(#clipPath2)" stroke="none">trusted_enumerate</text>
      <rect fill="none" x="55.1667" width="280" height="65.6689" y="24.4443" clip-path="url(#clipPath2)"/>
    </g>
    <g fill="rgb(238,237,237)" transform="matrix(1,0,0,1,15,15)" stroke="rgb(238,237,237)">
      <rect x="65.1667" width="260" height="30" y="47.0505" clip-path="url(#clipPath2)" stroke="none"/>
    </g>
    <g font-size="13" stroke-miterlimit="1.45" font-family="sans-serif" transform="matrix(1,0,0,1,15,15)" stroke-linecap="butt">
      <text x="137.33" xml:space="preserve" y="66.551" clip-path="url(#clipPath2)" stroke="none">verify_trust_chain</text>
      <rect fill="none" x="65.1667" width="260" height="30" y="47.0505" clip-path="url(#clipPath2)"/>
    </g>
    <g fill="silver" transform="matrix(1,0,0,1,15,15)" stroke="silver">
      <rect x="55.1667" width="280" height="114.2157" y="107.0505" clip-path="url(#clipPath2)" stroke="none"/>
    </g>
    <g font-size="13" stroke-miterlimit="1.45" font-family="sans-serif" transform="matrix(1,0,0,1,15,15)" stroke-linecap="butt">
      <text x="137.33" xml:space="preserve" y="121.1174" clip-path="url(#clipPath2)" stroke="none">verify_trust_chain</text>
      <rect fill="none" x="55.1667" width="280" height="114.2157" y="107.0505" clip-path="url(#clipPath2)"/>
    </g>
    <g fill="rgb(238,237,237)" transform="matrix(1,0,0,1,15,15)" stroke="rgb(238,237,237)">
      <rect x="65.1667" width="260" height="30" y="132.1696" clip-path="url(#clipPath2)" stroke="none"/>
    </g>
    <g font-size="13" stroke-miterlimit="1.45" font-family="sans-serif" transform="matrix(1,0,0,1,15,15)" stroke-linecap="butt">
      <text x="145.8295" xml:space="preserve" y="151.6701" clip-path="url(#clipPath2)" stroke="none">get_issuer_cert</text>
      <rect fill="none" x="65.1667" width="260" height="30" y="132.1696" clip-path="url(#clipPath2)"/>
    </g>
    <g fill="silver" transform="matrix(1,0,0,1,15,15)" stroke="silver">
      <rect x="350.8767" width="280" height="65.6689" y="24.4443" clip-path="url(#clipPath2)" stroke="none"/>
    </g>
    <g font-size="13" stroke-miterlimit="1.45" font-family="sans-serif" transform="matrix(1,0,0,1,15,15)" stroke-linecap="butt">
      <text x="441.5395" xml:space="preserve" y="38.5112" clip-path="url(#clipPath2)" stroke="none">get_issuer_cert</text>
      <rect fill="none" x="350.8767" width="280" height="65.6689" y="24.4443" clip-path="url(#clipPath2)"/>
    </g>
    <g fill="rgb(238,237,237)" transform="matrix(1,0,0,1,15,15)" stroke="rgb(238,237,237)">
      <rect x="360.8767" width="260" height="30" y="49.1445" clip-path="url(#clipPath2)" stroke="none"/>
    </g>
    <g font-size="13" stroke-miterlimit="1.45" font-family="sans-serif" transform="matrix(1,0,0,1,15,15)" stroke-linecap="butt">
      <text x="412.1371" xml:space="preserve" y="68.645" clip-path="url(#clipPath2)" stroke="none">this-&gt;cache-&gt;issued_by</text>
      <rect fill="none" x="360.8767" width="260" height="30" y="49.1445" clip-path="url(#clipPath2)"/>
    </g>
    <g fill="rgb(240,238,234)" transform="matrix(1,0,0,1,15,15)" stroke="rgb(240,238,234)">
      <rect x="660.8767" width="300" height="98.8715" y="0.9505" clip-path="url(#clipPath2)" stroke="none"/>
    </g>
    <g font-size="13" stroke-miterlimit="1.45" font-family="sans-serif" transform="matrix(1,0,0,1,15,15)" stroke-linecap="butt">
      <text x="662.8766" xml:space="preserve" y="15.0174" clip-path="url(#clipPath2)" stroke="none">libstrongswan/credentials/sets/cert_cache.c</text>
      <rect fill="none" x="660.8767" width="300" height="98.8715" y="0.9505" clip-path="url(#clipPath2)"/>
    </g>
    <g fill="silver" transform="matrix(1,0,0,1,15,15)" stroke="silver">
      <rect x="670.8767" width="280" height="65.6689" y="22.3822" clip-path="url(#clipPath2)" stroke="none"/>
    </g>
    <g font-size="13" stroke-miterlimit="1.45" font-family="sans-serif" transform="matrix(1,0,0,1,15,15)" stroke-linecap="butt">
      <text x="778.8305" xml:space="preserve" y="36.4491" clip-path="url(#clipPath2)" stroke="none">issued_by</text>
      <rect fill="none" x="670.8767" width="280" height="65.6689" y="22.3822" clip-path="url(#clipPath2)"/>
    </g>
    <g fill="rgb(238,237,237)" transform="matrix(1,0,0,1,15,15)" stroke="rgb(238,237,237)">
      <rect x="680.8767" width="260" height="30" y="49.376" clip-path="url(#clipPath2)" stroke="none"/>
    </g>
    <g font-size="13" stroke-miterlimit="1.45" font-family="sans-serif" transform="matrix(1,0,0,1,15,15)" stroke-linecap="butt">
      <text x="723.0378" xml:space="preserve" y="68.8765" clip-path="url(#clipPath2)" stroke="none">subject-&gt;issued_by(issuer)</text>
      <rect fill="none" x="680.8767" width="260" height="30" y="49.376" clip-path="url(#clipPath2)"/>
    </g>
    <g fill="rgb(240,238,234)" transform="matrix(1,0,0,1,15,15)" stroke="rgb(240,238,234)">
      <rect x="660.8767" width="300" height="148.3252" y="118.0511" clip-path="url(#clipPath2)" stroke="none"/>
    </g>
    <g font-size="13" stroke-miterlimit="1.45" font-family="sans-serif" transform="matrix(1,0,0,1,15,15)" stroke-linecap="butt">
      <text x="662.8766" xml:space="preserve" y="132.118" clip-path="url(#clipPath2)" stroke="none">libstrongswan/plugins/x509/x509_cert.c</text>
      <rect fill="none" x="660.8767" width="300" height="148.3252" y="118.0511" clip-path="url(#clipPath2)"/>
    </g>
    <g fill="silver" transform="matrix(1,0,0,1,15,15)" stroke="silver">
      <rect x="670.8767" width="280" height="114.2157" y="143.5407" clip-path="url(#clipPath2)" stroke="none"/>
    </g>
    <g font-size="13" stroke-miterlimit="1.45" font-family="sans-serif" transform="matrix(1,0,0,1,15,15)" stroke-linecap="butt">
      <text x="778.8305" xml:space="preserve" y="157.6076" clip-path="url(#clipPath2)" stroke="none">issued_by</text>
      <rect fill="none" x="670.8767" width="280" height="114.2157" y="143.5407" clip-path="url(#clipPath2)"/>
    </g>
    <g fill="rgb(238,237,237)" transform="matrix(1,0,0,1,15,15)" stroke="rgb(238,237,237)">
      <rect x="680.8767" width="260" height="30" y="169.6419" clip-path="url(#clipPath2)" stroke="none"/>
    </g>
    <g font-size="13" stroke-miterlimit="1.45" font-family="sans-serif" transform="matrix(1,0,0,1,15,15)" stroke-linecap="butt">
      <text x="714.186" xml:space="preserve" y="189.1424" clip-path="url(#clipPath2)" stroke="none">key = issuer-&gt;get_public_key</text>
      <rect fill="none" x="680.8767" width="260" height="30" y="169.6419" clip-path="url(#clipPath2)"/>
    </g>
    <g fill="rgb(238,237,237)" transform="matrix(1,0,0,1,15,15)" stroke="rgb(238,237,237)">
      <rect x="680.8767" width="260" height="30" y="221.3322" clip-path="url(#clipPath2)" stroke="none"/>
    </g>
    <g font-size="13" stroke-miterlimit="1.45" font-family="sans-serif" transform="matrix(1,0,0,1,15,15)" stroke-linecap="butt">
      <text x="747.8698" xml:space="preserve" y="240.8327" clip-path="url(#clipPath2)" stroke="none">valid = key-&gt;verify</text>
      <rect fill="none" x="680.8767" width="260" height="30" y="221.3322" clip-path="url(#clipPath2)"/>
    </g>
    <g fill="rgb(238,237,237)" transform="matrix(1,0,0,1,15,15)" stroke="rgb(238,237,237)">
      <rect x="65.1667" width="260" height="30" y="179.4451" clip-path="url(#clipPath2)" stroke="none"/>
    </g>
    <g font-size="13" stroke-miterlimit="1.45" font-family="sans-serif" transform="matrix(1,0,0,1,15,15)" stroke-linecap="butt">
      <text x="140.0881" xml:space="preserve" y="198.9456" clip-path="url(#clipPath2)" stroke="none">check_certificate</text>
      <rect fill="none" x="65.1667" width="260" height="30" y="179.4451" clip-path="url(#clipPath2)"/>
    </g>
    <g fill="silver" transform="matrix(1,0,0,1,15,15)" stroke="silver">
      <rect x="350.8767" width="280" height="148.3252" y="162.1696" clip-path="url(#clipPath2)" stroke="none"/>
    </g>
    <g font-size="13" stroke-miterlimit="1.45" font-family="sans-serif" transform="matrix(1,0,0,1,15,15)" stroke-linecap="butt">
      <text x="435.798" xml:space="preserve" y="176.2365" clip-path="url(#clipPath2)" stroke="none">check_certificate</text>
      <rect fill="none" x="350.8767" width="280" height="148.3252" y="162.1696" clip-path="url(#clipPath2)"/>
    </g>
    <g fill="white" transform="matrix(1,0,0,1,15,15)" stroke="white">
      <path d="M360.8766 185.3702 L605.8766 185.3702 L605.8766 200.3702 L620.8766 200.3702 L620.8766 215.3702 L360.8766 215.3702 Z" clip-path="url(#clipPath2)" stroke="none"/>
      <path d="M605.8766 185.3702 L605.8766 200.3702 L620.8766 200.3702 Z" clip-path="url(#clipPath2)" fill-rule="evenodd" stroke="none"/>
    </g>
    <g stroke-linecap="butt" transform="matrix(1,0,0,1,15,15)" stroke-miterlimit="1.45">
      <path fill="none" d="M360.8766 185.3702 L605.8766 185.3702 L605.8766 200.3702 L620.8766 200.3702 L620.8766 215.3702 L360.8766 215.3702 Z" clip-path="url(#clipPath2)"/>
      <path fill="none" d="M605.8766 185.3702 L605.8766 200.3702 L620.8766 200.3702 Z" fill-rule="evenodd" clip-path="url(#clipPath2)"/>
      <text x="446.3366" xml:space="preserve" y="204.5245" font-family="sans-serif" clip-path="url(#clipPath2)" stroke="none">validity checks</text>
    </g>
    <g fill="white" transform="matrix(1,0,0,1,15,15)" stroke="white">
      <path d="M360.8766 225.4669 L605.8766 225.4669 L605.8766 240.4669 L620.8766 240.4669 L620.8766 255.4669 L360.8766 255.4669 Z" clip-path="url(#clipPath2)" stroke="none"/>
      <path d="M605.8766 225.4669 L605.8766 240.4669 L620.8766 240.4669 Z" clip-path="url(#clipPath2)" fill-rule="evenodd" stroke="none"/>
    </g>
    <g stroke-linecap="butt" transform="matrix(1,0,0,1,15,15)" stroke-miterlimit="1.45">
      <path fill="none" d="M360.8766 225.4669 L605.8766 225.4669 L605.8766 240.4669 L620.8766 240.4669 L620.8766 255.4669 L360.8766 255.4669 Z" clip-path="url(#clipPath2)"/>
      <path fill="none" d="M605.8766 225.4669 L605.8766 240.4669 L620.8766 240.4669 Z" fill-rule="evenodd" clip-path="url(#clipPath2)"/>
      <text x="438.0602" xml:space="preserve" y="244.6212" font-family="sans-serif" clip-path="url(#clipPath2)" stroke="none">check constraints</text>
    </g>
    <g fill="white" transform="matrix(1,0,0,1,15,15)" stroke="white">
      <path d="M360.8766 265.5635 L605.8766 265.5635 L605.8766 280.5635 L620.8766 280.5635 L620.8766 295.5635 L360.8766 295.5635 Z" clip-path="url(#clipPath2)" stroke="none"/>
      <path d="M605.8766 265.5635 L605.8766 280.5635 L620.8766 280.5635 Z" clip-path="url(#clipPath2)" fill-rule="evenodd" stroke="none"/>
    </g>
    <g stroke-linecap="butt" transform="matrix(1,0,0,1,15,15)" stroke-miterlimit="1.45">
      <path fill="none" d="M360.8766 265.5635 L605.8766 265.5635 L605.8766 280.5635 L620.8766 280.5635 L620.8766 295.5635 L360.8766 295.5635 Z" clip-path="url(#clipPath2)"/>
      <path fill="none" d="M605.8766 265.5635 L605.8766 280.5635 L620.8766 280.5635 Z" fill-rule="evenodd" clip-path="url(#clipPath2)"/>
      <text x="409.8298" xml:space="preserve" y="284.7178" font-family="sans-serif" clip-path="url(#clipPath2)" stroke="none">check crl, ocsp (if enabled)</text>
      <path fill="none" d="M30.1667 57.2787 L47.1667 57.2787" clip-path="url(#clipPath2)"/>
      <path d="M55.1667 57.2787 L43.1667 52.2787 L46.1667 57.2787 L43.1667 62.2787 Z" clip-path="url(#clipPath2)" stroke="none"/>
      <path fill="none" d="M195.1667 77.0505 L195.1667 99.0505" clip-path="url(#clipPath2)"/>
      <path d="M195.1667 107.0505 L200.1667 95.0505 L195.1667 98.0505 L190.1667 95.0505 Z" clip-path="url(#clipPath2)" stroke="none"/>
      <path fill="none" d="M325.1667 147.1696 L485.5 147.1696 L485.5 98.119" clip-path="url(#clipPath2)"/>
      <path d="M485.5 90.119 L480.5 102.119 L485.5 99.119 L490.5 102.119 Z" clip-path="url(#clipPath2)" stroke="none"/>
      <path fill="none" d="M620.8766 64.1445 L652.9227 64.1445" clip-path="url(#clipPath2)"/>
      <path d="M660.9227 64.1445 L648.9227 59.1445 L651.9227 64.1445 L648.9227 69.1445 Z" clip-path="url(#clipPath2)" stroke="none"/>
      <path fill="none" d="M810.8766 79.376 L810.8766 110.0133" clip-path="url(#clipPath2)"/>
      <path d="M810.8766 118.0133 L815.8766 106.0133 L810.8766 109.0133 L805.8766 106.0133 Z" clip-path="url(#clipPath2)" stroke="none"/>
      <path fill="none" d="M810.8766 199.6419 L810.8766 213.3322" clip-path="url(#clipPath2)"/>
      <path d="M810.8766 221.3322 L815.8766 209.3322 L810.8766 212.3322 L805.8766 209.3322 Z" clip-path="url(#clipPath2)" stroke="none"/>
      <path fill="none" d="M195.1667 162.1696 L195.1667 171.4451" clip-path="url(#clipPath2)"/>
      <path d="M195.1667 179.4451 L200.1667 167.4451 L195.1667 170.4451 L190.1667 167.4451 Z" clip-path="url(#clipPath2)" stroke="none"/>
      <path fill="none" d="M325.1667 194.4451 L342.8631 194.4451" clip-path="url(#clipPath2)"/>
      <path d="M350.8631 194.4451 L338.8631 189.4451 L341.8631 194.4451 L338.8631 199.4451 Z" clip-path="url(#clipPath2)" stroke="none"/>
    </g>
  </g>
</svg>
