<?xml version="1.0" encoding="UTF-8"?><svg xmlns="http://www.w3.org/2000/svg" xmlns:xlink="http://www.w3.org/1999/xlink" fill-opacity="1" color-rendering="auto" color-interpolation="auto" stroke="black" text-rendering="auto" stroke-linecap="square" width="981" stroke-miterlimit="10" stroke-opacity="1" shape-rendering="auto" fill="black" stroke-dasharray="none" font-weight="normal" stroke-width="1" height="427" font-family="'Dialog'" font-style="normal" stroke-linejoin="miter" font-size="12" stroke-dashoffset="0" image-rendering="auto">
  <!--Generated by ySVG-->
  <defs id="genericDefs"/>
  <g>
    <defs id="defs1">
      <clipPath clipPathUnits="userSpaceOnUse" id="clipPath1">
        <path d="M0 0 L981 0 L981 427 L0 427 L0 0 Z"/>
      </clipPath>
      <clipPath clipPathUnits="userSpaceOnUse" id="clipPath2">
        <path d="M-15 -15 L966 -15 L966 412 L-15 412 L-15 -15 Z"/>
      </clipPath>
    </defs>
    <g fill="white" transform="translate(15,15)" stroke="white">
      <rect x="-15" width="981" height="427" y="-15" clip-path="url(#clipPath2)" stroke="none"/>
    </g>
    <g fill="rgb(240,238,234)" transform="matrix(1,0,0,1,15,15)" stroke="rgb(240,238,234)">
      <rect x="45.298" width="595" height="396.0243" y="0.9505" clip-path="url(#clipPath2)" stroke="none"/>
    </g>
    <g font-size="13" stroke-miterlimit="1.45" font-family="sans-serif" transform="matrix(1,0,0,1,15,15)" stroke-linecap="butt">
      <text x="47.298" xml:space="preserve" y="15.0174" clip-path="url(#clipPath2)" stroke="none">libstrongswan/credentials/credential_manager.c</text>
      <rect fill="none" x="45.298" width="595" height="396.0243" y="0.9505" clip-path="url(#clipPath2)"/>
    </g>
    <g fill="white" transform="matrix(1,0,0,1,15,15)" stroke="white">
      <circle r="15" clip-path="url(#clipPath2)" cx="15.1667" cy="57.2787" stroke="none"/>
    </g>
    <g stroke-miterlimit="1.45" font-family="sans-serif" transform="matrix(1,0,0,1,15,15)" stroke-linecap="butt">
      <text x="7.1569" xml:space="preserve" y="61.433" clip-path="url(#clipPath2)" stroke="none">PU</text>
      <circle fill="none" r="15" clip-path="url(#clipPath2)" cx="15.1667" cy="57.2787"/>
    </g>
    <g fill="silver" transform="matrix(1,0,0,1,15,15)" stroke="silver">
      <rect x="55.1667" width="280" height="65.6689" y="24.4443" clip-path="url(#clipPath2)" stroke="none"/>
    </g>
    <g font-size="13" stroke-miterlimit="1.45" font-family="sans-serif" transform="matrix(1,0,0,1,15,15)" stroke-linecap="butt">
      <text x="132.7438" xml:space="preserve" y="38.5112" clip-path="url(#clipPath2)" stroke="none">trusted_enumerate</text>
      <rect fill="none" x="55.1667" width="280" height="65.6689" y="24.4443" clip-path="url(#clipPath2)"/>
    </g>
    <g fill="rgb(238,237,237)" transform="matrix(1,0,0,1,15,15)" stroke="rgb(238,237,237)">
      <rect x="65.1667" width="260" height="30" y="47.0505" clip-path="url(#clipPath2)" stroke="none"/>
    </g>
    <g font-size="13" stroke-miterlimit="1.45" font-family="sans-serif" transform="matrix(1,0,0,1,15,15)" stroke-linecap="butt">
      <text x="137.33" xml:space="preserve" y="66.551" clip-path="url(#clipPath2)" stroke="none">verify_trust_chain</text>
      <rect fill="none" x="65.1667" width="260" height="30" y="47.0505" clip-path="url(#clipPath2)"/>
    </g>
    <g fill="silver" transform="matrix(1,0,0,1,15,15)" stroke="silver">
      <rect x="55.1667" width="280" height="114.2157" y="107.0505" clip-path="url(#clipPath2)" stroke="none"/>
    </g>
    <g font-size="13" stroke-miterlimit="1.45" font-family="sans-serif" transform="matrix(1,0,0,1,15,15)" stroke-linecap="butt">
      <text x="137.33" xml:space="preserve" y="121.1174" clip-path="url(#clipPath2)" stroke="none">verify_trust_chain</text>
      <rect fill="none" x="55.1667" width="280" height="114.2157" y="107.0505" clip-path="url(#clipPath2)"/>
    </g>
    <g fill="rgb(238,237,237)" transform="matrix(1,0,0,1,15,15)" stroke="rgb(238,237,237)">
      <rect x="65.1667" width="260" height="30" y="132.1696" clip-path="url(#clipPath2)" stroke="none"/>
    </g>
    <g font-size="13" stroke-miterlimit="1.45" font-family="sans-serif" transform="matrix(1,0,0,1,15,15)" stroke-linecap="butt">
      <text x="145.8295" xml:space="preserve" y="151.6701" clip-path="url(#clipPath2)" stroke="none">get_issuer_cert</text>
      <rect fill="none" x="65.1667" width="260" height="30" y="132.1696" clip-path="url(#clipPath2)"/>
    </g>
    <g fill="silver" transform="matrix(1,0,0,1,15,15)" stroke="silver">
      <rect x="350.8767" width="280" height="65.6689" y="107.4694" clip-path="url(#clipPath2)" stroke="none"/>
    </g>
    <g font-size="13" stroke-miterlimit="1.45" font-family="sans-serif" transform="matrix(1,0,0,1,15,15)" stroke-linecap="butt">
      <text x="441.5395" xml:space="preserve" y="121.5363" clip-path="url(#clipPath2)" stroke="none">get_issuer_cert</text>
      <rect fill="none" x="350.8767" width="280" height="65.6689" y="107.4694" clip-path="url(#clipPath2)"/>
    </g>
    <g fill="rgb(238,237,237)" transform="matrix(1,0,0,1,15,15)" stroke="rgb(238,237,237)">
      <rect x="360.8767" width="260" height="30" y="132.1696" clip-path="url(#clipPath2)" stroke="none"/>
    </g>
    <g font-size="13" stroke-miterlimit="1.45" font-family="sans-serif" transform="matrix(1,0,0,1,15,15)" stroke-linecap="butt">
      <text x="412.1371" xml:space="preserve" y="151.6701" clip-path="url(#clipPath2)" stroke="none">this-&gt;cache-&gt;issued_by</text>
      <rect fill="none" x="360.8767" width="260" height="30" y="132.1696" clip-path="url(#clipPath2)"/>
    </g>
    <g fill="rgb(240,238,234)" transform="matrix(1,0,0,1,15,15)" stroke="rgb(240,238,234)">
      <rect x="650.8767" width="300" height="102.0369" y="80.5788" clip-path="url(#clipPath2)" stroke="none"/>
    </g>
    <g font-size="13" stroke-miterlimit="1.45" font-family="sans-serif" transform="matrix(1,0,0,1,15,15)" stroke-linecap="butt">
      <text x="652.8766" xml:space="preserve" y="94.6457" clip-path="url(#clipPath2)" stroke="none">libstrongswan/credentials/sets/cert_cache.c</text>
      <rect fill="none" x="650.8767" width="300" height="102.0369" y="80.5788" clip-path="url(#clipPath2)"/>
    </g>
    <g fill="silver" transform="matrix(1,0,0,1,15,15)" stroke="silver">
      <rect x="660.8767" width="280" height="65.6689" y="105.1758" clip-path="url(#clipPath2)" stroke="none"/>
    </g>
    <g font-size="13" stroke-miterlimit="1.45" font-family="sans-serif" transform="matrix(1,0,0,1,15,15)" stroke-linecap="butt">
      <text x="768.8305" xml:space="preserve" y="119.2427" clip-path="url(#clipPath2)" stroke="none">issued_by</text>
      <rect fill="none" x="660.8767" width="280" height="65.6689" y="105.1758" clip-path="url(#clipPath2)"/>
    </g>
    <g fill="rgb(238,237,237)" transform="matrix(1,0,0,1,15,15)" stroke="rgb(238,237,237)">
      <rect x="670.8767" width="260" height="30" y="132.1696" clip-path="url(#clipPath2)" stroke="none"/>
    </g>
    <g font-size="13" stroke-miterlimit="1.45" font-family="sans-serif" transform="matrix(1,0,0,1,15,15)" stroke-linecap="butt">
      <text x="713.0378" xml:space="preserve" y="151.6701" clip-path="url(#clipPath2)" stroke="none">subject-&gt;issued_by(issuer)</text>
      <rect fill="none" x="670.8767" width="260" height="30" y="132.1696" clip-path="url(#clipPath2)"/>
    </g>
    <g fill="rgb(240,238,234)" transform="matrix(1,0,0,1,15,15)" stroke="rgb(240,238,234)">
      <rect x="650.8767" width="300" height="148.3252" y="200.8447" clip-path="url(#clipPath2)" stroke="none"/>
    </g>
    <g font-size="13" stroke-miterlimit="1.45" font-family="sans-serif" transform="matrix(1,0,0,1,15,15)" stroke-linecap="butt">
      <text x="652.8766" xml:space="preserve" y="214.9116" clip-path="url(#clipPath2)" stroke="none">libstrongswan/plugins/x509/x509_cert.c</text>
      <rect fill="none" x="650.8767" width="300" height="148.3252" y="200.8447" clip-path="url(#clipPath2)"/>
    </g>
    <g fill="silver" transform="matrix(1,0,0,1,15,15)" stroke="silver">
      <rect x="660.8767" width="280" height="114.2157" y="226.3343" clip-path="url(#clipPath2)" stroke="none"/>
    </g>
    <g font-size="13" stroke-miterlimit="1.45" font-family="sans-serif" transform="matrix(1,0,0,1,15,15)" stroke-linecap="butt">
      <text x="768.8305" xml:space="preserve" y="240.4012" clip-path="url(#clipPath2)" stroke="none">issued_by</text>
      <rect fill="none" x="660.8767" width="280" height="114.2157" y="226.3343" clip-path="url(#clipPath2)"/>
    </g>
    <g fill="rgb(238,237,237)" transform="matrix(1,0,0,1,15,15)" stroke="rgb(238,237,237)">
      <rect x="670.8767" width="260" height="30" y="252.4355" clip-path="url(#clipPath2)" stroke="none"/>
    </g>
    <g font-size="13" stroke-miterlimit="1.45" font-family="sans-serif" transform="matrix(1,0,0,1,15,15)" stroke-linecap="butt">
      <text x="704.186" xml:space="preserve" y="271.936" clip-path="url(#clipPath2)" stroke="none">key = issuer-&gt;get_public_key</text>
      <rect fill="none" x="670.8767" width="260" height="30" y="252.4355" clip-path="url(#clipPath2)"/>
    </g>
    <g fill="rgb(238,237,237)" transform="matrix(1,0,0,1,15,15)" stroke="rgb(238,237,237)">
      <rect x="670.8767" width="260" height="30" y="304.1258" clip-path="url(#clipPath2)" stroke="none"/>
    </g>
    <g font-size="13" stroke-miterlimit="1.45" font-family="sans-serif" transform="matrix(1,0,0,1,15,15)" stroke-linecap="butt">
      <text x="737.8698" xml:space="preserve" y="323.6263" clip-path="url(#clipPath2)" stroke="none">valid = key-&gt;verify</text>
      <rect fill="none" x="670.8767" width="260" height="30" y="304.1258" clip-path="url(#clipPath2)"/>
    </g>
    <g fill="rgb(238,237,237)" transform="matrix(1,0,0,1,15,15)" stroke="rgb(238,237,237)">
      <rect x="65.1667" width="260" height="30" y="179.4451" clip-path="url(#clipPath2)" stroke="none"/>
    </g>
    <g font-size="13" stroke-miterlimit="1.45" font-family="sans-serif" transform="matrix(1,0,0,1,15,15)" stroke-linecap="butt">
      <text x="140.0881" xml:space="preserve" y="198.9456" clip-path="url(#clipPath2)" stroke="none">check_certificate</text>
      <rect fill="none" x="65.1667" width="260" height="30" y="179.4451" clip-path="url(#clipPath2)"/>
    </g>
    <g fill="silver" transform="matrix(1,0,0,1,15,15)" stroke="silver">
      <rect x="55.1667" width="280" height="148.3252" y="239.4451" clip-path="url(#clipPath2)" stroke="none"/>
    </g>
    <g font-size="13" stroke-miterlimit="1.45" font-family="sans-serif" transform="matrix(1,0,0,1,15,15)" stroke-linecap="butt">
      <text x="140.0881" xml:space="preserve" y="253.512" clip-path="url(#clipPath2)" stroke="none">check_certificate</text>
      <rect fill="none" x="55.1667" width="280" height="148.3252" y="239.4451" clip-path="url(#clipPath2)"/>
    </g>
    <g fill="white" transform="matrix(1,0,0,1,15,15)" stroke="white">
      <path d="M65.1667 262.6457 L310.1667 262.6457 L310.1667 277.6457 L325.1667 277.6457 L325.1667 292.6457 L65.1667 292.6457 Z" clip-path="url(#clipPath2)" stroke="none"/>
      <path d="M310.1667 262.6457 L310.1667 277.6457 L325.1667 277.6457 Z" clip-path="url(#clipPath2)" fill-rule="evenodd" stroke="none"/>
    </g>
    <g stroke-linecap="butt" transform="matrix(1,0,0,1,15,15)" stroke-miterlimit="1.45">
      <path fill="none" d="M65.1667 262.6457 L310.1667 262.6457 L310.1667 277.6457 L325.1667 277.6457 L325.1667 292.6457 L65.1667 292.6457 Z" clip-path="url(#clipPath2)"/>
      <path fill="none" d="M310.1667 262.6457 L310.1667 277.6457 L325.1667 277.6457 Z" fill-rule="evenodd" clip-path="url(#clipPath2)"/>
      <text x="150.6266" xml:space="preserve" y="281.8" font-family="sans-serif" clip-path="url(#clipPath2)" stroke="none">validity checks</text>
    </g>
    <g fill="white" transform="matrix(1,0,0,1,15,15)" stroke="white">
      <path d="M65.1667 302.7424 L310.1667 302.7424 L310.1667 317.7424 L325.1667 317.7424 L325.1667 332.7424 L65.1667 332.7424 Z" clip-path="url(#clipPath2)" stroke="none"/>
      <path d="M310.1667 302.7424 L310.1667 317.7424 L325.1667 317.7424 Z" clip-path="url(#clipPath2)" fill-rule="evenodd" stroke="none"/>
    </g>
    <g stroke-linecap="butt" transform="matrix(1,0,0,1,15,15)" stroke-miterlimit="1.45">
      <path fill="none" d="M65.1667 302.7424 L310.1667 302.7424 L310.1667 317.7424 L325.1667 317.7424 L325.1667 332.7424 L65.1667 332.7424 Z" clip-path="url(#clipPath2)"/>
      <path fill="none" d="M310.1667 302.7424 L310.1667 317.7424 L325.1667 317.7424 Z" fill-rule="evenodd" clip-path="url(#clipPath2)"/>
      <text x="142.3503" xml:space="preserve" y="321.8967" font-family="sans-serif" clip-path="url(#clipPath2)" stroke="none">check constraints</text>
    </g>
    <g fill="white" transform="matrix(1,0,0,1,15,15)" stroke="white">
      <path d="M65.1667 342.839 L310.1667 342.839 L310.1667 357.839 L325.1667 357.839 L325.1667 372.839 L65.1667 372.839 Z" clip-path="url(#clipPath2)" stroke="none"/>
      <path d="M310.1667 342.839 L310.1667 357.839 L325.1667 357.839 Z" clip-path="url(#clipPath2)" fill-rule="evenodd" stroke="none"/>
    </g>
    <g stroke-linecap="butt" transform="matrix(1,0,0,1,15,15)" stroke-miterlimit="1.45">
      <path fill="none" d="M65.1667 342.839 L310.1667 342.839 L310.1667 357.839 L325.1667 357.839 L325.1667 372.839 L65.1667 372.839 Z" clip-path="url(#clipPath2)"/>
      <path fill="none" d="M310.1667 342.839 L310.1667 357.839 L325.1667 357.839 Z" fill-rule="evenodd" clip-path="url(#clipPath2)"/>
      <text x="114.1198" xml:space="preserve" y="361.9933" font-family="sans-serif" clip-path="url(#clipPath2)" stroke="none">check crl, ocsp (if enabled)</text>
      <path fill="none" d="M30.1667 57.2787 L47.1667 57.2787" clip-path="url(#clipPath2)"/>
      <path d="M55.1667 57.2787 L43.1667 52.2787 L46.1667 57.2787 L43.1667 62.2787 Z" clip-path="url(#clipPath2)" stroke="none"/>
      <path fill="none" d="M195.1667 77.0505 L195.1667 99.0505" clip-path="url(#clipPath2)"/>
      <path d="M195.1667 107.0505 L200.1667 95.0505 L195.1667 98.0505 L190.1667 95.0505 Z" clip-path="url(#clipPath2)" stroke="none"/>
      <path fill="none" d="M325.1667 147.1696 L342.8549 147.1696" clip-path="url(#clipPath2)"/>
      <path d="M350.8549 147.1696 L338.8549 142.1696 L341.8549 147.1696 L338.8549 152.1696 Z" clip-path="url(#clipPath2)" stroke="none"/>
      <path fill="none" d="M620.8766 147.1696 L662.8766 147.1696" clip-path="url(#clipPath2)"/>
      <path d="M670.8766 147.1696 L658.8766 142.1696 L661.8766 147.1696 L658.8766 152.1696 Z" clip-path="url(#clipPath2)" stroke="none"/>
      <path fill="none" d="M800.8766 162.1696 L800.8766 192.8069" clip-path="url(#clipPath2)"/>
      <path d="M800.8766 200.8069 L805.8766 188.8069 L800.8766 191.8069 L795.8766 188.8069 Z" clip-path="url(#clipPath2)" stroke="none"/>
      <path fill="none" d="M800.8766 282.4355 L800.8766 296.1259" clip-path="url(#clipPath2)"/>
      <path d="M800.8766 304.1259 L805.8766 292.1259 L800.8766 295.1259 L795.8766 292.1259 Z" clip-path="url(#clipPath2)" stroke="none"/>
      <path fill="none" d="M195.1667 162.1696 L195.1667 171.4451" clip-path="url(#clipPath2)"/>
      <path d="M195.1667 179.4451 L200.1667 167.4451 L195.1667 170.4451 L190.1667 167.4451 Z" clip-path="url(#clipPath2)" stroke="none"/>
      <path fill="none" d="M195.1667 209.4451 L195.1667 231.4451" clip-path="url(#clipPath2)"/>
      <path d="M195.1667 239.4451 L200.1667 227.4451 L195.1667 230.4451 L190.1667 227.4451 Z" clip-path="url(#clipPath2)" stroke="none"/>
    </g>
  </g>
</svg>
