<?xml version="1.0" encoding="UTF-8"?>
<svg xmlns="http://www.w3.org/2000/svg" xmlns:xlink="http://www.w3.org/1999/xlink" fill-opacity="1" color-rendering="auto" color-interpolation="auto" stroke="black" text-rendering="auto" stroke-linecap="square" width="930" stroke-miterlimit="10" stroke-opacity="1" shape-rendering="auto" fill="black" stroke-dasharray="none" font-weight="normal" stroke-width="1" height="1036" font-family="'Dialog'" font-style="normal" stroke-linejoin="miter" font-size="12" stroke-dashoffset="0" image-rendering="auto">
  <!--Generated by ySVG-->
  <defs id="genericDefs"/>
  <g>
    <defs id="defs1">
      <clipPath clipPathUnits="userSpaceOnUse" id="clipPath1">
        <path d="M0 0 L930 0 L930 1036 L0 1036 L0 0 Z"/>
      </clipPath>
      <clipPath clipPathUnits="userSpaceOnUse" id="clipPath2">
        <path d="M-249 -494 L681 -494 L681 542 L-249 542 L-249 -494 Z"/>
      </clipPath>
    </defs>
    <g fill="white" transform="translate(249,494)" stroke="white">
      <rect x="-249" width="930" height="1036" y="-494" clip-path="url(#clipPath2)" stroke="none"/>
    </g>
    <g fill="white" transform="matrix(1,0,0,1,249,494)" stroke="white">
      <rect x="295.75" y="-478.5984" clip-path="url(#clipPath2)" width="340" rx="4" ry="4" height="628" stroke="none"/>
    </g>
    <g stroke-miterlimit="1.45" font-family="sans-serif" transform="matrix(1,0,0,1,249,494)" stroke-linecap="butt">
      <text x="434.7949" xml:space="preserve" y="-461.1961" clip-path="url(#clipPath2)" stroke="none">Responder</text>
    </g>
    <g stroke-dasharray="0,4" stroke-miterlimit="1.45" stroke-dashoffset="2" transform="matrix(1,0,0,1,249,494)" stroke-linecap="round">
      <rect x="295.75" y="-478.5984" clip-path="url(#clipPath2)" fill="none" width="340" rx="4" ry="4" height="628"/>
    </g>
    <g fill="white" transform="matrix(1,0,0,1,249,494)" stroke="white">
      <rect x="-204" y="-478.5984" clip-path="url(#clipPath2)" width="340" rx="4" ry="4" height="628" stroke="none"/>
    </g>
    <g stroke-miterlimit="1.45" font-family="sans-serif" transform="matrix(1,0,0,1,249,494)" stroke-linecap="butt">
      <text x="-56.8633" xml:space="preserve" y="-461.1961" clip-path="url(#clipPath2)" stroke="none">Initiator</text>
    </g>
    <g stroke-dasharray="0,4" stroke-miterlimit="1.45" stroke-dashoffset="2" transform="matrix(1,0,0,1,249,494)" stroke-linecap="round">
      <rect x="-204" y="-478.5984" clip-path="url(#clipPath2)" fill="none" width="340" rx="4" ry="4" height="628"/>
    </g>
    <g fill="rgb(240,238,234)" transform="matrix(1,0,0,1,249,494)" stroke="rgb(240,238,234)">
      <rect x="315.75" width="300" height="501.9563" y="-445.3156" clip-path="url(#clipPath2)" stroke="none"/>
    </g>
    <g font-size="13" stroke-miterlimit="1.45" font-family="sans-serif" transform="matrix(1,0,0,1,249,494)" stroke-linecap="butt">
      <text x="317.75" xml:space="preserve" y="-430.963" clip-path="url(#clipPath2)" stroke="none">libcharon/sa/ikev2/tasks/ike_init.c</text>
      <rect fill="none" x="315.75" width="300" height="501.9563" y="-445.3156" clip-path="url(#clipPath2)"/>
    </g>
    <g fill="rgb(240,238,234)" transform="matrix(1,0,0,1,249,494)" stroke="rgb(240,238,234)">
      <rect x="149.4167" width="210" height="146" y="380.9951" clip-path="url(#clipPath2)" stroke="none"/>
    </g>
    <g font-size="13" stroke-miterlimit="1.45" font-family="sans-serif" transform="matrix(1,0,0,1,249,494)" stroke-linecap="butt">
      <text x="151.4167" xml:space="preserve" y="395.3476" clip-path="url(#clipPath2)" stroke="none">lib/crypto/crypto_factory.c</text>
      <rect fill="none" x="149.4167" width="210" height="146" y="380.9951" clip-path="url(#clipPath2)"/>
    </g>
    <g fill="rgb(240,238,234)" transform="matrix(1,0,0,1,249,494)" stroke="rgb(240,238,234)">
      <rect x="-73.7917" width="210" height="95" y="396.4951" clip-path="url(#clipPath2)" stroke="none"/>
    </g>
    <g font-size="13" stroke-miterlimit="1.45" font-family="sans-serif" transform="matrix(1,0,0,1,249,494)" stroke-linecap="butt">
      <text x="-71.7917" xml:space="preserve" y="410.8476" clip-path="url(#clipPath2)" stroke="none">libcharon/sa/ikev2/keymat_v2.c</text>
      <rect fill="none" x="-73.7917" width="210" height="95" y="396.4951" clip-path="url(#clipPath2)"/>
    </g>
    <g fill="rgb(240,238,234)" transform="matrix(1,0,0,1,249,494)" stroke="rgb(240,238,234)">
      <rect x="-184" width="300" height="282" y="-446.1437" clip-path="url(#clipPath2)" stroke="none"/>
    </g>
    <g font-size="13" stroke-miterlimit="1.45" font-family="sans-serif" transform="matrix(1,0,0,1,249,494)" stroke-linecap="butt">
      <text x="-182" xml:space="preserve" y="-431.7912" clip-path="url(#clipPath2)" stroke="none">libcharon/sa/ikev2/tasks/ike_init.c</text>
      <rect fill="none" x="-184" width="300" height="282" y="-446.1437" clip-path="url(#clipPath2)"/>
    </g>
    <g fill="silver" transform="matrix(1,0,0,1,249,494)" stroke="silver">
      <rect x="-174" width="280" height="168" y="-424.2708" clip-path="url(#clipPath2)" stroke="none"/>
    </g>
    <g font-size="13" stroke-miterlimit="1.45" font-family="sans-serif" transform="matrix(1,0,0,1,249,494)" stroke-linecap="butt">
      <text x="-55.1028" xml:space="preserve" y="-409.9182" clip-path="url(#clipPath2)" stroke="none">build_i</text>
      <rect fill="none" x="-174" width="280" height="168" y="-424.2708" clip-path="url(#clipPath2)"/>
    </g>
    <g fill="silver" transform="matrix(1,0,0,1,249,494)" stroke="silver">
      <rect x="-60.5833" width="180" height="62" y="418.4951" clip-path="url(#clipPath2)" stroke="none"/>
    </g>
    <g font-size="13" stroke-miterlimit="1.45" font-family="sans-serif" transform="matrix(1,0,0,1,249,494)" stroke-linecap="butt">
      <text x="-1.2108" xml:space="preserve" y="432.8476" clip-path="url(#clipPath2)" stroke="none">create_dh</text>
      <rect fill="none" x="-60.5833" width="180" height="62" y="418.4951" clip-path="url(#clipPath2)"/>
    </g>
    <g fill="rgb(238,237,237)" transform="matrix(1,0,0,1,249,494)" stroke="rgb(238,237,237)">
      <rect x="-50.5833" width="160" height="30" y="444.0076" clip-path="url(#clipPath2)" stroke="none"/>
    </g>
    <g font-size="13" stroke-miterlimit="1.45" font-family="sans-serif" transform="matrix(1,0,0,1,249,494)" stroke-linecap="butt">
      <text x="-30.0387" xml:space="preserve" y="463.7969" clip-path="url(#clipPath2)" stroke="none">crypto-&gt;create_dh</text>
      <rect fill="none" x="-50.5833" width="160" height="30" y="444.0076" clip-path="url(#clipPath2)"/>
    </g>
    <g fill="silver" transform="matrix(1,0,0,1,249,494)" stroke="silver">
      <rect x="164.4167" width="180" height="112" y="403.0076" clip-path="url(#clipPath2)" stroke="none"/>
    </g>
    <g font-size="13" stroke-miterlimit="1.45" font-family="sans-serif" transform="matrix(1,0,0,1,249,494)" stroke-linecap="butt">
      <text x="223.7892" xml:space="preserve" y="417.3601" clip-path="url(#clipPath2)" stroke="none">create_dh</text>
      <rect fill="none" x="164.4167" width="180" height="112" y="403.0076" clip-path="url(#clipPath2)"/>
    </g>
    <g fill="white" transform="matrix(1,0,0,1,249,494)" stroke="white">
      <path d="M174.4167 430.4826 L319.4167 430.4826 L319.4167 445.4826 L334.4167 445.4826 L334.4167 505.4826 L174.4167 505.4826 Z" clip-path="url(#clipPath2)" stroke="none"/>
      <path d="M319.4167 430.4826 L319.4167 445.4826 L334.4167 445.4826 Z" clip-path="url(#clipPath2)" fill-rule="evenodd" stroke="none"/>
    </g>
    <g stroke-linecap="butt" transform="matrix(1,0,0,1,249,494)" stroke-miterlimit="1.45">
      <path fill="none" d="M174.4167 430.4826 L319.4167 430.4826 L319.4167 445.4826 L334.4167 445.4826 L334.4167 505.4826 L174.4167 505.4826 Z" clip-path="url(#clipPath2)"/>
      <path fill="none" d="M319.4167 430.4826 L319.4167 445.4826 L334.4167 445.4826 Z" fill-rule="evenodd" clip-path="url(#clipPath2)"/>
      <text x="203.4401" xml:space="preserve" y="458.4406" font-family="sans-serif" clip-path="url(#clipPath2)" stroke="none">return DH plugin </text>
      <text x="197.1325" xml:space="preserve" y="472.4035" font-family="sans-serif" clip-path="url(#clipPath2)" stroke="none">registered for given</text>
      <text x="226.2331" xml:space="preserve" y="486.3664" font-family="sans-serif" clip-path="url(#clipPath2)" stroke="none">DH group</text>
    </g>
    <g fill="rgb(238,237,237)" transform="matrix(1,0,0,1,249,494)" stroke="rgb(238,237,237)">
      <rect x="-164" width="160" height="30" y="-402.1437" clip-path="url(#clipPath2)" stroke="none"/>
    </g>
    <g font-size="13" stroke-miterlimit="1.45" font-family="sans-serif" transform="matrix(1,0,0,1,249,494)" stroke-linecap="butt">
      <text x="-156.1665" xml:space="preserve" y="-382.3544" clip-path="url(#clipPath2)" stroke="none">config-&gt;get_dh_group</text>
      <rect fill="none" x="-164" width="160" height="30" y="-402.1437" clip-path="url(#clipPath2)"/>
    </g>
    <g fill="rgb(238,237,237)" transform="matrix(1,0,0,1,249,494)" stroke="rgb(238,237,237)">
      <rect x="-164" width="160" height="30" y="-347.1437" clip-path="url(#clipPath2)" stroke="none"/>
    </g>
    <g font-size="13" stroke-miterlimit="1.45" font-family="sans-serif" transform="matrix(1,0,0,1,249,494)" stroke-linecap="butt">
      <text x="-146.4609" xml:space="preserve" y="-327.3544" clip-path="url(#clipPath2)" stroke="none">keymat-&gt;create_dh</text>
      <rect fill="none" x="-164" width="160" height="30" y="-347.1437" clip-path="url(#clipPath2)"/>
    </g>
    <g fill="rgb(238,237,237)" transform="matrix(1,0,0,1,249,494)" stroke="rgb(238,237,237)">
      <rect x="-164" width="260" height="30" y="-292.1437" clip-path="url(#clipPath2)" stroke="none"/>
    </g>
    <g font-size="13" stroke-miterlimit="1.45" font-family="sans-serif" transform="matrix(1,0,0,1,249,494)" stroke-linecap="butt">
      <text x="-81.1663" xml:space="preserve" y="-272.3544" clip-path="url(#clipPath2)" stroke="none">build_payloads</text>
      <rect fill="none" x="-164" width="260" height="30" y="-292.1437" clip-path="url(#clipPath2)"/>
    </g>
    <g fill="rgb(255,204,0)" transform="matrix(1,0,0,1,249,494)" stroke="rgb(255,204,0)">
      <rect x="-4" width="100" height="30" y="-402.1437" clip-path="url(#clipPath2)" stroke="none"/>
    </g>
    <g font-size="13" stroke-miterlimit="1.45" font-family="sans-serif" transform="matrix(1,0,0,1,249,494)" stroke-linecap="butt">
      <text x="15.7947" xml:space="preserve" y="-382.3544" clip-path="url(#clipPath2)" stroke="none">dh_group</text>
      <rect fill="none" x="-4" width="100" height="30" y="-402.1437" clip-path="url(#clipPath2)"/>
    </g>
    <g fill="rgb(255,204,0)" transform="matrix(1,0,0,1,249,494)" stroke="rgb(255,204,0)">
      <rect x="-4" width="100" height="30" y="-347.1437" clip-path="url(#clipPath2)" stroke="none"/>
    </g>
    <g font-size="13" stroke-miterlimit="1.45" font-family="sans-serif" transform="matrix(1,0,0,1,249,494)" stroke-linecap="butt">
      <text x="37.875" xml:space="preserve" y="-327.3544" clip-path="url(#clipPath2)" stroke="none">dh</text>
      <rect fill="none" x="-4" width="100" height="30" y="-347.1437" clip-path="url(#clipPath2)"/>
    </g>
    <g fill="silver" transform="matrix(1,0,0,1,249,494)" stroke="silver">
      <rect x="-174" width="280" height="62" y="-236.6562" clip-path="url(#clipPath2)" stroke="none"/>
    </g>
    <g font-size="13" stroke-miterlimit="1.45" font-family="sans-serif" transform="matrix(1,0,0,1,249,494)" stroke-linecap="butt">
      <text x="-81.1663" xml:space="preserve" y="-222.3037" clip-path="url(#clipPath2)" stroke="none">build_payloads</text>
      <rect fill="none" x="-174" width="280" height="62" y="-236.6562" clip-path="url(#clipPath2)"/>
    </g>
    <g fill="rgb(238,237,237)" transform="matrix(1,0,0,1,249,494)" stroke="rgb(238,237,237)">
      <rect x="-164" width="160" height="30" y="-212.1437" clip-path="url(#clipPath2)" stroke="none"/>
    </g>
    <g font-size="13" stroke-miterlimit="1.45" font-family="sans-serif" transform="matrix(1,0,0,1,249,494)" stroke-linecap="butt">
      <text x="-156.9695" xml:space="preserve" y="-192.3544" clip-path="url(#clipPath2)" stroke="none">ke_pld_create_from_dh</text>
      <rect fill="none" x="-164" width="160" height="30" y="-212.1437" clip-path="url(#clipPath2)"/>
    </g>
    <g fill="rgb(255,204,0)" transform="matrix(1,0,0,1,249,494)" stroke="rgb(255,204,0)">
      <rect x="-4" width="100" height="30" y="-212.1437" clip-path="url(#clipPath2)" stroke="none"/>
    </g>
    <g font-size="13" stroke-miterlimit="1.45" font-family="sans-serif" transform="matrix(1,0,0,1,249,494)" stroke-linecap="butt">
      <text x="37.875" xml:space="preserve" y="-192.3544" clip-path="url(#clipPath2)" stroke="none">dh</text>
      <rect fill="none" x="-4" width="100" height="30" y="-212.1437" clip-path="url(#clipPath2)"/>
    </g>
    <g fill="silver" transform="matrix(1,0,0,1,249,494)" stroke="silver">
      <rect x="325.75" width="280" height="62" y="-419.8031" clip-path="url(#clipPath2)" stroke="none"/>
    </g>
    <g font-size="13" stroke-miterlimit="1.45" font-family="sans-serif" transform="matrix(1,0,0,1,249,494)" stroke-linecap="butt">
      <text x="435.5193" xml:space="preserve" y="-405.4505" clip-path="url(#clipPath2)" stroke="none">process_r</text>
      <rect fill="none" x="325.75" width="280" height="62" y="-419.8031" clip-path="url(#clipPath2)"/>
    </g>
    <g fill="rgb(238,237,237)" transform="matrix(1,0,0,1,249,494)" stroke="rgb(238,237,237)">
      <rect x="335.75" width="260" height="30" y="-397.2906" clip-path="url(#clipPath2)" stroke="none"/>
    </g>
    <g font-size="13" stroke-miterlimit="1.45" font-family="sans-serif" transform="matrix(1,0,0,1,249,494)" stroke-linecap="butt">
      <text x="410.2366" xml:space="preserve" y="-377.5013" clip-path="url(#clipPath2)" stroke="none">process_payloads</text>
      <rect fill="none" x="335.75" width="260" height="30" y="-397.2906" clip-path="url(#clipPath2)"/>
    </g>
    <g fill="silver" transform="matrix(1,0,0,1,249,494)" stroke="silver">
      <rect x="325.75" width="280" height="168" y="-337.7906" clip-path="url(#clipPath2)" stroke="none"/>
    </g>
    <g font-size="13" stroke-miterlimit="1.45" font-family="sans-serif" transform="matrix(1,0,0,1,249,494)" stroke-linecap="butt">
      <text x="410.2366" xml:space="preserve" y="-323.438" clip-path="url(#clipPath2)" stroke="none">process_payloads</text>
      <rect fill="none" x="325.75" width="280" height="168" y="-337.7906" clip-path="url(#clipPath2)"/>
    </g>
    <g fill="rgb(238,237,237)" transform="matrix(1,0,0,1,249,494)" stroke="rgb(238,237,237)">
      <rect x="335.75" width="160" height="30" y="-312.2906" clip-path="url(#clipPath2)" stroke="none"/>
    </g>
    <g font-size="13" stroke-miterlimit="1.45" font-family="sans-serif" transform="matrix(1,0,0,1,249,494)" stroke-linecap="butt">
      <text x="337.2866" xml:space="preserve" y="-292.5013" clip-path="url(#clipPath2)" stroke="none">get_dh_group_nr(ke_pld)</text>
      <rect fill="none" x="335.75" width="160" height="30" y="-312.2906" clip-path="url(#clipPath2)"/>
    </g>
    <g fill="rgb(255,204,0)" transform="matrix(1,0,0,1,249,494)" stroke="rgb(255,204,0)">
      <rect x="495.75" width="100" height="30" y="-312.2906" clip-path="url(#clipPath2)" stroke="none"/>
    </g>
    <g font-size="13" stroke-miterlimit="1.45" font-family="sans-serif" transform="matrix(1,0,0,1,249,494)" stroke-linecap="butt">
      <text x="515.5447" xml:space="preserve" y="-292.5013" clip-path="url(#clipPath2)" stroke="none">dh_group</text>
      <rect fill="none" x="495.75" width="100" height="30" y="-312.2906" clip-path="url(#clipPath2)"/>
    </g>
    <g fill="rgb(238,237,237)" transform="matrix(1,0,0,1,249,494)" stroke="rgb(238,237,237)">
      <rect x="335.75" width="160" height="30" y="-262.2906" clip-path="url(#clipPath2)" stroke="none"/>
    </g>
    <g font-size="13" stroke-miterlimit="1.45" font-family="sans-serif" transform="matrix(1,0,0,1,249,494)" stroke-linecap="butt">
      <text x="353.2891" xml:space="preserve" y="-242.5013" clip-path="url(#clipPath2)" stroke="none">keymat-&gt;create_dh</text>
      <rect fill="none" x="335.75" width="160" height="30" y="-262.2906" clip-path="url(#clipPath2)"/>
    </g>
    <g fill="rgb(255,204,0)" transform="matrix(1,0,0,1,249,494)" stroke="rgb(255,204,0)">
      <rect x="495.75" width="100" height="30" y="-262.2906" clip-path="url(#clipPath2)" stroke="none"/>
    </g>
    <g font-size="13" stroke-miterlimit="1.45" font-family="sans-serif" transform="matrix(1,0,0,1,249,494)" stroke-linecap="butt">
      <text x="537.625" xml:space="preserve" y="-242.5013" clip-path="url(#clipPath2)" stroke="none">dh</text>
      <rect fill="none" x="495.75" width="100" height="30" y="-262.2906" clip-path="url(#clipPath2)"/>
    </g>
    <g fill="rgb(238,237,237)" transform="matrix(1,0,0,1,249,494)" stroke="rgb(238,237,237)">
      <rect x="335.75" width="160" height="30" y="-212.2906" clip-path="url(#clipPath2)" stroke="none"/>
    </g>
    <g font-size="13" stroke-miterlimit="1.45" font-family="sans-serif" transform="matrix(1,0,0,1,249,494)" stroke-linecap="butt">
      <text x="344.104" xml:space="preserve" y="-192.5013" clip-path="url(#clipPath2)" stroke="none">set_other_public_value</text>
      <rect fill="none" x="335.75" width="160" height="30" y="-212.2906" clip-path="url(#clipPath2)"/>
    </g>
    <g fill="rgb(255,204,0)" transform="matrix(1,0,0,1,249,494)" stroke="rgb(255,204,0)">
      <rect x="495.75" width="100" height="30" y="-212.2906" clip-path="url(#clipPath2)" stroke="none"/>
    </g>
    <g font-size="13" stroke-miterlimit="1.45" font-family="sans-serif" transform="matrix(1,0,0,1,249,494)" stroke-linecap="butt">
      <text x="537.625" xml:space="preserve" y="-192.5013" clip-path="url(#clipPath2)" stroke="none">dh</text>
      <rect fill="none" x="495.75" width="100" height="30" y="-212.2906" clip-path="url(#clipPath2)"/>
    </g>
    <g fill="silver" transform="matrix(1,0,0,1,249,494)" stroke="silver">
      <rect x="325.75" width="280" height="108" y="-143.7843" clip-path="url(#clipPath2)" stroke="none"/>
    </g>
    <g font-size="13" stroke-miterlimit="1.45" font-family="sans-serif" transform="matrix(1,0,0,1,249,494)" stroke-linecap="butt">
      <text x="443.8665" xml:space="preserve" y="-129.4318" clip-path="url(#clipPath2)" stroke="none">build_r</text>
      <rect fill="none" x="325.75" width="280" height="108" y="-143.7843" clip-path="url(#clipPath2)"/>
    </g>
    <g fill="rgb(238,237,237)" transform="matrix(1,0,0,1,249,494)" stroke="rgb(238,237,237)">
      <rect x="336.75" width="160" height="30" y="-121.0343" clip-path="url(#clipPath2)" stroke="none"/>
    </g>
    <g font-size="13" stroke-miterlimit="1.45" font-family="sans-serif" transform="matrix(1,0,0,1,249,494)" stroke-linecap="butt">
      <text x="380.1335" xml:space="preserve" y="-101.245" clip-path="url(#clipPath2)" stroke="none">derive_keys</text>
      <rect fill="none" x="336.75" width="160" height="30" y="-121.0343" clip-path="url(#clipPath2)"/>
    </g>
    <g fill="rgb(255,204,0)" transform="matrix(1,0,0,1,249,494)" stroke="rgb(255,204,0)">
      <rect x="496.75" width="100" height="30" y="-121.0343" clip-path="url(#clipPath2)" stroke="none"/>
    </g>
    <g font-size="13" stroke-miterlimit="1.45" font-family="sans-serif" transform="matrix(1,0,0,1,249,494)" stroke-linecap="butt">
      <text x="523.8445" xml:space="preserve" y="-101.245" clip-path="url(#clipPath2)" stroke="none">keymat</text>
      <rect fill="none" x="496.75" width="100" height="30" y="-121.0343" clip-path="url(#clipPath2)"/>
    </g>
    <g fill="white" transform="matrix(1,0,0,1,249,494)" stroke="white">
      <circle r="15" clip-path="url(#clipPath2)" cx="650.75" cy="-106.0343" stroke="none"/>
    </g>
    <g stroke-miterlimit="1.45" font-family="sans-serif" transform="matrix(1,0,0,1,249,494)" stroke-linecap="butt">
      <text x="642.3389" xml:space="preserve" y="-101.6134" clip-path="url(#clipPath2)" stroke="none">DK</text>
      <circle fill="none" r="15" clip-path="url(#clipPath2)" cx="650.75" cy="-106.0343"/>
    </g>
    <g fill="rgb(238,237,237)" transform="matrix(1,0,0,1,249,494)" stroke="rgb(238,237,237)">
      <rect x="335.75" width="260" height="30" y="-72.261" clip-path="url(#clipPath2)" stroke="none"/>
    </g>
    <g font-size="13" stroke-miterlimit="1.45" font-family="sans-serif" transform="matrix(1,0,0,1,249,494)" stroke-linecap="butt">
      <text x="418.5837" xml:space="preserve" y="-52.4717" clip-path="url(#clipPath2)" stroke="none">build_payloads</text>
      <rect fill="none" x="335.75" width="260" height="30" y="-72.261" clip-path="url(#clipPath2)"/>
    </g>
    <g fill="silver" transform="matrix(1,0,0,1,249,494)" stroke="silver">
      <rect x="325.75" width="280" height="62" y="-16.5718" clip-path="url(#clipPath2)" stroke="none"/>
    </g>
    <g font-size="13" stroke-miterlimit="1.45" font-family="sans-serif" transform="matrix(1,0,0,1,249,494)" stroke-linecap="butt">
      <text x="418.5837" xml:space="preserve" y="-2.2193" clip-path="url(#clipPath2)" stroke="none">build_payloads</text>
      <rect fill="none" x="325.75" width="280" height="62" y="-16.5718" clip-path="url(#clipPath2)"/>
    </g>
    <g fill="rgb(238,237,237)" transform="matrix(1,0,0,1,249,494)" stroke="rgb(238,237,237)">
      <rect x="336.75" width="160" height="30" y="7.9407" clip-path="url(#clipPath2)" stroke="none"/>
    </g>
    <g font-size="13" stroke-miterlimit="1.45" font-family="sans-serif" transform="matrix(1,0,0,1,249,494)" stroke-linecap="butt">
      <text x="343.7805" xml:space="preserve" y="27.73" clip-path="url(#clipPath2)" stroke="none">ke_pld_create_from_dh</text>
      <rect fill="none" x="336.75" width="160" height="30" y="7.9407" clip-path="url(#clipPath2)"/>
    </g>
    <g fill="rgb(255,204,0)" transform="matrix(1,0,0,1,249,494)" stroke="rgb(255,204,0)">
      <rect x="496.75" width="100" height="30" y="7.9407" clip-path="url(#clipPath2)" stroke="none"/>
    </g>
    <g font-size="13" stroke-miterlimit="1.45" font-family="sans-serif" transform="matrix(1,0,0,1,249,494)" stroke-linecap="butt">
      <text x="538.625" xml:space="preserve" y="27.73" clip-path="url(#clipPath2)" stroke="none">dh</text>
      <rect fill="none" x="496.75" width="100" height="30" y="7.9407" clip-path="url(#clipPath2)"/>
    </g>
    <g fill="white" transform="matrix(1,0,0,1,249,494)" stroke="white">
      <circle r="15" clip-path="url(#clipPath2)" cx="-105.5833" cy="459.0076" stroke="none"/>
    </g>
    <g stroke-miterlimit="1.45" font-family="sans-serif" transform="matrix(1,0,0,1,249,494)" stroke-linecap="butt">
      <text x="-114.2288" xml:space="preserve" y="463.4285" clip-path="url(#clipPath2)" stroke="none">CD</text>
      <circle fill="none" r="15" clip-path="url(#clipPath2)" cx="-105.5833" cy="459.0076"/>
    </g>
    <g fill="white" transform="matrix(1,0,0,1,249,494)" stroke="white">
      <circle r="15" clip-path="url(#clipPath2)" cx="-219" cy="-332.1437" stroke="none"/>
    </g>
    <g stroke-miterlimit="1.45" font-family="sans-serif" transform="matrix(1,0,0,1,249,494)" stroke-linecap="butt">
      <text x="-227.6455" xml:space="preserve" y="-327.7228" clip-path="url(#clipPath2)" stroke="none">CD</text>
      <circle fill="none" r="15" clip-path="url(#clipPath2)" cx="-219" cy="-332.1437"/>
    </g>
    <g fill="white" transform="matrix(1,0,0,1,249,494)" stroke="white">
      <circle r="15" clip-path="url(#clipPath2)" cx="650.75" cy="-247.2906" stroke="none"/>
    </g>
    <g stroke-miterlimit="1.45" font-family="sans-serif" transform="matrix(1,0,0,1,249,494)" stroke-linecap="butt">
      <text x="642.1045" xml:space="preserve" y="-242.8697" clip-path="url(#clipPath2)" stroke="none">CD</text>
      <circle fill="none" r="15" clip-path="url(#clipPath2)" cx="650.75" cy="-247.2906"/>
    </g>
    <g fill="white" transform="matrix(1,0,0,1,249,494)" stroke="white">
      <rect x="165.875" y="-446.1437" clip-path="url(#clipPath2)" width="100" rx="4" ry="4" height="30" stroke="none"/>
    </g>
    <g stroke-miterlimit="1.45" font-family="sans-serif" transform="matrix(1,0,0,1,249,494)" stroke-linecap="butt">
      <text x="190.8496" xml:space="preserve" y="-426.7228" clip-path="url(#clipPath2)" stroke="none">Message</text>
      <rect x="165.875" y="-446.1437" clip-path="url(#clipPath2)" fill="none" width="100" stroke-dasharray="6,2" rx="4" ry="4" height="30"/>
    </g>
    <g fill="rgb(240,238,234)" transform="matrix(1,0,0,1,249,494)" stroke="rgb(240,238,234)">
      <rect x="-184" width="300" height="270.3333" y="-134.1437" clip-path="url(#clipPath2)" stroke="none"/>
    </g>
    <g font-size="13" stroke-miterlimit="1.45" font-family="sans-serif" transform="matrix(1,0,0,1,249,494)" stroke-linecap="butt">
      <text x="-182" xml:space="preserve" y="-119.7912" clip-path="url(#clipPath2)" stroke="none">libcharon/sa/ikev2/tasks/ike_init.c</text>
      <rect fill="none" x="-184" width="300" height="270.3333" y="-134.1437" clip-path="url(#clipPath2)"/>
    </g>
    <g fill="silver" transform="matrix(1,0,0,1,249,494)" stroke="silver">
      <rect x="-174" width="280" height="62" y="-105.7396" clip-path="url(#clipPath2)" stroke="none"/>
    </g>
    <g font-size="13" stroke-miterlimit="1.45" font-family="sans-serif" transform="matrix(1,0,0,1,249,494)" stroke-linecap="butt">
      <text x="-63.45" xml:space="preserve" y="-91.387" clip-path="url(#clipPath2)" stroke="none">process_i</text>
      <rect fill="none" x="-174" width="280" height="62" y="-105.7396" clip-path="url(#clipPath2)"/>
    </g>
    <g fill="rgb(238,237,237)" transform="matrix(1,0,0,1,249,494)" stroke="rgb(238,237,237)">
      <rect x="-163.0833" width="260" height="30" y="-82.5896" clip-path="url(#clipPath2)" stroke="none"/>
    </g>
    <g font-size="13" stroke-miterlimit="1.45" font-family="sans-serif" transform="matrix(1,0,0,1,249,494)" stroke-linecap="butt">
      <text x="-88.5968" xml:space="preserve" y="-62.8003" clip-path="url(#clipPath2)" stroke="none">process_payloads</text>
      <rect fill="none" x="-163.0833" width="260" height="30" y="-82.5896" clip-path="url(#clipPath2)"/>
    </g>
    <g fill="white" transform="matrix(1,0,0,1,249,494)" stroke="white">
      <rect x="175.875" y="31.8694" clip-path="url(#clipPath2)" width="100" rx="4" ry="4" height="30" stroke="none"/>
    </g>
    <g stroke-miterlimit="1.45" font-family="sans-serif" transform="matrix(1,0,0,1,249,494)" stroke-linecap="butt">
      <text x="200.8496" xml:space="preserve" y="51.2903" clip-path="url(#clipPath2)" stroke="none">Message</text>
      <rect x="175.875" y="31.8694" clip-path="url(#clipPath2)" fill="none" width="100" stroke-dasharray="6,2" rx="4" ry="4" height="30"/>
    </g>
    <g fill="silver" transform="matrix(1,0,0,1,249,494)" stroke="silver">
      <rect x="-173.0833" width="280" height="62" y="-22.5896" clip-path="url(#clipPath2)" stroke="none"/>
    </g>
    <g font-size="13" stroke-miterlimit="1.45" font-family="sans-serif" transform="matrix(1,0,0,1,249,494)" stroke-linecap="butt">
      <text x="-88.5968" xml:space="preserve" y="-8.237" clip-path="url(#clipPath2)" stroke="none">process_payloads</text>
      <rect fill="none" x="-173.0833" width="280" height="62" y="-22.5896" clip-path="url(#clipPath2)"/>
    </g>
    <g fill="rgb(238,237,237)" transform="matrix(1,0,0,1,249,494)" stroke="rgb(238,237,237)">
      <rect x="-163.0833" width="160" height="30" y="-1.1146" clip-path="url(#clipPath2)" stroke="none"/>
    </g>
    <g font-size="13" stroke-miterlimit="1.45" font-family="sans-serif" transform="matrix(1,0,0,1,249,494)" stroke-linecap="butt">
      <text x="-154.7293" xml:space="preserve" y="18.6747" clip-path="url(#clipPath2)" stroke="none">set_other_public_value</text>
      <rect fill="none" x="-163.0833" width="160" height="30" y="-1.1146" clip-path="url(#clipPath2)"/>
    </g>
    <g fill="rgb(255,204,0)" transform="matrix(1,0,0,1,249,494)" stroke="rgb(255,204,0)">
      <rect x="-3.0833" width="100" height="30" y="-1.1146" clip-path="url(#clipPath2)" stroke="none"/>
    </g>
    <g font-size="13" stroke-miterlimit="1.45" font-family="sans-serif" transform="matrix(1,0,0,1,249,494)" stroke-linecap="butt">
      <text x="38.7917" xml:space="preserve" y="18.6747" clip-path="url(#clipPath2)" stroke="none">dh</text>
      <rect fill="none" x="-3.0833" width="100" height="30" y="-1.1146" clip-path="url(#clipPath2)"/>
    </g>
    <g fill="white" transform="matrix(1,0,0,1,249,494)" stroke="white">
      <circle r="15" clip-path="url(#clipPath2)" cx="151" cy="96.4917" stroke="none"/>
    </g>
    <g stroke-miterlimit="1.45" font-family="sans-serif" transform="matrix(1,0,0,1,249,494)" stroke-linecap="butt">
      <text x="142.5889" xml:space="preserve" y="100.9126" clip-path="url(#clipPath2)" stroke="none">DK</text>
      <circle fill="none" r="15" clip-path="url(#clipPath2)" cx="151" cy="96.4917"/>
    </g>
    <g fill="rgb(240,238,234)" transform="matrix(1,0,0,1,249,494)" stroke="rgb(240,238,234)">
      <rect x="-73.7917" width="300" height="99" y="214.043" clip-path="url(#clipPath2)" stroke="none"/>
    </g>
    <g font-size="13" stroke-miterlimit="1.45" font-family="sans-serif" transform="matrix(1,0,0,1,249,494)" stroke-linecap="butt">
      <text x="-71.7917" xml:space="preserve" y="228.3956" clip-path="url(#clipPath2)" stroke="none">libcharon/sa/ikev2/tasks/ike_init.c</text>
      <rect fill="none" x="-73.7917" width="300" height="99" y="214.043" clip-path="url(#clipPath2)"/>
    </g>
    <g fill="silver" transform="matrix(1,0,0,1,249,494)" stroke="silver">
      <rect x="-63.7917" width="280" height="62" y="239.5555" clip-path="url(#clipPath2)" stroke="none"/>
    </g>
    <g font-size="13" stroke-miterlimit="1.45" font-family="sans-serif" transform="matrix(1,0,0,1,249,494)" stroke-linecap="butt">
      <text x="39.5919" xml:space="preserve" y="253.9081" clip-path="url(#clipPath2)" stroke="none">derive_keys</text>
      <rect fill="none" x="-63.7917" width="280" height="62" y="239.5555" clip-path="url(#clipPath2)"/>
    </g>
    <g fill="rgb(238,237,237)" transform="matrix(1,0,0,1,249,494)" stroke="rgb(238,237,237)">
      <rect x="-53.0833" width="160" height="30" y="261.8305" clip-path="url(#clipPath2)" stroke="none"/>
    </g>
    <g font-size="13" stroke-miterlimit="1.45" font-family="sans-serif" transform="matrix(1,0,0,1,249,494)" stroke-linecap="butt">
      <text x="-22.2491" xml:space="preserve" y="281.6198" clip-path="url(#clipPath2)" stroke="none">derive_ike_keys</text>
      <rect fill="none" x="-53.0833" width="160" height="30" y="261.8305" clip-path="url(#clipPath2)"/>
    </g>
    <g fill="rgb(255,204,0)" transform="matrix(1,0,0,1,249,494)" stroke="rgb(255,204,0)">
      <rect x="106.9167" width="100" height="30" y="261.8305" clip-path="url(#clipPath2)" stroke="none"/>
    </g>
    <g font-size="13" stroke-miterlimit="1.45" font-family="sans-serif" transform="matrix(1,0,0,1,249,494)" stroke-linecap="butt">
      <text x="134.0112" xml:space="preserve" y="281.6198" clip-path="url(#clipPath2)" stroke="none">keymat</text>
      <rect fill="none" x="106.9167" width="100" height="30" y="261.8305" clip-path="url(#clipPath2)"/>
    </g>
    <g fill="rgb(240,238,234)" transform="matrix(1,0,0,1,249,494)" stroke="rgb(240,238,234)">
      <rect x="256.2083" width="300" height="154" y="190.818" clip-path="url(#clipPath2)" stroke="none"/>
    </g>
    <g font-size="13" stroke-miterlimit="1.45" font-family="sans-serif" transform="matrix(1,0,0,1,249,494)" stroke-linecap="butt">
      <text x="258.2083" xml:space="preserve" y="205.1705" clip-path="url(#clipPath2)" stroke="none">charon/sa/keymat.c</text>
      <rect fill="none" x="256.2083" width="300" height="154" y="190.818" clip-path="url(#clipPath2)"/>
    </g>
    <g fill="silver" transform="matrix(1,0,0,1,249,494)" stroke="silver">
      <rect x="266.2083" width="280" height="112" y="216.5805" clip-path="url(#clipPath2)" stroke="none"/>
    </g>
    <g font-size="13" stroke-miterlimit="1.45" font-family="sans-serif" transform="matrix(1,0,0,1,249,494)" stroke-linecap="butt">
      <text x="357.0426" xml:space="preserve" y="230.933" clip-path="url(#clipPath2)" stroke="none">derive_ike_keys</text>
      <rect fill="none" x="266.2083" width="280" height="112" y="216.5805" clip-path="url(#clipPath2)"/>
    </g>
    <g fill="white" transform="matrix(1,0,0,1,249,494)" stroke="white">
      <path d="M276.2083 239.8305 L521.2083 239.8305 L521.2083 254.8305 L536.2083 254.8305 L536.2083 313.8305 L276.2083 313.8305 Z" clip-path="url(#clipPath2)" stroke="none"/>
      <path d="M521.2083 239.8305 L521.2083 254.8305 L536.2083 254.8305 Z" clip-path="url(#clipPath2)" fill-rule="evenodd" stroke="none"/>
    </g>
    <g stroke-linecap="butt" transform="matrix(1,0,0,1,249,494)" stroke-miterlimit="1.45">
      <path fill="none" d="M276.2083 239.8305 L521.2083 239.8305 L521.2083 254.8305 L536.2083 254.8305 L536.2083 313.8305 L276.2083 313.8305 Z" clip-path="url(#clipPath2)"/>
      <path fill="none" d="M521.2083 239.8305 L521.2083 254.8305 L536.2083 254.8305 Z" fill-rule="evenodd" clip-path="url(#clipPath2)"/>
      <text x="278.5589" xml:space="preserve" y="267.2885" font-family="sans-serif" clip-path="url(#clipPath2)" stroke="none">Input: proposal, dh, nonces, id, prf_alg, skd</text>
      <text x="281.474" xml:space="preserve" y="281.2514" font-family="sans-serif" clip-path="url(#clipPath2)" stroke="none">derive keys from shared DH secret, nonces</text>
      <text x="310.1703" xml:space="preserve" y="295.2143" font-family="sans-serif" clip-path="url(#clipPath2)" stroke="none">and store in given keymat struct </text>
    </g>
    <g fill="white" transform="matrix(1,0,0,1,249,494)" stroke="white">
      <circle r="15" clip-path="url(#clipPath2)" cx="-105.5833" cy="270.5555" stroke="none"/>
    </g>
    <g stroke-miterlimit="1.45" font-family="sans-serif" transform="matrix(1,0,0,1,249,494)" stroke-linecap="butt">
      <text x="-113.9945" xml:space="preserve" y="274.9764" clip-path="url(#clipPath2)" stroke="none">DK</text>
      <circle fill="none" r="15" clip-path="url(#clipPath2)" cx="-105.5833" cy="270.5555"/>
    </g>
    <g fill="silver" transform="matrix(1,0,0,1,249,494)" stroke="silver">
      <rect x="-174" width="280" height="62" y="59.3729" clip-path="url(#clipPath2)" stroke="none"/>
    </g>
    <g font-size="13" stroke-miterlimit="1.45" font-family="sans-serif" transform="matrix(1,0,0,1,249,494)" stroke-linecap="butt">
      <text x="-63.45" xml:space="preserve" y="73.7255" clip-path="url(#clipPath2)" stroke="none">process_i</text>
      <rect fill="none" x="-174" width="280" height="62" y="59.3729" clip-path="url(#clipPath2)"/>
    </g>
    <g fill="rgb(238,237,237)" transform="matrix(1,0,0,1,249,494)" stroke="rgb(238,237,237)">
      <rect x="-163.0833" width="160" height="30" y="81.4917" clip-path="url(#clipPath2)" stroke="none"/>
    </g>
    <g font-size="13" stroke-miterlimit="1.45" font-family="sans-serif" transform="matrix(1,0,0,1,249,494)" stroke-linecap="butt">
      <text x="-119.6998" xml:space="preserve" y="101.281" clip-path="url(#clipPath2)" stroke="none">derive_keys</text>
      <rect fill="none" x="-163.0833" width="160" height="30" y="81.4917" clip-path="url(#clipPath2)"/>
    </g>
    <g fill="rgb(255,204,0)" transform="matrix(1,0,0,1,249,494)" stroke="rgb(255,204,0)">
      <rect x="-3.0833" width="100" height="30" y="81.4917" clip-path="url(#clipPath2)" stroke="none"/>
    </g>
    <g font-size="13" stroke-miterlimit="1.45" font-family="sans-serif" transform="matrix(1,0,0,1,249,494)" stroke-linecap="butt">
      <text x="24.0111" xml:space="preserve" y="101.281" clip-path="url(#clipPath2)" stroke="none">keymat</text>
      <rect fill="none" x="-3.0833" width="100" height="30" y="81.4917" clip-path="url(#clipPath2)"/>
      <path fill="none" d="M109.4167 459.0076 L156.4167 459.0076" clip-path="url(#clipPath2)"/>
      <path d="M164.4167 459.0076 L152.4167 454.0076 L155.4167 459.0076 L152.4167 464.0076 Z" clip-path="url(#clipPath2)" stroke="none"/>
      <path fill="none" d="M-35.5815 -372.1082 L-35.5815 -355.1227" clip-path="url(#clipPath2)"/>
      <path d="M-35.5815 -347.1227 L-30.5815 -359.1227 L-35.5815 -356.1227 L-40.5815 -359.1227 Z" clip-path="url(#clipPath2)" stroke="none"/>
      <path fill="none" d="M-34 -317.1851 L-34 -300.1437" clip-path="url(#clipPath2)"/>
      <path d="M-34 -292.1437 L-29 -304.1437 L-34 -301.1437 L-39 -304.1437 Z" clip-path="url(#clipPath2)" stroke="none"/>
      <path fill="none" d="M-34 -262.1437 L-34 -244.6562" clip-path="url(#clipPath2)"/>
      <path d="M-34 -236.6562 L-29 -248.6562 L-34 -245.6562 L-39 -248.6562 Z" clip-path="url(#clipPath2)" stroke="none"/>
      <path fill="none" d="M-34 -256.2708 L-34 -244.6721" clip-path="url(#clipPath2)"/>
      <path d="M-34 -236.6721 L-29 -248.6721 L-34 -245.6721 L-39 -248.6721 Z" clip-path="url(#clipPath2)" stroke="none"/>
      <path fill="none" d="M465.75 -367.2906 L465.75 -345.7906" clip-path="url(#clipPath2)"/>
      <path d="M465.75 -337.7906 L470.75 -349.7906 L465.75 -346.7906 L460.75 -349.7906 Z" clip-path="url(#clipPath2)" stroke="none"/>
      <path fill="none" d="M465.297 -282.2538 L465.297 -270.2952" clip-path="url(#clipPath2)"/>
      <path d="M465.297 -262.2952 L470.297 -274.2952 L465.297 -271.2952 L460.297 -274.2952 Z" clip-path="url(#clipPath2)" stroke="none"/>
      <path fill="none" d="M466.0084 -232.2883 L466.0084 -220.2928" clip-path="url(#clipPath2)"/>
      <path d="M466.0084 -212.2928 L471.0084 -224.2928 L466.0084 -221.2928 L461.0084 -224.2928 Z" clip-path="url(#clipPath2)" stroke="none"/>
      <path fill="none" stroke-dasharray="6,2" d="M465.75 -169.7906 L465.75 -151.7843" clip-path="url(#clipPath2)"/>
      <path stroke-dasharray="6,2" d="M465.75 -143.7843 L470.75 -155.7843 L465.75 -152.7843 L460.75 -155.7843 Z" clip-path="url(#clipPath2)" stroke="none"/>
      <text x="469.75" xml:space="preserve" font-size="12" y="-152.3665" clip-path="url(#clipPath2)" stroke="none">NEED_MORE</text>
      <path fill="none" d="M596.75 -106.0343 L627.75 -106.0343" clip-path="url(#clipPath2)"/>
      <path d="M635.75 -106.0343 L623.75 -111.0343 L626.75 -106.0343 L623.75 -101.0343 Z" clip-path="url(#clipPath2)" stroke="none"/>
      <path fill="none" d="M465.75 -91.0139 L465.75 -80.261" clip-path="url(#clipPath2)"/>
      <path d="M465.75 -72.261 L470.75 -84.261 L465.75 -81.261 L460.75 -84.261 Z" clip-path="url(#clipPath2)" stroke="none"/>
      <path fill="none" d="M465.75 -42.261 L465.75 -24.5718" clip-path="url(#clipPath2)"/>
      <path d="M465.75 -16.5718 L470.75 -28.5718 L465.75 -25.5718 L460.75 -28.5718 Z" clip-path="url(#clipPath2)" stroke="none"/>
      <path fill="none" d="M-90.5833 459.0076 L-58.5833 459.0076" clip-path="url(#clipPath2)"/>
      <path d="M-50.5833 459.0076 L-62.5833 454.0076 L-59.5833 459.0076 L-62.5833 464.0076 Z" clip-path="url(#clipPath2)" stroke="none"/>
      <path fill="none" d="M-164 -332.1437 L-196 -332.1437" clip-path="url(#clipPath2)"/>
      <path d="M-204 -332.1437 L-192 -327.1437 L-195 -332.1437 L-192 -337.1437 Z" clip-path="url(#clipPath2)" stroke="none"/>
      <path fill="none" d="M595.75 -247.2906 L627.75 -247.2906" clip-path="url(#clipPath2)"/>
      <path d="M635.75 -247.2906 L623.75 -252.2906 L626.75 -247.2906 L623.75 -242.2906 Z" clip-path="url(#clipPath2)" stroke="none"/>
      <path fill="none" stroke-dasharray="6,2" d="M136.0282 -431.1437 L165.8538 -431.1437" clip-path="url(#clipPath2)"/>
      <path fill="none" stroke-dasharray="6,2" d="M265.8447 -431.1437 L287.7348 -431.1437" clip-path="url(#clipPath2)"/>
      <path stroke-dasharray="6,2" d="M295.7348 -431.1437 L283.7348 -436.1437 L286.7348 -431.1437 L283.7348 -426.1437 Z" clip-path="url(#clipPath2)" stroke="none"/>
      <path fill="none" stroke-dasharray="6,2" d="M-34 -164.1438 L-34 -142.1438" clip-path="url(#clipPath2)"/>
      <path stroke-dasharray="6,2" d="M-34 -134.1438 L-29 -146.1438 L-34 -143.1438 L-39 -146.1438 Z" clip-path="url(#clipPath2)" stroke="none"/>
      <text x="-30" xml:space="preserve" font-size="12" y="-144.7229" clip-path="url(#clipPath2)" stroke="none">NEED_MORE</text>
      <path fill="none" stroke-dasharray="6,2" d="M295.7299 46.8694 L275.8445 46.8694" clip-path="url(#clipPath2)"/>
      <path fill="none" stroke-dasharray="6,2" d="M175.8905 46.8694 L144.0384 46.8694" clip-path="url(#clipPath2)"/>
      <path stroke-dasharray="6,2" d="M136.0384 46.8694 L148.0384 51.8694 L145.0384 46.8694 L148.0384 41.8694 Z" clip-path="url(#clipPath2)" stroke="none"/>
      <path fill="none" d="M-33.0833 -52.5896 L-33.0833 -30.5896" clip-path="url(#clipPath2)"/>
      <path d="M-33.0833 -22.5896 L-28.0833 -34.5896 L-33.0833 -31.5896 L-38.0833 -34.5896 Z" clip-path="url(#clipPath2)" stroke="none"/>
      <path fill="none" d="M206.9167 276.8305 L268.2503 276.8305" clip-path="url(#clipPath2)"/>
      <path d="M276.2503 276.8305 L264.2503 271.8305 L267.2503 276.8305 L264.2503 281.8305 Z" clip-path="url(#clipPath2)" stroke="none"/>
      <path fill="none" d="M-90.5833 270.5555 L-71.7917 270.5555" clip-path="url(#clipPath2)"/>
      <path d="M-63.7917 270.5555 L-75.7917 265.5555 L-72.7917 270.5555 L-75.7917 275.5555 Z" clip-path="url(#clipPath2)" stroke="none"/>
      <path fill="none" d="M-33.43 39.4104 L-33.5638 51.3734" clip-path="url(#clipPath2)"/>
      <path d="M-33.6533 59.3729 L-28.5194 47.4296 L-33.5527 50.3735 L-38.5188 47.3178 Z" clip-path="url(#clipPath2)" stroke="none"/>
      <path fill="none" d="M96.9167 96.4917 L128 96.4917" clip-path="url(#clipPath2)"/>
      <path d="M136 96.4917 L124 91.4917 L127 96.4917 L124 101.4917 Z" clip-path="url(#clipPath2)" stroke="none"/>
    </g>
  </g>
</svg>
