<?xml version="1.0" encoding="UTF-8"?>
<svg xmlns="http://www.w3.org/2000/svg" xmlns:xlink="http://www.w3.org/1999/xlink" fill-opacity="1" color-rendering="auto" color-interpolation="auto" stroke="black" text-rendering="auto" stroke-linecap="square" width="572" stroke-miterlimit="10" stroke-opacity="1" shape-rendering="auto" fill="black" stroke-dasharray="none" font-weight="normal" stroke-width="1" height="236" font-family="'Dialog'" font-style="normal" stroke-linejoin="miter" font-size="12" stroke-dashoffset="0" image-rendering="auto">
  <!--Generated by ySVG-->
  <defs id="genericDefs"/>
  <g>
    <defs id="defs1">
      <clipPath clipPathUnits="userSpaceOnUse" id="clipPath1">
        <path d="M0 0 L572 0 L572 236 L0 236 L0 0 Z"/>
      </clipPath>
      <clipPath clipPathUnits="userSpaceOnUse" id="clipPath2">
        <path d="M175 398 L747 398 L747 634 L175 634 L175 398 Z"/>
      </clipPath>
    </defs>
    <g fill="white" transform="translate(-175,-398)" stroke="white">
      <rect x="175" width="572" height="236" y="398" clip-path="url(#clipPath2)" stroke="none"/>
    </g>
    <g fill="white" transform="matrix(1,0,0,1,-175,-398)" stroke="white">
      <rect x="218.1947" y="413.5469" clip-path="url(#clipPath2)" width="397.2505" rx="4" ry="4" height="204.726" stroke="none"/>
    </g>
    <g stroke-miterlimit="1.45" font-family="sans-serif" transform="matrix(1,0,0,1,-175,-398)" stroke-linecap="butt">
      <text x="392.691" xml:space="preserve" y="430.9492" clip-path="url(#clipPath2)" stroke="none">tkm-rpc</text>
    </g>
    <g stroke-dasharray="0,4" stroke-miterlimit="1.45" stroke-dashoffset="2" transform="matrix(1,0,0,1,-175,-398)" stroke-linecap="round">
      <rect x="218.1947" y="413.5469" clip-path="url(#clipPath2)" fill="none" width="397.2505" rx="4" ry="4" height="204.726"/>
    </g>
    <g fill="rgb(206,222,226)" transform="matrix(1,0,0,1,-175,-398)" stroke="rgb(206,222,226)">
      <rect x="190.1947" width="61" height="115" y="460.4098" clip-path="url(#clipPath2)" stroke="none"/>
    </g>
    <g stroke-miterlimit="1.45" font-family="sans-serif" transform="matrix(1,0,0,1,-175,-398)" stroke-linecap="butt">
      <text x="203.764" xml:space="preserve" y="515.3493" clip-path="url(#clipPath2)" stroke="none">Client</text>
      <text x="195.2591" xml:space="preserve" y="529.3122" clip-path="url(#clipPath2)" stroke="none">interface</text>
      <rect fill="none" x="190.1947" width="61" height="115" y="460.4098" clip-path="url(#clipPath2)"/>
    </g>
    <g fill="rgb(206,222,226)" transform="matrix(1,0,0,1,-175,-398)" stroke="rgb(206,222,226)">
      <rect x="582.4451" width="61" height="115" y="460.4098" clip-path="url(#clipPath2)" stroke="none"/>
    </g>
    <g stroke-miterlimit="1.45" font-family="sans-serif" transform="matrix(1,0,0,1,-175,-398)" stroke-linecap="butt">
      <text x="595.0125" xml:space="preserve" y="515.3493" clip-path="url(#clipPath2)" stroke="none">Server</text>
      <text x="587.5096" xml:space="preserve" y="529.3122" clip-path="url(#clipPath2)" stroke="none">interface</text>
      <rect fill="none" x="582.4451" width="61" height="115" y="460.4098" clip-path="url(#clipPath2)"/>
    </g>
    <g fill="white" transform="matrix(1,0,0,1,-175,-398)" stroke="white">
      <rect x="392.8199" y="499.3606" clip-path="url(#clipPath2)" width="48" rx="4" ry="4" height="37.0984" stroke="none"/>
    </g>
    <g stroke-miterlimit="1.45" font-family="sans-serif" transform="matrix(1,0,0,1,-175,-398)" stroke-linecap="butt">
      <text x="402.7457" xml:space="preserve" y="515.3493" clip-path="url(#clipPath2)" stroke="none">UNIX</text>
      <text x="397.9088" xml:space="preserve" y="529.3122" clip-path="url(#clipPath2)" stroke="none">socket</text>
      <rect x="392.8199" y="499.3606" clip-path="url(#clipPath2)" fill="none" width="48" rx="4" ry="4" height="37.0984"/>
      <path fill="none" d="M651.3381 548.7548 L651.4378 548.7469 L653.956 548.0994 L656.8602 547.0364 L662.2298 544.1219 L666.9081 540.262 L670.768 535.5837 L673.6825 530.2142 L674.7455 527.3099 L675.5244 524.2805 L676.0035 521.1418 L676.1666 517.9099 L676.0035 514.6778 L675.5244 511.5392 L674.7455 508.5098 L673.6825 505.6055 L670.768 500.236 L666.9081 495.5576 L662.2297 491.6977 L656.8602 488.7832 L653.9559 487.7202 L650.9266 486.9413 L647.7879 486.4623 L644.5559 486.2991 L643.4702 486.3539" clip-path="url(#clipPath2)"/>
      <path d="M643.3706 549.4747 L655.7719 553.3745 L652.3341 548.6647 L654.8719 543.415 Z" clip-path="url(#clipPath2)" stroke="none"/>
      <text x="687.5833" xml:space="preserve" y="514.3493" clip-path="url(#clipPath2)" stroke="none">Service</text>
      <text x="685.925" xml:space="preserve" y="528.3122" clip-path="url(#clipPath2)" stroke="none">request</text>
      <path fill="none" d="M251.1967 491.3802 L339.1667 491.3802 L385.2483 507.1236" clip-path="url(#clipPath2)"/>
      <path d="M392.8187 509.71 L383.0796 501.0989 L384.302 506.8003 L379.8466 510.5619 Z" clip-path="url(#clipPath2)" stroke="none"/>
      <text x="274.825" xml:space="preserve" y="458.8196" clip-path="url(#clipPath2)" stroke="none">Marshal call to</text>
      <text x="275.3846" xml:space="preserve" y="472.7825" clip-path="url(#clipPath2)" stroke="none">request object</text>
      <path fill="none" d="M582.4198 548.4852 L507.1667 548.4852 L448.4402 528.6108" clip-path="url(#clipPath2)"/>
      <path d="M440.8624 526.0463 L450.6263 534.6292 L449.3875 528.9314 L453.8319 525.157 Z" clip-path="url(#clipPath2)" stroke="none"/>
      <text x="505.3176" xml:space="preserve" y="569.9044" clip-path="url(#clipPath2)" stroke="none">Marshal</text>
      <text x="501.6409" xml:space="preserve" y="583.8673" clip-path="url(#clipPath2)" stroke="none">response</text>
      <path fill="none" d="M440.836 509.0002 L513.1667 482.1667 L574.4089 482.1667" clip-path="url(#clipPath2)"/>
      <path d="M582.4089 482.1667 L570.4089 477.1667 L573.4089 482.1667 L570.4089 487.1667 Z" clip-path="url(#clipPath2)" stroke="none"/>
      <text x="442.8206" xml:space="preserve" y="461.6432" clip-path="url(#clipPath2)" stroke="none">Unmarshal request</text>
      <text x="430.4719" xml:space="preserve" y="475.6061" clip-path="url(#clipPath2)" stroke="none">and dispatch operation</text>
      <path fill="none" d="M392.8069 527.5234 L334.1667 550.9999 L259.2004 550.9999" clip-path="url(#clipPath2)"/>
      <path d="M251.2004 550.9999 L263.2004 555.9999 L260.2004 550.9999 L263.2004 545.9999 Z" clip-path="url(#clipPath2)" stroke="none"/>
      <text x="274.7438" xml:space="preserve" y="575.4431" clip-path="url(#clipPath2)" stroke="none">Unmarshal response</text>
      <text x="271.8288" xml:space="preserve" y="589.4059" clip-path="url(#clipPath2)" stroke="none">and match to request</text>
    </g>
  </g>
</svg>
