<?xml version="1.0" encoding="UTF-8"?>
<svg xmlns="http://www.w3.org/2000/svg" xmlns:xlink="http://www.w3.org/1999/xlink" fill-opacity="1" color-rendering="auto" color-interpolation="auto" stroke="black" text-rendering="auto" stroke-linecap="square" width="541" stroke-miterlimit="10" stroke-opacity="1" shape-rendering="auto" fill="black" stroke-dasharray="none" font-weight="normal" stroke-width="1" height="534" font-family="'Dialog'" font-style="normal" stroke-linejoin="miter" font-size="12" stroke-dashoffset="0" image-rendering="auto">
  <!--Generated by ySVG-->
  <defs id="genericDefs"/>
  <g>
    <defs id="defs1">
      <clipPath clipPathUnits="userSpaceOnUse" id="clipPath1">
        <path d="M0 0 L541 0 L541 534 L0 534 L0 0 Z"/>
      </clipPath>
      <clipPath clipPathUnits="userSpaceOnUse" id="clipPath2">
        <path d="M177 68 L718 68 L718 602 L177 602 L177 68 Z"/>
      </clipPath>
    </defs>
    <g fill="white" transform="translate(-177,-68)" stroke="white">
      <rect x="177" width="541" height="534" y="68" clip-path="url(#clipPath2)" stroke="none"/>
    </g>
    <g fill="rgb(240,238,234)" transform="matrix(1,0,0,1,-177,-68)" stroke="rgb(240,238,234)">
      <rect x="493" width="210" height="156" y="109" clip-path="url(#clipPath2)" stroke="none"/>
    </g>
    <g font-size="13" stroke-miterlimit="1.45" font-family="sans-serif" transform="matrix(1,0,0,1,-177,-68)" stroke-linecap="butt">
      <text x="495" xml:space="preserve" y="123.3525" clip-path="url(#clipPath2)" stroke="none">lib/crypto/crypto_factory.c</text>
      <rect fill="none" x="493" width="210" height="156" y="109" clip-path="url(#clipPath2)"/>
    </g>
    <g fill="white" transform="matrix(1,0,0,1,-177,-68)" stroke="white">
      <rect x="192.5" y="83.5" clip-path="url(#clipPath2)" width="276.176" rx="4" ry="4" height="194" stroke="none"/>
    </g>
    <g font-size="13" stroke-linecap="butt" transform="matrix(1,0,0,1,-177,-68)" fill="gray" font-family="sans-serif" stroke="gray" stroke-miterlimit="1.45">
      <text x="194.5" xml:space="preserve" y="97.8525" clip-path="url(#clipPath2)" stroke="none">IKE_SA_INIT</text>
    </g>
    <g stroke-linecap="round" transform="matrix(1,0,0,1,-177,-68)" stroke-dashoffset="2" fill="gray" stroke-dasharray="0,4" stroke="gray" stroke-miterlimit="1.45">
      <rect x="192.5" y="83.5" clip-path="url(#clipPath2)" fill="none" width="276.176" rx="4" ry="4" height="194"/>
    </g>
    <g fill="rgb(240,238,234)" transform="matrix(1,0,0,1,-177,-68)" stroke="rgb(240,238,234)">
      <rect x="210" width="241.232" height="156" y="109" clip-path="url(#clipPath2)" stroke="none"/>
    </g>
    <g font-size="13" stroke-miterlimit="1.45" font-family="sans-serif" transform="matrix(1,0,0,1,-177,-68)" stroke-linecap="butt">
      <text x="212" xml:space="preserve" y="123.3525" clip-path="url(#clipPath2)" stroke="none">libcharon/sa/ikev2/tasks/ike_init.c</text>
      <rect fill="none" x="210" width="241.232" height="156" y="109" clip-path="url(#clipPath2)"/>
    </g>
    <g fill="silver" transform="matrix(1,0,0,1,-177,-68)" stroke="silver">
      <rect x="225" width="210" height="114" y="134.5" clip-path="url(#clipPath2)" stroke="none"/>
    </g>
    <g font-size="13" stroke-miterlimit="1.45" font-family="sans-serif" transform="matrix(1,0,0,1,-177,-68)" stroke-linecap="butt">
      <text x="275.2578" xml:space="preserve" y="148.8525" clip-path="url(#clipPath2)" stroke="none">build_i/process_r</text>
      <rect fill="none" x="225" width="210" height="114" y="134.5" clip-path="url(#clipPath2)"/>
    </g>
    <g fill="rgb(238,237,237)" transform="matrix(1,0,0,1,-177,-68)" stroke="rgb(238,237,237)">
      <rect x="235" width="189.184" height="30" y="161" clip-path="url(#clipPath2)" stroke="none"/>
    </g>
    <g font-size="13" stroke-miterlimit="1.45" font-family="sans-serif" transform="matrix(1,0,0,1,-177,-68)" stroke-linecap="butt">
      <text x="257.4445" xml:space="preserve" y="180.7893" clip-path="url(#clipPath2)" stroke="none">create_rng(RNG_WEAK)</text>
      <rect fill="none" x="235" width="189.184" height="30" y="161" clip-path="url(#clipPath2)"/>
    </g>
    <g fill="rgb(238,237,237)" transform="matrix(1,0,0,1,-177,-68)" stroke="rgb(238,237,237)">
      <rect x="235" width="189.184" height="30" y="211" clip-path="url(#clipPath2)" stroke="none"/>
    </g>
    <g font-size="13" stroke-miterlimit="1.45" font-family="sans-serif" transform="matrix(1,0,0,1,-177,-68)" stroke-linecap="butt">
      <text x="265.5029" xml:space="preserve" y="230.7893" clip-path="url(#clipPath2)" stroke="none">rng-&gt;allocate_bytes</text>
      <rect fill="none" x="235" width="189.184" height="30" y="211" clip-path="url(#clipPath2)"/>
    </g>
    <g fill="white" transform="matrix(1,0,0,1,-177,-68)" stroke="white">
      <rect x="192.5" y="306.5" clip-path="url(#clipPath2)" width="276.176" rx="4" ry="4" height="280" stroke="none"/>
    </g>
    <g font-size="13" stroke-linecap="butt" transform="matrix(1,0,0,1,-177,-68)" fill="gray" font-family="sans-serif" stroke="gray" stroke-miterlimit="1.45">
      <text x="194.5" xml:space="preserve" y="320.8525" clip-path="url(#clipPath2)" stroke="none">CREATE_CHILD_SA</text>
    </g>
    <g stroke-linecap="round" transform="matrix(1,0,0,1,-177,-68)" stroke-dashoffset="2" fill="gray" stroke-dasharray="0,4" stroke="gray" stroke-miterlimit="1.45">
      <rect x="192.5" y="306.5" clip-path="url(#clipPath2)" fill="none" width="276.176" rx="4" ry="4" height="280"/>
    </g>
    <g fill="rgb(240,238,234)" transform="matrix(1,0,0,1,-177,-68)" stroke="rgb(240,238,234)">
      <rect x="210" width="241.232" height="243" y="332" clip-path="url(#clipPath2)" stroke="none"/>
    </g>
    <g font-size="13" stroke-miterlimit="1.45" font-family="sans-serif" transform="matrix(1,0,0,1,-177,-68)" stroke-linecap="butt">
      <text x="212" xml:space="preserve" y="346.3525" clip-path="url(#clipPath2)" stroke="none">libch.../sa/ikev2/tasks/child_create.c</text>
      <rect fill="none" x="210" width="241.232" height="243" y="332" clip-path="url(#clipPath2)"/>
    </g>
    <g fill="silver" transform="matrix(1,0,0,1,-177,-68)" stroke="silver">
      <rect x="225" width="210" height="66" y="358.5" clip-path="url(#clipPath2)" stroke="none"/>
    </g>
    <g font-size="13" stroke-miterlimit="1.45" font-family="sans-serif" transform="matrix(1,0,0,1,-177,-68)" stroke-linecap="butt">
      <text x="283.605" xml:space="preserve" y="372.8525" clip-path="url(#clipPath2)" stroke="none">build_i/build_r</text>
      <rect fill="none" x="225" width="210" height="66" y="358.5" clip-path="url(#clipPath2)"/>
    </g>
    <g fill="rgb(238,237,237)" transform="matrix(1,0,0,1,-177,-68)" stroke="rgb(238,237,237)">
      <rect x="235" width="189.184" height="30" y="384" clip-path="url(#clipPath2)" stroke="none"/>
    </g>
    <g font-size="13" stroke-miterlimit="1.45" font-family="sans-serif" transform="matrix(1,0,0,1,-177,-68)" stroke-linecap="butt">
      <text x="279.6994" xml:space="preserve" y="403.7893" clip-path="url(#clipPath2)" stroke="none">generate_nonce</text>
      <rect fill="none" x="235" width="189.184" height="30" y="384" clip-path="url(#clipPath2)"/>
    </g>
    <g fill="silver" transform="matrix(1,0,0,1,-177,-68)" stroke="silver">
      <rect x="225" width="210" height="114" y="445" clip-path="url(#clipPath2)" stroke="none"/>
    </g>
    <g font-size="13" stroke-miterlimit="1.45" font-family="sans-serif" transform="matrix(1,0,0,1,-177,-68)" stroke-linecap="butt">
      <text x="280.1074" xml:space="preserve" y="459.3525" clip-path="url(#clipPath2)" stroke="none">generate_nonce</text>
      <rect fill="none" x="225" width="210" height="114" y="445" clip-path="url(#clipPath2)"/>
    </g>
    <g fill="rgb(238,237,237)" transform="matrix(1,0,0,1,-177,-68)" stroke="rgb(238,237,237)">
      <rect x="235" width="189.184" height="30" y="468" clip-path="url(#clipPath2)" stroke="none"/>
    </g>
    <g font-size="13" stroke-miterlimit="1.45" font-family="sans-serif" transform="matrix(1,0,0,1,-177,-68)" stroke-linecap="butt">
      <text x="257.4445" xml:space="preserve" y="487.7893" clip-path="url(#clipPath2)" stroke="none">create_rng(RNG_WEAK)</text>
      <rect fill="none" x="235" width="189.184" height="30" y="468" clip-path="url(#clipPath2)"/>
    </g>
    <g fill="rgb(238,237,237)" transform="matrix(1,0,0,1,-177,-68)" stroke="rgb(238,237,237)">
      <rect x="235" width="189.184" height="30" y="521" clip-path="url(#clipPath2)" stroke="none"/>
    </g>
    <g font-size="13" stroke-miterlimit="1.45" font-family="sans-serif" transform="matrix(1,0,0,1,-177,-68)" stroke-linecap="butt">
      <text x="265.5029" xml:space="preserve" y="540.7893" clip-path="url(#clipPath2)" stroke="none">rng-&gt;allocate_bytes</text>
      <rect fill="none" x="235" width="189.184" height="30" y="521" clip-path="url(#clipPath2)"/>
    </g>
    <g fill="silver" transform="matrix(1,0,0,1,-177,-68)" stroke="silver">
      <rect x="508" width="180" height="114" y="136" clip-path="url(#clipPath2)" stroke="none"/>
    </g>
    <g font-size="13" stroke-miterlimit="1.45" font-family="sans-serif" transform="matrix(1,0,0,1,-177,-68)" stroke-linecap="butt">
      <text x="564.751" xml:space="preserve" y="150.3525" clip-path="url(#clipPath2)" stroke="none">create_rng</text>
      <rect fill="none" x="508" width="180" height="114" y="136" clip-path="url(#clipPath2)"/>
    </g>
    <g fill="white" transform="matrix(1,0,0,1,-177,-68)" stroke="white">
      <path d="M518 161.9875 L663 161.9875 L663 176.9875 L678 176.9875 L678 236.9875 L518 236.9875 Z" clip-path="url(#clipPath2)" stroke="none"/>
      <path d="M663 161.9875 L663 176.9875 L678 176.9875 Z" clip-path="url(#clipPath2)" fill-rule="evenodd" stroke="none"/>
    </g>
    <g stroke-linecap="butt" transform="matrix(1,0,0,1,-177,-68)" stroke-miterlimit="1.45">
      <path fill="none" d="M518 161.9875 L663 161.9875 L663 176.9875 L678 176.9875 L678 236.9875 L518 236.9875 Z" clip-path="url(#clipPath2)"/>
      <path fill="none" d="M663 161.9875 L663 176.9875 L678 176.9875 Z" fill-rule="evenodd" clip-path="url(#clipPath2)"/>
      <text x="531.9766" xml:space="preserve" y="189.9455" font-family="sans-serif" clip-path="url(#clipPath2)" stroke="none">find the best matching</text>
      <text x="533.4795" xml:space="preserve" y="203.9084" font-family="sans-serif" clip-path="url(#clipPath2)" stroke="none">quality, but at least as</text>
      <text x="543.8799" xml:space="preserve" y="217.8713" font-family="sans-serif" clip-path="url(#clipPath2)" stroke="none">good as requested</text>
      <path fill="none" d="M329.592 191 L329.592 203" clip-path="url(#clipPath2)"/>
      <path d="M329.592 211 L334.592 199 L329.592 202 L324.592 199 Z" clip-path="url(#clipPath2)" stroke="none"/>
      <path fill="none" d="M329.6514 414 L329.7425 437.0001" clip-path="url(#clipPath2)"/>
      <path d="M329.7742 445 L334.7266 432.9803 L329.7386 436.0001 L324.7267 433.0199 Z" clip-path="url(#clipPath2)" stroke="none"/>
      <path fill="none" d="M329.592 498 L329.592 513" clip-path="url(#clipPath2)"/>
      <path d="M329.592 521 L334.592 509 L329.592 512 L324.592 509 Z" clip-path="url(#clipPath2)" stroke="none"/>
      <path fill="none" d="M424.184 483 L598 483 L598 258" clip-path="url(#clipPath2)"/>
      <path d="M598 250 L593 262 L598 259 L603 262 Z" clip-path="url(#clipPath2)" stroke="none"/>
      <path fill="none" d="M424.184 176 L499.9922 176" clip-path="url(#clipPath2)"/>
      <path d="M507.9922 176 L495.9922 171 L498.9922 176 L495.9922 181 Z" clip-path="url(#clipPath2)" stroke="none"/>
    </g>
  </g>
</svg>
