<?xml version="1.0" encoding="UTF-8"?><svg xmlns="http://www.w3.org/2000/svg" xmlns:xlink="http://www.w3.org/1999/xlink" fill-opacity="1" color-rendering="auto" color-interpolation="auto" stroke="black" text-rendering="auto" stroke-linecap="square" width="976" stroke-miterlimit="10" stroke-opacity="1" shape-rendering="auto" fill="black" stroke-dasharray="none" font-weight="normal" stroke-width="1" height="621" font-family="'Dialog'" font-style="normal" stroke-linejoin="miter" font-size="12" stroke-dashoffset="0" image-rendering="auto">
  <!--Generated by ySVG-->
  <defs id="genericDefs"/>
  <g>
    <defs id="defs1">
      <clipPath clipPathUnits="userSpaceOnUse" id="clipPath1">
        <path d="M0 0 L976 0 L976 621 L0 621 L0 0 Z"/>
      </clipPath>
      <clipPath clipPathUnits="userSpaceOnUse" id="clipPath2">
        <path d="M483 110 L1459 110 L1459 731 L483 731 L483 110 Z"/>
      </clipPath>
    </defs>
    <g fill="white" transform="translate(-483,-110)" stroke="white">
      <rect x="483" width="976" height="621" y="110" clip-path="url(#clipPath2)" stroke="none"/>
    </g>
    <g fill="rgb(240,238,234)" transform="matrix(1,0,0,1,-483,-110)" stroke="rgb(240,238,234)">
      <rect x="1145.3333" width="298" height="417.362" y="298.1468" clip-path="url(#clipPath2)" stroke="none"/>
    </g>
    <g font-size="13" stroke-miterlimit="1.45" font-family="sans-serif" transform="matrix(1,0,0,1,-483,-110)" stroke-linecap="butt">
      <text x="1147.3334" xml:space="preserve" y="312.2137" clip-path="url(#clipPath2)" stroke="none">libcharon/encoding/message.c</text>
      <rect fill="none" x="1145.3333" width="298" height="417.362" y="298.1468" clip-path="url(#clipPath2)"/>
    </g>
    <g fill="silver" transform="matrix(1,0,0,1,-483,-110)" stroke="silver">
      <rect x="1155" width="280" height="144.8133" y="565.4837" clip-path="url(#clipPath2)" stroke="none"/>
    </g>
    <g font-size="13" stroke-miterlimit="1.45" font-family="sans-serif" transform="matrix(1,0,0,1,-483,-110)" stroke-linecap="butt">
      <text x="1265.5532" xml:space="preserve" y="579.5506" clip-path="url(#clipPath2)" stroke="none">generate</text>
      <rect fill="none" x="1155" width="280" height="144.8133" y="565.4837" clip-path="url(#clipPath2)"/>
    </g>
    <g fill="rgb(240,238,234)" transform="matrix(1,0,0,1,-483,-110)" stroke="rgb(240,238,234)">
      <rect x="826.3333" width="298" height="203.8312" y="178.5313" clip-path="url(#clipPath2)" stroke="none"/>
    </g>
    <g font-size="13" stroke-miterlimit="1.45" font-family="sans-serif" transform="matrix(1,0,0,1,-483,-110)" stroke-linecap="butt">
      <text x="828.3333" xml:space="preserve" y="192.5981" clip-path="url(#clipPath2)" stroke="none">libcharon/sa/ike_sa.c</text>
      <rect fill="none" x="826.3333" width="298" height="203.8312" y="178.5313" clip-path="url(#clipPath2)"/>
    </g>
    <g fill="silver" transform="matrix(1,0,0,1,-483,-110)" stroke="silver">
      <rect x="835.3333" width="280" height="101" y="202.6563" clip-path="url(#clipPath2)" stroke="none"/>
    </g>
    <g font-size="13" stroke-miterlimit="1.45" font-family="sans-serif" transform="matrix(1,0,0,1,-483,-110)" stroke-linecap="butt">
      <text x="952.7166" xml:space="preserve" y="216.7231" clip-path="url(#clipPath2)" stroke="none">initiate</text>
      <rect fill="none" x="835.3333" width="280" height="101" y="202.6563" clip-path="url(#clipPath2)"/>
    </g>
    <g fill="rgb(238,237,237)" transform="matrix(1,0,0,1,-483,-110)" stroke="rgb(238,237,237)">
      <rect x="845.3333" width="260" height="30" y="263.6688" clip-path="url(#clipPath2)" stroke="none"/>
    </g>
    <g font-size="13" stroke-miterlimit="1.45" font-family="sans-serif" transform="matrix(1,0,0,1,-483,-110)" stroke-linecap="butt">
      <text x="898.7774" xml:space="preserve" y="283.1693" clip-path="url(#clipPath2)" stroke="none">task_manager-&gt;initiate</text>
      <rect fill="none" x="845.3333" width="260" height="30" y="263.6688" clip-path="url(#clipPath2)"/>
    </g>
    <g fill="white" transform="matrix(1,0,0,1,-483,-110)" stroke="white">
      <path d="M845.3333 223.4828 L1090.3334 223.4828 L1090.3334 238.4828 L1105.3334 238.4828 L1105.3334 253.4828 L845.3333 253.4828 Z" clip-path="url(#clipPath2)" stroke="none"/>
      <path d="M1090.3334 223.4828 L1090.3334 238.4828 L1105.3334 238.4828 Z" clip-path="url(#clipPath2)" fill-rule="evenodd" stroke="none"/>
    </g>
    <g stroke-linecap="butt" transform="matrix(1,0,0,1,-483,-110)" stroke-miterlimit="1.45">
      <path fill="none" d="M845.3333 223.4828 L1090.3334 223.4828 L1090.3334 238.4828 L1105.3334 238.4828 L1105.3334 253.4828 L845.3333 253.4828 Z" clip-path="url(#clipPath2)"/>
      <path fill="none" d="M1090.3334 223.4828 L1090.3334 238.4828 L1105.3334 238.4828 Z" fill-rule="evenodd" clip-path="url(#clipPath2)"/>
      <text x="937.9593" xml:space="preserve" y="242.6371" font-family="sans-serif" clip-path="url(#clipPath2)" stroke="none">Queue tasks</text>
    </g>
    <g fill="rgb(240,238,234)" transform="matrix(1,0,0,1,-483,-110)" stroke="rgb(240,238,234)">
      <rect x="498.3333" width="298" height="323.9734" y="228.0188" clip-path="url(#clipPath2)" stroke="none"/>
    </g>
    <g font-size="13" stroke-miterlimit="1.45" font-family="sans-serif" transform="matrix(1,0,0,1,-483,-110)" stroke-linecap="butt">
      <text x="500.3333" xml:space="preserve" y="242.0856" clip-path="url(#clipPath2)" stroke="none">libcharon/sa/ikev2/task_manager_v2.c</text>
      <rect fill="none" x="498.3333" width="298" height="323.9734" y="228.0188" clip-path="url(#clipPath2)"/>
    </g>
    <g fill="silver" transform="matrix(1,0,0,1,-483,-110)" stroke="silver">
      <rect x="508" width="280" height="291.1807" y="252.0073" clip-path="url(#clipPath2)" stroke="none"/>
    </g>
    <g font-size="13" stroke-miterlimit="1.45" font-family="sans-serif" transform="matrix(1,0,0,1,-483,-110)" stroke-linecap="butt">
      <text x="625.3833" xml:space="preserve" y="266.0742" clip-path="url(#clipPath2)" stroke="none">initiate</text>
      <rect fill="none" x="508" width="280" height="291.1807" y="252.0073" clip-path="url(#clipPath2)"/>
    </g>
    <g fill="rgb(238,237,237)" transform="matrix(1,0,0,1,-483,-110)" stroke="rgb(238,237,237)">
      <rect x="517.3333" width="260" height="30" y="273.6563" clip-path="url(#clipPath2)" stroke="none"/>
    </g>
    <g font-size="13" stroke-miterlimit="1.45" font-family="sans-serif" transform="matrix(1,0,0,1,-483,-110)" stroke-linecap="butt">
      <text x="555.305" xml:space="preserve" y="293.1567" clip-path="url(#clipPath2)" stroke="none">message = message_create</text>
      <rect fill="none" x="517.3333" width="260" height="30" y="273.6563" clip-path="url(#clipPath2)"/>
    </g>
    <g fill="white" transform="matrix(1,0,0,1,-483,-110)" stroke="white">
      <path d="M518 364.8447 L763 364.8447 L763 379.8447 L778 379.8447 L778 394.8447 L518 394.8447 Z" clip-path="url(#clipPath2)" stroke="none"/>
      <path d="M763 364.8447 L763 379.8447 L778 379.8447 Z" clip-path="url(#clipPath2)" fill-rule="evenodd" stroke="none"/>
    </g>
    <g stroke-linecap="butt" transform="matrix(1,0,0,1,-483,-110)" stroke-miterlimit="1.45">
      <path fill="none" d="M518 364.8447 L763 364.8447 L763 379.8447 L778 379.8447 L778 394.8447 L518 394.8447 Z" clip-path="url(#clipPath2)"/>
      <path fill="none" d="M763 364.8447 L763 379.8447 L778 379.8447 Z" fill-rule="evenodd" clip-path="url(#clipPath2)"/>
      <text x="620.2646" xml:space="preserve" y="383.999" font-family="sans-serif" clip-path="url(#clipPath2)" stroke="none">run tasks</text>
    </g>
    <g fill="rgb(238,237,237)" transform="matrix(1,0,0,1,-483,-110)" stroke="rgb(238,237,237)">
      <rect x="517.3333" width="260" height="30" y="410.4389" clip-path="url(#clipPath2)" stroke="none"/>
    </g>
    <g font-size="13" stroke-miterlimit="1.45" font-family="sans-serif" transform="matrix(1,0,0,1,-483,-110)" stroke-linecap="butt">
      <text x="557.4442" xml:space="preserve" y="429.9394" clip-path="url(#clipPath2)" stroke="none">ike_sa-&gt;generate_message</text>
      <rect fill="none" x="517.3333" width="260" height="30" y="410.4389" clip-path="url(#clipPath2)"/>
    </g>
    <g fill="silver" transform="matrix(1,0,0,1,-483,-110)" stroke="silver">
      <rect x="835.3333" width="280" height="60" y="314.4875" clip-path="url(#clipPath2)" stroke="none"/>
    </g>
    <g font-size="13" stroke-miterlimit="1.45" font-family="sans-serif" transform="matrix(1,0,0,1,-483,-110)" stroke-linecap="butt">
      <text x="913.4246" xml:space="preserve" y="328.5544" clip-path="url(#clipPath2)" stroke="none">generate_message</text>
      <rect fill="none" x="835.3333" width="280" height="60" y="314.4875" clip-path="url(#clipPath2)"/>
    </g>
    <g fill="rgb(238,237,237)" transform="matrix(1,0,0,1,-483,-110)" stroke="rgb(238,237,237)">
      <rect x="845.3333" width="160" height="30" y="337.3625" clip-path="url(#clipPath2)" stroke="none"/>
    </g>
    <g font-size="13" stroke-miterlimit="1.45" font-family="sans-serif" transform="matrix(1,0,0,1,-483,-110)" stroke-linecap="butt">
      <text x="858.8829" xml:space="preserve" y="356.863" clip-path="url(#clipPath2)" stroke="none">message-&gt;generate</text>
      <rect fill="none" x="845.3333" width="160" height="30" y="337.3625" clip-path="url(#clipPath2)"/>
    </g>
    <g fill="rgb(255,204,0)" transform="matrix(1,0,0,1,-483,-110)" stroke="rgb(255,204,0)">
      <rect x="1005.3333" width="100" height="30" y="337.3625" clip-path="url(#clipPath2)" stroke="none"/>
    </g>
    <g stroke-miterlimit="1.45" font-family="sans-serif" transform="matrix(1,0,0,1,-483,-110)" stroke-linecap="butt">
      <text x="1032.7426" xml:space="preserve" y="356.5168" clip-path="url(#clipPath2)" stroke="none">keymat</text>
      <rect fill="none" x="1005.3333" width="100" height="30" y="337.3625" clip-path="url(#clipPath2)"/>
    </g>
    <g fill="silver" transform="matrix(1,0,0,1,-483,-110)" stroke="silver">
      <rect x="1155" width="280" height="152.8413" y="319.1818" clip-path="url(#clipPath2)" stroke="none"/>
    </g>
    <g font-size="13" stroke-miterlimit="1.45" font-family="sans-serif" transform="matrix(1,0,0,1,-483,-110)" stroke-linecap="butt">
      <text x="1265.5532" xml:space="preserve" y="333.2487" clip-path="url(#clipPath2)" stroke="none">generate</text>
      <rect fill="none" x="1155" width="280" height="152.8413" y="319.1818" clip-path="url(#clipPath2)"/>
    </g>
    <g fill="rgb(238,237,237)" transform="matrix(1,0,0,1,-483,-110)" stroke="rgb(238,237,237)">
      <rect x="1165" width="260" height="30" y="434.8618" clip-path="url(#clipPath2)" stroke="none"/>
    </g>
    <g font-size="13" stroke-miterlimit="1.45" font-family="sans-serif" transform="matrix(1,0,0,1,-483,-110)" stroke-linecap="butt">
      <text x="1246.4182" xml:space="preserve" y="454.3622" clip-path="url(#clipPath2)" stroke="none">wrap_payloads</text>
      <rect fill="none" x="1165" width="260" height="30" y="434.8618" clip-path="url(#clipPath2)"/>
    </g>
    <g fill="silver" transform="matrix(1,0,0,1,-483,-110)" stroke="silver">
      <rect x="1155" width="280" height="64.6829" y="487.3092" clip-path="url(#clipPath2)" stroke="none"/>
    </g>
    <g font-size="13" stroke-miterlimit="1.45" font-family="sans-serif" transform="matrix(1,0,0,1,-483,-110)" stroke-linecap="butt">
      <text x="1246.4182" xml:space="preserve" y="501.3761" clip-path="url(#clipPath2)" stroke="none">wrap_payloads</text>
      <rect fill="none" x="1155" width="280" height="64.6829" y="487.3092" clip-path="url(#clipPath2)"/>
    </g>
    <g fill="rgb(238,237,237)" transform="matrix(1,0,0,1,-483,-110)" stroke="rgb(238,237,237)">
      <rect x="1165" width="260" height="30" y="340.7301" clip-path="url(#clipPath2)" stroke="none"/>
    </g>
    <g font-size="13" stroke-miterlimit="1.45" font-family="sans-serif" transform="matrix(1,0,0,1,-483,-110)" stroke-linecap="butt">
      <text x="1238.1504" xml:space="preserve" y="360.2306" clip-path="url(#clipPath2)" stroke="none">rule-&gt;encrypted?</text>
      <rect fill="none" x="1165" width="260" height="30" y="340.7301" clip-path="url(#clipPath2)"/>
    </g>
    <g fill="rgb(238,237,237)" transform="matrix(1,0,0,1,-483,-110)" stroke="rgb(238,237,237)">
      <rect x="1165" width="260" height="30" y="513.188" clip-path="url(#clipPath2)" stroke="none"/>
    </g>
    <g font-size="13" stroke-miterlimit="1.45" font-family="sans-serif" transform="matrix(1,0,0,1,-483,-110)" stroke-linecap="butt">
      <text x="1207.0881" xml:space="preserve" y="532.6885" clip-path="url(#clipPath2)" stroke="none">encryption_payload_create</text>
      <rect fill="none" x="1165" width="260" height="30" y="513.188" clip-path="url(#clipPath2)"/>
    </g>
    <g fill="rgb(238,237,237)" transform="matrix(1,0,0,1,-483,-110)" stroke="rgb(238,237,237)">
      <rect x="1165" width="160" height="30" y="628.7392" clip-path="url(#clipPath2)" stroke="none"/>
    </g>
    <g font-size="13" stroke-miterlimit="1.45" font-family="sans-serif" transform="matrix(1,0,0,1,-483,-110)" stroke-linecap="butt">
      <text x="1177.6799" xml:space="preserve" y="648.2397" clip-path="url(#clipPath2)" stroke="none">encr-&gt;set_transform</text>
      <rect fill="none" x="1165" width="160" height="30" y="628.7392" clip-path="url(#clipPath2)"/>
    </g>
    <g fill="rgb(255,204,0)" transform="matrix(1,0,0,1,-483,-110)" stroke="rgb(255,204,0)">
      <rect x="1325" width="100" height="30" y="628.7392" clip-path="url(#clipPath2)" stroke="none"/>
    </g>
    <g stroke-miterlimit="1.45" font-family="sans-serif" transform="matrix(1,0,0,1,-483,-110)" stroke-linecap="butt">
      <text x="1360.1465" xml:space="preserve" y="647.8935" clip-path="url(#clipPath2)" stroke="none">aead</text>
      <rect fill="none" x="1325" width="100" height="30" y="628.7392" clip-path="url(#clipPath2)"/>
    </g>
    <g fill="rgb(238,237,237)" transform="matrix(1,0,0,1,-483,-110)" stroke="rgb(238,237,237)">
      <rect x="1165" width="260" height="30" y="673.1256" clip-path="url(#clipPath2)" stroke="none"/>
    </g>
    <g font-size="13" stroke-miterlimit="1.45" font-family="sans-serif" transform="matrix(1,0,0,1,-483,-110)" stroke-linecap="butt">
      <text x="1227.5339" xml:space="preserve" y="692.626" clip-path="url(#clipPath2)" stroke="none">encryption-&gt;encrypt</text>
      <rect fill="none" x="1165" width="260" height="30" y="673.1256" clip-path="url(#clipPath2)"/>
    </g>
    <g fill="rgb(240,238,234)" transform="matrix(1,0,0,1,-483,-110)" stroke="rgb(240,238,234)">
      <rect x="825.6667" width="298" height="228.1996" y="487.3092" clip-path="url(#clipPath2)" stroke="none"/>
    </g>
    <g font-size="13" stroke-miterlimit="1.45" font-family="sans-serif" transform="matrix(1,0,0,1,-483,-110)" stroke-linecap="butt">
      <text x="827.6667" xml:space="preserve" y="501.3761" clip-path="url(#clipPath2)" stroke="none">libcharon/encoding/.../encryption_payload.c</text>
      <rect fill="none" x="825.6667" width="298" height="228.1996" y="487.3092" clip-path="url(#clipPath2)"/>
    </g>
    <g fill="silver" transform="matrix(1,0,0,1,-483,-110)" stroke="silver">
      <rect x="835.3333" width="280" height="203.8312" y="506.4657" clip-path="url(#clipPath2)" stroke="none"/>
    </g>
    <g font-size="13" stroke-miterlimit="1.45" font-family="sans-serif" transform="matrix(1,0,0,1,-483,-110)" stroke-linecap="butt">
      <text x="950.4473" xml:space="preserve" y="520.5326" clip-path="url(#clipPath2)" stroke="none">encrypt</text>
      <rect fill="none" x="835.3333" width="280" height="203.8312" y="506.4657" clip-path="url(#clipPath2)"/>
    </g>
    <g fill="rgb(238,237,237)" transform="matrix(1,0,0,1,-483,-110)" stroke="rgb(238,237,237)">
      <rect x="845.3333" width="260" height="30" y="529.7196" clip-path="url(#clipPath2)" stroke="none"/>
    </g>
    <g font-size="13" stroke-miterlimit="1.45" font-family="sans-serif" transform="matrix(1,0,0,1,-483,-110)" stroke-linecap="butt">
      <text x="869.8734" xml:space="preserve" y="549.22" clip-path="url(#clipPath2)" stroke="none">crypto-&gt;create_rng(RNG_WEAK)</text>
      <rect fill="none" x="845.3333" width="260" height="30" y="529.7196" clip-path="url(#clipPath2)"/>
    </g>
    <g fill="rgb(238,237,237)" transform="matrix(1,0,0,1,-483,-110)" stroke="rgb(238,237,237)">
      <rect x="844.6667" width="260" height="30" y="625.1038" clip-path="url(#clipPath2)" stroke="none"/>
    </g>
    <g font-size="13" stroke-miterlimit="1.45" font-family="sans-serif" transform="matrix(1,0,0,1,-483,-110)" stroke-linecap="butt">
      <text x="892.6423" xml:space="preserve" y="644.6043" clip-path="url(#clipPath2)" stroke="none">rng-&gt;get_bytes(padding)</text>
      <rect fill="none" x="844.6667" width="260" height="30" y="625.1038" clip-path="url(#clipPath2)"/>
    </g>
    <g fill="rgb(238,237,237)" transform="matrix(1,0,0,1,-483,-110)" stroke="rgb(238,237,237)">
      <rect x="845.3333" width="260" height="30" y="577.4117" clip-path="url(#clipPath2)" stroke="none"/>
    </g>
    <g font-size="13" stroke-miterlimit="1.45" font-family="sans-serif" transform="matrix(1,0,0,1,-483,-110)" stroke-linecap="butt">
      <text x="914.0689" xml:space="preserve" y="596.9122" clip-path="url(#clipPath2)" stroke="none">rng-&gt;get_bytes(iv)</text>
      <rect fill="none" x="845.3333" width="260" height="30" y="577.4117" clip-path="url(#clipPath2)"/>
    </g>
    <g fill="rgb(238,237,237)" transform="matrix(1,0,0,1,-483,-110)" stroke="rgb(238,237,237)">
      <rect x="845.3333" width="160" height="30" y="672.7819" clip-path="url(#clipPath2)" stroke="none"/>
    </g>
    <g font-size="13" stroke-miterlimit="1.45" font-family="sans-serif" transform="matrix(1,0,0,1,-483,-110)" stroke-linecap="butt">
      <text x="869.2169" xml:space="preserve" y="692.2823" clip-path="url(#clipPath2)" stroke="none">crypter-&gt;encrypt</text>
      <rect fill="none" x="845.3333" width="160" height="30" y="672.7819" clip-path="url(#clipPath2)"/>
    </g>
    <g fill="rgb(255,204,0)" transform="matrix(1,0,0,1,-483,-110)" stroke="rgb(255,204,0)">
      <rect x="1005.3333" width="100" height="30" y="672.7819" clip-path="url(#clipPath2)" stroke="none"/>
    </g>
    <g stroke-miterlimit="1.45" font-family="sans-serif" transform="matrix(1,0,0,1,-483,-110)" stroke-linecap="butt">
      <text x="1040.4799" xml:space="preserve" y="691.9362" clip-path="url(#clipPath2)" stroke="none">aead</text>
      <rect fill="none" x="1005.3333" width="100" height="30" y="672.7819" clip-path="url(#clipPath2)"/>
    </g>
    <g fill="white" transform="matrix(1,0,0,1,-483,-110)" stroke="white">
      <path d="M1165 584.3528 L1410 584.3528 L1410 599.3528 L1425 599.3528 L1425 614.3528 L1165 614.3528 Z" clip-path="url(#clipPath2)" stroke="none"/>
      <path d="M1410 584.3528 L1410 599.3528 L1425 599.3528 Z" clip-path="url(#clipPath2)" fill-rule="evenodd" stroke="none"/>
    </g>
    <g stroke-linecap="butt" transform="matrix(1,0,0,1,-483,-110)" stroke-miterlimit="1.45">
      <path fill="none" d="M1165 584.3528 L1410 584.3528 L1410 599.3528 L1425 599.3528 L1425 614.3528 L1165 614.3528 Z" clip-path="url(#clipPath2)"/>
      <path fill="none" d="M1410 584.3528 L1410 599.3528 L1425 599.3528 Z" fill-rule="evenodd" clip-path="url(#clipPath2)"/>
      <text x="1251.7256" xml:space="preserve" y="603.5071" font-family="sans-serif" clip-path="url(#clipPath2)" stroke="none">init ike header</text>
    </g>
    <g fill="rgb(238,237,237)" transform="matrix(1,0,0,1,-483,-110)" stroke="rgb(238,237,237)">
      <rect x="517.3333" width="260" height="30" y="456.0331" clip-path="url(#clipPath2)" stroke="none"/>
    </g>
    <g font-size="13" stroke-miterlimit="1.45" font-family="sans-serif" transform="matrix(1,0,0,1,-483,-110)" stroke-linecap="butt">
      <text x="613.2654" xml:space="preserve" y="475.5336" clip-path="url(#clipPath2)" stroke="none">retransmit</text>
      <rect fill="none" x="517.3333" width="260" height="30" y="456.0331" clip-path="url(#clipPath2)"/>
    </g>
    <g fill="white" transform="matrix(1,0,0,1,-483,-110)" stroke="white">
      <path d="M517.3333 501.6273 L762.3333 501.6273 L762.3333 516.6273 L777.3333 516.6273 L777.3333 531.6273 L517.3333 531.6273 Z" clip-path="url(#clipPath2)" stroke="none"/>
      <path d="M762.3333 501.6273 L762.3333 516.6273 L777.3333 516.6273 Z" clip-path="url(#clipPath2)" fill-rule="evenodd" stroke="none"/>
    </g>
    <g stroke-linecap="butt" transform="matrix(1,0,0,1,-483,-110)" stroke-miterlimit="1.45">
      <path fill="none" d="M517.3333 501.6273 L762.3333 501.6273 L762.3333 516.6273 L777.3333 516.6273 L777.3333 531.6273 L517.3333 531.6273 Z" clip-path="url(#clipPath2)"/>
      <path fill="none" d="M762.3333 501.6273 L762.3333 516.6273 L777.3333 516.6273 Z" fill-rule="evenodd" clip-path="url(#clipPath2)"/>
      <text x="630.6253" xml:space="preserve" y="520.7816" font-family="sans-serif" clip-path="url(#clipPath2)" stroke="none">SEND</text>
    </g>
    <g fill="white" transform="matrix(1,0,0,1,-483,-110)" stroke="white">
      <rect x="925.3333" y="125.7027" clip-path="url(#clipPath2)" width="100" rx="4" ry="4" height="30" stroke="none"/>
    </g>
    <g stroke-miterlimit="1.45" font-family="sans-serif" transform="matrix(1,0,0,1,-483,-110)" stroke-linecap="butt">
      <text x="954.3538" xml:space="preserve" y="144.8569" clip-path="url(#clipPath2)" stroke="none">Initiate</text>
      <rect x="925.3333" y="125.7027" clip-path="url(#clipPath2)" fill="none" width="100" stroke-dasharray="6,2" rx="4" ry="4" height="30"/>
    </g>
    <g fill="white" transform="matrix(1,0,0,1,-483,-110)" stroke="white">
      <path d="M518 319.2505 L763 319.2505 L763 334.2505 L778 334.2505 L778 349.2505 L518 349.2505 Z" clip-path="url(#clipPath2)" stroke="none"/>
      <path d="M763 319.2505 L763 334.2505 L778 334.2505 Z" clip-path="url(#clipPath2)" fill-rule="evenodd" stroke="none"/>
    </g>
    <g stroke-linecap="butt" transform="matrix(1,0,0,1,-483,-110)" stroke-miterlimit="1.45">
      <path fill="none" d="M518 319.2505 L763 319.2505 L763 334.2505 L778 334.2505 L778 349.2505 L518 349.2505 Z" clip-path="url(#clipPath2)"/>
      <path fill="none" d="M763 319.2505 L763 334.2505 L778 334.2505 Z" fill-rule="evenodd" clip-path="url(#clipPath2)"/>
      <text x="557.874" xml:space="preserve" y="338.4048" font-family="sans-serif" clip-path="url(#clipPath2)" stroke="none">call build function for all tasks</text>
    </g>
    <g fill="rgb(238,237,237)" transform="matrix(1,0,0,1,-483,-110)" stroke="rgb(238,237,237)">
      <rect x="1165" width="160" height="30" y="387.7959" clip-path="url(#clipPath2)" stroke="none"/>
    </g>
    <g font-size="13" stroke-miterlimit="1.45" font-family="sans-serif" transform="matrix(1,0,0,1,-483,-110)" stroke-linecap="butt">
      <text x="1214.9851" xml:space="preserve" y="407.2964" clip-path="url(#clipPath2)" stroke="none">get_aead</text>
      <rect fill="none" x="1165" width="160" height="30" y="387.7959" clip-path="url(#clipPath2)"/>
    </g>
    <g fill="rgb(255,204,0)" transform="matrix(1,0,0,1,-483,-110)" stroke="rgb(255,204,0)">
      <rect x="1325" width="100" height="30" y="387.7959" clip-path="url(#clipPath2)" stroke="none"/>
    </g>
    <g stroke-miterlimit="1.45" font-family="sans-serif" transform="matrix(1,0,0,1,-483,-110)" stroke-linecap="butt">
      <text x="1352.4092" xml:space="preserve" y="406.9502" clip-path="url(#clipPath2)" stroke="none">keymat</text>
      <rect fill="none" x="1325" width="100" height="30" y="387.7959" clip-path="url(#clipPath2)"/>
      <path fill="none" d="M845.3333 278.6688 L804.3463 278.6688" clip-path="url(#clipPath2)"/>
      <path d="M796.3463 278.6688 L808.3463 283.6688 L805.3463 278.6688 L808.3463 273.6688 Z" clip-path="url(#clipPath2)" stroke="none"/>
      <path fill="none" d="M647.7806 394.8498 L647.6696 402.4398" clip-path="url(#clipPath2)"/>
      <path d="M647.5527 410.4389 L652.7275 398.5133 L647.6842 401.4399 L642.7286 398.3671 Z" clip-path="url(#clipPath2)" stroke="none"/>
      <path fill="none" d="M777.3333 425.4389 L975.3333 425.4389 L975.3333 390.3625" clip-path="url(#clipPath2)"/>
      <path d="M975.3333 382.3625 L970.3333 394.3625 L975.3333 391.3625 L980.3333 394.3625 Z" clip-path="url(#clipPath2)" stroke="none"/>
      <path fill="none" d="M1105.3334 352.3625 L1137.3052 352.3625" clip-path="url(#clipPath2)"/>
      <path d="M1145.3052 352.3625 L1133.3052 347.3625 L1136.3052 352.3625 L1133.3052 357.3625 Z" clip-path="url(#clipPath2)" stroke="none"/>
      <path fill="none" d="M1295 464.8618 L1295 479.3092" clip-path="url(#clipPath2)"/>
      <path d="M1295 487.3092 L1300 475.3092 L1295 478.3092 L1290 475.3092 Z" clip-path="url(#clipPath2)" stroke="none"/>
      <path fill="none" d="M1295 543.188 L1295 557.4402" clip-path="url(#clipPath2)"/>
      <path d="M1295 565.4402 L1300 553.4402 L1295 556.4402 L1290 553.4402 Z" clip-path="url(#clipPath2)" stroke="none"/>
      <path fill="none" d="M1295 658.7657 L1295 665.1255" clip-path="url(#clipPath2)"/>
      <path d="M1295 673.1255 L1300 661.1255 L1295 664.1255 L1290 661.1255 Z" clip-path="url(#clipPath2)" stroke="none"/>
      <path fill="none" d="M1165 688.1255 L1131.697 688.1255" clip-path="url(#clipPath2)"/>
      <path d="M1123.697 688.1255 L1135.697 693.1255 L1132.697 688.1255 L1135.697 683.1255 Z" clip-path="url(#clipPath2)" stroke="none"/>
      <path fill="none" d="M975.3333 559.7195 L975.3333 569.4117" clip-path="url(#clipPath2)"/>
      <path d="M975.3333 577.4117 L980.3333 565.4117 L975.3333 568.4117 L970.3333 565.4117 Z" clip-path="url(#clipPath2)" stroke="none"/>
      <path fill="none" d="M975.1237 607.4117 L974.9882 617.1046" clip-path="url(#clipPath2)"/>
      <path d="M974.8763 625.1038 L980.0436 613.1748 L975.0021 616.1046 L970.0446 613.035 Z" clip-path="url(#clipPath2)" stroke="none"/>
      <path fill="none" d="M974.6667 655.1038 L974.6667 664.8026" clip-path="url(#clipPath2)"/>
      <path d="M974.6667 672.8026 L979.6667 660.8026 L974.6667 663.8026 L969.6667 660.8026 Z" clip-path="url(#clipPath2)" stroke="none"/>
      <path fill="none" d="M647.3333 440.4389 L647.3333 448.0331" clip-path="url(#clipPath2)"/>
      <path d="M647.3333 456.0331 L652.3333 444.0331 L647.3333 447.0331 L642.3333 444.0331 Z" clip-path="url(#clipPath2)" stroke="none"/>
      <path fill="none" d="M647.3333 486.0331 L647.3333 493.5991" clip-path="url(#clipPath2)"/>
      <path d="M647.3333 501.5991 L652.3333 489.5991 L647.3333 492.5991 L642.3333 489.5991 Z" clip-path="url(#clipPath2)" stroke="none"/>
      <path fill="none" stroke-dasharray="6,2" d="M975.3333 155.6801 L975.3333 170.5312" clip-path="url(#clipPath2)"/>
      <path stroke-dasharray="6,2" d="M975.3333 178.5312 L980.3333 166.5312 L975.3333 169.5312 L970.3333 166.5312 Z" clip-path="url(#clipPath2)" stroke="none"/>
      <path fill="none" d="M647.5527 303.6562 L647.6633 311.2231" clip-path="url(#clipPath2)"/>
      <path d="M647.7803 319.2223 L652.6043 307.1505 L647.6487 310.2232 L642.6054 307.2966 Z" clip-path="url(#clipPath2)" stroke="none"/>
      <path fill="none" d="M648 349.2556 L648 356.819" clip-path="url(#clipPath2)"/>
      <path d="M648 364.819 L653 352.819 L648 355.819 L643 352.819 Z" clip-path="url(#clipPath2)" stroke="none"/>
      <path fill="none" d="M1295 370.7301 L1295 379.7957" clip-path="url(#clipPath2)"/>
      <path d="M1295 387.7957 L1300 375.7957 L1295 378.7957 L1290 375.7957 Z" clip-path="url(#clipPath2)" stroke="none"/>
      <path fill="none" d="M1295 417.7805 L1295 426.8618" clip-path="url(#clipPath2)"/>
      <path d="M1295 434.8618 L1300 422.8618 L1295 425.8618 L1290 422.8618 Z" clip-path="url(#clipPath2)" stroke="none"/>
    </g>
  </g>
</svg>
