<?xml version="1.0" encoding="UTF-8"?>
<svg xmlns="http://www.w3.org/2000/svg" xmlns:xlink="http://www.w3.org/1999/xlink" fill-opacity="1" color-rendering="auto" color-interpolation="auto" stroke="black" text-rendering="auto" stroke-linecap="square" width="1009" stroke-miterlimit="10" stroke-opacity="1" shape-rendering="auto" fill="black" stroke-dasharray="none" font-weight="normal" stroke-width="1" height="472" font-family="'Dialog'" font-style="normal" stroke-linejoin="miter" font-size="12" stroke-dashoffset="0" image-rendering="auto">
  <!--Generated by ySVG-->
  <defs id="genericDefs"/>
  <g>
    <defs id="defs1">
      <clipPath clipPathUnits="userSpaceOnUse" id="clipPath1">
        <path d="M0 0 L1009 0 L1009 472 L0 472 L0 0 Z"/>
      </clipPath>
      <clipPath clipPathUnits="userSpaceOnUse" id="clipPath2">
        <path d="M124 106 L1133 106 L1133 578 L124 578 L124 106 Z"/>
      </clipPath>
    </defs>
    <g fill="white" transform="translate(-124,-106)" stroke="white">
      <rect x="124" width="1009" height="472" y="106" clip-path="url(#clipPath2)" stroke="none"/>
    </g>
    <g fill="rgb(240,238,234)" transform="matrix(1,0,0,1,-124,-106)" stroke="rgb(240,238,234)">
      <rect x="154" width="298" height="90.125" y="181.9625" clip-path="url(#clipPath2)" stroke="none"/>
    </g>
    <g font-size="13" stroke-miterlimit="1.45" font-family="sans-serif" transform="matrix(1,0,0,1,-124,-106)" stroke-linecap="butt">
      <text x="156" xml:space="preserve" y="196.315" clip-path="url(#clipPath2)" stroke="none">libcharon/sa/ike_sa.c</text>
      <rect fill="none" x="154" width="298" height="90.125" y="181.9625" clip-path="url(#clipPath2)"/>
    </g>
    <g fill="silver" transform="matrix(1,0,0,1,-124,-106)" stroke="silver">
      <rect x="163.6667" width="280" height="60" y="206.0875" clip-path="url(#clipPath2)" stroke="none"/>
    </g>
    <g font-size="13" stroke-miterlimit="1.45" font-family="sans-serif" transform="matrix(1,0,0,1,-124,-106)" stroke-linecap="butt">
      <text x="248.5151" xml:space="preserve" y="220.44" clip-path="url(#clipPath2)" stroke="none">process_message</text>
      <rect fill="none" x="163.6667" width="280" height="60" y="206.0875" clip-path="url(#clipPath2)"/>
    </g>
    <g fill="rgb(238,237,237)" transform="matrix(1,0,0,1,-124,-106)" stroke="rgb(238,237,237)">
      <rect x="173" width="260" height="30" y="228.1" clip-path="url(#clipPath2)" stroke="none"/>
    </g>
    <g font-size="13" stroke-miterlimit="1.45" font-family="sans-serif" transform="matrix(1,0,0,1,-124,-106)" stroke-linecap="butt">
      <text x="194.9216" xml:space="preserve" y="247.8893" clip-path="url(#clipPath2)" stroke="none">task_manager-&gt;process_message</text>
      <rect fill="none" x="173" width="260" height="30" y="228.1" clip-path="url(#clipPath2)"/>
    </g>
    <g fill="rgb(240,238,234)" transform="matrix(1,0,0,1,-124,-106)" stroke="rgb(240,238,234)">
      <rect x="486" width="298" height="334" y="212.3667" clip-path="url(#clipPath2)" stroke="none"/>
    </g>
    <g font-size="13" stroke-miterlimit="1.45" font-family="sans-serif" transform="matrix(1,0,0,1,-124,-106)" stroke-linecap="butt">
      <text x="488" xml:space="preserve" y="226.7192" clip-path="url(#clipPath2)" stroke="none">libcharon/encoding/message.c</text>
      <rect fill="none" x="486" width="298" height="334" y="212.3667" clip-path="url(#clipPath2)"/>
    </g>
    <g fill="silver" transform="matrix(1,0,0,1,-124,-106)" stroke="silver">
      <rect x="495.6667" width="280" height="67.2708" y="236.4917" clip-path="url(#clipPath2)" stroke="none"/>
    </g>
    <g font-size="13" stroke-miterlimit="1.45" font-family="sans-serif" transform="matrix(1,0,0,1,-124,-106)" stroke-linecap="butt">
      <text x="599.5707" xml:space="preserve" y="250.8442" clip-path="url(#clipPath2)" stroke="none">parse_body</text>
      <rect fill="none" x="495.6667" width="280" height="67.2708" y="236.4917" clip-path="url(#clipPath2)"/>
    </g>
    <g fill="rgb(238,237,237)" transform="matrix(1,0,0,1,-124,-106)" stroke="rgb(238,237,237)">
      <rect x="505.6667" width="260" height="30" y="260.775" clip-path="url(#clipPath2)" stroke="none"/>
    </g>
    <g font-size="13" stroke-miterlimit="1.45" font-family="sans-serif" transform="matrix(1,0,0,1,-124,-106)" stroke-linecap="butt">
      <text x="580.8547" xml:space="preserve" y="280.5643" clip-path="url(#clipPath2)" stroke="none">decrypt_payloads</text>
      <rect fill="none" x="505.6667" width="260" height="30" y="260.775" clip-path="url(#clipPath2)"/>
    </g>
    <g fill="silver" transform="matrix(1,0,0,1,-124,-106)" stroke="silver">
      <rect x="495.6667" width="280" height="213.8625" y="321.5042" clip-path="url(#clipPath2)" stroke="none"/>
    </g>
    <g font-size="13" stroke-miterlimit="1.45" font-family="sans-serif" transform="matrix(1,0,0,1,-124,-106)" stroke-linecap="butt">
      <text x="580.8547" xml:space="preserve" y="335.8567" clip-path="url(#clipPath2)" stroke="none">decrypt_payloads</text>
      <rect fill="none" x="495.6667" width="280" height="213.8625" y="321.5042" clip-path="url(#clipPath2)"/>
    </g>
    <g fill="rgb(238,237,237)" transform="matrix(1,0,0,1,-124,-106)" stroke="rgb(238,237,237)">
      <rect x="503.6667" width="160" height="30" y="443.5417" clip-path="url(#clipPath2)" stroke="none"/>
    </g>
    <g font-size="13" stroke-miterlimit="1.45" font-family="sans-serif" transform="matrix(1,0,0,1,-124,-106)" stroke-linecap="butt">
      <text x="517.34" xml:space="preserve" y="463.331" clip-path="url(#clipPath2)" stroke="none">encr-&gt;set_transform</text>
      <rect fill="none" x="503.6667" width="160" height="30" y="443.5417" clip-path="url(#clipPath2)"/>
    </g>
    <g fill="rgb(255,204,0)" transform="matrix(1,0,0,1,-124,-106)" stroke="rgb(255,204,0)">
      <rect x="663.6667" width="100" height="30" y="443.5417" clip-path="url(#clipPath2)" stroke="none"/>
    </g>
    <g stroke-miterlimit="1.45" font-family="sans-serif" transform="matrix(1,0,0,1,-124,-106)" stroke-linecap="butt">
      <text x="699.9206" xml:space="preserve" y="462.9626" clip-path="url(#clipPath2)" stroke="none">aead</text>
      <rect fill="none" x="663.6667" width="100" height="30" y="443.5417" clip-path="url(#clipPath2)"/>
    </g>
    <g fill="rgb(240,238,234)" transform="matrix(1,0,0,1,-124,-106)" stroke="rgb(240,238,234)">
      <rect x="819.3333" width="298" height="168" y="337.4" clip-path="url(#clipPath2)" stroke="none"/>
    </g>
    <g font-size="13" stroke-miterlimit="1.45" font-family="sans-serif" transform="matrix(1,0,0,1,-124,-106)" stroke-linecap="butt">
      <text x="821.3333" xml:space="preserve" y="351.7525" clip-path="url(#clipPath2)" stroke="none">libcharon/encoding/payloads/enc..._payload.c</text>
      <rect fill="none" x="819.3333" width="298" height="168" y="337.4" clip-path="url(#clipPath2)"/>
    </g>
    <g fill="rgb(238,237,237)" transform="matrix(1,0,0,1,-124,-106)" stroke="rgb(238,237,237)">
      <rect x="505" width="260" height="30" y="497.075" clip-path="url(#clipPath2)" stroke="none"/>
    </g>
    <g font-size="13" stroke-miterlimit="1.45" font-family="sans-serif" transform="matrix(1,0,0,1,-124,-106)" stroke-linecap="butt">
      <text x="588.8081" xml:space="preserve" y="516.8643" clip-path="url(#clipPath2)" stroke="none">encr-&gt;decrypt</text>
      <rect fill="none" x="505" width="260" height="30" y="497.075" clip-path="url(#clipPath2)"/>
    </g>
    <g fill="silver" transform="matrix(1,0,0,1,-124,-106)" stroke="silver">
      <rect x="829" width="280" height="126.675" y="366.2" clip-path="url(#clipPath2)" stroke="none"/>
    </g>
    <g font-size="13" stroke-miterlimit="1.45" font-family="sans-serif" transform="matrix(1,0,0,1,-124,-106)" stroke-linecap="butt">
      <text x="945.3804" xml:space="preserve" y="380.5526" clip-path="url(#clipPath2)" stroke="none">decrypt</text>
      <rect fill="none" x="829" width="280" height="126.675" y="366.2" clip-path="url(#clipPath2)"/>
    </g>
    <g fill="rgb(238,237,237)" transform="matrix(1,0,0,1,-124,-106)" stroke="rgb(238,237,237)">
      <rect x="839" width="160" height="30" y="393.7083" clip-path="url(#clipPath2)" stroke="none"/>
    </g>
    <g font-size="13" stroke-miterlimit="1.45" font-family="sans-serif" transform="matrix(1,0,0,1,-124,-106)" stroke-linecap="butt">
      <text x="871.5608" xml:space="preserve" y="413.4977" clip-path="url(#clipPath2)" stroke="none">aead-&gt;decrypt</text>
      <rect fill="none" x="839" width="160" height="30" y="393.7083" clip-path="url(#clipPath2)"/>
    </g>
    <g fill="rgb(238,237,237)" transform="matrix(1,0,0,1,-124,-106)" stroke="rgb(238,237,237)">
      <rect x="839" width="260" height="30" y="447.5333" clip-path="url(#clipPath2)" stroke="none"/>
    </g>
    <g font-size="13" stroke-miterlimit="1.45" font-family="sans-serif" transform="matrix(1,0,0,1,-124,-106)" stroke-linecap="butt">
      <text x="951.7249" xml:space="preserve" y="467.3226" clip-path="url(#clipPath2)" stroke="none">parse</text>
      <rect fill="none" x="839" width="260" height="30" y="447.5333" clip-path="url(#clipPath2)"/>
    </g>
    <g fill="rgb(255,204,0)" transform="matrix(1,0,0,1,-124,-106)" stroke="rgb(255,204,0)">
      <rect x="999" width="100" height="30" y="393.7083" clip-path="url(#clipPath2)" stroke="none"/>
    </g>
    <g stroke-miterlimit="1.45" font-family="sans-serif" transform="matrix(1,0,0,1,-124,-106)" stroke-linecap="butt">
      <text x="1035.2539" xml:space="preserve" y="413.1292" clip-path="url(#clipPath2)" stroke="none">aead</text>
      <rect fill="none" x="999" width="100" height="30" y="393.7083" clip-path="url(#clipPath2)"/>
    </g>
    <g fill="white" transform="matrix(1,0,0,1,-124,-106)" stroke="white">
      <rect x="253" y="121.9625" clip-path="url(#clipPath2)" width="100" rx="4" ry="4" height="30" stroke="none"/>
    </g>
    <g stroke-miterlimit="1.45" font-family="sans-serif" transform="matrix(1,0,0,1,-124,-106)" stroke-linecap="butt">
      <text x="277.9746" xml:space="preserve" y="141.3834" clip-path="url(#clipPath2)" stroke="none">Message</text>
      <rect x="253" y="121.9625" clip-path="url(#clipPath2)" fill="none" width="100" stroke-dasharray="6,2" rx="4" ry="4" height="30"/>
    </g>
    <g fill="rgb(240,238,234)" transform="matrix(1,0,0,1,-124,-106)" stroke="rgb(240,238,234)">
      <rect x="154.6667" width="298" height="269.9792" y="292.3792" clip-path="url(#clipPath2)" stroke="none"/>
    </g>
    <g font-size="13" stroke-miterlimit="1.45" font-family="sans-serif" transform="matrix(1,0,0,1,-124,-106)" stroke-linecap="butt">
      <text x="156.6667" xml:space="preserve" y="306.7317" clip-path="url(#clipPath2)" stroke="none">libcharon/sa/ikev2/task_manager_v2.c</text>
      <rect fill="none" x="154.6667" width="298" height="269.9792" y="292.3792" clip-path="url(#clipPath2)"/>
    </g>
    <g fill="silver" transform="matrix(1,0,0,1,-124,-106)" stroke="silver">
      <rect x="164.3333" width="280" height="60" y="316.5042" clip-path="url(#clipPath2)" stroke="none"/>
    </g>
    <g font-size="13" stroke-miterlimit="1.45" font-family="sans-serif" transform="matrix(1,0,0,1,-124,-106)" stroke-linecap="butt">
      <text x="249.1817" xml:space="preserve" y="330.8567" clip-path="url(#clipPath2)" stroke="none">process_message</text>
      <rect fill="none" x="164.3333" width="280" height="60" y="316.5042" clip-path="url(#clipPath2)"/>
    </g>
    <g fill="rgb(238,237,237)" transform="matrix(1,0,0,1,-124,-106)" stroke="rgb(238,237,237)">
      <rect x="173.6667" width="260" height="30" y="338.5167" clip-path="url(#clipPath2)" stroke="none"/>
    </g>
    <g font-size="13" stroke-miterlimit="1.45" font-family="sans-serif" transform="matrix(1,0,0,1,-124,-106)" stroke-linecap="butt">
      <text x="255.561" xml:space="preserve" y="358.306" clip-path="url(#clipPath2)" stroke="none">parse_message</text>
      <rect fill="none" x="173.6667" width="260" height="30" y="338.5167" clip-path="url(#clipPath2)"/>
    </g>
    <g fill="silver" transform="matrix(1,0,0,1,-124,-106)" stroke="silver">
      <rect x="164.3333" width="280" height="67.2708" y="398.5167" clip-path="url(#clipPath2)" stroke="none"/>
    </g>
    <g font-size="13" stroke-miterlimit="1.45" font-family="sans-serif" transform="matrix(1,0,0,1,-124,-106)" stroke-linecap="butt">
      <text x="256.2276" xml:space="preserve" y="412.8692" clip-path="url(#clipPath2)" stroke="none">parse_message</text>
      <rect fill="none" x="164.3333" width="280" height="67.2708" y="398.5167" clip-path="url(#clipPath2)"/>
    </g>
    <g fill="rgb(238,237,237)" transform="matrix(1,0,0,1,-124,-106)" stroke="rgb(238,237,237)">
      <rect x="173.6667" width="160" height="30" y="425.6292" clip-path="url(#clipPath2)" stroke="none"/>
    </g>
    <g font-size="13" stroke-miterlimit="1.45" font-family="sans-serif" transform="matrix(1,0,0,1,-124,-106)" stroke-linecap="butt">
      <text x="181.0622" xml:space="preserve" y="445.4185" clip-path="url(#clipPath2)" stroke="none">message-&gt;parse_body</text>
      <rect fill="none" x="173.6667" width="160" height="30" y="425.6292" clip-path="url(#clipPath2)"/>
    </g>
    <g fill="rgb(255,204,0)" transform="matrix(1,0,0,1,-124,-106)" stroke="rgb(255,204,0)">
      <rect x="333.6667" width="100" height="30" y="425.6292" clip-path="url(#clipPath2)" stroke="none"/>
    </g>
    <g stroke-miterlimit="1.45" font-family="sans-serif" transform="matrix(1,0,0,1,-124,-106)" stroke-linecap="butt">
      <text x="362.5231" xml:space="preserve" y="445.0501" clip-path="url(#clipPath2)" stroke="none">keymat</text>
      <rect fill="none" x="333.6667" width="100" height="30" y="425.6292" clip-path="url(#clipPath2)"/>
    </g>
    <g fill="silver" transform="matrix(1,0,0,1,-124,-106)" stroke="silver">
      <rect x="163.6667" width="280" height="67.2708" y="485.6292" clip-path="url(#clipPath2)" stroke="none"/>
    </g>
    <g font-size="13" stroke-miterlimit="1.45" font-family="sans-serif" transform="matrix(1,0,0,1,-124,-106)" stroke-linecap="butt">
      <text x="248.5151" xml:space="preserve" y="499.9817" clip-path="url(#clipPath2)" stroke="none">process_message</text>
      <rect fill="none" x="163.6667" width="280" height="67.2708" y="485.6292" clip-path="url(#clipPath2)"/>
    </g>
    <g fill="white" transform="matrix(1,0,0,1,-124,-106)" stroke="white">
      <path d="M173.6667 510.7542 L418.6667 510.7542 L418.6667 525.7542 L433.6667 525.7542 L433.6667 540.7542 L173.6667 540.7542 Z" clip-path="url(#clipPath2)" stroke="none"/>
      <path d="M418.6667 510.7542 L418.6667 525.7542 L433.6667 525.7542 Z" clip-path="url(#clipPath2)" fill-rule="evenodd" stroke="none"/>
    </g>
    <g stroke-linecap="butt" transform="matrix(1,0,0,1,-124,-106)" stroke-miterlimit="1.45">
      <path fill="none" d="M173.6667 510.7542 L418.6667 510.7542 L418.6667 525.7542 L433.6667 525.7542 L433.6667 540.7542 L173.6667 540.7542 Z" clip-path="url(#clipPath2)"/>
      <path fill="none" d="M418.6667 510.7542 L418.6667 525.7542 L433.6667 525.7542 Z" fill-rule="evenodd" clip-path="url(#clipPath2)"/>
      <text x="198.3766" xml:space="preserve" y="530.175" font-family="sans-serif" clip-path="url(#clipPath2)" stroke="none">further processing of decr. message</text>
    </g>
    <g fill="rgb(238,237,237)" transform="matrix(1,0,0,1,-124,-106)" stroke="rgb(238,237,237)">
      <rect x="505" width="260" height="30" y="343.875" clip-path="url(#clipPath2)" stroke="none"/>
    </g>
    <g font-size="13" stroke-miterlimit="1.45" font-family="sans-serif" transform="matrix(1,0,0,1,-124,-106)" stroke-linecap="butt">
      <text x="567.1943" xml:space="preserve" y="363.6643" clip-path="url(#clipPath2)" stroke="none">type == ENCRYPTED?</text>
      <rect fill="none" x="505" width="260" height="30" y="343.875" clip-path="url(#clipPath2)"/>
    </g>
    <g fill="rgb(238,237,237)" transform="matrix(1,0,0,1,-124,-106)" stroke="rgb(238,237,237)">
      <rect x="503.6667" width="160" height="30" y="393.7083" clip-path="url(#clipPath2)" stroke="none"/>
    </g>
    <g font-size="13" stroke-miterlimit="1.45" font-family="sans-serif" transform="matrix(1,0,0,1,-124,-106)" stroke-linecap="butt">
      <text x="555.4196" xml:space="preserve" y="413.4977" clip-path="url(#clipPath2)" stroke="none">get_aead</text>
      <rect fill="none" x="503.6667" width="160" height="30" y="393.7083" clip-path="url(#clipPath2)"/>
    </g>
    <g fill="rgb(255,204,0)" transform="matrix(1,0,0,1,-124,-106)" stroke="rgb(255,204,0)">
      <rect x="663.6667" width="100" height="30" y="393.7083" clip-path="url(#clipPath2)" stroke="none"/>
    </g>
    <g stroke-miterlimit="1.45" font-family="sans-serif" transform="matrix(1,0,0,1,-124,-106)" stroke-linecap="butt">
      <text x="692.5231" xml:space="preserve" y="413.1292" clip-path="url(#clipPath2)" stroke="none">keymat</text>
      <rect fill="none" x="663.6667" width="100" height="30" y="393.7083" clip-path="url(#clipPath2)"/>
      <path fill="none" d="M635.6667 290.775 L635.6667 313.4742" clip-path="url(#clipPath2)"/>
      <path d="M635.6667 321.4742 L640.6667 309.4742 L635.6667 312.4742 L630.6667 309.4742 Z" clip-path="url(#clipPath2)" stroke="none"/>
      <path fill="none" d="M635 473.5896 L635 489.075" clip-path="url(#clipPath2)"/>
      <path d="M635 497.075 L640 485.075 L635 488.075 L630 485.075 Z" clip-path="url(#clipPath2)" stroke="none"/>
      <path fill="none" d="M765 512.075 L802.5 512.075 L802.5 429.5375 L821 429.5375" clip-path="url(#clipPath2)"/>
      <path d="M829 429.5375 L817 424.5375 L820 429.5375 L817 434.5375 Z" clip-path="url(#clipPath2)" stroke="none"/>
      <path fill="none" d="M969 423.7328 L969 439.5333" clip-path="url(#clipPath2)"/>
      <path d="M969 447.5333 L974 435.5333 L969 438.5333 L964 435.5333 Z" clip-path="url(#clipPath2)" stroke="none"/>
      <path fill="none" stroke-dasharray="6,2" d="M303 151.9583 L303 173.9625" clip-path="url(#clipPath2)"/>
      <path stroke-dasharray="6,2" d="M303 181.9625 L308 169.9625 L303 172.9625 L298 169.9625 Z" clip-path="url(#clipPath2)" stroke="none"/>
      <path fill="none" d="M173 243.1 L139.5 243.1 L139.5 346.5042 L156.3333 346.5042" clip-path="url(#clipPath2)"/>
      <path d="M164.3333 346.5042 L152.3333 341.5042 L155.3333 346.5042 L152.3333 351.5042 Z" clip-path="url(#clipPath2)" stroke="none"/>
      <path fill="none" d="M303.6667 368.5167 L303.6667 390.5447" clip-path="url(#clipPath2)"/>
      <path d="M303.6667 398.5447 L308.6667 386.5447 L303.6667 389.5447 L298.6667 386.5447 Z" clip-path="url(#clipPath2)" stroke="none"/>
      <path fill="none" d="M433.6667 440.6292 L467.5 440.6292 L467.5 270.1271 L487.6667 270.1271" clip-path="url(#clipPath2)"/>
      <path d="M495.6667 270.1271 L483.6667 265.1271 L486.6667 270.1271 L483.6667 275.1271 Z" clip-path="url(#clipPath2)" stroke="none"/>
      <path fill="none" d="M304.0759 465.7875 L303.9853 477.6294" clip-path="url(#clipPath2)"/>
      <path d="M303.9241 485.6292 L309.0158 473.6678 L303.993 476.6294 L299.0161 473.5912 Z" clip-path="url(#clipPath2)" stroke="none"/>
      <path fill="none" d="M635 373.875 L635 385.7064" clip-path="url(#clipPath2)"/>
      <path d="M635 393.7064 L640 381.7064 L635 384.7064 L630 381.7064 Z" clip-path="url(#clipPath2)" stroke="none"/>
      <path fill="none" d="M635.5 423.6855 L635.5 435.5537" clip-path="url(#clipPath2)"/>
      <path d="M635.5 443.5537 L640.5 431.5537 L635.5 434.5537 L630.5 431.5537 Z" clip-path="url(#clipPath2)" stroke="none"/>
    </g>
  </g>
</svg>
