<?xml version="1.0" encoding="UTF-8"?><svg xmlns="http://www.w3.org/2000/svg" xmlns:xlink="http://www.w3.org/1999/xlink" fill-opacity="1" color-rendering="auto" color-interpolation="auto" stroke="black" text-rendering="auto" stroke-linecap="square" width="675" stroke-miterlimit="10" stroke-opacity="1" shape-rendering="auto" fill="black" stroke-dasharray="none" font-weight="normal" stroke-width="1" height="625" font-family="'Dialog'" font-style="normal" stroke-linejoin="miter" font-size="12" stroke-dashoffset="0" image-rendering="auto">
  <!--Generated by ySVG-->
  <defs id="genericDefs"/>
  <g>
    <defs id="defs1">
      <clipPath clipPathUnits="userSpaceOnUse" id="clipPath1">
        <path d="M0 0 L675 0 L675 625 L0 625 L0 0 Z"/>
      </clipPath>
      <clipPath clipPathUnits="userSpaceOnUse" id="clipPath2">
        <path d="M124 106 L799 106 L799 731 L124 731 L124 106 Z"/>
      </clipPath>
    </defs>
    <g fill="white" transform="translate(-124,-106)" stroke="white">
      <rect x="124" width="675" height="625" y="106" clip-path="url(#clipPath2)" stroke="none"/>
    </g>
    <g fill="rgb(240,238,234)" transform="matrix(1,0,0,1,-124,-106)" stroke="rgb(240,238,234)">
      <rect x="154" width="298" height="90.125" y="181.9625" clip-path="url(#clipPath2)" stroke="none"/>
    </g>
    <g font-size="13" stroke-miterlimit="1.45" font-family="sans-serif" transform="matrix(1,0,0,1,-124,-106)" stroke-linecap="butt">
      <text x="156" xml:space="preserve" y="196.0294" clip-path="url(#clipPath2)" stroke="none">libcharon/sa/ike_sa.c</text>
      <rect fill="none" x="154" width="298" height="90.125" y="181.9625" clip-path="url(#clipPath2)"/>
    </g>
    <g fill="silver" transform="matrix(1,0,0,1,-124,-106)" stroke="silver">
      <rect x="163.6667" width="280" height="60" y="206.0875" clip-path="url(#clipPath2)" stroke="none"/>
    </g>
    <g font-size="13" stroke-miterlimit="1.45" font-family="sans-serif" transform="matrix(1,0,0,1,-124,-106)" stroke-linecap="butt">
      <text x="246.0839" xml:space="preserve" y="220.1544" clip-path="url(#clipPath2)" stroke="none">process_message</text>
      <rect fill="none" x="163.6667" width="280" height="60" y="206.0875" clip-path="url(#clipPath2)"/>
    </g>
    <g fill="rgb(238,237,237)" transform="matrix(1,0,0,1,-124,-106)" stroke="rgb(238,237,237)">
      <rect x="173" width="260" height="30" y="228.1" clip-path="url(#clipPath2)" stroke="none"/>
    </g>
    <g font-size="13" stroke-miterlimit="1.45" font-family="sans-serif" transform="matrix(1,0,0,1,-124,-106)" stroke-linecap="butt">
      <text x="191.478" xml:space="preserve" y="247.6005" clip-path="url(#clipPath2)" stroke="none">task_manager-&gt;process_message</text>
      <rect fill="none" x="173" width="260" height="30" y="228.1" clip-path="url(#clipPath2)"/>
    </g>
    <g fill="rgb(240,238,234)" transform="matrix(1,0,0,1,-124,-106)" stroke="rgb(240,238,234)">
      <rect x="486" width="298" height="334" y="212.3667" clip-path="url(#clipPath2)" stroke="none"/>
    </g>
    <g font-size="13" stroke-miterlimit="1.45" font-family="sans-serif" transform="matrix(1,0,0,1,-124,-106)" stroke-linecap="butt">
      <text x="488" xml:space="preserve" y="226.4336" clip-path="url(#clipPath2)" stroke="none">libcharon/encoding/message.c</text>
      <rect fill="none" x="486" width="298" height="334" y="212.3667" clip-path="url(#clipPath2)"/>
    </g>
    <g fill="silver" transform="matrix(1,0,0,1,-124,-106)" stroke="silver">
      <rect x="495.6667" width="280" height="67.2708" y="236.4917" clip-path="url(#clipPath2)" stroke="none"/>
    </g>
    <g font-size="13" stroke-miterlimit="1.45" font-family="sans-serif" transform="matrix(1,0,0,1,-124,-106)" stroke-linecap="butt">
      <text x="598.1743" xml:space="preserve" y="250.5586" clip-path="url(#clipPath2)" stroke="none">parse_body</text>
      <rect fill="none" x="495.6667" width="280" height="67.2708" y="236.4917" clip-path="url(#clipPath2)"/>
    </g>
    <g fill="rgb(238,237,237)" transform="matrix(1,0,0,1,-124,-106)" stroke="rgb(238,237,237)">
      <rect x="505.6667" width="260" height="30" y="260.775" clip-path="url(#clipPath2)" stroke="none"/>
    </g>
    <g font-size="13" stroke-miterlimit="1.45" font-family="sans-serif" transform="matrix(1,0,0,1,-124,-106)" stroke-linecap="butt">
      <text x="578.2902" xml:space="preserve" y="280.2755" clip-path="url(#clipPath2)" stroke="none">decrypt_payloads</text>
      <rect fill="none" x="505.6667" width="260" height="30" y="260.775" clip-path="url(#clipPath2)"/>
    </g>
    <g fill="silver" transform="matrix(1,0,0,1,-124,-106)" stroke="silver">
      <rect x="495.6667" width="280" height="213.8625" y="321.5042" clip-path="url(#clipPath2)" stroke="none"/>
    </g>
    <g font-size="13" stroke-miterlimit="1.45" font-family="sans-serif" transform="matrix(1,0,0,1,-124,-106)" stroke-linecap="butt">
      <text x="578.2902" xml:space="preserve" y="335.5711" clip-path="url(#clipPath2)" stroke="none">decrypt_payloads</text>
      <rect fill="none" x="495.6667" width="280" height="213.8625" y="321.5042" clip-path="url(#clipPath2)"/>
    </g>
    <g fill="rgb(238,237,237)" transform="matrix(1,0,0,1,-124,-106)" stroke="rgb(238,237,237)">
      <rect x="503.6667" width="160" height="30" y="443.5417" clip-path="url(#clipPath2)" stroke="none"/>
    </g>
    <g font-size="13" stroke-miterlimit="1.45" font-family="sans-serif" transform="matrix(1,0,0,1,-124,-106)" stroke-linecap="butt">
      <text x="516.3466" xml:space="preserve" y="463.0421" clip-path="url(#clipPath2)" stroke="none">encr-&gt;set_transform</text>
      <rect fill="none" x="503.6667" width="160" height="30" y="443.5417" clip-path="url(#clipPath2)"/>
    </g>
    <g fill="rgb(255,204,0)" transform="matrix(1,0,0,1,-124,-106)" stroke="rgb(255,204,0)">
      <rect x="663.6667" width="100" height="30" y="443.5417" clip-path="url(#clipPath2)" stroke="none"/>
    </g>
    <g stroke-miterlimit="1.45" font-family="sans-serif" transform="matrix(1,0,0,1,-124,-106)" stroke-linecap="butt">
      <text x="698.8132" xml:space="preserve" y="462.696" clip-path="url(#clipPath2)" stroke="none">aead</text>
      <rect fill="none" x="663.6667" width="100" height="30" y="443.5417" clip-path="url(#clipPath2)"/>
    </g>
    <g fill="rgb(240,238,234)" transform="matrix(1,0,0,1,-124,-106)" stroke="rgb(240,238,234)">
      <rect x="486" width="298" height="150" y="565.3667" clip-path="url(#clipPath2)" stroke="none"/>
    </g>
    <g font-size="13" stroke-miterlimit="1.45" font-family="sans-serif" transform="matrix(1,0,0,1,-124,-106)" stroke-linecap="butt">
      <text x="488" xml:space="preserve" y="579.4335" clip-path="url(#clipPath2)" stroke="none">libcharon/encoding/.../encryption_payload.c</text>
      <rect fill="none" x="486" width="298" height="150" y="565.3667" clip-path="url(#clipPath2)"/>
    </g>
    <g fill="rgb(238,237,237)" transform="matrix(1,0,0,1,-124,-106)" stroke="rgb(238,237,237)">
      <rect x="505" width="260" height="30" y="497.075" clip-path="url(#clipPath2)" stroke="none"/>
    </g>
    <g font-size="13" stroke-miterlimit="1.45" font-family="sans-serif" transform="matrix(1,0,0,1,-124,-106)" stroke-linecap="butt">
      <text x="587.9512" xml:space="preserve" y="516.5755" clip-path="url(#clipPath2)" stroke="none">encr-&gt;decrypt</text>
      <rect fill="none" x="505" width="260" height="30" y="497.075" clip-path="url(#clipPath2)"/>
    </g>
    <g fill="silver" transform="matrix(1,0,0,1,-124,-106)" stroke="silver">
      <rect x="495.6667" width="280" height="112.675" y="594.1667" clip-path="url(#clipPath2)" stroke="none"/>
    </g>
    <g font-size="13" stroke-miterlimit="1.45" font-family="sans-serif" transform="matrix(1,0,0,1,-124,-106)" stroke-linecap="butt">
      <text x="610.7744" xml:space="preserve" y="608.2336" clip-path="url(#clipPath2)" stroke="none">decrypt</text>
      <rect fill="none" x="495.6667" width="280" height="112.675" y="594.1667" clip-path="url(#clipPath2)"/>
    </g>
    <g fill="rgb(238,237,237)" transform="matrix(1,0,0,1,-124,-106)" stroke="rgb(238,237,237)">
      <rect x="505.6667" width="160" height="30" y="621.675" clip-path="url(#clipPath2)" stroke="none"/>
    </g>
    <g font-size="13" stroke-miterlimit="1.45" font-family="sans-serif" transform="matrix(1,0,0,1,-124,-106)" stroke-linecap="butt">
      <text x="536.8913" xml:space="preserve" y="641.1755" clip-path="url(#clipPath2)" stroke="none">aead-&gt;decrypt</text>
      <rect fill="none" x="505.6667" width="160" height="30" y="621.675" clip-path="url(#clipPath2)"/>
    </g>
    <g fill="rgb(238,237,237)" transform="matrix(1,0,0,1,-124,-106)" stroke="rgb(238,237,237)">
      <rect x="505.6667" width="260" height="30" y="667.5" clip-path="url(#clipPath2)" stroke="none"/>
    </g>
    <g font-size="13" stroke-miterlimit="1.45" font-family="sans-serif" transform="matrix(1,0,0,1,-124,-106)" stroke-linecap="butt">
      <text x="617.4997" xml:space="preserve" y="687.0005" clip-path="url(#clipPath2)" stroke="none">parse</text>
      <rect fill="none" x="505.6667" width="260" height="30" y="667.5" clip-path="url(#clipPath2)"/>
    </g>
    <g fill="rgb(255,204,0)" transform="matrix(1,0,0,1,-124,-106)" stroke="rgb(255,204,0)">
      <rect x="665.6667" width="100" height="30" y="621.675" clip-path="url(#clipPath2)" stroke="none"/>
    </g>
    <g stroke-miterlimit="1.45" font-family="sans-serif" transform="matrix(1,0,0,1,-124,-106)" stroke-linecap="butt">
      <text x="700.8132" xml:space="preserve" y="640.8293" clip-path="url(#clipPath2)" stroke="none">aead</text>
      <rect fill="none" x="665.6667" width="100" height="30" y="621.675" clip-path="url(#clipPath2)"/>
    </g>
    <g fill="white" transform="matrix(1,0,0,1,-124,-106)" stroke="white">
      <rect x="253" y="121.9625" clip-path="url(#clipPath2)" width="100" rx="4" ry="4" height="30" stroke="none"/>
    </g>
    <g stroke-miterlimit="1.45" font-family="sans-serif" transform="matrix(1,0,0,1,-124,-106)" stroke-linecap="butt">
      <text x="276.7031" xml:space="preserve" y="141.1168" clip-path="url(#clipPath2)" stroke="none">Message</text>
      <rect x="253" y="121.9625" clip-path="url(#clipPath2)" fill="none" width="100" stroke-dasharray="6,2" rx="4" ry="4" height="30"/>
    </g>
    <g fill="rgb(240,238,234)" transform="matrix(1,0,0,1,-124,-106)" stroke="rgb(240,238,234)">
      <rect x="154.6667" width="298" height="269.9792" y="292.3792" clip-path="url(#clipPath2)" stroke="none"/>
    </g>
    <g font-size="13" stroke-miterlimit="1.45" font-family="sans-serif" transform="matrix(1,0,0,1,-124,-106)" stroke-linecap="butt">
      <text x="156.6667" xml:space="preserve" y="306.4461" clip-path="url(#clipPath2)" stroke="none">libcharon/sa/ikev2/task_manager_v2.c</text>
      <rect fill="none" x="154.6667" width="298" height="269.9792" y="292.3792" clip-path="url(#clipPath2)"/>
    </g>
    <g fill="silver" transform="matrix(1,0,0,1,-124,-106)" stroke="silver">
      <rect x="164.3333" width="280" height="60" y="316.5042" clip-path="url(#clipPath2)" stroke="none"/>
    </g>
    <g font-size="13" stroke-miterlimit="1.45" font-family="sans-serif" transform="matrix(1,0,0,1,-124,-106)" stroke-linecap="butt">
      <text x="246.7506" xml:space="preserve" y="330.5711" clip-path="url(#clipPath2)" stroke="none">process_message</text>
      <rect fill="none" x="164.3333" width="280" height="60" y="316.5042" clip-path="url(#clipPath2)"/>
    </g>
    <g fill="rgb(238,237,237)" transform="matrix(1,0,0,1,-124,-106)" stroke="rgb(238,237,237)">
      <rect x="173.6667" width="260" height="30" y="338.5167" clip-path="url(#clipPath2)" stroke="none"/>
    </g>
    <g font-size="13" stroke-miterlimit="1.45" font-family="sans-serif" transform="matrix(1,0,0,1,-124,-106)" stroke-linecap="butt">
      <text x="253.0378" xml:space="preserve" y="358.0172" clip-path="url(#clipPath2)" stroke="none">parse_message</text>
      <rect fill="none" x="173.6667" width="260" height="30" y="338.5167" clip-path="url(#clipPath2)"/>
    </g>
    <g fill="silver" transform="matrix(1,0,0,1,-124,-106)" stroke="silver">
      <rect x="164.3333" width="280" height="67.2708" y="398.5167" clip-path="url(#clipPath2)" stroke="none"/>
    </g>
    <g font-size="13" stroke-miterlimit="1.45" font-family="sans-serif" transform="matrix(1,0,0,1,-124,-106)" stroke-linecap="butt">
      <text x="253.7044" xml:space="preserve" y="412.5836" clip-path="url(#clipPath2)" stroke="none">parse_message</text>
      <rect fill="none" x="164.3333" width="280" height="67.2708" y="398.5167" clip-path="url(#clipPath2)"/>
    </g>
    <g fill="rgb(238,237,237)" transform="matrix(1,0,0,1,-124,-106)" stroke="rgb(238,237,237)">
      <rect x="173.6667" width="160" height="30" y="425.6292" clip-path="url(#clipPath2)" stroke="none"/>
    </g>
    <g font-size="13" stroke-miterlimit="1.45" font-family="sans-serif" transform="matrix(1,0,0,1,-124,-106)" stroke-linecap="butt">
      <text x="179.1706" xml:space="preserve" y="445.1297" clip-path="url(#clipPath2)" stroke="none">message-&gt;parse_body</text>
      <rect fill="none" x="173.6667" width="160" height="30" y="425.6292" clip-path="url(#clipPath2)"/>
    </g>
    <g fill="rgb(255,204,0)" transform="matrix(1,0,0,1,-124,-106)" stroke="rgb(255,204,0)">
      <rect x="333.6667" width="100" height="30" y="425.6292" clip-path="url(#clipPath2)" stroke="none"/>
    </g>
    <g stroke-miterlimit="1.45" font-family="sans-serif" transform="matrix(1,0,0,1,-124,-106)" stroke-linecap="butt">
      <text x="361.0758" xml:space="preserve" y="444.7835" clip-path="url(#clipPath2)" stroke="none">keymat</text>
      <rect fill="none" x="333.6667" width="100" height="30" y="425.6292" clip-path="url(#clipPath2)"/>
    </g>
    <g fill="silver" transform="matrix(1,0,0,1,-124,-106)" stroke="silver">
      <rect x="164.3333" width="280" height="67.2708" y="485.6292" clip-path="url(#clipPath2)" stroke="none"/>
    </g>
    <g font-size="13" stroke-miterlimit="1.45" font-family="sans-serif" transform="matrix(1,0,0,1,-124,-106)" stroke-linecap="butt">
      <text x="246.7506" xml:space="preserve" y="499.6961" clip-path="url(#clipPath2)" stroke="none">process_message</text>
      <rect fill="none" x="164.3333" width="280" height="67.2708" y="485.6292" clip-path="url(#clipPath2)"/>
    </g>
    <g fill="white" transform="matrix(1,0,0,1,-124,-106)" stroke="white">
      <path d="M174.3333 510.7542 L419.3333 510.7542 L419.3333 525.7542 L434.3333 525.7542 L434.3333 540.7542 L174.3333 540.7542 Z" clip-path="url(#clipPath2)" stroke="none"/>
      <path d="M419.3333 510.7542 L419.3333 525.7542 L434.3333 525.7542 Z" clip-path="url(#clipPath2)" fill-rule="evenodd" stroke="none"/>
    </g>
    <g stroke-linecap="butt" transform="matrix(1,0,0,1,-124,-106)" stroke-miterlimit="1.45">
      <path fill="none" d="M174.3333 510.7542 L419.3333 510.7542 L419.3333 525.7542 L434.3333 525.7542 L434.3333 540.7542 L174.3333 540.7542 Z" clip-path="url(#clipPath2)"/>
      <path fill="none" d="M419.3333 510.7542 L419.3333 525.7542 L434.3333 525.7542 Z" fill-rule="evenodd" clip-path="url(#clipPath2)"/>
      <text x="195.6214" xml:space="preserve" y="529.9084" font-family="sans-serif" clip-path="url(#clipPath2)" stroke="none">further processing of decr. message</text>
    </g>
    <g fill="rgb(238,237,237)" transform="matrix(1,0,0,1,-124,-106)" stroke="rgb(238,237,237)">
      <rect x="505" width="260" height="30" y="343.875" clip-path="url(#clipPath2)" stroke="none"/>
    </g>
    <g font-size="13" stroke-miterlimit="1.45" font-family="sans-serif" transform="matrix(1,0,0,1,-124,-106)" stroke-linecap="butt">
      <text x="563.0081" xml:space="preserve" y="363.3755" clip-path="url(#clipPath2)" stroke="none">type == ENCRYPTED?</text>
      <rect fill="none" x="505" width="260" height="30" y="343.875" clip-path="url(#clipPath2)"/>
    </g>
    <g fill="rgb(238,237,237)" transform="matrix(1,0,0,1,-124,-106)" stroke="rgb(238,237,237)">
      <rect x="503.6667" width="160" height="30" y="393.7083" clip-path="url(#clipPath2)" stroke="none"/>
    </g>
    <g font-size="13" stroke-miterlimit="1.45" font-family="sans-serif" transform="matrix(1,0,0,1,-124,-106)" stroke-linecap="butt">
      <text x="553.6518" xml:space="preserve" y="413.2088" clip-path="url(#clipPath2)" stroke="none">get_aead</text>
      <rect fill="none" x="503.6667" width="160" height="30" y="393.7083" clip-path="url(#clipPath2)"/>
    </g>
    <g fill="rgb(255,204,0)" transform="matrix(1,0,0,1,-124,-106)" stroke="rgb(255,204,0)">
      <rect x="663.6667" width="100" height="30" y="393.7083" clip-path="url(#clipPath2)" stroke="none"/>
    </g>
    <g stroke-miterlimit="1.45" font-family="sans-serif" transform="matrix(1,0,0,1,-124,-106)" stroke-linecap="butt">
      <text x="691.0759" xml:space="preserve" y="412.8626" clip-path="url(#clipPath2)" stroke="none">keymat</text>
      <rect fill="none" x="663.6667" width="100" height="30" y="393.7083" clip-path="url(#clipPath2)"/>
      <path fill="none" d="M635.6667 290.775 L635.6667 313.4742" clip-path="url(#clipPath2)"/>
      <path d="M635.6667 321.4742 L640.6667 309.4742 L635.6667 312.4742 L630.6667 309.4742 Z" clip-path="url(#clipPath2)" stroke="none"/>
      <path fill="none" d="M635 473.5896 L635 489.075" clip-path="url(#clipPath2)"/>
      <path d="M635 497.075 L640 485.075 L635 488.075 L630 485.075 Z" clip-path="url(#clipPath2)" stroke="none"/>
      <path fill="none" d="M635 527.075 L635 557.3293" clip-path="url(#clipPath2)"/>
      <path d="M635 565.3293 L640 553.3293 L635 556.3293 L630 553.3293 Z" clip-path="url(#clipPath2)" stroke="none"/>
      <path fill="none" d="M635.6667 651.6995 L635.6667 659.5" clip-path="url(#clipPath2)"/>
      <path d="M635.6667 667.5 L640.6667 655.5 L635.6667 658.5 L630.6667 655.5 Z" clip-path="url(#clipPath2)" stroke="none"/>
      <path fill="none" stroke-dasharray="6,2" d="M303 151.9583 L303 173.9625" clip-path="url(#clipPath2)"/>
      <path stroke-dasharray="6,2" d="M303 181.9625 L308 169.9625 L303 172.9625 L298 169.9625 Z" clip-path="url(#clipPath2)" stroke="none"/>
      <path fill="none" d="M173 243.1 L139.5 243.1 L139.5 346.5042 L146.6484 346.5042" clip-path="url(#clipPath2)"/>
      <path d="M154.6484 346.5042 L142.6484 341.5042 L145.6484 346.5042 L142.6484 351.5042 Z" clip-path="url(#clipPath2)" stroke="none"/>
      <path fill="none" d="M303.6667 368.5167 L303.6667 390.5447" clip-path="url(#clipPath2)"/>
      <path d="M303.6667 398.5447 L308.6667 386.5447 L303.6667 389.5447 L298.6667 386.5447 Z" clip-path="url(#clipPath2)" stroke="none"/>
      <path fill="none" d="M433.6667 440.6292 L467.5 440.6292 L467.5 270.1271 L477.9766 270.1271" clip-path="url(#clipPath2)"/>
      <path d="M485.9766 270.1271 L473.9766 265.1271 L476.9766 270.1271 L473.9766 275.1271 Z" clip-path="url(#clipPath2)" stroke="none"/>
      <path fill="none" d="M304.3333 465.7875 L304.3333 477.6292" clip-path="url(#clipPath2)"/>
      <path d="M304.3333 485.6292 L309.3333 473.6292 L304.3333 476.6292 L299.3333 473.6292 Z" clip-path="url(#clipPath2)" stroke="none"/>
      <path fill="none" d="M635 373.875 L635 385.7064" clip-path="url(#clipPath2)"/>
      <path d="M635 393.7064 L640 381.7064 L635 384.7064 L630 381.7064 Z" clip-path="url(#clipPath2)" stroke="none"/>
      <path fill="none" d="M635.5 423.6855 L635.5 435.5537" clip-path="url(#clipPath2)"/>
      <path d="M635.5 443.5537 L640.5 431.5537 L635.5 434.5537 L630.5 431.5537 Z" clip-path="url(#clipPath2)" stroke="none"/>
    </g>
  </g>
</svg>
