<?xml version="1.0" encoding="UTF-8"?>
<svg xmlns="http://www.w3.org/2000/svg" xmlns:xlink="http://www.w3.org/1999/xlink" fill-opacity="1" color-rendering="auto" color-interpolation="auto" stroke="black" text-rendering="auto" stroke-linecap="square" width="1304" stroke-miterlimit="10" stroke-opacity="1" shape-rendering="auto" fill="black" stroke-dasharray="none" font-weight="normal" stroke-width="1" height="644" font-family="'Dialog'" font-style="normal" stroke-linejoin="miter" font-size="12" stroke-dashoffset="0" image-rendering="auto">
  <!--Generated by ySVG-->
  <defs id="genericDefs"/>
  <g>
    <defs id="defs1">
      <clipPath clipPathUnits="userSpaceOnUse" id="clipPath1">
        <path d="M0 0 L1304 0 L1304 644 L0 644 L0 0 Z"/>
      </clipPath>
      <clipPath clipPathUnits="userSpaceOnUse" id="clipPath2">
        <path d="M483 103 L1787 103 L1787 747 L483 747 L483 103 Z"/>
      </clipPath>
    </defs>
    <g fill="white" transform="translate(-483,-103)" stroke="white">
      <rect x="483" width="1304" height="644" y="103" clip-path="url(#clipPath2)" stroke="none"/>
    </g>
    <g fill="rgb(240,238,234)" transform="matrix(1,0,0,1,-483,-103)" stroke="rgb(240,238,234)">
      <rect x="1145.3333" width="298" height="432.9494" y="298.1468" clip-path="url(#clipPath2)" stroke="none"/>
    </g>
    <g font-size="13" stroke-miterlimit="1.45" font-family="sans-serif" transform="matrix(1,0,0,1,-483,-103)" stroke-linecap="butt">
      <text x="1147.3334" xml:space="preserve" y="312.4994" clip-path="url(#clipPath2)" stroke="none">libcharon/encoding/message.c</text>
      <rect fill="none" x="1145.3333" width="298" height="432.9494" y="298.1468" clip-path="url(#clipPath2)"/>
    </g>
    <g fill="silver" transform="matrix(1,0,0,1,-483,-103)" stroke="silver">
      <rect x="1155" width="280" height="156.511" y="565.4837" clip-path="url(#clipPath2)" stroke="none"/>
    </g>
    <g font-size="13" stroke-miterlimit="1.45" font-family="sans-serif" transform="matrix(1,0,0,1,-483,-103)" stroke-linecap="butt">
      <text x="1267.3687" xml:space="preserve" y="579.8362" clip-path="url(#clipPath2)" stroke="none">generate</text>
      <rect fill="none" x="1155" width="280" height="156.511" y="565.4837" clip-path="url(#clipPath2)"/>
    </g>
    <g fill="rgb(240,238,234)" transform="matrix(1,0,0,1,-483,-103)" stroke="rgb(240,238,234)">
      <rect x="826.3333" width="298" height="203.8312" y="178.5313" clip-path="url(#clipPath2)" stroke="none"/>
    </g>
    <g font-size="13" stroke-miterlimit="1.45" font-family="sans-serif" transform="matrix(1,0,0,1,-483,-103)" stroke-linecap="butt">
      <text x="828.3333" xml:space="preserve" y="192.8838" clip-path="url(#clipPath2)" stroke="none">libcharon/sa/ike_sa.c</text>
      <rect fill="none" x="826.3333" width="298" height="203.8312" y="178.5313" clip-path="url(#clipPath2)"/>
    </g>
    <g fill="silver" transform="matrix(1,0,0,1,-483,-103)" stroke="silver">
      <rect x="835.3333" width="280" height="101" y="202.6563" clip-path="url(#clipPath2)" stroke="none"/>
    </g>
    <g font-size="13" stroke-miterlimit="1.45" font-family="sans-serif" transform="matrix(1,0,0,1,-483,-103)" stroke-linecap="butt">
      <text x="953.5894" xml:space="preserve" y="217.0088" clip-path="url(#clipPath2)" stroke="none">initiate</text>
      <rect fill="none" x="835.3333" width="280" height="101" y="202.6563" clip-path="url(#clipPath2)"/>
    </g>
    <g fill="rgb(238,237,237)" transform="matrix(1,0,0,1,-483,-103)" stroke="rgb(238,237,237)">
      <rect x="845.3333" width="260" height="30" y="263.6688" clip-path="url(#clipPath2)" stroke="none"/>
    </g>
    <g font-size="13" stroke-miterlimit="1.45" font-family="sans-serif" transform="matrix(1,0,0,1,-483,-103)" stroke-linecap="butt">
      <text x="900.6627" xml:space="preserve" y="283.4581" clip-path="url(#clipPath2)" stroke="none">task_manager-&gt;initiate</text>
      <rect fill="none" x="845.3333" width="260" height="30" y="263.6688" clip-path="url(#clipPath2)"/>
    </g>
    <g fill="white" transform="matrix(1,0,0,1,-483,-103)" stroke="white">
      <path d="M845.3333 223.4828 L1090.3334 223.4828 L1090.3334 238.4828 L1105.3334 238.4828 L1105.3334 253.4828 L845.3333 253.4828 Z" clip-path="url(#clipPath2)" stroke="none"/>
      <path d="M1090.3334 223.4828 L1090.3334 238.4828 L1105.3334 238.4828 Z" clip-path="url(#clipPath2)" fill-rule="evenodd" stroke="none"/>
    </g>
    <g stroke-linecap="butt" transform="matrix(1,0,0,1,-483,-103)" stroke-miterlimit="1.45">
      <path fill="none" d="M845.3333 223.4828 L1090.3334 223.4828 L1090.3334 238.4828 L1105.3334 238.4828 L1105.3334 253.4828 L845.3333 253.4828 Z" clip-path="url(#clipPath2)"/>
      <path fill="none" d="M1090.3334 223.4828 L1090.3334 238.4828 L1105.3334 238.4828 Z" fill-rule="evenodd" clip-path="url(#clipPath2)"/>
      <text x="939.4593" xml:space="preserve" y="242.9037" font-family="sans-serif" clip-path="url(#clipPath2)" stroke="none">Queue tasks</text>
    </g>
    <g fill="rgb(240,238,234)" transform="matrix(1,0,0,1,-483,-103)" stroke="rgb(240,238,234)">
      <rect x="498.3333" width="298" height="362" y="228.0188" clip-path="url(#clipPath2)" stroke="none"/>
    </g>
    <g font-size="13" stroke-miterlimit="1.45" font-family="sans-serif" transform="matrix(1,0,0,1,-483,-103)" stroke-linecap="butt">
      <text x="500.3333" xml:space="preserve" y="242.3713" clip-path="url(#clipPath2)" stroke="none">libcharon/sa/ikev2/task_manager_v2.c</text>
      <rect fill="none" x="498.3333" width="298" height="362" y="228.0188" clip-path="url(#clipPath2)"/>
    </g>
    <g fill="silver" transform="matrix(1,0,0,1,-483,-103)" stroke="silver">
      <rect x="508" width="280" height="328" y="252.0073" clip-path="url(#clipPath2)" stroke="none"/>
    </g>
    <g font-size="13" stroke-miterlimit="1.45" font-family="sans-serif" transform="matrix(1,0,0,1,-483,-103)" stroke-linecap="butt">
      <text x="626.2561" xml:space="preserve" y="266.3598" clip-path="url(#clipPath2)" stroke="none">initiate</text>
      <rect fill="none" x="508" width="280" height="328" y="252.0073" clip-path="url(#clipPath2)"/>
    </g>
    <g fill="rgb(238,237,237)" transform="matrix(1,0,0,1,-483,-103)" stroke="rgb(238,237,237)">
      <rect x="517.3333" width="260" height="30" y="273.6563" clip-path="url(#clipPath2)" stroke="none"/>
    </g>
    <g font-size="13" stroke-miterlimit="1.45" font-family="sans-serif" transform="matrix(1,0,0,1,-483,-103)" stroke-linecap="butt">
      <text x="560.3895" xml:space="preserve" y="293.4456" clip-path="url(#clipPath2)" stroke="none">message = message_create</text>
      <rect fill="none" x="517.3333" width="260" height="30" y="273.6563" clip-path="url(#clipPath2)"/>
    </g>
    <g fill="white" transform="matrix(1,0,0,1,-483,-103)" stroke="white">
      <path d="M518 379.1875 L763 379.1875 L763 394.1875 L778 394.1875 L778 409.1875 L518 409.1875 Z" clip-path="url(#clipPath2)" stroke="none"/>
      <path d="M763 379.1875 L763 394.1875 L778 394.1875 Z" clip-path="url(#clipPath2)" fill-rule="evenodd" stroke="none"/>
    </g>
    <g stroke-linecap="butt" transform="matrix(1,0,0,1,-483,-103)" stroke-miterlimit="1.45">
      <path fill="none" d="M518 379.1875 L763 379.1875 L763 394.1875 L778 394.1875 L778 409.1875 L518 409.1875 Z" clip-path="url(#clipPath2)"/>
      <path fill="none" d="M763 379.1875 L763 394.1875 L778 394.1875 Z" fill-rule="evenodd" clip-path="url(#clipPath2)"/>
      <text x="621.0176" xml:space="preserve" y="398.6084" font-family="sans-serif" clip-path="url(#clipPath2)" stroke="none">run tasks</text>
    </g>
    <g fill="rgb(238,237,237)" transform="matrix(1,0,0,1,-483,-103)" stroke="rgb(238,237,237)">
      <rect x="517.3333" width="260" height="30" y="431.9531" clip-path="url(#clipPath2)" stroke="none"/>
    </g>
    <g font-size="13" stroke-miterlimit="1.45" font-family="sans-serif" transform="matrix(1,0,0,1,-483,-103)" stroke-linecap="butt">
      <text x="560.491" xml:space="preserve" y="451.7424" clip-path="url(#clipPath2)" stroke="none">ike_sa-&gt;generate_message</text>
      <rect fill="none" x="517.3333" width="260" height="30" y="431.9531" clip-path="url(#clipPath2)"/>
    </g>
    <g fill="silver" transform="matrix(1,0,0,1,-483,-103)" stroke="silver">
      <rect x="835.3333" width="280" height="60" y="314.4875" clip-path="url(#clipPath2)" stroke="none"/>
    </g>
    <g font-size="13" stroke-miterlimit="1.45" font-family="sans-serif" transform="matrix(1,0,0,1,-483,-103)" stroke-linecap="butt">
      <text x="916.8714" xml:space="preserve" y="328.84" clip-path="url(#clipPath2)" stroke="none">generate_message</text>
      <rect fill="none" x="835.3333" width="280" height="60" y="314.4875" clip-path="url(#clipPath2)"/>
    </g>
    <g fill="rgb(238,237,237)" transform="matrix(1,0,0,1,-483,-103)" stroke="rgb(238,237,237)">
      <rect x="845.3333" width="160" height="30" y="337.3625" clip-path="url(#clipPath2)" stroke="none"/>
    </g>
    <g font-size="13" stroke-miterlimit="1.45" font-family="sans-serif" transform="matrix(1,0,0,1,-483,-103)" stroke-linecap="butt">
      <text x="861.1934" xml:space="preserve" y="357.1518" clip-path="url(#clipPath2)" stroke="none">message-&gt;generate</text>
      <rect fill="none" x="845.3333" width="160" height="30" y="337.3625" clip-path="url(#clipPath2)"/>
    </g>
    <g fill="rgb(255,204,0)" transform="matrix(1,0,0,1,-483,-103)" stroke="rgb(255,204,0)">
      <rect x="1005.3333" width="100" height="30" y="337.3625" clip-path="url(#clipPath2)" stroke="none"/>
    </g>
    <g stroke-miterlimit="1.45" font-family="sans-serif" transform="matrix(1,0,0,1,-483,-103)" stroke-linecap="butt">
      <text x="1034.1898" xml:space="preserve" y="356.7834" clip-path="url(#clipPath2)" stroke="none">keymat</text>
      <rect fill="none" x="1005.3333" width="100" height="30" y="337.3625" clip-path="url(#clipPath2)"/>
    </g>
    <g fill="silver" transform="matrix(1,0,0,1,-483,-103)" stroke="silver">
      <rect x="1155" width="280" height="152.8413" y="319.1818" clip-path="url(#clipPath2)" stroke="none"/>
    </g>
    <g font-size="13" stroke-miterlimit="1.45" font-family="sans-serif" transform="matrix(1,0,0,1,-483,-103)" stroke-linecap="butt">
      <text x="1267.3687" xml:space="preserve" y="333.5344" clip-path="url(#clipPath2)" stroke="none">generate</text>
      <rect fill="none" x="1155" width="280" height="152.8413" y="319.1818" clip-path="url(#clipPath2)"/>
    </g>
    <g fill="rgb(238,237,237)" transform="matrix(1,0,0,1,-483,-103)" stroke="rgb(238,237,237)">
      <rect x="1165" width="260" height="30" y="434.8618" clip-path="url(#clipPath2)" stroke="none"/>
    </g>
    <g font-size="13" stroke-miterlimit="1.45" font-family="sans-serif" transform="matrix(1,0,0,1,-483,-103)" stroke-linecap="butt">
      <text x="1248.459" xml:space="preserve" y="454.6511" clip-path="url(#clipPath2)" stroke="none">wrap_payloads</text>
      <rect fill="none" x="1165" width="260" height="30" y="434.8618" clip-path="url(#clipPath2)"/>
    </g>
    <g fill="silver" transform="matrix(1,0,0,1,-483,-103)" stroke="silver">
      <rect x="1155" width="280" height="64.6829" y="487.3092" clip-path="url(#clipPath2)" stroke="none"/>
    </g>
    <g font-size="13" stroke-miterlimit="1.45" font-family="sans-serif" transform="matrix(1,0,0,1,-483,-103)" stroke-linecap="butt">
      <text x="1248.459" xml:space="preserve" y="501.6618" clip-path="url(#clipPath2)" stroke="none">wrap_payloads</text>
      <rect fill="none" x="1155" width="280" height="64.6829" y="487.3092" clip-path="url(#clipPath2)"/>
    </g>
    <g fill="rgb(238,237,237)" transform="matrix(1,0,0,1,-483,-103)" stroke="rgb(238,237,237)">
      <rect x="1165" width="260" height="30" y="340.7301" clip-path="url(#clipPath2)" stroke="none"/>
    </g>
    <g font-size="13" stroke-miterlimit="1.45" font-family="sans-serif" transform="matrix(1,0,0,1,-483,-103)" stroke-linecap="butt">
      <text x="1239.8611" xml:space="preserve" y="360.5194" clip-path="url(#clipPath2)" stroke="none">rule-&gt;encrypted?</text>
      <rect fill="none" x="1165" width="260" height="30" y="340.7301" clip-path="url(#clipPath2)"/>
    </g>
    <g fill="rgb(238,237,237)" transform="matrix(1,0,0,1,-483,-103)" stroke="rgb(238,237,237)">
      <rect x="1165" width="260" height="30" y="513.188" clip-path="url(#clipPath2)" stroke="none"/>
    </g>
    <g font-size="13" stroke-miterlimit="1.45" font-family="sans-serif" transform="matrix(1,0,0,1,-483,-103)" stroke-linecap="butt">
      <text x="1168.4023" xml:space="preserve" y="532.9773" clip-path="url(#clipPath2)" stroke="none">encryption = encryption_payload_create</text>
      <rect fill="none" x="1165" width="260" height="30" y="513.188" clip-path="url(#clipPath2)"/>
    </g>
    <g fill="rgb(238,237,237)" transform="matrix(1,0,0,1,-483,-103)" stroke="rgb(238,237,237)">
      <rect x="1165" width="160" height="30" y="636.9049" clip-path="url(#clipPath2)" stroke="none"/>
    </g>
    <g font-size="13" stroke-miterlimit="1.45" font-family="sans-serif" transform="matrix(1,0,0,1,-483,-103)" stroke-linecap="butt">
      <text x="1178.6733" xml:space="preserve" y="656.6942" clip-path="url(#clipPath2)" stroke="none">encr-&gt;set_transform</text>
      <rect fill="none" x="1165" width="160" height="30" y="636.9049" clip-path="url(#clipPath2)"/>
    </g>
    <g fill="rgb(255,204,0)" transform="matrix(1,0,0,1,-483,-103)" stroke="rgb(255,204,0)">
      <rect x="1325" width="100" height="30" y="636.9049" clip-path="url(#clipPath2)" stroke="none"/>
    </g>
    <g stroke-miterlimit="1.45" font-family="sans-serif" transform="matrix(1,0,0,1,-483,-103)" stroke-linecap="butt">
      <text x="1361.2539" xml:space="preserve" y="656.3258" clip-path="url(#clipPath2)" stroke="none">aead</text>
      <rect fill="none" x="1325" width="100" height="30" y="636.9049" clip-path="url(#clipPath2)"/>
    </g>
    <g fill="rgb(238,237,237)" transform="matrix(1,0,0,1,-483,-103)" stroke="rgb(238,237,237)">
      <rect x="1165" width="260" height="30" y="681.2645" clip-path="url(#clipPath2)" stroke="none"/>
    </g>
    <g font-size="13" stroke-miterlimit="1.45" font-family="sans-serif" transform="matrix(1,0,0,1,-483,-103)" stroke-linecap="butt">
      <text x="1229.0415" xml:space="preserve" y="701.0538" clip-path="url(#clipPath2)" stroke="none">encryption-&gt;encrypt</text>
      <rect fill="none" x="1165" width="260" height="30" y="681.2645" clip-path="url(#clipPath2)"/>
    </g>
    <g fill="rgb(240,238,234)" transform="matrix(1,0,0,1,-483,-103)" stroke="rgb(240,238,234)">
      <rect x="1473.3333" width="298" height="261.5616" y="469.3145" clip-path="url(#clipPath2)" stroke="none"/>
    </g>
    <g font-size="13" stroke-miterlimit="1.45" font-family="sans-serif" transform="matrix(1,0,0,1,-483,-103)" stroke-linecap="butt">
      <text x="1475.3334" xml:space="preserve" y="483.6671" clip-path="url(#clipPath2)" stroke="none">libcharon/encoding/payloads/enc..._payload.c</text>
      <rect fill="none" x="1473.3333" width="298" height="261.5616" y="469.3145" clip-path="url(#clipPath2)"/>
    </g>
    <g fill="silver" transform="matrix(1,0,0,1,-483,-103)" stroke="silver">
      <rect x="1483" width="280" height="228.975" y="492.9395" clip-path="url(#clipPath2)" stroke="none"/>
    </g>
    <g font-size="13" stroke-miterlimit="1.45" font-family="sans-serif" transform="matrix(1,0,0,1,-483,-103)" stroke-linecap="butt">
      <text x="1599.4375" xml:space="preserve" y="507.2921" clip-path="url(#clipPath2)" stroke="none">encrypt</text>
      <rect fill="none" x="1483" width="280" height="228.975" y="492.9395" clip-path="url(#clipPath2)"/>
    </g>
    <g fill="rgb(238,237,237)" transform="matrix(1,0,0,1,-483,-103)" stroke="rgb(238,237,237)">
      <rect x="1493" width="260" height="30" y="513.6145" clip-path="url(#clipPath2)" stroke="none"/>
    </g>
    <g font-size="13" stroke-miterlimit="1.45" font-family="sans-serif" transform="matrix(1,0,0,1,-483,-103)" stroke-linecap="butt">
      <text x="1522.0247" xml:space="preserve" y="533.4038" clip-path="url(#clipPath2)" stroke="none">crypto-&gt;create_rng(RNG_WEAK)</text>
      <rect fill="none" x="1493" width="260" height="30" y="513.6145" clip-path="url(#clipPath2)"/>
    </g>
    <g fill="rgb(238,237,237)" transform="matrix(1,0,0,1,-483,-103)" stroke="rgb(238,237,237)">
      <rect x="1492.3333" width="260" height="30" y="627.4395" clip-path="url(#clipPath2)" stroke="none"/>
    </g>
    <g font-size="13" stroke-miterlimit="1.45" font-family="sans-serif" transform="matrix(1,0,0,1,-483,-103)" stroke-linecap="butt">
      <text x="1542.3942" xml:space="preserve" y="647.2288" clip-path="url(#clipPath2)" stroke="none">rng-&gt;get_bytes(padding)</text>
      <rect fill="none" x="1492.3333" width="260" height="30" y="627.4395" clip-path="url(#clipPath2)"/>
    </g>
    <g fill="rgb(238,237,237)" transform="matrix(1,0,0,1,-483,-103)" stroke="rgb(238,237,237)">
      <rect x="1493" width="260" height="30" y="570.527" clip-path="url(#clipPath2)" stroke="none"/>
    </g>
    <g font-size="13" stroke-miterlimit="1.45" font-family="sans-serif" transform="matrix(1,0,0,1,-483,-103)" stroke-linecap="butt">
      <text x="1563.6462" xml:space="preserve" y="590.3163" clip-path="url(#clipPath2)" stroke="none">rng-&gt;get_bytes(iv)</text>
      <rect fill="none" x="1493" width="260" height="30" y="570.527" clip-path="url(#clipPath2)"/>
    </g>
    <g fill="rgb(238,237,237)" transform="matrix(1,0,0,1,-483,-103)" stroke="rgb(238,237,237)">
      <rect x="1493" width="160" height="30" y="681.2645" clip-path="url(#clipPath2)" stroke="none"/>
    </g>
    <g font-size="13" stroke-miterlimit="1.45" font-family="sans-serif" transform="matrix(1,0,0,1,-483,-103)" stroke-linecap="butt">
      <text x="1518.3213" xml:space="preserve" y="701.0538" clip-path="url(#clipPath2)" stroke="none">crypter-&gt;encrypt</text>
      <rect fill="none" x="1493" width="160" height="30" y="681.2645" clip-path="url(#clipPath2)"/>
    </g>
    <g fill="rgb(255,204,0)" transform="matrix(1,0,0,1,-483,-103)" stroke="rgb(255,204,0)">
      <rect x="1653" width="100" height="30" y="681.2645" clip-path="url(#clipPath2)" stroke="none"/>
    </g>
    <g stroke-miterlimit="1.45" font-family="sans-serif" transform="matrix(1,0,0,1,-483,-103)" stroke-linecap="butt">
      <text x="1689.2539" xml:space="preserve" y="700.6854" clip-path="url(#clipPath2)" stroke="none">aead</text>
      <rect fill="none" x="1653" width="100" height="30" y="681.2645" clip-path="url(#clipPath2)"/>
    </g>
    <g fill="white" transform="matrix(1,0,0,1,-483,-103)" stroke="white">
      <path d="M1165 584.3528 L1410 584.3528 L1410 599.3528 L1425 599.3528 L1425 614.3528 L1165 614.3528 Z" clip-path="url(#clipPath2)" stroke="none"/>
      <path d="M1410 584.3528 L1410 599.3528 L1425 599.3528 Z" clip-path="url(#clipPath2)" fill-rule="evenodd" stroke="none"/>
    </g>
    <g stroke-linecap="butt" transform="matrix(1,0,0,1,-483,-103)" stroke-miterlimit="1.45">
      <path fill="none" d="M1165 584.3528 L1410 584.3528 L1410 599.3528 L1425 599.3528 L1425 614.3528 L1165 614.3528 Z" clip-path="url(#clipPath2)"/>
      <path fill="none" d="M1410 584.3528 L1410 599.3528 L1425 599.3528 Z" fill-rule="evenodd" clip-path="url(#clipPath2)"/>
      <text x="1253.2285" xml:space="preserve" y="603.7737" font-family="sans-serif" clip-path="url(#clipPath2)" stroke="none">init ike header</text>
    </g>
    <g fill="rgb(238,237,237)" transform="matrix(1,0,0,1,-483,-103)" stroke="rgb(238,237,237)">
      <rect x="517.3333" width="260" height="30" y="484.7187" clip-path="url(#clipPath2)" stroke="none"/>
    </g>
    <g font-size="13" stroke-miterlimit="1.45" font-family="sans-serif" transform="matrix(1,0,0,1,-483,-103)" stroke-linecap="butt">
      <text x="614.6461" xml:space="preserve" y="504.5081" clip-path="url(#clipPath2)" stroke="none">retransmit</text>
      <rect fill="none" x="517.3333" width="260" height="30" y="484.7187" clip-path="url(#clipPath2)"/>
    </g>
    <g fill="white" transform="matrix(1,0,0,1,-483,-103)" stroke="white">
      <path d="M517.3333 537.4844 L762.3333 537.4844 L762.3333 552.4844 L777.3333 552.4844 L777.3333 567.4844 L517.3333 567.4844 Z" clip-path="url(#clipPath2)" stroke="none"/>
      <path d="M762.3333 537.4844 L762.3333 552.4844 L777.3333 552.4844 Z" clip-path="url(#clipPath2)" fill-rule="evenodd" stroke="none"/>
    </g>
    <g stroke-linecap="butt" transform="matrix(1,0,0,1,-483,-103)" stroke-miterlimit="1.45">
      <path fill="none" d="M517.3333 537.4844 L762.3333 537.4844 L762.3333 552.4844 L777.3333 552.4844 L777.3333 567.4844 L517.3333 567.4844 Z" clip-path="url(#clipPath2)"/>
      <path fill="none" d="M762.3333 537.4844 L762.3333 552.4844 L777.3333 552.4844 Z" fill-rule="evenodd" clip-path="url(#clipPath2)"/>
      <text x="631.9232" xml:space="preserve" y="556.9053" font-family="sans-serif" clip-path="url(#clipPath2)" stroke="none">SEND</text>
    </g>
    <g fill="white" transform="matrix(1,0,0,1,-483,-103)" stroke="white">
      <rect x="925.3333" y="118.5313" clip-path="url(#clipPath2)" width="100" rx="4" ry="4" height="30" stroke="none"/>
    </g>
    <g stroke-miterlimit="1.45" font-family="sans-serif" transform="matrix(1,0,0,1,-483,-103)" stroke-linecap="butt">
      <text x="955.2679" xml:space="preserve" y="137.9521" clip-path="url(#clipPath2)" stroke="none">Initiate</text>
      <rect x="925.3333" y="118.5313" clip-path="url(#clipPath2)" fill="none" width="100" stroke-dasharray="6,2" rx="4" ry="4" height="30"/>
    </g>
    <g fill="white" transform="matrix(1,0,0,1,-483,-103)" stroke="white">
      <path d="M518 326.4219 L763 326.4219 L763 341.4219 L778 341.4219 L778 356.4219 L518 356.4219 Z" clip-path="url(#clipPath2)" stroke="none"/>
      <path d="M763 326.4219 L763 341.4219 L778 341.4219 Z" clip-path="url(#clipPath2)" fill-rule="evenodd" stroke="none"/>
    </g>
    <g stroke-linecap="butt" transform="matrix(1,0,0,1,-483,-103)" stroke-miterlimit="1.45">
      <path fill="none" d="M518 326.4219 L763 326.4219 L763 341.4219 L778 341.4219 L778 356.4219 L518 356.4219 Z" clip-path="url(#clipPath2)"/>
      <path fill="none" d="M763 326.4219 L763 341.4219 L778 341.4219 Z" fill-rule="evenodd" clip-path="url(#clipPath2)"/>
      <text x="559.4824" xml:space="preserve" y="345.8428" font-family="sans-serif" clip-path="url(#clipPath2)" stroke="none">call build function for all tasks</text>
    </g>
    <g fill="rgb(238,237,237)" transform="matrix(1,0,0,1,-483,-103)" stroke="rgb(238,237,237)">
      <rect x="1165" width="160" height="30" y="387.7959" clip-path="url(#clipPath2)" stroke="none"/>
    </g>
    <g font-size="13" stroke-miterlimit="1.45" font-family="sans-serif" transform="matrix(1,0,0,1,-483,-103)" stroke-linecap="butt">
      <text x="1216.7529" xml:space="preserve" y="407.5852" clip-path="url(#clipPath2)" stroke="none">get_aead</text>
      <rect fill="none" x="1165" width="160" height="30" y="387.7959" clip-path="url(#clipPath2)"/>
    </g>
    <g fill="rgb(255,204,0)" transform="matrix(1,0,0,1,-483,-103)" stroke="rgb(255,204,0)">
      <rect x="1325" width="100" height="30" y="387.7959" clip-path="url(#clipPath2)" stroke="none"/>
    </g>
    <g stroke-miterlimit="1.45" font-family="sans-serif" transform="matrix(1,0,0,1,-483,-103)" stroke-linecap="butt">
      <text x="1353.8564" xml:space="preserve" y="407.2168" clip-path="url(#clipPath2)" stroke="none">keymat</text>
      <rect fill="none" x="1325" width="100" height="30" y="387.7959" clip-path="url(#clipPath2)"/>
      <path fill="none" d="M845.3333 278.6688 L796.0202 278.6688" clip-path="url(#clipPath2)"/>
      <path d="M788.0202 278.6688 L800.0202 283.6688 L797.0202 278.6688 L800.0202 273.6688 Z" clip-path="url(#clipPath2)" stroke="none"/>
      <path fill="none" d="M647.8102 409.2082 L647.6239 423.9538" clip-path="url(#clipPath2)"/>
      <path d="M647.5228 431.9531 L652.6741 420.0173 L647.6365 422.9539 L642.6749 419.8909 Z" clip-path="url(#clipPath2)" stroke="none"/>
      <path fill="none" d="M777.3333 446.9531 L975.3333 446.9531 L975.3333 382.4875" clip-path="url(#clipPath2)"/>
      <path d="M975.3333 374.4875 L970.3333 386.4875 L975.3333 383.4875 L980.3333 386.4875 Z" clip-path="url(#clipPath2)" stroke="none"/>
      <path fill="none" d="M1105.3334 352.8265 L1147.041 353.2136" clip-path="url(#clipPath2)"/>
      <path d="M1155.0406 353.2878 L1143.0875 348.1767 L1146.041 353.2043 L1142.9948 358.1762 Z" clip-path="url(#clipPath2)" stroke="none"/>
      <path fill="none" d="M1295 464.8618 L1295 479.3092" clip-path="url(#clipPath2)"/>
      <path d="M1295 487.3092 L1300 475.3092 L1295 478.3092 L1290 475.3092 Z" clip-path="url(#clipPath2)" stroke="none"/>
      <path fill="none" d="M1295 543.188 L1295 557.4402" clip-path="url(#clipPath2)"/>
      <path d="M1295 565.4402 L1300 553.4402 L1295 556.4402 L1290 553.4402 Z" clip-path="url(#clipPath2)" stroke="none"/>
      <path fill="none" d="M1295 666.9315 L1295 673.2645" clip-path="url(#clipPath2)"/>
      <path d="M1295 681.2645 L1300 669.2645 L1295 672.2645 L1290 669.2645 Z" clip-path="url(#clipPath2)" stroke="none"/>
      <path fill="none" d="M1425 696.2645 L1458.7281 696.2645 L1458.7281 607.427 L1475 607.427" clip-path="url(#clipPath2)"/>
      <path d="M1483 607.427 L1471 602.427 L1474 607.427 L1471 612.427 Z" clip-path="url(#clipPath2)" stroke="none"/>
      <path fill="none" d="M1623 543.6145 L1623 562.527" clip-path="url(#clipPath2)"/>
      <path d="M1623 570.527 L1628 558.527 L1623 561.527 L1618 558.527 Z" clip-path="url(#clipPath2)" stroke="none"/>
      <path fill="none" d="M1622.8243 600.527 L1622.6028 619.4401" clip-path="url(#clipPath2)"/>
      <path d="M1622.509 627.4395 L1627.6493 615.4989 L1622.6145 618.4401 L1617.6499 615.3818 Z" clip-path="url(#clipPath2)" stroke="none"/>
      <path fill="none" d="M1622.3334 657.4395 L1622.3334 673.2263" clip-path="url(#clipPath2)"/>
      <path d="M1622.3334 681.2263 L1627.3334 669.2263 L1622.3334 672.2263 L1617.3334 669.2263 Z" clip-path="url(#clipPath2)" stroke="none"/>
      <path fill="none" d="M647.3333 461.9531 L647.3333 476.7188" clip-path="url(#clipPath2)"/>
      <path d="M647.3333 484.7188 L652.3333 472.7188 L647.3333 475.7188 L642.3333 472.7188 Z" clip-path="url(#clipPath2)" stroke="none"/>
      <path fill="none" d="M647.3333 514.7188 L647.3333 529.474" clip-path="url(#clipPath2)"/>
      <path d="M647.3333 537.474 L652.3333 525.474 L647.3333 528.474 L642.3333 525.474 Z" clip-path="url(#clipPath2)" stroke="none"/>
      <path fill="none" stroke-dasharray="6,2" d="M975.3333 148.56 L975.3333 170.5312" clip-path="url(#clipPath2)"/>
      <path stroke-dasharray="6,2" d="M975.3333 178.5312 L980.3333 166.5312 L975.3333 169.5312 L970.3333 166.5312 Z" clip-path="url(#clipPath2)" stroke="none"/>
      <path fill="none" d="M647.5228 303.6562 L647.7093 318.4121" clip-path="url(#clipPath2)"/>
      <path d="M647.8104 326.4115 L652.6583 314.3493 L647.6967 317.4122 L642.6591 314.4756 Z" clip-path="url(#clipPath2)" stroke="none"/>
      <path fill="none" d="M648 356.4426 L648 371.1854" clip-path="url(#clipPath2)"/>
      <path d="M648 379.1854 L653 367.1854 L648 370.1854 L643 367.1854 Z" clip-path="url(#clipPath2)" stroke="none"/>
      <path fill="none" d="M1295 370.7301 L1295 379.7957" clip-path="url(#clipPath2)"/>
      <path d="M1295 387.7957 L1300 375.7957 L1295 378.7957 L1290 375.7957 Z" clip-path="url(#clipPath2)" stroke="none"/>
      <path fill="none" d="M1295 417.7805 L1295 426.8618" clip-path="url(#clipPath2)"/>
      <path d="M1295 434.8618 L1300 422.8618 L1295 425.8618 L1290 422.8618 Z" clip-path="url(#clipPath2)" stroke="none"/>
    </g>
  </g>
</svg>
