<?xml version="1.0" encoding="UTF-8"?>
<svg xmlns="http://www.w3.org/2000/svg" xmlns:xlink="http://www.w3.org/1999/xlink" fill-opacity="1" color-rendering="auto" color-interpolation="auto" stroke="black" text-rendering="auto" stroke-linecap="square" width="417" stroke-miterlimit="10" stroke-opacity="1" shape-rendering="auto" fill="black" stroke-dasharray="none" font-weight="normal" stroke-width="1" height="269" font-family="'Dialog'" font-style="normal" stroke-linejoin="miter" font-size="12" stroke-dashoffset="0" image-rendering="auto">
  <!--Generated by ySVG-->
  <defs id="genericDefs"/>
  <g>
    <defs id="defs1">
      <clipPath clipPathUnits="userSpaceOnUse" id="clipPath1">
        <path d="M0 0 L417 0 L417 269 L0 269 L0 0 Z"/>
      </clipPath>
      <clipPath clipPathUnits="userSpaceOnUse" id="clipPath2">
        <path d="M249 12 L666 12 L666 281 L249 281 L249 12 Z"/>
      </clipPath>
    </defs>
    <g fill="white" transform="translate(-249,-12)" stroke="white">
      <rect x="249" width="417" height="269" y="12" clip-path="url(#clipPath2)" stroke="none"/>
    </g>
    <g fill="white" transform="matrix(1,0,0,1,-249,-12)" stroke="white">
      <rect x="264.3871" y="27.6527" clip-path="url(#clipPath2)" width="172.9627" rx="4" ry="4" height="237.5981" stroke="none"/>
    </g>
    <g stroke-miterlimit="1.45" font-family="sans-serif" transform="matrix(1,0,0,1,-249,-12)" stroke-linecap="butt">
      <text x="308.7571" xml:space="preserve" y="45.0551" clip-path="url(#clipPath2)" stroke="none">Client Request</text>
    </g>
    <g stroke-dasharray="0,4" stroke-miterlimit="1.45" stroke-dashoffset="2" transform="matrix(1,0,0,1,-249,-12)" stroke-linecap="round">
      <rect x="264.3871" y="27.6527" clip-path="url(#clipPath2)" fill="none" width="172.9627" rx="4" ry="4" height="237.5981"/>
    </g>
    <g fill="rgb(242,242,240)" transform="matrix(1,0,0,1,-249,-12)" stroke="rgb(242,242,240)">
      <rect x="280.8685" width="140" height="132.3728" y="120.9518" clip-path="url(#clipPath2)" stroke="none"/>
    </g>
    <g stroke-linecap="butt" transform="matrix(1,0,0,1,-249,-12)" stroke-miterlimit="1.45">
      <rect fill="none" x="280.8685" width="140" height="132.3728" y="120.9518" clip-path="url(#clipPath2)"/>
    </g>
    <g fill="rgb(206,222,226)" transform="matrix(1,0,0,1,-249,-12)" stroke="rgb(206,222,226)">
      <rect x="290.8685" width="120" height="30" y="131.6382" clip-path="url(#clipPath2)" stroke="none"/>
    </g>
    <g font-size="13" stroke-miterlimit="1.45" font-family="sans-serif" transform="matrix(1,0,0,1,-249,-12)" stroke-linecap="butt">
      <text x="309.888" xml:space="preserve" y="151.4275" clip-path="url(#clipPath2)" stroke="none">Request data</text>
      <rect fill="none" x="290.8685" width="120" height="30" y="131.6382" clip-path="url(#clipPath2)"/>
      <text x="295.1107" xml:space="preserve" y="110.7411" clip-path="url(#clipPath2)" stroke="none">Request Identifier</text>
      <rect fill="none" x="280.8685" width="140" height="30" y="90.9518" clip-path="url(#clipPath2)"/>
      <text x="290.1627" xml:space="preserve" y="80.7411" clip-path="url(#clipPath2)" stroke="none">Exchange Identifier</text>
      <rect fill="none" x="280.8685" width="140" height="30" y="60.9518" clip-path="url(#clipPath2)"/>
    </g>
    <g fill="rgb(206,222,226)" transform="matrix(1,0,0,1,-249,-12)" stroke="rgb(206,222,226)">
      <rect x="290.8685" width="120" height="30" y="172.3246" clip-path="url(#clipPath2)" stroke="none"/>
    </g>
    <g font-size="13" stroke-miterlimit="1.45" font-family="sans-serif" transform="matrix(1,0,0,1,-249,-12)" stroke-linecap="butt">
      <text x="344.6985" xml:space="preserve" y="192.1139" clip-path="url(#clipPath2)" stroke="none">...</text>
      <rect fill="none" x="290.8685" width="120" height="30" y="172.3246" clip-path="url(#clipPath2)"/>
    </g>
    <g fill="white" transform="matrix(1,0,0,1,-249,-12)" stroke="white">
      <rect x="477.7742" y="27.6527" clip-path="url(#clipPath2)" width="172.9627" rx="4" ry="4" height="237.5981" stroke="none"/>
    </g>
    <g stroke-miterlimit="1.45" font-family="sans-serif" transform="matrix(1,0,0,1,-249,-12)" stroke-linecap="butt">
      <text x="516.6423" xml:space="preserve" y="45.0551" clip-path="url(#clipPath2)" stroke="none">Server Response</text>
    </g>
    <g stroke-dasharray="0,4" stroke-miterlimit="1.45" stroke-dashoffset="2" transform="matrix(1,0,0,1,-249,-12)" stroke-linecap="round">
      <rect x="477.7742" y="27.6527" clip-path="url(#clipPath2)" fill="none" width="172.9627" rx="4" ry="4" height="237.5981"/>
    </g>
    <g font-size="13" stroke-miterlimit="1.45" font-family="sans-serif" transform="matrix(1,0,0,1,-249,-12)" stroke-linecap="butt">
      <text x="503.5498" xml:space="preserve" y="80.7411" clip-path="url(#clipPath2)" stroke="none">Exchange Identifier</text>
      <rect fill="none" x="494.2556" width="140" height="30" y="60.9518" clip-path="url(#clipPath2)"/>
    </g>
    <g fill="rgb(242,242,240)" transform="matrix(1,0,0,1,-249,-12)" stroke="rgb(242,242,240)">
      <rect x="494.2556" width="140" height="102.3728" y="150.9518" clip-path="url(#clipPath2)" stroke="none"/>
    </g>
    <g stroke-linecap="butt" transform="matrix(1,0,0,1,-249,-12)" stroke-miterlimit="1.45">
      <rect fill="none" x="494.2556" width="140" height="102.3728" y="150.9518" clip-path="url(#clipPath2)"/>
    </g>
    <g fill="rgb(206,222,226)" transform="matrix(1,0,0,1,-249,-12)" stroke="rgb(206,222,226)">
      <rect x="504.2556" width="120" height="30" y="164.6382" clip-path="url(#clipPath2)" stroke="none"/>
    </g>
    <g font-size="13" stroke-miterlimit="1.45" font-family="sans-serif" transform="matrix(1,0,0,1,-249,-12)" stroke-linecap="butt">
      <text x="518.4001" xml:space="preserve" y="184.4275" clip-path="url(#clipPath2)" stroke="none">Response data</text>
      <rect fill="none" x="504.2556" width="120" height="30" y="164.6382" clip-path="url(#clipPath2)"/>
      <text x="508.4978" xml:space="preserve" y="110.7411" clip-path="url(#clipPath2)" stroke="none">Request Identifier</text>
      <rect fill="none" x="494.2556" width="140" height="30" y="90.9518" clip-path="url(#clipPath2)"/>
    </g>
    <g fill="rgb(206,222,226)" transform="matrix(1,0,0,1,-249,-12)" stroke="rgb(206,222,226)">
      <rect x="504.2556" width="120" height="30" y="208.3246" clip-path="url(#clipPath2)" stroke="none"/>
    </g>
    <g font-size="13" stroke-miterlimit="1.45" font-family="sans-serif" transform="matrix(1,0,0,1,-249,-12)" stroke-linecap="butt">
      <text x="558.0856" xml:space="preserve" y="228.1139" clip-path="url(#clipPath2)" stroke="none">...</text>
      <rect fill="none" x="504.2556" width="120" height="30" y="208.3246" clip-path="url(#clipPath2)"/>
      <text x="544.9555" xml:space="preserve" y="140.7411" clip-path="url(#clipPath2)" stroke="none">Status</text>
      <rect fill="none" x="494.2556" width="140" height="30" y="120.9518" clip-path="url(#clipPath2)"/>
    </g>
    <g fill="rgb(206,222,226)" transform="matrix(1,0,0,1,-249,-12)" stroke="rgb(206,222,226)">
      <rect x="290.8685" width="120" height="30" y="213.0111" clip-path="url(#clipPath2)" stroke="none"/>
    </g>
    <g font-size="13" stroke-miterlimit="1.45" font-family="sans-serif" transform="matrix(1,0,0,1,-249,-12)" stroke-linecap="butt">
      <text x="344.6985" xml:space="preserve" y="232.8004" clip-path="url(#clipPath2)" stroke="none">...</text>
      <rect fill="none" x="290.8685" width="120" height="30" y="213.0111" clip-path="url(#clipPath2)"/>
      <path fill="none" d="M420.8685 75.9518 L486.2556 75.9518" clip-path="url(#clipPath2)"/>
      <path d="M494.2556 75.9518 L482.2556 70.9518 L485.2556 75.9518 L482.2556 80.9518 Z" clip-path="url(#clipPath2)" stroke="none"/>
      <path fill="none" d="M420.8685 105.9518 L486.2556 105.9518" clip-path="url(#clipPath2)"/>
      <path d="M494.2556 105.9518 L482.2556 100.9518 L485.2556 105.9518 L482.2556 110.9518 Z" clip-path="url(#clipPath2)" stroke="none"/>
    </g>
  </g>
</svg>
