<?xml version="1.0" encoding="UTF-8" standalone="no"?>
<svg font-size="12" text-rendering="auto" color-rendering="auto" shape-rendering="auto" stroke="black" stroke-linecap="square" viewBox="0 0 793 288" fill="black" font-family="&apos;Dialog&apos;" version="1.1" stroke-miterlimit="10" image-rendering="auto" xmlns:cc="http://creativecommons.org/ns#" xmlns:rdf="http://www.w3.org/1999/02/22-rdf-syntax-ns#" xmlns="http://www.w3.org/2000/svg" xmlns:dc="http://purl.org/dc/elements/1.1/" color-interpolation="auto">
 <metadata>
  <rdf:RDF>
   <cc:Work rdf:about="">
    <dc:format>image/svg+xml</dc:format>
    <dc:type rdf:resource="http://purl.org/dc/dcmitype/StillImage"/>
    <dc:title/>
   </cc:Work>
  </rdf:RDF>
 </metadata>
<!--Generated by ySVG-->
 <defs>
  <clipPath id="clipPath2" clipPathUnits="userSpaceOnUse">
   <path d="m-176 433h793v288h-793v-288z"/>
  </clipPath>
 </defs>
 <g stroke="#fff" transform="translate(176,-433)" fill="#fff">
  <rect clip-path="url(#clipPath2)" height="288" width="793" stroke="none" y="433" x="-176"/>
 </g>
 <g stroke="#fff" transform="translate(176 -433)" fill="#fff">
  <rect clip-path="url(#clipPath2)" rx="4" ry="4" height="135.65" width="165.5" stroke="none" y="448" x="-160.31"/>
 </g>
 <g transform="translate(176 -433)" stroke="#e44" stroke-linecap="butt" stroke-miterlimit="1.45" font-family="sans-serif" fill="#e44">
  <text clip-path="url(#clipPath2)" xml:space="preserve" stroke="none" y="465.4023" x="-104.0717">TRUSTED</text>
 </g>
 <g transform="translate(176 -433)" stroke-dashoffset="2" stroke="#e44" stroke-linecap="round" stroke-dasharray="0,4" stroke-miterlimit="1.45" fill="#e44">
  <rect clip-path="url(#clipPath2)" rx="4" ry="4" height="135.65" width="165.5" y="448" x="-160.31" fill="none"/>
 </g>
 <g stroke="#fff" transform="translate(176 -433)" fill="#fff">
  <rect clip-path="url(#clipPath2)" rx="4" ry="4" height="135.65" width="315.5" stroke="none" y="448" x="64.82"/>
 </g>
 <g font-family="sans-serif" stroke-miterlimit="1.45" transform="translate(176 -433)" stroke-linecap="butt">
  <text clip-path="url(#clipPath2)" xml:space="preserve" stroke="none" y="465.4023" x="187.463">UNTRUSTED</text>
 </g>
 <g stroke-dashoffset="2" transform="translate(176 -433)" stroke-linecap="round" stroke-miterlimit="1.45" stroke-dasharray="0,4">
  <rect clip-path="url(#clipPath2)" rx="4" ry="4" height="135.65" width="315.5" y="448" x="64.82" fill="none"/>
 </g>
 <g stroke="silver" transform="translate(176 -433)" fill="silver">
  <rect clip-path="url(#clipPath2)" height="100" width="293" stroke="none" y="474.62" x="75.569"/>
 </g>
 <g font-size="13" transform="translate(176 -433)" stroke-linecap="butt" stroke-miterlimit="1.45" font-family="sans-serif">
  <text clip-path="url(#clipPath2)" xml:space="preserve" stroke="none" y="492.9775" x="200.4299">charon</text>
  <rect clip-path="url(#clipPath2)" height="100" width="293" y="474.62" x="75.569" fill="none"/>
 </g>
 <g stroke="#f2f2f0" transform="translate(176 -433)" fill="#f2f2f0">
  <rect clip-path="url(#clipPath2)" rx="4" ry="4" height="50.732" width="120" stroke="none" y="508.33" x="90.09"/>
 </g>
 <g font-size="13" transform="translate(176 -433)" stroke-linecap="butt" stroke-miterlimit="1.45" font-family="sans-serif">
  <text clip-path="url(#clipPath2)" xml:space="preserve" stroke="none" y="538.4895" x="115.698">EES service</text>
  <rect clip-path="url(#clipPath2)" rx="4" ry="4" height="50.732" width="120" stroke-dasharray="6,2" y="508.33" x="90.09" fill="none"/>
 </g>
 <g stroke="#f2f2f0" transform="translate(176 -433)" fill="#f2f2f0">
  <rect clip-path="url(#clipPath2)" rx="4" ry="4" height="50.732" width="120" stroke="none" y="508.33" x="235.32"/>
 </g>
 <g font-size="13" transform="translate(176 -433)" stroke-linecap="butt" stroke-miterlimit="1.45" font-family="sans-serif">
  <text clip-path="url(#clipPath2)" xml:space="preserve" stroke="none" y="538.4895" x="262.1371">TKM client</text>
  <rect clip-path="url(#clipPath2)" rx="4" ry="4" height="50.732" width="120" stroke-dasharray="6,2" y="508.33" x="235.32" fill="none"/>
 </g>
 <g stroke="#e44" transform="translate(176 -433)" fill="#e44">
  <rect clip-path="url(#clipPath2)" height="100" width="140.88" stroke="none" y="474.62" x="-147.81"/>
 </g>
 <g font-size="13" transform="translate(176 -433)" stroke-linecap="butt" stroke-miterlimit="1.45" font-family="sans-serif">
  <text clip-path="url(#clipPath2)" xml:space="preserve" stroke="none" y="492.9775" x="-114.3586">xfrm-proxy</text>
  <rect clip-path="url(#clipPath2)" height="100" width="140.88" y="474.62" x="-147.81" fill="none"/>
 </g>
 <g stroke="#f2f2f0" transform="translate(176 -433)" fill="#f2f2f0">
  <rect clip-path="url(#clipPath2)" rx="4" ry="4" height="50.732" width="112.5" stroke="none" y="508.28" x="-132.58"/>
 </g>
 <g font-size="13" transform="translate(176 -433)" stroke-linecap="butt" stroke-miterlimit="1.45" font-family="sans-serif">
  <text clip-path="url(#clipPath2)" xml:space="preserve" stroke="none" y="538.4397" x="-106.102">EES client</text>
  <rect clip-path="url(#clipPath2)" rx="4" ry="4" height="50.732" width="112.5" stroke-dasharray="6,2" y="508.28" x="-132.58" fill="none"/>
 </g>
 <g stroke="#fff" transform="translate(176 -433)" fill="#fff">
  <rect clip-path="url(#clipPath2)" height="43.232" width="737.66" stroke="none" y="661.95" x="-147.81"/>
 </g>
 <g font-size="13" transform="translate(176 -433)" stroke-linecap="butt" stroke-miterlimit="1.45" font-family="sans-serif">
  <text clip-path="url(#clipPath2)" xml:space="preserve" stroke="none" y="688.3536" x="200.9687">Kernel</text>
  <rect clip-path="url(#clipPath2)" height="43.232" width="737.66" stroke-dasharray="6,2" y="661.95" x="-147.81" fill="none"/>
 </g>
 <g stroke="#fff" transform="translate(176 -433)" fill="#fff">
  <rect clip-path="url(#clipPath2)" rx="4" ry="4" height="43.232" width="46.165" stroke="none" y="595.27" x="-99.408"/>
 </g>
 <g font-family="sans-serif" stroke-miterlimit="1.45" transform="translate(176 -433)" stroke-linecap="butt">
  <text clip-path="url(#clipPath2)" xml:space="preserve" stroke="none" y="614.3217" x="-97.0439">Netlink</text>
  <text clip-path="url(#clipPath2)" xml:space="preserve" stroke="none" y="628.2846" x="-92.2597">XFRM</text>
  <rect clip-path="url(#clipPath2)" rx="4" ry="4" height="43.232" width="46.165" y="595.27" x="-99.408" fill="none"/>
 </g>
 <g stroke="#fff" transform="translate(176 -433)" fill="#fff">
  <rect clip-path="url(#clipPath2)" rx="4" ry="4" height="43.232" width="46.165" stroke="none" y="512.08" x="11.925"/>
 </g>
 <g font-family="sans-serif" stroke-miterlimit="1.45" transform="translate(176 -433)" stroke-linecap="butt">
  <text clip-path="url(#clipPath2)" xml:space="preserve" stroke="none" y="538.1211" x="21.7123">Unix</text>
  <rect clip-path="url(#clipPath2)" rx="4" ry="4" height="43.232" width="46.165" y="512.08" x="11.925" fill="none"/>
 </g>
 <g stroke="#fff" transform="translate(176 -433)" fill="#fff">
  <rect clip-path="url(#clipPath2)" rx="4" ry="4" height="135.65" width="165.5" stroke="none" y="448" x="436.48"/>
 </g>
 <g stroke="#e44" fill="#e44">
  <g transform="translate(176 -433)" stroke-linecap="butt" stroke-miterlimit="1.45" font-family="sans-serif">
   <text clip-path="url(#clipPath2)" xml:space="preserve" stroke="none" y="465.4023" x="492.718">TRUSTED</text>
  </g>
  <g transform="translate(176 -433)" stroke-dashoffset="2" stroke-linecap="round" stroke-dasharray="0,4" stroke-miterlimit="1.45">
   <rect clip-path="url(#clipPath2)" rx="4" ry="4" height="135.65" width="165.5" y="448" x="436.48" fill="none"/>
  </g>
  <g transform="translate(176 -433)">
   <rect clip-path="url(#clipPath2)" height="100" width="140.88" stroke="none" y="474.62" x="448.98"/>
  </g>
 </g>
 <g font-size="13" transform="translate(176 -433)" stroke-linecap="butt" stroke-miterlimit="1.45" font-family="sans-serif">
  <text clip-path="url(#clipPath2)" xml:space="preserve" stroke="none" y="492.9775" x="477.7403">key_manager</text>
  <rect clip-path="url(#clipPath2)" height="100" width="140.88" y="474.62" x="448.98" fill="none"/>
 </g>
 <g stroke="#f2f2f0" transform="translate(176 -433)" fill="#f2f2f0">
  <rect clip-path="url(#clipPath2)" rx="4" ry="4" height="50.732" width="112.5" stroke="none" y="508.28" x="464.21"/>
 </g>
 <g font-size="13" transform="translate(176 -433)" stroke-linecap="butt" stroke-miterlimit="1.45" font-family="sans-serif">
  <text clip-path="url(#clipPath2)" xml:space="preserve" stroke="none" y="538.4397" x="482.6674">TKM service</text>
  <rect clip-path="url(#clipPath2)" rx="4" ry="4" height="50.732" width="112.5" stroke-dasharray="6,2" y="508.28" x="464.21" fill="none"/>
 </g>
 <g stroke="#fff" transform="translate(176 -433)" fill="#fff">
  <rect clip-path="url(#clipPath2)" rx="4" ry="4" height="43.232" width="46.165" stroke="none" y="512.08" x="385.32"/>
 </g>
 <g font-family="sans-serif" stroke-miterlimit="1.45" transform="translate(176 -433)" stroke-linecap="butt">
  <text clip-path="url(#clipPath2)" xml:space="preserve" stroke="none" y="538.1211" x="395.1071">Unix</text>
  <rect clip-path="url(#clipPath2)" rx="4" ry="4" height="43.232" width="46.165" y="512.08" x="385.32" fill="none"/>
 </g>
 <g stroke="#fff" transform="translate(176 -433)" fill="#fff">
  <rect clip-path="url(#clipPath2)" rx="4" ry="4" height="43.232" width="46.165" stroke="none" y="595.27" x="496.15"/>
 </g>
 <g font-family="sans-serif" stroke-miterlimit="1.45" transform="translate(176 -433)" stroke-linecap="butt">
  <text clip-path="url(#clipPath2)" xml:space="preserve" stroke="none" y="614.3217" x="498.5159">Netlink</text>
  <text clip-path="url(#clipPath2)" xml:space="preserve" stroke="none" y="628.2846" x="503.3001">XFRM</text>
  <rect clip-path="url(#clipPath2)" rx="4" ry="4" height="43.232" width="46.165" y="595.27" x="496.15" fill="none"/>
 </g>
 <g stroke="#fff" transform="translate(176 -433)" fill="#fff">
  <rect clip-path="url(#clipPath2)" rx="4" ry="4" height="43.232" width="46.165" stroke="none" y="595.27" x="199.49"/>
 </g>
 <g font-family="sans-serif" stroke-miterlimit="1.45" transform="translate(176 -433)" stroke-linecap="butt">
  <text clip-path="url(#clipPath2)" xml:space="preserve" stroke="none" y="621.3032" x="210.6017">UDP</text>
  <g fill="none">
   <rect clip-path="url(#clipPath2)" rx="4" ry="4" height="43.232" width="46.165" y="595.27" x="199.49"/>
   <path clip-path="url(#clipPath2)" d="m-76.325 661.93v-23.45"/>
   <path clip-path="url(#clipPath2)" d="m-76.569 595.3l-0.143-12.68"/>
  </g>
  <path stroke="none" d="m-76.803 574.62l-4.864 12.06 4.966-3.06 5.034 2.95z" clip-path="url(#clipPath2)"/>
  <path clip-path="url(#clipPath2)" d="m-12.09 533.7h24.041" fill="none"/>
  <path stroke="none" d="m-20.09 533.7l12 5-3-5 2.9996-5z" clip-path="url(#clipPath2)"/>
  <path clip-path="url(#clipPath2)" d="m58.074 533.7h24.035" fill="none"/>
  <path stroke="none" d="m90.109 533.7l-12-5 3 5-3 5z" clip-path="url(#clipPath2)"/>
  <path clip-path="url(#clipPath2)" d="m456.23 533.7h-24.74" fill="none"/>
  <path stroke="none" d="m464.23 533.7l-12-5 3 5-3 5z" clip-path="url(#clipPath2)"/>
  <path clip-path="url(#clipPath2)" d="m363.31 533.7h21.99" fill="none"/>
  <path stroke="none" d="m355.31 533.7l12 5-3-5 3-5z" clip-path="url(#clipPath2)"/>
  <path clip-path="url(#clipPath2)" d="m519.3 582.62l-0.02 12.68" fill="none"/>
  <path stroke="none" d="m519.32 574.62l-5.02 11.99 5-2.99 5 3.02z" clip-path="url(#clipPath2)"/>
  <path clip-path="url(#clipPath2)" d="m518.27 638.49l-0.69 15.46" fill="none"/>
  <path stroke="none" d="m517.22 661.94l5.53-11.77-5.13 2.78-4.86-3.22z" clip-path="url(#clipPath2)"/>
  <path clip-path="url(#clipPath2)" d="m222.38 582.62l0.07 12.68" fill="none"/>
  <path stroke="none" d="m222.34 574.62l-4.93 12.03 4.98-3.03 5.02 2.98z" clip-path="url(#clipPath2)"/>
  <path clip-path="url(#clipPath2)" d="m222.57 638.48v15.43" fill="none"/>
  <path stroke="none" d="m222.57 661.91l5-12-5 3-5-3z" clip-path="url(#clipPath2)"/>
 </g>
</svg>
