<?xml version="1.0" encoding="UTF-8"?>
<svg xmlns="http://www.w3.org/2000/svg" xmlns:xlink="http://www.w3.org/1999/xlink" fill-opacity="1" color-rendering="auto" color-interpolation="auto" stroke="black" text-rendering="auto" stroke-linecap="square" width="793" stroke-miterlimit="10" stroke-opacity="1" shape-rendering="auto" fill="black" stroke-dasharray="none" font-weight="normal" stroke-width="1" height="288" font-family="'Dialog'" font-style="normal" stroke-linejoin="miter" font-size="12" stroke-dashoffset="0" image-rendering="auto">
  <!--Generated by ySVG-->
  <defs id="genericDefs"/>
  <g>
    <defs id="defs1">
      <clipPath clipPathUnits="userSpaceOnUse" id="clipPath1">
        <path d="M0 0 L793 0 L793 288 L0 288 L0 0 Z"/>
      </clipPath>
      <clipPath clipPathUnits="userSpaceOnUse" id="clipPath2">
        <path d="M-176 433 L617 433 L617 721 L-176 721 L-176 433 Z"/>
      </clipPath>
    </defs>
    <g fill="white" transform="translate(176,-433)" stroke="white">
      <rect x="-176" width="793" height="288" y="433" clip-path="url(#clipPath2)" stroke="none"/>
    </g>
    <g fill="white" transform="matrix(1,0,0,1,176,-433)" stroke="white">
      <rect x="-160.3051" y="448" clip-path="url(#clipPath2)" width="165.5" rx="4" ry="4" height="135.6504" stroke="none"/>
    </g>
    <g fill="rgb(238,68,68)" stroke-miterlimit="1.45" font-family="sans-serif" transform="matrix(1,0,0,1,176,-433)" stroke-linecap="butt" stroke="rgb(238,68,68)">
      <text x="-104.0717" xml:space="preserve" y="465.4023" clip-path="url(#clipPath2)" stroke="none">TRUSTED</text>
    </g>
    <g stroke-linecap="round" transform="matrix(1,0,0,1,176,-433)" stroke-dashoffset="2" fill="rgb(238,68,68)" stroke-dasharray="0,4" stroke="rgb(238,68,68)" stroke-miterlimit="1.45">
      <rect x="-160.3051" y="448" clip-path="url(#clipPath2)" fill="none" width="165.5" rx="4" ry="4" height="135.6504"/>
    </g>
    <g fill="white" transform="matrix(1,0,0,1,176,-433)" stroke="white">
      <rect x="64.8195" y="448" clip-path="url(#clipPath2)" width="315.5" rx="4" ry="4" height="135.6504" stroke="none"/>
    </g>
    <g stroke-miterlimit="1.45" font-family="sans-serif" transform="matrix(1,0,0,1,176,-433)" stroke-linecap="butt">
      <text x="187.463" xml:space="preserve" y="465.4023" clip-path="url(#clipPath2)" stroke="none">UNTRUSTED</text>
    </g>
    <g stroke-dasharray="0,4" stroke-miterlimit="1.45" stroke-dashoffset="2" transform="matrix(1,0,0,1,176,-433)" stroke-linecap="round">
      <rect x="64.8195" y="448" clip-path="url(#clipPath2)" fill="none" width="315.5" rx="4" ry="4" height="135.6504"/>
    </g>
    <g fill="silver" transform="matrix(1,0,0,1,176,-433)" stroke="silver">
      <rect x="75.569" width="293" height="100" y="474.625" clip-path="url(#clipPath2)" stroke="none"/>
    </g>
    <g font-size="13" stroke-miterlimit="1.45" font-family="sans-serif" transform="matrix(1,0,0,1,176,-433)" stroke-linecap="butt">
      <text x="200.4299" xml:space="preserve" y="492.9775" clip-path="url(#clipPath2)" stroke="none">charon</text>
      <rect fill="none" x="75.569" width="293" height="100" y="474.625" clip-path="url(#clipPath2)"/>
    </g>
    <g fill="rgb(242,242,240)" transform="matrix(1,0,0,1,176,-433)" stroke="rgb(242,242,240)">
      <rect x="90.0896" y="508.3342" clip-path="url(#clipPath2)" width="120" rx="4" ry="4" height="50.7319" stroke="none"/>
    </g>
    <g font-size="13" stroke-miterlimit="1.45" font-family="sans-serif" transform="matrix(1,0,0,1,176,-433)" stroke-linecap="butt">
      <text x="115.698" xml:space="preserve" y="538.4895" clip-path="url(#clipPath2)" stroke="none">EES service</text>
      <rect x="90.0896" y="508.3342" clip-path="url(#clipPath2)" fill="none" width="120" stroke-dasharray="6,2" rx="4" ry="4" height="50.7319"/>
    </g>
    <g fill="rgb(242,242,240)" transform="matrix(1,0,0,1,176,-433)" stroke="rgb(242,242,240)">
      <rect x="235.3195" y="508.3342" clip-path="url(#clipPath2)" width="120" rx="4" ry="4" height="50.7319" stroke="none"/>
    </g>
    <g font-size="13" stroke-miterlimit="1.45" font-family="sans-serif" transform="matrix(1,0,0,1,176,-433)" stroke-linecap="butt">
      <text x="262.1371" xml:space="preserve" y="538.4895" clip-path="url(#clipPath2)" stroke="none">TKM client</text>
      <rect x="235.3195" y="508.3342" clip-path="url(#clipPath2)" fill="none" width="120" stroke-dasharray="6,2" rx="4" ry="4" height="50.7319"/>
    </g>
    <g fill="rgb(238,68,68)" transform="matrix(1,0,0,1,176,-433)" stroke="rgb(238,68,68)">
      <rect x="-147.8051" width="140.875" height="100" y="474.625" clip-path="url(#clipPath2)" stroke="none"/>
    </g>
    <g font-size="13" stroke-miterlimit="1.45" font-family="sans-serif" transform="matrix(1,0,0,1,176,-433)" stroke-linecap="butt">
      <text x="-114.3586" xml:space="preserve" y="492.9775" clip-path="url(#clipPath2)" stroke="none">xfrm-proxy</text>
      <rect fill="none" x="-147.8051" width="140.875" height="100" y="474.625" clip-path="url(#clipPath2)"/>
    </g>
    <g fill="rgb(242,242,240)" transform="matrix(1,0,0,1,176,-433)" stroke="rgb(242,242,240)">
      <rect x="-132.5752" y="508.2844" clip-path="url(#clipPath2)" width="112.5" rx="4" ry="4" height="50.7319" stroke="none"/>
    </g>
    <g font-size="13" stroke-miterlimit="1.45" font-family="sans-serif" transform="matrix(1,0,0,1,176,-433)" stroke-linecap="butt">
      <text x="-106.102" xml:space="preserve" y="538.4397" clip-path="url(#clipPath2)" stroke="none">EES client</text>
      <rect x="-132.5752" y="508.2844" clip-path="url(#clipPath2)" fill="none" width="112.5" stroke-dasharray="6,2" rx="4" ry="4" height="50.7319"/>
    </g>
    <g fill="white" transform="matrix(1,0,0,1,176,-433)" stroke="white">
      <rect x="-147.8051" width="737.6647" height="43.2319" y="661.9484" clip-path="url(#clipPath2)" stroke="none"/>
    </g>
    <g font-size="13" stroke-miterlimit="1.45" font-family="sans-serif" transform="matrix(1,0,0,1,176,-433)" stroke-linecap="butt">
      <text x="200.9687" xml:space="preserve" y="688.3536" clip-path="url(#clipPath2)" stroke="none">Kernel</text>
      <rect x="-147.8051" y="661.9484" clip-path="url(#clipPath2)" fill="none" width="737.6647" stroke-dasharray="6,2" height="43.2319"/>
    </g>
    <g fill="white" transform="matrix(1,0,0,1,176,-433)" stroke="white">
      <rect x="-99.4078" y="595.2663" clip-path="url(#clipPath2)" width="46.1652" rx="4" ry="4" height="43.2319" stroke="none"/>
    </g>
    <g stroke-miterlimit="1.45" font-family="sans-serif" transform="matrix(1,0,0,1,176,-433)" stroke-linecap="butt">
      <text x="-97.0439" xml:space="preserve" y="614.3217" clip-path="url(#clipPath2)" stroke="none">Netlink</text>
      <text x="-92.2597" xml:space="preserve" y="628.2846" clip-path="url(#clipPath2)" stroke="none">XFRM</text>
      <rect x="-99.4078" y="595.2663" clip-path="url(#clipPath2)" fill="none" width="46.1652" rx="4" ry="4" height="43.2319"/>
    </g>
    <g fill="white" transform="matrix(1,0,0,1,176,-433)" stroke="white">
      <rect x="11.9246" y="512.0842" clip-path="url(#clipPath2)" width="46.1652" rx="4" ry="4" height="43.2319" stroke="none"/>
    </g>
    <g stroke-miterlimit="1.45" font-family="sans-serif" transform="matrix(1,0,0,1,176,-433)" stroke-linecap="butt">
      <text x="21.7123" xml:space="preserve" y="538.1211" clip-path="url(#clipPath2)" stroke="none">Unix</text>
      <rect x="11.9246" y="512.0842" clip-path="url(#clipPath2)" fill="none" width="46.1652" rx="4" ry="4" height="43.2319"/>
    </g>
    <g fill="white" transform="matrix(1,0,0,1,176,-433)" stroke="white">
      <rect x="436.4847" y="448" clip-path="url(#clipPath2)" width="165.5" rx="4" ry="4" height="135.6504" stroke="none"/>
    </g>
    <g fill="rgb(238,68,68)" stroke-miterlimit="1.45" font-family="sans-serif" transform="matrix(1,0,0,1,176,-433)" stroke-linecap="butt" stroke="rgb(238,68,68)">
      <text x="492.718" xml:space="preserve" y="465.4023" clip-path="url(#clipPath2)" stroke="none">TRUSTED</text>
    </g>
    <g stroke-linecap="round" transform="matrix(1,0,0,1,176,-433)" stroke-dashoffset="2" fill="rgb(238,68,68)" stroke-dasharray="0,4" stroke="rgb(238,68,68)" stroke-miterlimit="1.45">
      <rect x="436.4847" y="448" clip-path="url(#clipPath2)" fill="none" width="165.5" rx="4" ry="4" height="135.6504"/>
    </g>
    <g fill="rgb(238,68,68)" transform="matrix(1,0,0,1,176,-433)" stroke="rgb(238,68,68)">
      <rect x="448.9847" width="140.875" height="100" y="474.625" clip-path="url(#clipPath2)" stroke="none"/>
    </g>
    <g font-size="13" stroke-miterlimit="1.45" font-family="sans-serif" transform="matrix(1,0,0,1,176,-433)" stroke-linecap="butt">
      <text x="477.7403" xml:space="preserve" y="492.9775" clip-path="url(#clipPath2)" stroke="none">key_manager</text>
      <rect fill="none" x="448.9847" width="140.875" height="100" y="474.625" clip-path="url(#clipPath2)"/>
    </g>
    <g fill="rgb(242,242,240)" transform="matrix(1,0,0,1,176,-433)" stroke="rgb(242,242,240)">
      <rect x="464.2146" y="508.2844" clip-path="url(#clipPath2)" width="112.5" rx="4" ry="4" height="50.7319" stroke="none"/>
    </g>
    <g font-size="13" stroke-miterlimit="1.45" font-family="sans-serif" transform="matrix(1,0,0,1,176,-433)" stroke-linecap="butt">
      <text x="482.6674" xml:space="preserve" y="538.4397" clip-path="url(#clipPath2)" stroke="none">TKM service</text>
      <rect x="464.2146" y="508.2844" clip-path="url(#clipPath2)" fill="none" width="112.5" stroke-dasharray="6,2" rx="4" ry="4" height="50.7319"/>
    </g>
    <g fill="white" transform="matrix(1,0,0,1,176,-433)" stroke="white">
      <rect x="385.3195" y="512.0842" clip-path="url(#clipPath2)" width="46.1652" rx="4" ry="4" height="43.2319" stroke="none"/>
    </g>
    <g stroke-miterlimit="1.45" font-family="sans-serif" transform="matrix(1,0,0,1,176,-433)" stroke-linecap="butt">
      <text x="395.1071" xml:space="preserve" y="538.1211" clip-path="url(#clipPath2)" stroke="none">Unix</text>
      <rect x="385.3195" y="512.0842" clip-path="url(#clipPath2)" fill="none" width="46.1652" rx="4" ry="4" height="43.2319"/>
    </g>
    <g fill="white" transform="matrix(1,0,0,1,176,-433)" stroke="white">
      <rect x="496.1521" y="595.2663" clip-path="url(#clipPath2)" width="46.1652" rx="4" ry="4" height="43.2319" stroke="none"/>
    </g>
    <g stroke-miterlimit="1.45" font-family="sans-serif" transform="matrix(1,0,0,1,176,-433)" stroke-linecap="butt">
      <text x="498.5159" xml:space="preserve" y="614.3217" clip-path="url(#clipPath2)" stroke="none">Netlink</text>
      <text x="503.3001" xml:space="preserve" y="628.2846" clip-path="url(#clipPath2)" stroke="none">XFRM</text>
      <rect x="496.1521" y="595.2663" clip-path="url(#clipPath2)" fill="none" width="46.1652" rx="4" ry="4" height="43.2319"/>
    </g>
    <g fill="white" transform="matrix(1,0,0,1,176,-433)" stroke="white">
      <rect x="199.4869" y="595.2663" clip-path="url(#clipPath2)" width="46.1652" rx="4" ry="4" height="43.2319" stroke="none"/>
    </g>
    <g stroke-miterlimit="1.45" font-family="sans-serif" transform="matrix(1,0,0,1,176,-433)" stroke-linecap="butt">
      <text x="210.6017" xml:space="preserve" y="621.3032" clip-path="url(#clipPath2)" stroke="none">UDP</text>
      <rect x="199.4869" y="595.2663" clip-path="url(#clipPath2)" fill="none" width="46.1652" rx="4" ry="4" height="43.2319"/>
      <path fill="none" d="M-76.3252 661.9325 L-76.3252 638.4835" clip-path="url(#clipPath2)"/>
      <path fill="none" d="M-76.569 595.3045 L-76.7122 582.6245" clip-path="url(#clipPath2)"/>
      <path d="M-76.8026 574.625 L-81.6667 586.6807 L-76.701 583.6245 L-71.6674 586.5677 Z" clip-path="url(#clipPath2)" stroke="none"/>
      <path fill="none" d="M-12.0904 533.7002 L11.9512 533.7002" clip-path="url(#clipPath2)"/>
      <path d="M-20.0904 533.7002 L-8.0904 538.7002 L-11.0904 533.7002 L-8.0904 528.7002 Z" clip-path="url(#clipPath2)" stroke="none"/>
      <path fill="none" d="M58.0742 533.7002 L82.1089 533.7002" clip-path="url(#clipPath2)"/>
      <path d="M90.1089 533.7002 L78.1089 528.7002 L81.1089 533.7002 L78.1089 538.7002 Z" clip-path="url(#clipPath2)" stroke="none"/>
      <path fill="none" d="M456.2333 533.7002 L431.4924 533.7002" clip-path="url(#clipPath2)"/>
      <path d="M464.2333 533.7002 L452.2333 528.7002 L455.2333 533.7002 L452.2333 538.7002 Z" clip-path="url(#clipPath2)" stroke="none"/>
      <path fill="none" d="M363.3118 533.7002 L385.3047 533.7002" clip-path="url(#clipPath2)"/>
      <path d="M355.3118 533.7002 L367.3118 538.7002 L364.3118 533.7002 L367.3118 528.7002 Z" clip-path="url(#clipPath2)" stroke="none"/>
      <path fill="none" d="M519.3043 582.625 L519.2785 595.2997" clip-path="url(#clipPath2)"/>
      <path d="M519.3206 574.625 L514.2961 586.6148 L519.3022 583.625 L524.2961 586.6351 Z" clip-path="url(#clipPath2)" stroke="none"/>
      <path fill="none" d="M518.2676 638.4859 L517.5755 653.9456" clip-path="url(#clipPath2)"/>
      <path d="M517.2178 661.9376 L522.7494 650.1732 L517.6202 652.9465 L512.7593 649.726 Z" clip-path="url(#clipPath2)" stroke="none"/>
      <path fill="none" d="M222.3836 582.6249 L222.4524 595.2997" clip-path="url(#clipPath2)"/>
      <path d="M222.3402 574.625 L217.4054 586.6519 L222.3891 583.6249 L227.4053 586.5977 Z" clip-path="url(#clipPath2)" stroke="none"/>
      <path fill="none" d="M222.5695 638.4803 L222.5695 653.914" clip-path="url(#clipPath2)"/>
      <path d="M222.5695 661.914 L227.5695 649.914 L222.5695 652.914 L217.5695 649.914 Z" clip-path="url(#clipPath2)" stroke="none"/>
    </g>
  </g>
</svg>
