<?xml version="1.0" encoding="UTF-8"?><svg xmlns="http://www.w3.org/2000/svg" xmlns:xlink="http://www.w3.org/1999/xlink" fill-opacity="1" color-rendering="auto" color-interpolation="auto" stroke="black" text-rendering="auto" stroke-linecap="square" width="334" stroke-miterlimit="10" stroke-opacity="1" shape-rendering="auto" fill="black" stroke-dasharray="none" font-weight="normal" stroke-width="1" height="110" font-family="'Dialog'" font-style="normal" stroke-linejoin="miter" font-size="12" stroke-dashoffset="0" image-rendering="auto">
  <!--Generated by ySVG-->
  <defs id="genericDefs"/>
  <g>
    <defs id="defs1">
      <clipPath clipPathUnits="userSpaceOnUse" id="clipPath1">
        <path d="M0 0 L334 0 L334 110 L0 110 L0 0 Z"/>
      </clipPath>
      <clipPath clipPathUnits="userSpaceOnUse" id="clipPath2">
        <path d="M91 84 L425 84 L425 194 L91 194 L91 84 Z"/>
      </clipPath>
    </defs>
    <g fill="white" transform="translate(-91,-84)" stroke="white">
      <rect x="91" width="334" height="110" y="84" clip-path="url(#clipPath2)" stroke="none"/>
    </g>
    <g transform="matrix(1,0,0,1,-91,-84)">
      <rect x="106.7492" width="100" height="30" y="115" clip-path="url(#clipPath2)" stroke="none"/>
    </g>
    <g fill="rgb(142,132,132)" stroke-miterlimit="1.45" transform="matrix(1,0,0,1,-91,-84)" stroke-linecap="butt" stroke="rgb(142,132,132)">
      <rect fill="none" x="106.7492" width="100" height="30" y="115" clip-path="url(#clipPath2)"/>
    </g>
    <g fill="white" transform="matrix(1,0,0,1,-91,-84)" stroke="white">
      <rect x="259.8746" y="99" clip-path="url(#clipPath2)" width="150" rx="4" ry="4" height="80" stroke="none"/>
    </g>
    <g stroke-miterlimit="1.45" font-family="sans-serif" transform="matrix(1,0,0,1,-91,-84)" stroke-linecap="butt">
      <text x="322.9039" xml:space="preserve" y="170.1699" clip-path="url(#clipPath2)" stroke="none">TCB</text>
    </g>
    <g stroke-dasharray="0,4" stroke-miterlimit="1.45" stroke-dashoffset="2" transform="matrix(1,0,0,1,-91,-84)" stroke-linecap="round">
      <rect x="259.8746" y="99" clip-path="url(#clipPath2)" fill="none" width="150" rx="4" ry="4" height="80"/>
    </g>
    <g fill="rgb(238,68,68)" transform="matrix(1,0,0,1,-91,-84)" stroke="rgb(238,68,68)">
      <rect x="289.8746" width="100" height="30" y="115" clip-path="url(#clipPath2)" stroke="none"/>
    </g>
    <g stroke-linecap="butt" transform="matrix(1,0,0,1,-91,-84)" stroke-miterlimit="1.45">
      <rect fill="none" x="289.8746" width="100" height="30" y="115" clip-path="url(#clipPath2)"/>
      <rect stroke-linecap="square" x="120.8746" y="124" clip-path="url(#clipPath2)" width="100" height="30" stroke="none" stroke-miterlimit="10"/>
    </g>
    <g font-size="13" stroke-linecap="butt" transform="matrix(1,0,0,1,-91,-84)" fill="white" font-family="sans-serif" stroke="white" stroke-miterlimit="1.45">
      <text x="138.5968" xml:space="preserve" y="143.5005" clip-path="url(#clipPath2)" stroke="none">Untrusted</text>
    </g>
    <g fill="rgb(142,132,132)" stroke-miterlimit="1.45" transform="matrix(1,0,0,1,-91,-84)" stroke-linecap="butt" stroke="rgb(142,132,132)">
      <rect fill="none" x="120.8746" width="100" height="30" y="124" clip-path="url(#clipPath2)"/>
    </g>
    <g fill="rgb(238,68,68)" transform="matrix(1,0,0,1,-91,-84)" stroke="rgb(238,68,68)">
      <rect x="277.8746" width="100" height="30" y="124" clip-path="url(#clipPath2)" stroke="none"/>
    </g>
    <g font-size="13" stroke-miterlimit="1.45" font-family="sans-serif" transform="matrix(1,0,0,1,-91,-84)" stroke-linecap="butt">
      <text x="303.0521" xml:space="preserve" y="143.5005" clip-path="url(#clipPath2)" stroke="none">Trusted</text>
      <rect fill="none" x="277.8746" width="100" height="30" y="124" clip-path="url(#clipPath2)"/>
      <path fill="none" d="M220.8746 139 L269.8746 139" clip-path="url(#clipPath2)"/>
      <path d="M277.8746 139 L265.8746 134 L268.8746 139 L265.8746 144 Z" clip-path="url(#clipPath2)" stroke="none"/>
    </g>
  </g>
</svg>
