<?xml version="1.0" encoding="UTF-8"?><svg xmlns="http://www.w3.org/2000/svg" xmlns:xlink="http://www.w3.org/1999/xlink" fill-opacity="1" color-rendering="auto" color-interpolation="auto" stroke="black" text-rendering="auto" stroke-linecap="square" width="330" stroke-miterlimit="10" stroke-opacity="1" shape-rendering="auto" fill="black" stroke-dasharray="none" font-weight="normal" stroke-width="1" height="395" font-family="'Dialog'" font-style="normal" stroke-linejoin="miter" font-size="12" stroke-dashoffset="0" image-rendering="auto">
  <!--Generated by ySVG-->
  <defs id="genericDefs"/>
  <g>
    <defs id="defs1">
      <clipPath clipPathUnits="userSpaceOnUse" id="clipPath1">
        <path d="M0 0 L330 0 L330 395 L0 395 L0 0 Z"/>
      </clipPath>
      <clipPath clipPathUnits="userSpaceOnUse" id="clipPath2">
        <path d="M119 660 L449 660 L449 1055 L119 1055 L119 660 Z"/>
      </clipPath>
    </defs>
    <g fill="white" transform="translate(-119,-660)" stroke="white">
      <rect x="119" width="330" height="395" y="660" clip-path="url(#clipPath2)" stroke="none"/>
    </g>
    <g fill="white" transform="matrix(1,0,0,1,-119,-660)" stroke="white">
      <rect x="172.4211" y="899.1896" clip-path="url(#clipPath2)" width="244.0323" rx="4" ry="4" height="140.3797" stroke="none"/>
    </g>
    <g stroke-miterlimit="1.45" font-family="sans-serif" transform="matrix(1,0,0,1,-119,-660)" stroke-linecap="butt">
      <text x="275.1834" xml:space="preserve" y="1030.7393" clip-path="url(#clipPath2)" stroke="none">Kernel</text>
    </g>
    <g stroke-dasharray="0,4" stroke-miterlimit="1.45" stroke-dashoffset="2" transform="matrix(1,0,0,1,-119,-660)" stroke-linecap="round">
      <rect x="172.4211" y="899.1896" clip-path="url(#clipPath2)" fill="none" width="244.0323" rx="4" ry="4" height="140.3797"/>
    </g>
    <g fill="rgb(206,222,226)" transform="matrix(1,0,0,1,-119,-660)" stroke="rgb(206,222,226)">
      <rect x="184.4373" width="100" height="30" y="986.1254" clip-path="url(#clipPath2)" stroke="none"/>
    </g>
    <g stroke-miterlimit="1.45" font-family="sans-serif" transform="matrix(1,0,0,1,-119,-660)" stroke-linecap="butt">
      <text x="221.9041" xml:space="preserve" y="1005.2797" clip-path="url(#clipPath2)" stroke="none">SAD</text>
      <rect fill="none" x="184.4373" width="100" height="30" y="986.1254" clip-path="url(#clipPath2)"/>
    </g>
    <g fill="rgb(206,222,226)" transform="matrix(1,0,0,1,-119,-660)" stroke="rgb(206,222,226)">
      <rect x="304.4373" width="100" height="30" y="986.1254" clip-path="url(#clipPath2)" stroke="none"/>
    </g>
    <g stroke-miterlimit="1.45" font-family="sans-serif" transform="matrix(1,0,0,1,-119,-660)" stroke-linecap="butt">
      <text x="342.3904" xml:space="preserve" y="1005.2797" clip-path="url(#clipPath2)" stroke="none">SPD</text>
      <rect fill="none" x="304.4373" width="100" height="30" y="986.1254" clip-path="url(#clipPath2)"/>
    </g>
    <g fill="rgb(242,242,240)" transform="matrix(1,0,0,1,-119,-660)" stroke="rgb(242,242,240)">
      <rect x="184.4373" width="220" height="30" y="839.1896" clip-path="url(#clipPath2)" stroke="none"/>
    </g>
    <g font-size="13" stroke-miterlimit="1.45" font-family="sans-serif" transform="matrix(1,0,0,1,-119,-660)" stroke-linecap="butt">
      <text x="264.8604" xml:space="preserve" y="857.2565" clip-path="url(#clipPath2)" stroke="none">xfrm-ada</text>
      <rect fill="none" x="184.4373" width="220" height="30" y="839.1896" clip-path="url(#clipPath2)"/>
    </g>
    <g fill="rgb(242,242,240)" transform="matrix(1,0,0,1,-119,-660)" stroke="rgb(242,242,240)">
      <rect x="184.4373" y="912.1985" clip-path="url(#clipPath2)" width="220" rx="4" ry="4" height="30" stroke="none"/>
    </g>
    <g font-size="13" stroke-miterlimit="1.45" font-family="sans-serif" transform="matrix(1,0,0,1,-119,-660)" stroke-linecap="butt">
      <text x="271.5318" xml:space="preserve" y="930.2654" clip-path="url(#clipPath2)" stroke="none">Netlink</text>
      <rect x="184.4373" y="912.1985" clip-path="url(#clipPath2)" fill="none" width="220" rx="4" ry="4" height="30"/>
    </g>
    <g fill="rgb(242,242,240)" transform="matrix(1,0,0,1,-119,-660)" stroke="rgb(242,242,240)">
      <rect x="184.4373" y="949.162" clip-path="url(#clipPath2)" width="220" rx="4" ry="4" height="30" stroke="none"/>
    </g>
    <g font-size="13" stroke-miterlimit="1.45" font-family="sans-serif" transform="matrix(1,0,0,1,-119,-660)" stroke-linecap="butt">
      <text x="276.1212" xml:space="preserve" y="967.2289" clip-path="url(#clipPath2)" stroke="none">XFRM</text>
      <rect x="184.4373" y="949.162" clip-path="url(#clipPath2)" fill="none" width="220" rx="4" ry="4" height="30"/>
    </g>
    <g fill="rgb(238,68,68)" transform="matrix(1,0,0,1,-119,-660)" stroke="rgb(238,68,68)">
      <rect x="184.4373" width="100" height="30" y="748.9268" clip-path="url(#clipPath2)" stroke="none"/>
    </g>
    <g font-size="13" stroke-miterlimit="1.45" font-family="sans-serif" transform="matrix(1,0,0,1,-119,-660)" stroke-linecap="butt">
      <text x="220.5962" xml:space="preserve" y="768.4273" clip-path="url(#clipPath2)" stroke="none">TKM</text>
      <rect fill="none" x="184.4373" width="100" height="30" y="748.9268" clip-path="url(#clipPath2)"/>
    </g>
    <g fill="rgb(238,68,68)" transform="matrix(1,0,0,1,-119,-660)" stroke="rgb(238,68,68)">
      <rect x="304.4373" width="100" height="30" y="748.9268" clip-path="url(#clipPath2)" stroke="none"/>
    </g>
    <g font-size="13" stroke-miterlimit="1.45" font-family="sans-serif" transform="matrix(1,0,0,1,-119,-660)" stroke-linecap="butt">
      <text x="318.4842" xml:space="preserve" y="768.4273" clip-path="url(#clipPath2)" stroke="none">xfrm-proxy</text>
      <rect fill="none" x="304.4373" width="100" height="30" y="748.9268" clip-path="url(#clipPath2)"/>
    </g>
    <g transform="matrix(1,0,0,1,-119,-660)">
      <rect x="304.4373" width="100" height="30" y="675" clip-path="url(#clipPath2)" stroke="none"/>
    </g>
    <g font-size="13" stroke-linecap="butt" transform="matrix(1,0,0,1,-119,-660)" fill="white" font-family="sans-serif" stroke="white" stroke-miterlimit="1.45">
      <text x="331.992" xml:space="preserve" y="694.5005" clip-path="url(#clipPath2)" stroke="none">charon</text>
    </g>
    <g fill="rgb(142,132,132)" stroke-miterlimit="1.45" transform="matrix(1,0,0,1,-119,-660)" stroke-linecap="butt" stroke="rgb(142,132,132)">
      <rect fill="none" x="304.4373" width="100" height="30" y="675" clip-path="url(#clipPath2)"/>
      <path fill="none" d="M294.4373 869.1896 L294.4373 904.2148" clip-path="url(#clipPath2)" stroke="black"/>
      <path fill="black" d="M294.4373 912.2148 L299.4373 900.2148 L294.4373 903.2148 L289.4373 900.2148 Z" clip-path="url(#clipPath2)" stroke="none"/>
      <text x="250.4861" y="894.8484" clip-path="url(#clipPath2)" fill="black" font-family="sans-serif" stroke="none" xml:space="preserve">Anet</text>
      <path fill="none" d="M244.4082 778.9268 L280.0378 832.5273" clip-path="url(#clipPath2)" stroke="black"/>
      <path fill="black" d="M284.4664 839.1896 L281.9874 826.4282 L279.4842 831.6945 L273.6595 831.964 Z" clip-path="url(#clipPath2)" stroke="none"/>
      <text x="136.6273" y="813.2125" clip-path="url(#clipPath2)" fill="black" font-family="sans-serif" stroke="none" xml:space="preserve">Insert policy, states</text>
      <path fill="none" d="M304.4082 839.1896 L340.0378 785.5892" clip-path="url(#clipPath2)" stroke="black"/>
      <path fill="black" d="M344.4664 778.9269 L333.6595 786.1525 L339.4842 786.4221 L341.9875 791.6884 Z" clip-path="url(#clipPath2)" stroke="none"/>
      <text x="327.0828" y="824.2346" clip-path="url(#clipPath2)" fill="black" font-family="sans-serif" stroke="none" xml:space="preserve">ACQUIRE, EXPIRE</text>
      <path fill="none" d="M354.4373 748.9268 L354.4373 713" clip-path="url(#clipPath2)" stroke="black"/>
      <path fill="black" d="M354.4373 705 L349.4373 717 L354.4373 714 L359.4373 717 Z" clip-path="url(#clipPath2)" stroke="none"/>
      <text x="280.8572" y="731.1177" clip-path="url(#clipPath2)" fill="black" font-family="sans-serif" stroke="none" xml:space="preserve">EES service</text>
    </g>
  </g>
</svg>
