<?xml version="1.0" encoding="UTF-8"?>
<svg xmlns="http://www.w3.org/2000/svg" xmlns:xlink="http://www.w3.org/1999/xlink" fill-opacity="1" color-rendering="auto" color-interpolation="auto" stroke="black" text-rendering="auto" stroke-linecap="square" width="497" stroke-miterlimit="10" stroke-opacity="1" shape-rendering="auto" fill="black" stroke-dasharray="none" font-weight="normal" stroke-width="1" height="429" font-family="'Dialog'" font-style="normal" stroke-linejoin="miter" font-size="12" stroke-dashoffset="0" image-rendering="auto">
  <!--Generated by ySVG-->
  <defs id="genericDefs"/>
  <g>
    <defs id="defs1">
      <clipPath clipPathUnits="userSpaceOnUse" id="clipPath1">
        <path d="M0 0 L497 0 L497 429 L0 429 L0 0 Z"/>
      </clipPath>
      <clipPath clipPathUnits="userSpaceOnUse" id="clipPath2">
        <path d="M-115 552 L382 552 L382 981 L-115 981 L-115 552 Z"/>
      </clipPath>
    </defs>
    <g fill="white" transform="translate(115,-552)" stroke="white">
      <rect x="-115" width="497" height="429" y="552" clip-path="url(#clipPath2)" stroke="none"/>
    </g>
    <g fill="white" transform="matrix(1,0,0,1,115,-552)" stroke="white">
      <rect x="167.4211" y="567.6896" clip-path="url(#clipPath2)" width="199.0323" rx="4" ry="4" height="397.3797" stroke="none"/>
    </g>
    <g stroke-miterlimit="1.45" font-family="sans-serif" transform="matrix(1,0,0,1,115,-552)" stroke-linecap="butt">
      <text x="215.7645" xml:space="preserve" y="956.5088" clip-path="url(#clipPath2)" stroke="none">Generated output</text>
    </g>
    <g stroke-dasharray="0,4" stroke-miterlimit="1.45" stroke-dashoffset="2" transform="matrix(1,0,0,1,115,-552)" stroke-linecap="round">
      <rect x="167.4211" y="567.6896" clip-path="url(#clipPath2)" fill="none" width="199.0323" rx="4" ry="4" height="397.3797"/>
    </g>
    <g fill="rgb(255,204,0)" transform="matrix(1,0,0,1,115,-552)" stroke="rgb(255,204,0)">
      <path d="M-99.1416 662 L-1.1416 662 L-1.1416 677 L13.8584 677 L13.8584 736 L-99.1416 736 Z" clip-path="url(#clipPath2)" stroke="none"/>
      <path fill="white" d="M-1.1416 662 L-1.1416 677 L13.8584 677 Z" clip-path="url(#clipPath2)" fill-rule="evenodd" stroke="none"/>
    </g>
    <g stroke-linecap="butt" transform="matrix(1,0,0,1,115,-552)" stroke-miterlimit="1.45">
      <path fill="none" d="M-99.1416 662 L-1.1416 662 L-1.1416 677 L13.8584 677 L13.8584 736 L-99.1416 736 Z" clip-path="url(#clipPath2)"/>
      <path fill="none" d="M-1.1416 662 L-1.1416 677 L13.8584 677 Z" fill-rule="evenodd" clip-path="url(#clipPath2)"/>
      <text x="-54.7646" xml:space="preserve" y="696.4395" font-family="sans-serif" clip-path="url(#clipPath2)" stroke="none">XML</text>
      <text x="-79.5146" xml:space="preserve" y="710.4023" font-family="sans-serif" clip-path="url(#clipPath2)" stroke="none">Specification</text>
    </g>
    <g fill="rgb(204,204,255)" transform="matrix(1,0,0,1,115,-552)" stroke="rgb(204,204,255)">
      <path d="M179.4373 576 L339.4373 576 L339.4373 591 L354.4373 591 L354.4373 604 L179.4373 604 Z" clip-path="url(#clipPath2)" stroke="none"/>
      <path fill="white" d="M339.4373 576 L339.4373 591 L354.4373 591 Z" clip-path="url(#clipPath2)" fill-rule="evenodd" stroke="none"/>
    </g>
    <g stroke-linecap="butt" transform="matrix(1,0,0,1,115,-552)" stroke-miterlimit="1.45">
      <path fill="none" d="M179.4373 576 L339.4373 576 L339.4373 591 L354.4373 591 L354.4373 604 L179.4373 604 Z" clip-path="url(#clipPath2)"/>
      <path fill="none" d="M339.4373 576 L339.4373 591 L354.4373 591 Z" fill-rule="evenodd" clip-path="url(#clipPath2)"/>
      <text x="199.5193" xml:space="preserve" y="594.4209" font-family="sans-serif" clip-path="url(#clipPath2)" stroke="none">Types &amp; Constants Ada</text>
    </g>
    <g fill="rgb(146,159,173)" transform="matrix(1,0,0,1,115,-552)" stroke="rgb(146,159,173)">
      <path d="M179.4373 619 L339.4373 619 L339.4373 634 L354.4373 634 L354.4373 647 L179.4373 647 Z" clip-path="url(#clipPath2)" stroke="none"/>
      <path fill="white" d="M339.4373 619 L339.4373 634 L354.4373 634 Z" clip-path="url(#clipPath2)" fill-rule="evenodd" stroke="none"/>
    </g>
    <g stroke-linecap="butt" transform="matrix(1,0,0,1,115,-552)" stroke-miterlimit="1.45">
      <path fill="none" d="M179.4373 619 L339.4373 619 L339.4373 634 L354.4373 634 L354.4373 647 L179.4373 647 Z" clip-path="url(#clipPath2)"/>
      <path fill="none" d="M339.4373 619 L339.4373 634 L354.4373 634 Z" fill-rule="evenodd" clip-path="url(#clipPath2)"/>
      <text x="206.5975" xml:space="preserve" y="637.4209" font-family="sans-serif" clip-path="url(#clipPath2)" stroke="none">Types &amp; Constants C</text>
    </g>
    <g fill="rgb(204,204,255)" transform="matrix(1,0,0,1,115,-552)" stroke="rgb(204,204,255)">
      <path d="M179.4373 703.5 L339.4373 703.5 L339.4373 718.5 L354.4373 718.5 L354.4373 731.5 L179.4373 731.5 Z" clip-path="url(#clipPath2)" stroke="none"/>
      <path fill="white" d="M339.4373 703.5 L339.4373 718.5 L354.4373 718.5 Z" clip-path="url(#clipPath2)" fill-rule="evenodd" stroke="none"/>
    </g>
    <g stroke-linecap="butt" transform="matrix(1,0,0,1,115,-552)" stroke-miterlimit="1.45">
      <path fill="none" d="M179.4373 703.5 L339.4373 703.5 L339.4373 718.5 L354.4373 718.5 L354.4373 731.5 L179.4373 731.5 Z" clip-path="url(#clipPath2)"/>
      <path fill="none" d="M339.4373 703.5 L339.4373 718.5 L354.4373 718.5 Z" fill-rule="evenodd" clip-path="url(#clipPath2)"/>
      <text x="209.5447" xml:space="preserve" y="721.9209" font-family="sans-serif" clip-path="url(#clipPath2)" stroke="none">Client interface Ada</text>
    </g>
    <g fill="rgb(146,159,173)" transform="matrix(1,0,0,1,115,-552)" stroke="rgb(146,159,173)">
      <path d="M179.4373 745 L339.4373 745 L339.4373 760 L354.4373 760 L354.4373 773 L179.4373 773 Z" clip-path="url(#clipPath2)" stroke="none"/>
      <path fill="white" d="M339.4373 745 L339.4373 760 L354.4373 760 Z" clip-path="url(#clipPath2)" fill-rule="evenodd" stroke="none"/>
    </g>
    <g stroke-linecap="butt" transform="matrix(1,0,0,1,115,-552)" stroke-miterlimit="1.45">
      <path fill="none" d="M179.4373 745 L339.4373 745 L339.4373 760 L354.4373 760 L354.4373 773 L179.4373 773 Z" clip-path="url(#clipPath2)"/>
      <path fill="none" d="M339.4373 745 L339.4373 760 L354.4373 760 Z" fill-rule="evenodd" clip-path="url(#clipPath2)"/>
      <text x="216.6228" xml:space="preserve" y="763.4209" font-family="sans-serif" clip-path="url(#clipPath2)" stroke="none">Client interface C</text>
    </g>
    <g fill="rgb(204,204,255)" transform="matrix(1,0,0,1,115,-552)" stroke="rgb(204,204,255)">
      <path d="M179.4373 662 L339.4373 662 L339.4373 677 L354.4373 677 L354.4373 690 L179.4373 690 Z" clip-path="url(#clipPath2)" stroke="none"/>
      <path fill="white" d="M339.4373 662 L339.4373 677 L354.4373 677 Z" clip-path="url(#clipPath2)" fill-rule="evenodd" stroke="none"/>
    </g>
    <g stroke-linecap="butt" transform="matrix(1,0,0,1,115,-552)" stroke-miterlimit="1.45">
      <path fill="none" d="M179.4373 662 L339.4373 662 L339.4373 677 L354.4373 677 L354.4373 690 L179.4373 690 Z" clip-path="url(#clipPath2)"/>
      <path fill="none" d="M339.4373 662 L339.4373 677 L354.4373 677 Z" fill-rule="evenodd" clip-path="url(#clipPath2)"/>
      <text x="208.5428" xml:space="preserve" y="680.4209" font-family="sans-serif" clip-path="url(#clipPath2)" stroke="none">Server interface Ada</text>
    </g>
    <g fill="rgb(204,204,255)" transform="matrix(1,0,0,1,115,-552)" stroke="rgb(204,204,255)">
      <path d="M179.4373 786.5 L339.4373 786.5 L339.4373 801.5 L354.4373 801.5 L354.4373 814.5 L179.4373 814.5 Z" clip-path="url(#clipPath2)" stroke="none"/>
      <path fill="white" d="M339.4373 786.5 L339.4373 801.5 L354.4373 801.5 Z" clip-path="url(#clipPath2)" fill-rule="evenodd" stroke="none"/>
    </g>
    <g stroke-linecap="butt" transform="matrix(1,0,0,1,115,-552)" stroke-miterlimit="1.45">
      <path fill="none" d="M179.4373 786.5 L339.4373 786.5 L339.4373 801.5 L354.4373 801.5 L354.4373 814.5 L179.4373 814.5 Z" clip-path="url(#clipPath2)"/>
      <path fill="none" d="M339.4373 786.5 L339.4373 801.5 L354.4373 801.5 Z" fill-rule="evenodd" clip-path="url(#clipPath2)"/>
      <text x="214.1648" xml:space="preserve" y="804.9209" font-family="sans-serif" clip-path="url(#clipPath2)" stroke="none">Contexts FSM Ada</text>
    </g>
    <g fill="rgb(217,215,215)" transform="matrix(1,0,0,1,115,-552)" stroke="rgb(217,215,215)">
      <path d="M179.4373 828 L339.4373 828 L339.4373 843 L354.4373 843 L354.4373 856 L179.4373 856 Z" clip-path="url(#clipPath2)" stroke="none"/>
      <path fill="white" d="M339.4373 828 L339.4373 843 L354.4373 843 Z" clip-path="url(#clipPath2)" fill-rule="evenodd" stroke="none"/>
    </g>
    <g stroke-linecap="butt" transform="matrix(1,0,0,1,115,-552)" stroke-miterlimit="1.45">
      <path fill="none" d="M179.4373 828 L339.4373 828 L339.4373 843 L354.4373 843 L354.4373 856 L179.4373 856 Z" clip-path="url(#clipPath2)"/>
      <path fill="none" d="M339.4373 828 L339.4373 843 L354.4373 843 Z" fill-rule="evenodd" clip-path="url(#clipPath2)"/>
      <text x="205.326" xml:space="preserve" y="846.4209" font-family="sans-serif" clip-path="url(#clipPath2)" stroke="none">Contexts FSM graphs</text>
    </g>
    <g fill="rgb(217,215,215)" transform="matrix(1,0,0,1,115,-552)" stroke="rgb(217,215,215)">
      <path d="M179.4373 911 L339.4373 911 L339.4373 926 L354.4373 926 L354.4373 939 L179.4373 939 Z" clip-path="url(#clipPath2)" stroke="none"/>
      <path fill="white" d="M339.4373 911 L339.4373 926 L354.4373 926 Z" clip-path="url(#clipPath2)" fill-rule="evenodd" stroke="none"/>
    </g>
    <g stroke-linecap="butt" transform="matrix(1,0,0,1,115,-552)" stroke-miterlimit="1.45">
      <path fill="none" d="M179.4373 911 L339.4373 911 L339.4373 926 L354.4373 926 L354.4373 939 L179.4373 939 Z" clip-path="url(#clipPath2)"/>
      <path fill="none" d="M339.4373 911 L339.4373 926 L354.4373 926 Z" fill-rule="evenodd" clip-path="url(#clipPath2)"/>
      <text x="223.2381" xml:space="preserve" y="929.4209" font-family="sans-serif" clip-path="url(#clipPath2)" stroke="none">Exchanges TeX</text>
    </g>
    <g fill="rgb(217,215,215)" transform="matrix(1,0,0,1,115,-552)" stroke="rgb(217,215,215)">
      <path d="M179.4373 869.5 L339.4373 869.5 L339.4373 884.5 L354.4373 884.5 L354.4373 897.5 L179.4373 897.5 Z" clip-path="url(#clipPath2)" stroke="none"/>
      <path fill="white" d="M339.4373 869.5 L339.4373 884.5 L354.4373 884.5 Z" clip-path="url(#clipPath2)" fill-rule="evenodd" stroke="none"/>
    </g>
    <g stroke-linecap="butt" transform="matrix(1,0,0,1,115,-552)" stroke-miterlimit="1.45">
      <path fill="none" d="M179.4373 869.5 L339.4373 869.5 L339.4373 884.5 L354.4373 884.5 L354.4373 897.5 L179.4373 897.5 Z" clip-path="url(#clipPath2)"/>
      <path fill="none" d="M339.4373 869.5 L339.4373 884.5 L354.4373 884.5 Z" fill-rule="evenodd" clip-path="url(#clipPath2)"/>
      <text x="200.9344" xml:space="preserve" y="887.9209" font-family="sans-serif" clip-path="url(#clipPath2)" stroke="none">Types &amp; constants TeX</text>
    </g>
    <g fill="silver" transform="matrix(1,0,0,1,115,-552)" stroke="silver">
      <path d="M-99.1416 823.5 L-1.1416 823.5 L-1.1416 838.5 L13.8584 838.5 L13.8584 897.5 L-99.1416 897.5 Z" clip-path="url(#clipPath2)" stroke="none"/>
      <path fill="white" d="M-1.1416 823.5 L-1.1416 838.5 L13.8584 838.5 Z" clip-path="url(#clipPath2)" fill-rule="evenodd" stroke="none"/>
    </g>
    <g stroke-linecap="butt" transform="matrix(1,0,0,1,115,-552)" stroke-miterlimit="1.45">
      <path fill="none" d="M-99.1416 823.5 L-1.1416 823.5 L-1.1416 838.5 L13.8584 838.5 L13.8584 897.5 L-99.1416 897.5 Z" clip-path="url(#clipPath2)"/>
      <path fill="none" d="M-1.1416 823.5 L-1.1416 838.5 L13.8584 838.5 Z" fill-rule="evenodd" clip-path="url(#clipPath2)"/>
      <text x="-56.622" xml:space="preserve" y="864.9209" font-family="sans-serif" clip-path="url(#clipPath2)" stroke="none">XSLT</text>
    </g>
    <g fill="white" transform="matrix(1,0,0,1,115,-552)" stroke="white">
      <circle r="31" clip-path="url(#clipPath2)" cx="96.6479" cy="766.3795" stroke="none"/>
    </g>
    <g stroke-miterlimit="1.45" font-family="sans-serif" transform="matrix(1,0,0,1,115,-552)" stroke-linecap="butt">
      <text x="72.9408" xml:space="preserve" y="770.8004" clip-path="url(#clipPath2)" stroke="none">xsltproc</text>
      <circle fill="none" r="31" clip-path="url(#clipPath2)" cx="96.6479" cy="766.3795"/>
      <path fill="none" d="M13.8428 726.3235 L61.5398 749.3964" clip-path="url(#clipPath2)"/>
      <path d="M68.7415 752.8801 L60.1163 743.1536 L60.6396 748.9609 L55.7617 752.1556 Z" clip-path="url(#clipPath2)" stroke="none"/>
      <path fill="none" d="M12.1424 823.4814 L64.3336 788.2149" clip-path="url(#clipPath2)"/>
      <path d="M70.9621 783.7358 L58.2199 786.3116 L63.505 788.7748 L63.8187 794.5973 Z" clip-path="url(#clipPath2)" stroke="none"/>
      <path fill="none" d="M127.6479 766.3795 L159.4011 766.3795" clip-path="url(#clipPath2)"/>
      <path d="M167.4011 766.3795 L155.4011 761.3795 L158.4011 766.3795 L155.4011 771.3795 Z" clip-path="url(#clipPath2)" stroke="none"/>
    </g>
  </g>
</svg>
